<?xml version="1.0" encoding="UTF-8" standalone="no"?>
<!-- Created with Inkscape (http://www.inkscape.org/) -->

<svg
   xmlns:dc="http://purl.org/dc/elements/1.1/"
   xmlns:cc="http://creativecommons.org/ns#"
   xmlns:rdf="http://www.w3.org/1999/02/22-rdf-syntax-ns#"
   xmlns:svg="http://www.w3.org/2000/svg"
   xmlns="http://www.w3.org/2000/svg"
   xmlns:xlink="http://www.w3.org/1999/xlink"
   xmlns:sodipodi="http://sodipodi.sourceforge.net/DTD/sodipodi-0.dtd"
   xmlns:inkscape="http://www.inkscape.org/namespaces/inkscape"
   width="31.101284"
   height="8.6875563"
   id="svg2"
   sodipodi:version="0.32"
   inkscape:version="0.48.2 r9819"
   sodipodi:docname="jean_victor_balin_remove.svg"
   inkscape:export-filename="/home/matthieu/Bureau/Matthieu/Programmation/Lazarus Delphi/Extended/ressources/boutons/tfwdelete.png"
   inkscape:export-xdpi="72.517517"
   inkscape:export-ydpi="72.517517"
   inkscape:output_extension="org.inkscape.output.svg.inkscape"
   version="1.0">
  <defs
     id="defs4">
    <linearGradient
       id="linearGradient1378">
      <stop
         style="stop-color:#b0ffa5;stop-opacity:1.0000000;"
         offset="0.0000000"
         id="stop1380" />
      <stop
         style="stop-color:#26bc14;stop-opacity:0.44705883;"
         offset="1.0000000"
         id="stop1382" />
    </linearGradient>
    <linearGradient
       id="linearGradient1365">
      <stop
         id="stop1367"
         offset="0.0000000"
         style="stop-color:#24f00a;stop-opacity:1.0000000;" />
      <stop
         id="stop1370"
         offset="1.0000000"
         style="stop-color:#0b6400;stop-opacity:1.0000000;" />
    </linearGradient>
    <linearGradient
       id="linearGradient1352">
      <stop
         style="stop-color:#179807;stop-opacity:1.0000000;"
         offset="0.0000000"
         id="stop1354" />
      <stop
         style="stop-color:#0b5102;stop-opacity:1.0000000;"
         offset="1.0000000"
         id="stop1356" />
    </linearGradient>
    <linearGradient
       inkscape:collect="always"
       xlink:href="#linearGradient1378"
       id="linearGradient1385"
       gradientUnits="userSpaceOnUse"
       gradientTransform="matrix(0.58147,-0.58147,0.58147,0.58147,-5.214087,32)"
       x1="32.682953"
       y1="19.206007"
       x2="27.46896"
       y2="49.282398" />
    <linearGradient
       inkscape:collect="always"
       xlink:href="#linearGradient1365"
       id="linearGradient1388"
       gradientUnits="userSpaceOnUse"
       gradientTransform="matrix(0.58147,-0.58147,0.58147,0.58147,-5.209158,32)"
       x1="36.463844"
       y1="6.1829467"
       x2="27.573986"
       y2="57.789398" />
    <linearGradient
       inkscape:collect="always"
       xlink:href="#linearGradient1352"
       id="linearGradient1392"
       gradientUnits="userSpaceOnUse"
       gradientTransform="matrix(0.58147,-0.58147,0.58147,0.58147,-5.214609,32.00115)"
       x1="36.304314"
       y1="6.206079"
       x2="27.493591"
       y2="57.587868" />
    <linearGradient
       inkscape:collect="always"
       xlink:href="#linearGradient1352"
       id="linearGradient2452"
       gradientUnits="userSpaceOnUse"
       gradientTransform="matrix(0.58147,-0.58147,0.58147,0.58147,-5.214609,32.00115)"
       x1="36.304314"
       y1="6.206079"
       x2="27.493591"
       y2="57.587868" />
    <linearGradient
       inkscape:collect="always"
       xlink:href="#linearGradient1365"
       id="linearGradient2454"
       gradientUnits="userSpaceOnUse"
       gradientTransform="matrix(0.58147,-0.58147,0.58147,0.58147,-5.209158,32)"
       x1="36.463844"
       y1="6.1829467"
       x2="27.573986"
       y2="57.789398" />
    <linearGradient
       inkscape:collect="always"
       xlink:href="#linearGradient1378"
       id="linearGradient2456"
       gradientUnits="userSpaceOnUse"
       gradientTransform="matrix(0.58147,-0.58147,0.58147,0.58147,-5.214087,32)"
       x1="32.682953"
       y1="19.206007"
       x2="27.46896"
       y2="49.282398" />
  </defs>
  <sodipodi:namedview
     id="base"
     pagecolor="#ffffff"
     bordercolor="#666666"
     borderopacity="1.0"
     inkscape:pageopacity="0.0"
     inkscape:pageshadow="2"
     inkscape:zoom="13.333333"
     inkscape:cx="9.1756496"
     inkscape:cy="4.3437781"
     inkscape:document-units="px"
     inkscape:current-layer="layer1"
     showgrid="false"
     inkscape:grid-bbox="true"
     inkscape:grid-points="true"
     inkscape:window-width="1156"
     inkscape:window-height="693"
     inkscape:window-x="66"
     inkscape:window-y="66"
     showguides="false"
     fit-margin-top="0"
     fit-margin-left="0"
     fit-margin-right="0"
     fit-margin-bottom="0"
     inkscape:window-maximized="0">
    <inkscape:grid
       id="GridFromPre046Settings"
       type="xygrid"
       originx="0px"
       originy="0px"
       spacingx="1px"
       spacingy="1px"
       color="#0000ff"
       empcolor="#0000ff"
       opacity="0.2"
       empopacity="0.4"
       empspacing="4"
       visible="true"
       enabled="true"
       snapvisiblegridlinesonly="true" />
  </sodipodi:namedview>
  <metadata
     id="metadata7">
    <rdf:RDF>
      <cc:Work
         rdf:about="">
        <dc:format>image/svg+xml</dc:format>
        <dc:type
           rdf:resource="http://purl.org/dc/dcmitype/StillImage" />
        <dc:title>Remove</dc:title>
        <dc:date>2005-10-30</dc:date>
        <dc:creator>
          <cc:Agent>
            <dc:title>Jean-Victor Balin</dc:title>
          </cc:Agent>
        </dc:creator>
        <dc:description>jean.victor.balin@gmail.com</dc:description>
        <cc:license
           rdf:resource="http://creativecommons.org/licenses/publicdomain/" />
        <dc:subject>
          <rdf:Bag>
            <rdf:li>icon</rdf:li>
            <rdf:li>moins</rdf:li>
            <rdf:li>remove</rdf:li>
          </rdf:Bag>
        </dc:subject>
        <dc:language>fr-FR</dc:language>
      </cc:Work>
      <cc:License
         rdf:about="http://creativecommons.org/licenses/publicdomain/">
        <cc:permits
           rdf:resource="http://creativecommons.org/ns#Reproduction" />
        <cc:permits
           rdf:resource="http://creativecommons.org/ns#Distribution" />
        <cc:permits
           rdf:resource="http://creativecommons.org/ns#DerivativeWorks" />
      </cc:License>
    </rdf:RDF>
  </metadata>
  <g
     inkscape:label="Calque 1"
     inkscape:groupmode="layer"
     id="layer1"
     transform="translate(-0.49935038,-13.656222)">
    <g
       id="g2447"
       transform="matrix(0.88857547,0,0,1,-12.383861,-14.000017)">
      <path
         sodipodi:nodetypes="csccsccsccscc"
         id="path1349"
         d="m 15.5625,27.65625 c -0.279832,-0.0013 -0.552126,0.114626 -0.75,0.3125 -0.197874,0.197874 -0.313812,0.470167 -0.3125,0.75 l 0,6.5625 c -0.0017,0.03424 -0.0017,0.09076 0,0.125 0.05084,0.542534 0.517612,0.942428 1.0625,0.9375 l 32.875,0 c 0.279834,0.0013 0.552126,-0.114626 0.75,-0.3125 0.197873,-0.197873 0.313813,-0.470168 0.3125,-0.75 l 0,-6.5625 c 0.0013,-0.279833 -0.114626,-0.552126 -0.3125,-0.75 -0.197875,-0.197874 -0.470167,-0.313814 -0.75,-0.3125 l -32.875,0 z"
         style="fill:url(#linearGradient2452);fill-opacity:1;stroke:none"
         inkscape:connector-curvature="0" />
      <path
         sodipodi:nodetypes="cscccccccc"
         id="path1468"
         d="m 16.21875,28.46875 c -0.312026,-0.0071 -0.610418,0.145048 -0.78125,0.40625 -0.0867,0.148461 -0.131634,0.328206 -0.125,0.5 l 0,5.25 c 0.0023,0.49554 0.410709,0.903906 0.90625,0.90625 l 31.5625,0 c 0.49554,-0.0023 0.903906,-0.410709 0.90625,-0.90625 l 0,-5.25 c -0.0023,-0.495542 -0.41071,-0.903906 -0.90625,-0.90625 l -31.5625,0 z"
         style="fill:url(#linearGradient2454);fill-opacity:1;stroke:none"
         inkscape:connector-curvature="0" />
      <path
         sodipodi:nodetypes="cssccssccssccsscc"
         id="path1472"
         d="m 16.21875,29.125 c -0.04384,0.0021 -0.08865,0.0067 -0.125,0.03125 -0.04376,0.02273 -0.102269,0.05 -0.125,0.09375 -0.01422,0.03214 -7.65e-4,0.08986 0,0.125 l 0,5.25 c 0.0021,0.04384 0.0067,0.08865 0.03125,0.125 0.02273,0.04375 0.05,0.102269 0.09375,0.125 0.03214,0.01422 0.08986,7.65e-4 0.125,0 l 31.5625,0 c 0.04384,-0.0021 0.08865,-0.0067 0.125,-0.03125 0.04375,-0.02273 0.102268,-0.05 0.125,-0.09375 0.01422,-0.03214 7.65e-4,-0.08986 0,-0.125 l 0,-5.25 C 48.02915,29.33116 48.02455,29.28635 48,29.25 c -0.02273,-0.04375 -0.05,-0.102269 -0.09375,-0.125 -0.03214,-0.01422 -0.08986,-7.65e-4 -0.125,0 l -31.5625,0 z"
         style="fill:url(#linearGradient2456);fill-opacity:1;stroke:none"
         inkscape:connector-curvature="0" />
    </g>
  </g>
</svg>
