<?xml version="1.0" encoding="UTF-8" standalone="no"?>
<!-- Created with Inkscape (http://www.inkscape.org/) -->

<svg
   xmlns:dc="http://purl.org/dc/elements/1.1/"
   xmlns:cc="http://creativecommons.org/ns#"
   xmlns:rdf="http://www.w3.org/1999/02/22-rdf-syntax-ns#"
   xmlns:svg="http://www.w3.org/2000/svg"
   xmlns="http://www.w3.org/2000/svg"
   xmlns:sodipodi="http://sodipodi.sourceforge.net/DTD/sodipodi-0.dtd"
   xmlns:inkscape="http://www.inkscape.org/namespaces/inkscape"
   id="svg3245"
   sodipodi:docname="mystica-Arrow-set-Bulb-1.svg"
   inkscape:export-filename="/home/matthieu/Bureau/Matthieu/Programmation/Lazarus-Delphi/Extended/ressources/boutons/Images/tfwoutselectv.png"
   viewBox="0 0 129.04941 130.21936"
   sodipodi:version="0.32"
   inkscape:export-xdpi="27.645658"
   version="1.0"
   inkscape:output_extension="org.inkscape.output.svg.inkscape"
   inkscape:export-ydpi="27.645658"
   inkscape:version="0.91 r"
   width="129.04941"
   height="130.21936">
  <defs
     id="defs3247">
    <filter
       id="filter3241"
       inkscape:collect="always">
      <feGaussianBlur
         id="feGaussianBlur3243"
         stdDeviation="2.7632695"
         inkscape:collect="always" />
    </filter>
  </defs>
  <sodipodi:namedview
     id="base"
     bordercolor="#666666"
     inkscape:pageshadow="2"
     guidetolerance="10"
     pagecolor="#ffffff"
     gridtolerance="10000"
     inkscape:window-height="838"
     inkscape:zoom="0.7"
     objecttolerance="10"
     showgrid="false"
     borderopacity="1.0"
     inkscape:current-layer="layer1"
     inkscape:cx="-629.04404"
     inkscape:cy="230.82329"
     showguides="true"
     inkscape:window-y="0"
     inkscape:window-x="0"
     inkscape:window-width="1152"
     inkscape:guide-bbox="true"
     inkscape:pageopacity="0.0"
     inkscape:document-units="px"
     fit-margin-top="0"
     fit-margin-left="0"
     fit-margin-right="0"
     fit-margin-bottom="0"
     inkscape:window-maximized="0" />
  <g
     id="layer1"
     inkscape:label="Layer 1"
     inkscape:groupmode="layer"
     transform="translate(-203.83752,-403.68532)">
    <g
       id="g3319"
       transform="matrix(1.0321349,0,0,0.67309352,-8.6237974,173.44493)">
      <path
         id="path3300"
         d="m 293.68,495.74 c 39.35,6.03 74.6,7.16 108.3,0 l -6.36,26.16 c 22.96,-14.11 54.77,-29.9 59.28,-51.61 -4.26,-21.89 -38.46,-34.81 -61.17,-47.47 l 7.78,24.13 c -34.79,-10.8 -70.93,-7.96 -107.59,0 l -0.24,48.79 z"
         sodipodi:nodetypes="cccccccc"
         style="fill:#4569ff;fill-rule:evenodd;stroke:#565eff;stroke-width:5.80000019;filter:url(#filter3241)"
         transform="matrix(0,1,1,0,-200.93,64.505)"
         inkscape:connector-curvature="0" />
      <g
         id="g3292"
         transform="matrix(1,0,0,-1,-140.36,860.44)">
        <path
           id="path3294"
           sodipodi:nodetypes="ccccccccc"
           style="fill:#4569ff;fill-rule:evenodd"
           d="m 357.58,406.47 22.09,-7.12 c -9.89,31.85 -7.29,74.14 0,107.71 l 22.21,0.11 c -0.03,-6.98 -0.06,-25.95 -0.06,-58.17 l 0,-31.08 c 0,-32.16 0.03,-51.01 0.06,-58.06 -0.28,-0.06 -0.3,-9.42 -0.83,-8.72 -20.04,3.89 -31.88,34.53 -43.47,55.33 z"
           inkscape:connector-curvature="0" />
        <path
           id="path3296"
           sodipodi:nodetypes="ccccccccc"
           style="fill:#0029d0;fill-rule:evenodd"
           d="m 401.05,350.8 c 0.02,8.81 0.05,33.49 0.05,63.7 l 0,45.7 c 0,26.02 -0.01,35.58 -0.03,46.95 l 24.67,0.12 c 7.66,-41.04 10.12,-71.09 0,-107.67 l 23.98,5.84 c -12.68,-23.03 -18.59,-30.77 -31.62,-45.62 -10.17,-7.95 -16.59,-9.15 -17.05,-9.02 z"
           inkscape:connector-curvature="0" />
        <path
           id="path3298"
           sodipodi:nodetypes="cccccccc"
           style="fill:none;stroke:#000000;stroke-width:5.80000019"
           d="m 427.67,509.4 c 8.16,-39.35 10.72,-74.6 0,-108.31 l 26.16,6.37 c -14.12,-22.97 -29.9,-54.78 -51.62,-59.28 -21.89,4.26 -36.95,40.6 -49.61,63.31 l 26.28,-9.92 c -10.81,34.78 -7.97,70.93 0,107.59 l 48.79,0.24 z"
           inkscape:connector-curvature="0" />
      </g>
    </g>
  </g>
  <metadata
     id="metadata14">
    <rdf:RDF>
      <cc:Work>
        <dc:format>image/svg+xml</dc:format>
        <dc:type
           rdf:resource="http://purl.org/dc/dcmitype/StillImage" />
        <cc:license
           rdf:resource="http://creativecommons.org/publicdomain/zero/1.0/" />
        <dc:publisher>
          <cc:Agent
             rdf:about="http://openclipart.org/">
            <dc:title>Openclipart</dc:title>
          </cc:Agent>
        </dc:publisher>
        <dc:title>Arrow set (Bulb)</dc:title>
        <dc:date>2008-02-25T14:59:24</dc:date>
        <dc:description>One more arrow set... well what can i say... it´s fun to do arrows set.. ;-)</dc:description>
        <dc:source>https://openclipart.org/detail/14871/arrow-set-(bulb)-by-mystica-14871</dc:source>
        <dc:creator>
          <cc:Agent>
            <dc:title>mystica</dc:title>
          </cc:Agent>
        </dc:creator>
        <dc:subject>
          <rdf:Bag>
            <rdf:li>arrow</rdf:li>
            <rdf:li>arrows</rdf:li>
            <rdf:li>sign</rdf:li>
          </rdf:Bag>
        </dc:subject>
      </cc:Work>
      <cc:License
         rdf:about="http://creativecommons.org/publicdomain/zero/1.0/">
        <cc:permits
           rdf:resource="http://creativecommons.org/ns#Reproduction" />
        <cc:permits
           rdf:resource="http://creativecommons.org/ns#Distribution" />
        <cc:permits
           rdf:resource="http://creativecommons.org/ns#DerivativeWorks" />
      </cc:License>
    </rdf:RDF>
  </metadata>
</svg>
