<?xml version="1.0" encoding="UTF-8" standalone="no"?>
<!-- Created with Inkscape (http://www.inkscape.org/) -->

<svg
   xmlns:dc="http://purl.org/dc/elements/1.1/"
   xmlns:cc="http://creativecommons.org/ns#"
   xmlns:rdf="http://www.w3.org/1999/02/22-rdf-syntax-ns#"
   xmlns:svg="http://www.w3.org/2000/svg"
   xmlns="http://www.w3.org/2000/svg"
   xmlns:xlink="http://www.w3.org/1999/xlink"
   xmlns:sodipodi="http://sodipodi.sourceforge.net/DTD/sodipodi-0.dtd"
   xmlns:inkscape="http://www.inkscape.org/namespaces/inkscape"
   width="938"
   height="1514"
   id="svg6104"
   sodipodi:version="0.32"
   inkscape:version="0.48.2 r9819"
   version="1.0"
   sodipodi:docname="rg1024_Door.svg"
   inkscape:output_extension="org.inkscape.output.svg.inkscape"
   inkscape:export-filename="/home/matthieu/Bureau/Matthieu/Programmation/Lazarus Delphi/Extended/ressources/boutons/tfwclose.png"
   inkscape:export-xdpi="1.4392325"
   inkscape:export-ydpi="1.4392325">
  <defs
     id="defs6106">
    <pattern
       inkscape:collect="always"
       xlink:href="#pattern4480"
       id="pattern4511"
       patternTransform="translate(-106.22453,-592.47456)" />
    <linearGradient
       inkscape:collect="always"
       id="linearGradient4503">
      <stop
         style="stop-color:#2e3436;stop-opacity:1;"
         offset="0"
         id="stop4505" />
      <stop
         style="stop-color:#2e3436;stop-opacity:0;"
         offset="1"
         id="stop4507" />
    </linearGradient>
    <linearGradient
       id="linearGradient4491">
      <stop
         style="stop-color:#eeeeec;stop-opacity:1;"
         offset="0"
         id="stop4493" />
      <stop
         style="stop-color:#eeeeec;stop-opacity:0;"
         offset="1"
         id="stop4495" />
    </linearGradient>
    <pattern
       inkscape:collect="always"
       xlink:href="#pattern4480"
       id="pattern4487"
       patternTransform="translate(-106.2245,-592.47456)" />
    <filter
       inkscape:collect="always"
       id="filter4316"
       color-interpolation-filters="sRGB">
      <feGaussianBlur
         inkscape:collect="always"
         stdDeviation="0.76462936"
         id="feGaussianBlur4318" />
    </filter>
    <linearGradient
       inkscape:collect="always"
       id="linearGradient3484">
      <stop
         style="stop-color:#eeeeec;stop-opacity:1;"
         offset="0"
         id="stop3486" />
      <stop
         style="stop-color:#eeeeec;stop-opacity:0;"
         offset="1"
         id="stop3488" />
    </linearGradient>
    <linearGradient
       inkscape:collect="always"
       xlink:href="#linearGradient3484"
       id="linearGradient3658"
       gradientUnits="userSpaceOnUse"
       x1="27.01741"
       y1="278.12958"
       x2="27.01741"
       y2="263.04044"
       gradientTransform="matrix(2.8284819,0,0,-2.8284819,216.36546,774.57702)" />
    <linearGradient
       inkscape:collect="always"
       id="linearGradient3496">
      <stop
         style="stop-color:#888a85;stop-opacity:1;"
         offset="0"
         id="stop3498" />
      <stop
         style="stop-color:#888a85;stop-opacity:0;"
         offset="1"
         id="stop3500" />
    </linearGradient>
    <linearGradient
       inkscape:collect="always"
       xlink:href="#linearGradient3496"
       id="linearGradient3655"
       gradientUnits="userSpaceOnUse"
       x1="21.577452"
       y1="179.84175"
       x2="31.573484"
       y2="196.63553"
       gradientTransform="matrix(2.8284819,0,0,-2.8284819,214.2441,773.6883)" />
    <linearGradient
       inkscape:collect="always"
       id="linearGradient3435">
      <stop
         style="stop-color:#ffffff;stop-opacity:1;"
         offset="0"
         id="stop3437" />
      <stop
         style="stop-color:#ffffff;stop-opacity:0;"
         offset="1"
         id="stop3439" />
    </linearGradient>
    <linearGradient
       inkscape:collect="always"
       xlink:href="#linearGradient3435"
       id="linearGradient3630"
       gradientUnits="userSpaceOnUse"
       x1="16.545601"
       y1="170.49188"
       x2="23.877354"
       y2="170.49188" />
    <linearGradient
       inkscape:collect="always"
       xlink:href="#linearGradient3262"
       id="linearGradient3628"
       gradientUnits="userSpaceOnUse"
       gradientTransform="matrix(0.966049,-0.2583588,0.2583588,0.966049,-48.589085,13.342327)"
       x1="26.375"
       y1="191.5625"
       x2="27.125"
       y2="191.5625" />
    <linearGradient
       inkscape:collect="always"
       xlink:href="#linearGradient3372"
       id="linearGradient3626"
       gradientUnits="userSpaceOnUse"
       x1="25.023052"
       y1="192.0784"
       x2="29.866112"
       y2="192.0784" />
    <linearGradient
       inkscape:collect="always"
       xlink:href="#linearGradient3344"
       id="linearGradient3624"
       gradientUnits="userSpaceOnUse"
       x1="31.340328"
       y1="192.75645"
       x2="24.498102"
       y2="190.04425" />
    <linearGradient
       id="linearGradient3262">
      <stop
         style="stop-color:#2e3436;stop-opacity:1;"
         offset="0"
         id="stop3264" />
      <stop
         style="stop-color:#e1deda;stop-opacity:1;"
         offset="1"
         id="stop3266" />
    </linearGradient>
    <linearGradient
       inkscape:collect="always"
       xlink:href="#linearGradient3262"
       id="linearGradient3622"
       gradientUnits="userSpaceOnUse"
       x1="26.375"
       y1="191.5625"
       x2="27.125"
       y2="191.5625" />
    <linearGradient
       inkscape:collect="always"
       id="linearGradient3372">
      <stop
         style="stop-color:#ffffff;stop-opacity:1;"
         offset="0"
         id="stop3374" />
      <stop
         style="stop-color:#ffffff;stop-opacity:0;"
         offset="1"
         id="stop3376" />
    </linearGradient>
    <linearGradient
       inkscape:collect="always"
       xlink:href="#linearGradient3372"
       id="linearGradient3620"
       gradientUnits="userSpaceOnUse"
       x1="25.023052"
       y1="192.0784"
       x2="29.866112"
       y2="192.0784" />
    <linearGradient
       id="linearGradient3344">
      <stop
         style="stop-color:#9faaaa;stop-opacity:1;"
         offset="0"
         id="stop3346" />
      <stop
         style="stop-color:#424b4b;stop-opacity:1;"
         offset="1"
         id="stop3348" />
    </linearGradient>
    <linearGradient
       inkscape:collect="always"
       xlink:href="#linearGradient3344"
       id="linearGradient3618"
       gradientUnits="userSpaceOnUse"
       x1="31.340328"
       y1="192.75645"
       x2="24.498102"
       y2="190.04425" />
    <filter
       inkscape:collect="always"
       id="filter3540"
       x="-0.25294256"
       width="1.5058851"
       y="-0.015475573"
       height="1.0309511"
       color-interpolation-filters="sRGB">
      <feGaussianBlur
         inkscape:collect="always"
         stdDeviation="0.58295356"
         id="feGaussianBlur3542" />
    </filter>
    <filter
       inkscape:collect="always"
       id="filter4364"
       color-interpolation-filters="sRGB">
      <feGaussianBlur
         inkscape:collect="always"
         stdDeviation="0.31157734"
         id="feGaussianBlur4366" />
    </filter>
    <linearGradient
       id="linearGradient3548">
      <stop
         style="stop-color:#9faaaa;stop-opacity:1;"
         offset="0"
         id="stop3550" />
      <stop
         id="stop3556"
         offset="0.33570424"
         style="stop-color:#fffffa;stop-opacity:0.82119203;" />
      <stop
         style="stop-color:#9faaaa;stop-opacity:1;"
         offset="0.82330805"
         id="stop3558" />
      <stop
         style="stop-color:#ffffff;stop-opacity:1;"
         offset="1"
         id="stop3552" />
    </linearGradient>
    <linearGradient
       inkscape:collect="always"
       xlink:href="#linearGradient3548"
       id="linearGradient3664"
       gradientUnits="userSpaceOnUse"
       gradientTransform="matrix(2.8284819,0,0,2.8284819,215.07256,-521.37657)"
       x1="52.414291"
       y1="208.51862"
       x2="52.414291"
       y2="217.62262" />
    <inkscape:perspective
       sodipodi:type="inkscape:persp3d"
       inkscape:vp_x="0 : 526.18109 : 1"
       inkscape:vp_y="0 : 1000 : 0"
       inkscape:vp_z="744.09448 : 526.18109 : 1"
       inkscape:persp3d-origin="372.04724 : 350.78739 : 1"
       id="perspective6112" />
    <linearGradient
       inkscape:collect="always"
       xlink:href="#linearGradient3344"
       id="linearGradient6187"
       gradientUnits="userSpaceOnUse"
       x1="31.340328"
       y1="192.75645"
       x2="24.498102"
       y2="190.04425" />
    <linearGradient
       inkscape:collect="always"
       xlink:href="#linearGradient3372"
       id="linearGradient6189"
       gradientUnits="userSpaceOnUse"
       x1="25.023052"
       y1="192.0784"
       x2="29.866112"
       y2="192.0784" />
    <linearGradient
       inkscape:collect="always"
       xlink:href="#linearGradient3262"
       id="linearGradient6191"
       gradientUnits="userSpaceOnUse"
       x1="26.375"
       y1="191.5625"
       x2="27.125"
       y2="191.5625" />
    <pattern
       patternUnits="userSpaceOnUse"
       width="154"
       height="1514"
       patternTransform="translate(-106.22453,-589.47456)"
       id="pattern4480">
      <path
         id="path3164"
         d="M 154,0 L 147.40222,0 C 146.76679,20.63796 146.22999,41.28143 145.98564,62.00227 C 145.73413,79.49595 145.53193,97.02595 145.34526,114.52932 C 144.38385,90.17608 143.38083,65.80363 141.27016,42.16154 C 141.16061,40.93437 141.03951,39.44454 140.88206,37.83728 C 141.08025,25.22092 141.25744,12.61484 141.46422,0 L 131.76159,0 C 132.20271,1.90666 132.63658,3.8304 132.94531,5.91407 C 133.36733,8.76234 133.75422,11.64158 134.12903,14.56258 C 133.99116,22.45913 133.84727,30.32276 133.70212,38.21883 C 133.10195,81.50178 133.24801,124.86546 132.49899,168.13743 C 131.67932,215.00999 130.54342,261.82105 128.94783,308.48513 C 127.88383,355.13283 127.51045,401.88255 126.69682,448.57846 C 125.33682,511.86234 123.73837,575.05853 122.64113,638.40079 C 122.534,643.86181 122.43409,649.34567 122.33064,654.80754 C 122.18158,649.50089 122.00325,644.21137 121.82611,638.90953 C 120.42425,596.91552 118.83409,554.94443 118.39138,512.67927 C 117.70733,461.66345 118.1156,410.59267 118.33316,359.54956 C 118.61804,316.40251 118.86771,273.22574 119.10937,230.07611 C 119.58162,178.00477 120.25399,125.85019 122.79637,74.33913 C 124.14582,49.37742 125.71908,24.4895 127.7059,0 L 121.67087,0 C 120.19812,19.89728 118.95621,39.98478 117.90625,60.15809 C 115.70361,111.4817 114.66697,163.22871 113.75353,214.9412 C 112.91948,258.06944 112.89706,301.2863 112.97731,344.47824 C 113.21899,395.6405 112.90843,446.8291 113.09375,497.9895 C 113.03434,540.07874 114.50142,581.81384 116.17918,623.45665 C 117.42802,657.73943 118.52208,692.16159 119.01235,726.66659 C 119.23314,742.20586 119.33389,773.62602 119.40045,788.73244 C 119.55334,861.05824 117.93077,933.2857 116.37323,1005.3906 C 114.90548,1074.3154 113.03057,1143.2068 112.20111,1212.2556 C 111.51708,1261.9343 112.68408,1311.5714 113.59828,1361.1247 C 114.21756,1412.1262 115.02896,1463.0366 115.88811,1514 L 124.05771,1514 C 124.1948,1503.3329 124.35461,1492.6671 124.58165,1482.0132 C 124.6436,1478.2389 124.68151,1474.469 124.73689,1470.6938 C 124.80685,1472.3041 124.87878,1473.9171 124.95035,1475.5268 C 125.51331,1488.3578 126.11504,1501.2031 126.75504,1514 L 129.87929,1514 C 129.31443,1504.1707 128.76886,1494.3333 128.24925,1484.4933 C 127.1465,1463.6535 126.20359,1442.7396 125.37727,1421.7915 C 125.56623,1405.8764 125.75443,1390.0025 126.01764,1374.0974 C 126.37031,1350.3843 126.72821,1326.6244 127.22076,1302.9379 C 127.30369,1307.9765 127.39901,1312.9713 127.49243,1318.0092 C 128.51514,1372.8311 129.17004,1427.7537 130.13155,1482.5855 C 130.36467,1493.0832 130.65431,1503.522 130.94658,1514 L 135.68145,1514 C 135.50208,1508.1525 135.32416,1502.3006 135.15751,1496.4486 C 133.88064,1441.3662 133.34927,1386.1547 132.18851,1331.0456 C 131.35391,1285.1482 130.79145,1239.2016 130.96597,1193.2416 C 133.54323,1137.2221 136.451,1081.3767 138.01008,1024.9134 C 140.25075,953.1994 141.08782,881.17724 140.59097,809.0819 C 140.43963,743.41075 140.1373,677.73899 139.83417,612.07367 C 140.99287,573.66421 142.31847,535.2839 143.81224,496.97203 C 144.06481,489.97448 144.31728,482.98713 144.56905,475.98664 C 144.58336,509.83307 144.59889,543.69694 144.62727,577.54318 C 144.63639,616.57585 144.56738,655.58369 144.58846,694.61618 C 144.20543,717.29163 143.842,739.96178 143.57939,762.6597 C 143.22891,804.55572 142.4453,846.40082 142.31804,888.31763 C 142.25872,907.85891 142.44813,927.67326 142.58972,947.20388 C 143.32456,1009.3578 143.70223,1071.5884 143.88987,1133.783 C 143.7943,1186.8882 144.09626,1239.9626 145.19002,1292.954 C 146.21589,1333.1265 146.93661,1373.378 147.44103,1413.6517 C 147.83734,1444.4173 148.06989,1475.1952 147.98438,1505.9874 C 148.01511,1508.6614 148.04552,1511.3271 148.062,1514 L 154,1514 L 154,1452.888 C 153.90918,1445.5578 153.80266,1438.2103 153.67011,1430.8852 C 153.41721,1418.5939 153.13816,1406.344 152.83568,1394.0654 C 152.90475,1365.6302 152.97821,1337.1553 152.91331,1308.7248 C 152.88291,1295.4114 152.42606,1235.0139 152.33115,1221.7308 C 151.52721,1135.15 151.22752,1048.5515 150.60408,961.95725 C 150.09709,899.31472 149.82467,836.63728 149.57561,773.97909 C 149.2961,733.28913 149.07973,692.57745 148.91583,651.88231 C 149.31752,618.6086 149.70058,585.3832 150.08014,552.10635 C 150.87748,490.81703 152.08994,429.59243 154,368.57964 L 154,191.15776 C 153.52809,229.31449 152.81386,267.45421 151.98186,305.5599 C 150.5566,352.7023 149.50463,399.90752 148.62474,447.17943 C 148.62956,428.50846 148.6366,409.82562 148.66356,391.15482 C 148.86177,336.03737 148.76534,280.90697 149.36215,225.81544 C 150.14143,176.18801 150.28741,126.41754 151.22505,76.81922 C 151.58433,53.25049 152.79688,30.07315 154,6.86795 L 154,0 z M 149.98311,1286.5312 C 148.97704,1239.7894 148.43607,1192.9812 148.31427,1146.1199 C 147.96013,1084.0647 147.54008,1021.9752 147.14995,959.9223 C 147.06829,948.25461 147.01803,936.61433 146.9753,924.94666 C 147.1311,934.33977 147.28101,943.72522 147.44103,953.11795 C 147.84948,979.63582 148.36953,1009.9528 148.60534,1036.4236 C 149.13318,1095.6775 149.12172,1154.972 149.65323,1214.227 C 149.81178,1238.3179 149.90858,1262.4395 149.98311,1286.5312 z M 144.18095,291.95119 C 144.17716,293.36902 144.18563,294.7941 144.18095,296.21186 C 143.80134,359.63504 142.00178,422.76592 139.89239,485.77982 C 139.68903,491.36041 139.48941,496.92278 139.29083,502.50454 C 138.96657,444.28995 138.64861,386.09768 138.74748,327.88071 C 138.93495,248.45359 139.18657,168.9742 140.14466,89.60123 C 140.52057,96.96633 140.87908,104.3346 141.23135,111.73126 C 142.97601,153.77814 143.79302,196.11149 144.08392,238.47026 C 144.06305,256.29399 144.10272,274.12578 144.18095,291.95119 z M 137.25328,813.02461 C 137.38846,880.13767 136.32975,947.12199 134.14844,1013.8484 C 133.62652,1031.6361 132.97098,1049.3779 132.24672,1067.0749 C 132.78436,1024.689 133.45306,982.36183 134.28427,940.01797 C 135.1491,866.36225 136.00639,792.64973 137.13684,719.03553 C 137.16418,745.8976 137.18445,772.74522 137.21446,799.60669 C 137.23403,804.0818 137.24427,808.55042 137.25328,813.02461 z M 136.76814,579.13298 C 135.55429,619.22519 134.52351,659.32936 133.81854,699.57636 C 132.8099,776.47596 131.95701,853.40157 130.84955,930.28839 C 129.64496,1000.848 128.13253,1071.319 127.18196,1141.9228 C 126.84675,1158.3399 126.64486,1174.7904 126.54158,1191.2067 C 126.19799,1198.6688 125.85857,1206.121 125.53251,1213.5911 C 124.36805,1243.3936 123.02843,1273.1418 121.82611,1302.9379 C 121.08861,1269.7435 120.50587,1236.5175 119.98261,1203.2892 C 119.10678,1136.3371 119.44607,1069.3433 120.04083,1002.4018 C 121.69149,935.23493 123.36834,868.01867 123.6308,800.62416 C 123.73785,781.88715 123.76726,763.13636 123.68901,744.40877 C 124.39236,712.25851 125.17851,680.11682 126.01764,648.00319 C 127.37266,585.96904 129.82532,524.29582 131.54814,462.37794 C 132.88434,416.28576 133.50394,370.07413 134.36189,323.87442 C 135.02494,300.26651 135.71014,276.64968 136.32182,253.03284 C 136.13278,275.20444 135.95887,297.37544 135.79788,319.55015 C 135.14435,399.91919 136.13941,480.28341 136.65172,560.62769 C 136.68951,566.79158 136.73627,572.96888 136.76814,579.13298 z M 120.50655,1337.2776 C 120.50794,1337.3408 120.50516,1337.4053 120.50655,1337.4684 C 120.28139,1343.8415 120.08503,1350.2272 119.88559,1356.6096 C 119.4195,1372.6865 119.25085,1388.8133 119.16759,1404.9396 C 119.05277,1395.148 118.93752,1385.3559 118.8377,1375.5601 C 118.08546,1325.4093 116.7716,1275.3499 116.76134,1225.1012 C 116.72235,1184.2185 117.18214,1143.3641 117.88684,1102.5593 C 117.87464,1134.532 117.94879,1166.4888 118.23614,1198.4561 C 118.82299,1244.7449 119.48841,1291.0529 120.50655,1337.2776 z M 114.3939,1514 C 114.2293,1502.8539 113.98453,1491.7202 113.6371,1480.6142 C 112.76401,1448.7779 111.21586,1417.2597 109.62021,1385.7348 C 107.94753,1344.7618 105.82983,1303.8717 105.64214,1262.4298 C 104.98363,1209.2421 104.75089,1156.0625 105.68095,1102.8773 C 106.46141,1047.7998 107.98883,992.87433 108.68876,937.79225 C 109.54583,880.27208 110.04188,822.73996 109.81427,765.13979 C 109.7374,699.83708 109.00308,634.52011 109.69783,569.21262 C 110.1405,487.10315 110.79956,405.05939 111.65776,322.98412 C 112.34913,235.97556 111.78964,148.95531 110.64868,62.00227 C 110.35476,41.44099 110.09033,20.82194 109.75604,0.25437 C 109.76391,0.16996 109.76745,0.08425 109.77545,0 L 100.15045,0 C 100.12557,13.80279 99.961881,27.59365 99.607104,41.39844 C 98.727169,96.27249 97.961719,151.0991 97.550154,206.0383 C 96.704659,274.32288 96.036168,342.69232 94.91104,410.93196 C 93.6208,472.8077 92.094791,534.59924 91.185229,596.55721 C 89.449518,677.00958 87.598245,757.45298 86.392136,838.0163 C 84.875315,928.2461 83.854741,1018.5247 84.199343,1108.9185 C 84.794159,1193.2437 85.671014,1277.6271 88.546115,1361.5062 C 89.056503,1374.7502 89.497223,1388.039 90.079133,1401.2513 C 91.748449,1439.1534 94.003394,1476.7795 96.773941,1514 L 101.25655,1514 C 100.79898,1500.4529 100.32889,1486.8981 99.839967,1473.3647 C 96.153374,1374.3881 94.251404,1274.8403 93.6691,1175.1815 C 93.099239,1087.5529 94.62271,1000.0116 95.590224,912.48261 C 96.347912,838.31027 96.853155,764.14885 98.074095,690.03755 C 99.239919,611.07663 101.07016,532.22041 102.67314,453.34787 C 103.76378,389.39277 105.28773,325.57868 106.36013,261.61778 C 106.80175,216.08191 107.79327,170.59678 108.37828,125.0856 C 108.39893,123.26253 108.41887,121.43994 108.43649,119.61668 C 109.40715,185.1424 109.71284,250.69769 109.29033,316.30696 C 108.32918,397.21699 106.98196,478.12102 106.06905,559.03789 C 105.87919,592.50968 105.30829,625.97223 105.19582,659.44976 C 105.09103,690.64146 105.42734,721.80092 105.46749,752.9937 C 105.59407,810.11995 104.69887,867.15127 103.87626,924.18355 C 102.84641,979.35413 101.82809,1034.4979 101.04309,1089.7137 C 100.07112,1142.3417 100.02784,1194.9927 100.34451,1247.6764 C 100.21091,1288.3494 102.08891,1328.6384 103.46875,1368.9465 C 104.90439,1400.0624 106.18969,1431.2174 107.07812,1462.554 C 107.47112,1479.6815 107.70875,1496.8414 107.91255,1514 L 114.3939,1514 z M 102.26562,188.86845 C 102.22561,208.8074 102.1064,228.77938 101.7999,248.70859 C 101.06679,313.61751 99.840405,378.45228 99.141385,443.36391 C 98.667817,482.5873 98.172865,521.78227 97.336697,560.94565 C 96.634895,593.8155 96.094565,609.25519 95.35736,641.89835 C 95.069651,654.63779 94.84153,667.37142 94.581148,680.11719 C 93.196915,754.52725 92.718063,828.98241 92.407761,903.51613 C 91.732463,992.4561 91.150343,1081.4534 91.942034,1170.412 C 92.765418,1268.8541 94.258316,1367.2425 96.909776,1465.3521 C 97.031436,1469.798 97.140251,1474.2596 97.259076,1478.7064 C 94.985643,1442.7814 93.220234,1406.444 91.689771,1370.0911 C 88.544881,1285.874 87.68669,1201.0231 86.877271,1116.2952 C 86.722676,1055.8935 86.616556,995.43056 87.34299,935.0578 C 87.643045,910.12103 88.41595,869.98329 88.876008,845.01142 C 89.941565,765.58863 92.592273,686.59626 95.066283,607.55864 C 97.132017,546.00806 98.063525,484.15022 98.92792,422.31494 C 99.488454,354.16513 100.5336,286.09848 101.7999,218.05721 C 101.94589,208.3256 102.10873,198.59697 102.26562,188.86845 z M 83.753023,267.91339 C 83.800736,235.1094 83.473373,202.27449 83.170868,169.47287 C 82.800261,121.51476 81.746245,73.68335 81.133316,25.75479 C 81.039341,17.17747 80.925171,8.57841 80.842239,0 L 75.369963,0 C 75.430399,3.44405 75.494773,6.85906 75.564011,10.30191 C 76.468411,58.60914 77.702643,106.8991 78.06729,155.29184 C 78.551288,208.20239 79.279594,261.14834 78.610639,314.08124 C 78.114111,378.59891 77.26978,443.03918 76.514874,507.52831 C 76.125814,583.19606 75.276023,658.82577 74.846021,734.4884 C 74.51241,802.86801 74.11425,871.24807 73.177169,939.57284 C 72.141221,1008.8268 70.673715,1077.9779 68.675154,1147.0102 C 67.179516,1213.1648 65.45616,1279.3559 65.298643,1345.7354 C 65.500654,1395.6441 66.080858,1445.5561 68.209426,1495.0496 C 68.491903,1501.3929 68.802773,1507.7122 69.102066,1514 L 73.565275,1514 C 73.492799,1512.3224 73.402718,1510.6548 73.332411,1508.9762 C 71.490073,1459.3158 70.86107,1409.2909 70.208163,1359.3441 C 69.643359,1291.9015 70.863214,1224.4931 72.284529,1157.2485 C 74.255913,1088.5786 76.097079,1019.96 77.232864,951.083 C 78.255511,882.36645 78.393088,813.51019 78.494203,744.72673 C 78.354553,669.07938 79.377209,593.47852 80.201861,517.89382 C 81.216109,454.24027 82.364485,390.61176 83.190275,326.92683 C 83.563594,307.25006 83.724401,287.59578 83.753023,267.91339 z M 76.592486,152.62097 C 76.624293,139.38769 76.239275,126.14217 75.855089,112.93951 C 75.920583,75.2903 75.874864,37.53312 75.059478,0 L 64.231353,0 C 64.238948,11.64268 64.221386,23.2691 64.211945,34.91204 C 64.108538,67.60177 63.978478,100.28852 63.746218,132.97102 C 60.364019,196.69624 56.838408,260.38453 53.713713,324.25596 C 50.613999,393.25757 47.51439,462.33162 45.408265,531.75689 C 45.332324,524.39736 45.254773,517.04976 45.175401,509.69044 C 44.563776,422.04681 44.279585,334.35648 45.427673,246.73724 C 46.96146,164.27447 48.983191,81.80598 52.568801,0 L 48.823591,0 C 46.596926,79.94506 44.715685,160.02293 43.099044,240.12366 C 41.771275,327.359 41.740816,414.70519 42.41986,501.9958 C 42.722584,543.11284 42.971583,584.24247 43.196064,625.36442 C 43.09445,630.68417 42.997439,635.84266 42.885588,641.58039 C 42.791656,650.38103 42.710736,659.16727 42.652724,667.9711 C 40.076593,726.97262 37.560294,786.00948 35.259324,845.13861 C 31.756148,922.92595 28.371919,1000.7466 25.40146,1078.7759 C 25.239226,1083.0566 25.09451,1087.3381 24.935733,1091.6215 C 24.88367,1078.4478 24.843866,1065.2421 24.819305,1052.0672 C 24.276998,989.86123 24.689508,927.7222 25.323839,865.55166 C 25.441763,848.42507 25.674014,831.35193 25.905994,814.23286 C 26.980975,771.29288 27.898693,728.32602 28.758564,685.33174 C 30.738759,606.65742 32.369873,527.86367 33.590471,449.0236 C 34.895726,388.04943 34.748333,326.94474 34.560733,265.87845 C 34.278344,217.79511 34.142115,169.74075 33.997985,121.65163 C 33.997758,120.67713 33.997784,119.70085 33.997985,118.7264 C 35.11473,98.53737 36.240566,78.36281 37.374496,58.18674 C 38.565398,38.76164 39.823315,19.33948 41.139114,0 L 35.278731,0 C 35.03682,3.58372 34.796178,7.15866 34.560733,10.74706 C 34.565125,7.16358 34.566263,3.58334 34.58014,0 L 27.63306,0 C 27.63299,1.05848 27.634574,2.1211 27.63306,3.1796 C 28.036356,37.62542 28.405011,72.0505 28.60333,106.51671 C 28.607478,107.72342 28.61838,108.93476 28.622729,110.14146 C 26.984878,138.14721 25.390829,166.21665 24.081908,194.40096 C 22.322081,245.41063 21.679079,296.57504 21.869706,347.91221 C 21.644438,406.85806 21.383793,465.8475 20.724795,524.76176 C 20.353848,577.66471 20.830224,630.54488 21.365173,683.42397 C 21.981523,740.17143 21.644,796.91293 21.093494,853.65995 C 21.040548,858.97722 20.989588,864.30431 20.938251,869.62155 C 20.534028,883.76901 20.115156,897.90556 19.657514,912.03747 C 18.54069,951.73542 17.405395,991.4125 16.203373,1031.0818 C 16.25897,1005.1808 16.3205,979.27382 16.378023,953.37231 C 16.299421,869.99072 15.830894,786.52554 14.049394,703.3283 C 11.956228,626.16661 8.520505,549.3329 8.014361,471.78957 C 7.92652,440.25215 7.740338,412.81949 8.150205,381.23446 C 8.965101,318.43704 11.241449,255.82422 13.777724,193.57426 C 16.922089,128.71347 20.590229,64.18385 24.838713,0 L 19.793349,0 C 17.259104,53.67193 14.779371,107.36755 12.458163,161.14231 C 13.264974,132.25749 13.966479,103.34086 14.553936,74.40272 C 15.17033,49.64374 15.479634,24.80693 15.854081,0 L 8.674146,0 C 8.661363,19.04049 8.571299,38.0679 8.441283,57.10568 C 7.976019,97.79142 7.310354,138.45576 5.95741,178.94809 C 4.7104,229.08829 3.96907,279.36383 2.56149,329.47051 C 1.6187,385.2455 1.31674,441.10458 0.19405,496.84484 C 0.13128,490.06127 0.05645,483.27946 -1.4210855e-14,476.49538 L -1.4210855e-14,703.2647 C 0.76774,779.76858 0.70024,856.32849 -1.4210855e-14,932.83207 L -1.4210855e-14,1239.6002 C 0.03395,1233.1773 0.05977,1226.755 0.09703,1220.3318 C 0.68163,1138.0186 1.10799,1055.6951 1.95993,973.40381 C 2.57883,877.59195 2.79715,781.78222 2.11517,685.96766 C 1.95024,665.78321 1.74359,645.54425 1.53302,625.36442 C 2.53457,589.99436 3.53281,554.64647 4.36618,519.22925 C 4.76438,499.45729 5.09655,479.68121 5.41406,459.89785 C 5.40966,461.47862 5.39962,462.85263 5.39466,464.47648 C 5.3723,541.04758 8.329554,617.12834 10.381805,693.28075 C 12.618506,777.45272 13.745594,861.90099 13.855345,946.37719 C 13.733904,1009.5481 13.27382,1072.6639 12.826861,1135.818 C 12.58474,1142.8753 12.358316,1149.9392 12.108871,1156.9941 C 9.326188,1239.4295 6.312294,1321.8598 4.83191,1404.6852 C 4.12103,1440.9751 3.51662,1477.6149 4.0751,1514 L 8.771166,1514 C 8.088911,1481.0588 8.246919,1447.8224 8.460681,1414.86 C 8.935308,1358.1948 10.350646,1301.7417 12.147686,1245.3871 C 11.901925,1292.0735 11.70589,1338.7333 11.41028,1385.4168 C 11.194348,1428.2975 10.69551,1471.1982 11.604338,1514 L 17.134828,1514 C 16.231714,1475.6579 16.119784,1437.1953 16.145159,1398.7076 C 15.900019,1333.4003 15.88923,1268.0919 15.931703,1202.7804 C 15.949728,1179.3491 15.992769,1155.9418 16.028731,1132.5112 C 17.393731,1092.9285 18.719733,1053.3369 19.987398,1013.7212 C 19.969898,1021.977 19.967666,1030.2648 19.967999,1038.5221 C 19.907816,1086.2423 19.59797,1133.9464 19.579893,1181.6679 C 19.559295,1220.9091 19.639585,1260.157 20.084426,1299.3768 C 20.231173,1347.5012 20.473189,1395.6819 18.80368,1443.6036 C 18.203404,1467.0444 17.668446,1490.5044 17.231856,1514 L 23.266889,1514 C 23.44608,1500.1227 23.66161,1486.2145 23.88785,1472.3472 C 24.365941,1486.2716 24.878971,1500.177 25.498489,1514 L 29.690019,1514 C 28.916939,1496.7417 28.282756,1479.4131 27.730089,1462.0453 C 26.34464,1414.6722 25.901724,1367.0917 25.537295,1319.5354 C 25.536928,1317.9011 25.538231,1316.2732 25.537295,1314.6389 C 25.686553,1286.7307 25.654974,1258.795 25.556703,1230.8881 C 26.06912,1183.2689 27.308488,1135.7285 28.758564,1088.3147 C 31.089126,1010.1343 34.929501,932.63245 38.732864,855.12256 C 40.064623,826.48031 41.360865,797.85865 42.672123,769.20967 C 42.908793,809.01819 43.379201,848.82432 43.952878,888.57199 C 43.990319,890.58405 44.032223,892.60115 44.069305,894.61324 C 44.036956,900.87274 44.005544,907.1108 43.952878,913.3729 C 43.652105,949.13 43.335871,963.34274 42.749753,998.71346 C 41.389329,1066.828 40.193781,1134.9268 39.606096,1203.162 C 39.275416,1265.0808 39.982303,1326.9968 40.168853,1388.9144 C 39.936986,1429.2144 40.18784,1469.4013 40.983871,1509.6121 C 41.036669,1511.0731 41.086719,1512.539 41.139114,1514 L 46.921875,1514 C 46.016276,1476.7525 45.297359,1439.5104 44.923139,1402.1416 C 44.151153,1339.9229 43.316429,1277.6452 43.93347,1215.3716 C 44.394691,1145.8525 44.859194,1076.282 45.621721,1006.7896 C 45.658375,1003.3758 45.70153,999.96532 45.738158,996.55133 C 46.11012,1022.5907 46.436775,1048.648 46.689011,1074.706 C 47.288666,1142.0243 47.46168,1209.3322 47.523438,1276.6744 C 47.55471,1329.9983 46.884128,1383.3361 47.814515,1436.6084 C 48.553505,1462.5206 49.760043,1488.2247 50.822328,1514 L 56.372225,1514 C 55.76165,1499.8281 54.979846,1485.7564 54.354081,1471.5841 C 54.074248,1465.2464 53.862533,1458.8593 53.616684,1452.5065 C 51.683205,1397.843 51.655966,1342.8369 51.520919,1287.8666 C 51.435151,1251.4058 51.388698,1214.9492 51.288055,1178.4882 C 51.506788,1192.3692 51.738129,1206.2659 51.986646,1220.141 C 53.096943,1285.0363 53.704945,1350.0019 55.304935,1414.7964 C 56.118746,1447.8913 57.054568,1480.954 58.002271,1514 L 63.474548,1514 C 63.451238,1497.997 63.446346,1481.9336 63.493955,1465.9244 C 63.634121,1414.5072 63.943898,1363.1283 64.153731,1311.7136 C 64.458555,1252.0559 64.84191,1192.3974 65.473284,1132.7655 C 65.558133,1079.2621 65.75814,1025.7632 65.58972,972.25916 C 65.300673,924.89051 64.794249,877.56879 63.668596,830.32166 C 62.438985,766.95667 61.657138,703.4797 62.640121,639.99059 C 62.935653,623.33334 63.274969,606.71242 63.62979,590.07082 C 64.766599,564.2516 65.878925,538.42317 67.045108,512.61568 C 69.342053,472.64094 70.860834,432.27498 71.993451,391.79074 C 72.992675,354.05338 74.089033,316.40022 74.846021,278.59686 C 75.339696,242.57947 75.715526,206.50079 76.262603,170.49034 C 76.474869,164.50776 76.578154,158.58737 76.592486,152.62097 z M 69.78125,179.6476 C 69.745305,207.06461 69.506728,234.44831 68.927416,261.80855 C 68.191463,299.65188 66.909159,337.36067 66.152468,375.19321 C 65.174891,415.95614 63.600819,456.4418 61.553424,496.78125 C 59.695711,546.03507 58.006358,595.39582 55.809478,644.50563 C 55.738988,646.39968 53.808449,698.38521 53.752519,700.14869 C 52.525716,738.8285 52.019118,777.74597 51.579133,816.58577 C 50.796961,874.27532 50.196178,932.00941 49.929688,989.74698 C 49.490989,959.67043 48.873326,929.61949 47.95035,899.63701 C 47.584504,886.67127 47.262268,873.69932 46.941283,860.71867 C 47.13912,824.40165 47.188768,788.11296 46.980089,751.78545 C 46.905898,729.10403 46.803803,706.41828 46.669604,683.74193 C 47.085378,674.99146 47.486924,666.22498 47.911544,657.47841 C 50.899118,597.3255 54.633093,537.63717 58.565019,478.08518 C 62.322768,429.19287 64.08339,379.18639 65.667341,329.15255 C 67.234659,280.83516 68.221921,232.35944 68.985639,183.84468 C 69.244464,162.69157 69.384481,141.54659 69.470765,120.37979 C 69.649589,130.98297 69.785905,141.60806 69.761843,152.23941 C 69.784383,161.37762 69.793238,170.5086 69.78125,179.6476 z M 63.513354,161.39667 C 63.492879,163.6643 63.476788,165.93348 63.45514,168.20103 C 63.025541,217.19447 62.368959,266.2332 60.718998,314.97152 C 58.842735,364.99874 56.878649,415.05954 53.907761,464.54007 C 51.181979,510.04837 48.570996,555.62937 46.048643,601.26302 C 45.972596,592.38526 45.917638,583.49523 45.835186,574.61794 C 45.997901,566.07941 46.197436,556.91617 46.456148,546.31947 C 48.254115,472.67645 51.352674,399.45334 54.412295,326.29091 C 57.159296,271.15915 60.197156,216.17559 63.513354,161.39667 z M 61.029483,1120.3651 C 60.959211,1179.581 59.911189,1238.696 59.224795,1297.8506 C 58.899636,1324.6068 58.760336,1351.3336 58.681455,1378.1037 C 57.561376,1329.068 56.771689,1279.972 55.867691,1230.8881 C 54.761018,1163.1899 53.83259,1095.3886 53.849548,1027.5843 C 53.694235,961.18124 54.785675,894.94192 55.848284,828.66826 C 56.292871,793.94911 57.124918,759.35649 58.19632,724.82241 C 58.294723,755.55543 58.582834,786.31497 58.875504,817.03092 C 59.311403,863.71279 59.809041,910.36896 60.136843,957.06066 C 60.564149,1011.4778 60.836318,1065.9339 61.029483,1120.3651 z M 30.505038,368.96119 C 30.529284,392.3485 30.429595,415.78189 30.097533,439.16684 C 29.28268,512.12869 28.08141,584.99753 26.138858,657.73278 C 25.750148,617.71019 25.337944,577.65473 25.304431,537.60736 C 25.461109,478.86254 26.228886,420.18108 26.682206,361.45733 C 26.880149,310.48296 27.440534,259.51956 29.14667,208.83636 C 29.159848,208.58213 29.17229,208.32748 29.185485,208.07325 C 29.305946,222.74377 29.44144,237.41154 29.592999,252.07896 C 30.044333,291.03574 30.464639,329.98233 30.505038,368.96119 z M 6.966479,0 L 2.07636,0 C 1.99669,4.02329 1.90174,8.06469 1.8241,12.0825 C 1.07871,50.64843 1.06369,55.07864 0.46573,95.07015 C 0.30758,109.33076 0.15768,123.60599 -1.4210855e-14,137.86761 L -1.4210855e-14,287.81771 C 0.49732,226.06163 1.48282,164.36893 3.18246,102.82838 C 4.46799,61.97331 4.34704,62.75811 5.938,23.78344 C 6.261693,15.85394 6.599023,7.93016 6.966479,0 z M 1.55242,1514 C 1.02781,1488.0184 0.57788,1462.0735 0.31049,1436.0361 C 0.17853,1425.2514 0.08424,1414.4534 -1.4210855e-14,1403.6678 L -1.4210855e-14,1514 L 1.55242,1514 z"
         style="opacity:0.1725352;fill:#babdb6;fill-opacity:1;fill-rule:nonzero;stroke:none;stroke-width:0.1;stroke-linecap:round;stroke-linejoin:bevel;stroke-miterlimit:4;stroke-dasharray:none;stroke-dashoffset:0;stroke-opacity:1" />
    </pattern>
    <linearGradient
       inkscape:collect="always"
       xlink:href="#linearGradient4491"
       id="linearGradient4497"
       x1="368.92966"
       y1="25.000002"
       x2="363.1727"
       y2="371"
       gradientUnits="userSpaceOnUse"
       gradientTransform="matrix(1.0422222,0,0,1,181.2688,-610.47455)" />
    <linearGradient
       inkscape:collect="always"
       xlink:href="#linearGradient4503"
       id="linearGradient4509"
       x1="633.77545"
       y1="982.52545"
       x2="647.77551"
       y2="622.52545"
       gradientUnits="userSpaceOnUse" />
  </defs>
  <sodipodi:namedview
     id="base"
     pagecolor="#ffffff"
     bordercolor="#666666"
     borderopacity="1.0"
     inkscape:pageopacity="0.0"
     inkscape:pageshadow="2"
     inkscape:zoom="0.5"
     inkscape:cx="389.45152"
     inkscape:cy="883.6004"
     inkscape:document-units="px"
     inkscape:current-layer="layer1"
     showgrid="false"
     inkscape:window-width="1272"
     inkscape:window-height="944"
     inkscape:window-x="0"
     inkscape:window-y="32"
     fit-margin-top="0"
     fit-margin-left="0"
     fit-margin-right="0"
     fit-margin-bottom="0"
     inkscape:window-maximized="0" />
  <metadata
     id="metadata6109">
    <rdf:RDF>
      <cc:Work
         rdf:about="">
        <dc:format>image/svg+xml</dc:format>
        <dc:type
           rdf:resource="http://purl.org/dc/dcmitype/StillImage" />
        <dc:title></dc:title>
      </cc:Work>
    </rdf:RDF>
  </metadata>
  <g
     inkscape:label="Capa 1"
     inkscape:groupmode="layer"
     id="layer1"
     transform="translate(-193.77547,585.47455)">
    <rect
       inkscape:export-ydpi="60"
       inkscape:export-xdpi="60"
       inkscape:export-filename="/home/roger/mis-dibujos/open/cerradura.png"
       y="-584.47455"
       x="193.77547"
       height="1505"
       width="938"
       id="rect4485"
       style="fill:#c17d11;fill-opacity:1;fill-rule:nonzero;stroke:none" />
    <rect
       style="fill:url(#pattern4511);fill-opacity:1;fill-rule:nonzero;stroke:none"
       id="rect6193"
       width="938"
       height="1505"
       x="193.77547"
       y="-584.47455"
       inkscape:export-filename="/home/roger/mis-dibujos/open/cerradura.png"
       inkscape:export-xdpi="60"
       inkscape:export-ydpi="60" />
    <rect
       ry="3.5355339"
       y="163.11678"
       x="265.38098"
       height="90.408653"
       width="19.697975"
       id="rect4298"
       style="fill:#555753;fill-opacity:1;fill-rule:nonzero;stroke:none;filter:url(#filter4316)"
       transform="matrix(2.8284819,0,0,2.8284819,-480.48022,-463.56666)" />
    <rect
       style="fill:#9faaaa;fill-opacity:1;fill-rule:nonzero;stroke:none"
       id="rect2473"
       width="55.715366"
       height="255.71924"
       x="265.64514"
       y="-5.1938934"
       ry="10.000194" />
    <path
       style="fill:url(#linearGradient3658);fill-opacity:1;fill-rule:nonzero;stroke:none"
       d="m 264.89683,30.570006 0,-25.3680836 c 0,-5.53986839 4.53633,-9.9879332 10.07647,-9.9879332 l 35.70958,0 c 5.54016,0 9.98793,4.44806481 9.98793,9.9879332 l 0,25.3680836 c -0.1185,0.004 -0.2339,0 -0.35355,0 l -55.42043,0 z"
       id="rect3479"
       inkscape:connector-curvature="0" />
    <path
       id="path3492"
       d="m 318.54945,214.33139 0,25.36809 c 0,5.54016 -4.53631,9.98822 -10.07646,9.98793 l -35.70959,0 c -5.54014,0 -9.98793,-4.44777 -9.98793,-9.98793 l 0,-25.36809 c 0.11852,-0.004 0.23392,-50.91267 0.35357,-50.91267 l 55.42041,50.91267 z"
       style="fill:url(#linearGradient3655);fill-opacity:1;fill-rule:nonzero;stroke:none"
       sodipodi:nodetypes="cccccccc"
       inkscape:connector-curvature="0" />
    <g
       id="g3380"
       transform="matrix(2.8284819,0,0,2.8284819,219.54066,-515.04801)">
      <g
         transform="matrix(1.0600862,0.3066365,-0.3066365,1.0600862,57.358559,-19.401781)"
         id="g3277">
        <g
           id="g3406"
           transform="matrix(0.7012904,0,0,0.7012904,7.1073988,56.573555)">
          <path
             sodipodi:type="arc"
             style="fill:url(#linearGradient3618);fill-opacity:1;fill-rule:nonzero;stroke:url(#linearGradient3620);stroke-width:0.15847753;stroke-linecap:round;stroke-linejoin:bevel;stroke-miterlimit:4;stroke-opacity:1;stroke-dasharray:none;stroke-dashoffset:0"
             id="path3294"
             sodipodi:cx="27.444582"
             sodipodi:cy="192.0784"
             sodipodi:rx="2.3422911"
             sodipodi:ry="2.4748738"
             d="m 29.786873,192.0784 c 0,1.36683 -1.048679,2.47487 -2.342291,2.47487 -1.293612,0 -2.342291,-1.10804 -2.342291,-2.47487 0,-1.36684 1.048679,-2.47487 2.342291,-2.47487 1.293612,0 2.342291,1.10803 2.342291,2.47487 z"
             transform="matrix(1.129225,-0.3266353,0.309137,1.0687307,-63.953119,-4.7206081)" />
          <path
             transform="translate(0.9448895,-0.7193727)"
             d="m 27.857143,192.27289 c 0,1.3314 -1.079314,2.41071 -2.410715,2.41071 -1.3314,0 -2.410714,-1.07931 -2.410714,-2.41071 0,-1.3314 1.079314,-2.41072 2.410714,-2.41072 1.331401,0 2.410715,1.07932 2.410715,2.41072 z"
             sodipodi:ry="2.4107144"
             sodipodi:rx="2.4107144"
             sodipodi:cy="192.27289"
             sodipodi:cx="25.446428"
             id="path2475"
             style="fill:#899797;fill-opacity:1;fill-rule:nonzero;stroke:none"
             sodipodi:type="arc" />
          <path
             id="path2479"
             d="m 26.380362,189.15625 0,4.75 c 0,0.0361 0.05705,0.0283 0.0625,0.0625 0.210512,0 0.399069,-0.043 0.59375,-0.0937 l 0,-4.65625 c -0.193909,-0.0503 -0.384162,-0.0625 -0.59375,-0.0625 -0.02102,0 -0.04142,-2.4e-4 -0.0625,0 z"
             style="fill:#d3d7cf;fill-opacity:1;fill-rule:nonzero;stroke:none"
             inkscape:connector-curvature="0" />
          <path
             id="path3273"
             d="m 26.46875,189.15625 c -0.191796,0.002 -0.385789,0.016 -0.5625,0.0625 l 0,4.65625 c 0.197098,0.0521 0.411584,0.0937 0.625,0.0937 -0.0054,-0.0342 -0.0625,-0.0264 -0.0625,-0.0625 l 0,-4.75 z"
             style="fill:url(#linearGradient3622);fill-opacity:1;fill-rule:nonzero;stroke:none"
             inkscape:connector-curvature="0" />
        </g>
        <g
           id="g3412"
           transform="translate(16.311433,57.066369)">
          <path
             style="fill:#353439;fill-opacity:1;fill-rule:nonzero;stroke:url(#linearGradient3630);stroke-width:0.09320774;stroke-linecap:round;stroke-linejoin:bevel;stroke-miterlimit:4;stroke-opacity:1;stroke-dasharray:none;stroke-dashoffset:0"
             d="m 18.227794,164.68711 c -1.2598,0.3644 -1.924681,1.88939 -1.483191,3.41568 0.240252,0.83058 0.760725,1.4895 1.386417,1.85793 l 0.885198,6.41467 4.798636,-1.38803 -2.679991,-5.91068 c 0.324611,-0.64294 0.408511,-1.47043 0.170542,-2.29312 -0.44149,-1.5263 -1.817809,-2.46085 -3.077611,-2.09645 z"
             id="rect3428"
             sodipodi:nodetypes="csccccsc"
             inkscape:connector-curvature="0" />
        </g>
        <g
           transform="matrix(0.7012904,0,0,0.7012904,24.644832,117.20297)"
           id="g6177">
          <path
             transform="matrix(1.129225,-0.3266353,0.309137,1.0687307,-63.953119,-4.7206081)"
             d="m 29.786873,192.0784 c 0,1.36683 -1.048679,2.47487 -2.342291,2.47487 -1.293612,0 -2.342291,-1.10804 -2.342291,-2.47487 0,-1.36684 1.048679,-2.47487 2.342291,-2.47487 1.293612,0 2.342291,1.10803 2.342291,2.47487 z"
             sodipodi:ry="2.4748738"
             sodipodi:rx="2.3422911"
             sodipodi:cy="192.0784"
             sodipodi:cx="27.444582"
             id="path6179"
             style="fill:url(#linearGradient6187);fill-opacity:1;fill-rule:nonzero;stroke:url(#linearGradient6189);stroke-width:0.15847753;stroke-linecap:round;stroke-linejoin:bevel;stroke-miterlimit:4;stroke-opacity:1;stroke-dasharray:none;stroke-dashoffset:0"
             sodipodi:type="arc" />
          <path
             sodipodi:type="arc"
             style="fill:#899797;fill-opacity:1;fill-rule:nonzero;stroke:none"
             id="path6181"
             sodipodi:cx="25.446428"
             sodipodi:cy="192.27289"
             sodipodi:rx="2.4107144"
             sodipodi:ry="2.4107144"
             d="m 27.857143,192.27289 c 0,1.3314 -1.079314,2.41071 -2.410715,2.41071 -1.3314,0 -2.410714,-1.07931 -2.410714,-2.41071 0,-1.3314 1.079314,-2.41072 2.410714,-2.41072 1.331401,0 2.410715,1.07932 2.410715,2.41072 z"
             transform="translate(0.9448895,-0.7193727)" />
          <path
             style="fill:#d3d7cf;fill-opacity:1;fill-rule:nonzero;stroke:none"
             d="m 26.380362,189.15625 0,4.75 c 0,0.0361 0.05705,0.0283 0.0625,0.0625 0.210512,0 0.399069,-0.043 0.59375,-0.0937 l 0,-4.65625 c -0.193909,-0.0503 -0.384162,-0.0625 -0.59375,-0.0625 -0.02102,0 -0.04142,-2.4e-4 -0.0625,0 z"
             id="path6183"
             inkscape:connector-curvature="0" />
          <path
             style="fill:url(#linearGradient6191);fill-opacity:1;fill-rule:nonzero;stroke:none"
             d="m 26.46875,189.15625 c -0.191796,0.002 -0.385789,0.016 -0.5625,0.0625 l 0,4.65625 c 0.197098,0.0521 0.411584,0.0937 0.625,0.0937 -0.0054,-0.0342 -0.0625,-0.0264 -0.0625,-0.0625 l 0,-4.75 z"
             id="path6185"
             inkscape:connector-curvature="0" />
        </g>
      </g>
    </g>
    <path
       style="fill:#eeeeec;fill-opacity:1;fill-rule:nonzero;stroke:none;filter:url(#filter3540)"
       d="m 40.670283,195.13756 c 0.409226,0 0.791554,0.0923 1.15625,0.21875 1.853752,0.11397 3.3125,1.61619 3.3125,3.5 l 0,83.34375 c 0,1.58605 -1.03645,2.894 -2.46875,3.34375 1.958686,0 3.53125,-1.57255 3.53125,-3.53125 l 0,-83.34375 c 0,-1.95869 -1.572564,-3.53125 -3.53125,-3.53125 l -2,0 z"
       id="rect3504"
       transform="matrix(2.8284819,0,0,2.8063592,190.202,-550.8445)"
       inkscape:connector-curvature="0" />
    <path
       id="path3544"
       d="m 15.170283,185.13756 c 0.409226,0 0.791554,0.0923 1.15625,0.21875 1.853752,0.11397 3.3125,1.61619 3.3125,3.5 l 0,83.34375 c 0,1.58605 -1.03645,2.894 -2.46875,3.34375 1.958686,0 3.53125,-1.57255 3.53125,-3.53125 l 0,-83.34375 c 0,-1.95869 -1.572564,-3.53125 -3.53125,-3.53125 l -2,0 z"
       style="fill:#eeeeec;fill-opacity:1;fill-rule:nonzero;stroke:none;filter:url(#filter3540)"
       transform="matrix(-2.8284819,0,0,2.8008284,324.19256,-521.25694)"
       inkscape:connector-curvature="0" />
    <path
       style="opacity:0.39084509;fill:#555753;fill-opacity:1;fill-rule:nonzero;stroke:none;filter:url(#filter4364)"
       d="m 268.53807,197.37221 3.5481,7.5064 10.0609,2.2691 2.186,1.394 27.1219,4.6632 0.0821,-6.0117 -26.6561,-3.9463 -2.9061,-1.4464 c -6.7083,-1.6456 -1.8212,-0.6374 -5.5623,-1.3928 l -1.9906,-3.2338 -5.8839,0.1983 z"
       id="rect3572"
       sodipodi:nodetypes="ccccccccccc"
       transform="matrix(2.8284819,0,0,2.8284819,-480.48022,-463.56666)"
       inkscape:connector-curvature="0" />
    <path
       style="fill:#9faaaa;fill-opacity:1;fill-rule:nonzero;stroke:none"
       d="m 278.59207,71.645502 0,22.539324 141.42408,0 0,-22.274295 c 0,-0.08966 -0.002,-0.176203 0,-0.265029 l -141.42408,0 z"
       id="rect3560"
       inkscape:connector-curvature="0" />
    <path
       style="fill:url(#linearGradient3664);fill-opacity:1;fill-rule:nonzero;stroke:none"
       d="m 278.06172,71.645502 0,22.539324 141.95443,0 0,-22.274295 c 0,-0.08966 -0.002,-0.176203 0,-0.265029 l -141.95443,0 z"
       id="rect3546"
       inkscape:connector-curvature="0" />
    <rect
       style="opacity:0.34859152;fill:url(#linearGradient4497);fill-opacity:1;fill-rule:nonzero;stroke:none"
       id="rect4489"
       width="938"
       height="440"
       x="193.77547"
       y="-585.47455" />
    <rect
       y="488.52545"
       x="193.77547"
       height="440"
       width="938"
       id="rect4499"
       style="opacity:0.34859152;fill:url(#linearGradient4509);fill-opacity:1;fill-rule:nonzero;stroke:none" />
  </g>
</svg>
