/* XPM */
static char * tfwbuttonlist_xpm[] = {
"24 24 233 2",
"  	c None",
". 	c #7B9EAD",
"+ 	c #003873",
"@ 	c #FFFFFF",
"# 	c #FEFEFE",
"$ 	c #FDFDFD",
"% 	c #9C9E9C",
"& 	c #A3A5A3",
"* 	c #A2A3A2",
"= 	c #A1A3A1",
"- 	c #A0A2A0",
"; 	c #A4A5A3",
"> 	c #D3D1CD",
", 	c #DCDAD5",
"' 	c #DBD9D4",
") 	c #FDFCFC",
"! 	c #EDEDEF",
"~ 	c #CDCED0",
"{ 	c #DAD9D9",
"] 	c #D8D8D8",
"^ 	c #D7D8D7",
"/ 	c #D7D7D7",
"( 	c #D6D7D6",
"_ 	c #DADADA",
": 	c #B4B5B4",
"< 	c #BEBEBA",
"[ 	c #D4D3CF",
"} 	c #FCFBFA",
"| 	c #A2A4A2",
"1 	c #C9CBCD",
"2 	c #9B9FA1",
"3 	c #B7B9B8",
"4 	c #B3B5B2",
"5 	c #B3B5B3",
"6 	c #B3B4B3",
"7 	c #B2B3B2",
"8 	c #BABCBB",
"9 	c #A4A6A5",
"0 	c #B9B9B5",
"a 	c #D3D2CD",
"b 	c #FBFAF9",
"c 	c #D9DAD8",
"d 	c #BEC0C0",
"e 	c #AFB3B7",
"f 	c #C7C8C5",
"g 	c #CFCFCB",
"h 	c #D0D0CC",
"i 	c #D0CFCC",
"j 	c #D0CFCB",
"k 	c #D1D0CD",
"l 	c #C9C8C5",
"m 	c #BFBFBD",
"n 	c #A8A9A7",
"o 	c #FAF9F8",
"p 	c #B8BAB9",
"q 	c #BCBDBC",
"r 	c #CACCD0",
"s 	c #9299A5",
"t 	c #8A919F",
"u 	c #8A91A0",
"v 	c #8A92A0",
"w 	c #8B939F",
"x 	c #8B929F",
"y 	c #8A919E",
"z 	c #8A919D",
"A 	c #88909B",
"B 	c #8C93A0",
"C 	c #D0D2D7",
"D 	c #9FA1A0",
"E 	c #FAF8F7",
"F 	c #B9BAB9",
"G 	c #C8C8C5",
"H 	c #9AA2AF",
"I 	c #496289",
"J 	c #56719C",
"K 	c #5D7795",
"L 	c #526E98",
"M 	c #516D97",
"N 	c #4B6994",
"O 	c #456491",
"P 	c #41608E",
"Q 	c #3D5D8C",
"R 	c #385A8B",
"S 	c #284674",
"T 	c #ADB4BF",
"U 	c #F9F7F6",
"V 	c #C8C7C5",
"W 	c #939BA9",
"X 	c #597398",
"Y 	c #A6BAB7",
"Z 	c #E8EECD",
"` 	c #B1C3B0",
" .	c #6986B2",
"..	c #6583B0",
"+.	c #5D7DAB",
"@.	c #5979A8",
"#.	c #5476A7",
"$.	c #5074A7",
"%.	c #345483",
"&.	c #ABB2BF",
"*.	c #A2A3A1",
"=.	c #F8F6F5",
"-.	c #D5D6D5",
";.	c #C7C7C5",
">.	c #939CAB",
",.	c #6B819C",
"'.	c #D4DDCA",
").	c #FFFFFD",
"!.	c #EAF1BE",
"~.	c #7D95BA",
"{.	c #7993BA",
"].	c #758FB8",
"^.	c #7089AE",
"/.	c #687B98",
"(.	c #6884AE",
"_.	c #47638E",
":.	c #F7F5F4",
"<.	c #C7C7C4",
"[.	c #959CAA",
"}.	c #7487A7",
"|.	c #B1C1C5",
"1.	c #D8E0C4",
"2.	c #B6C5BA",
"3.	c #91A5C6",
"4.	c #8FA3C5",
"5.	c #8A9FC0",
"6.	c #78869D",
"7.	c #5F636A",
"8.	c #6A798F",
"9.	c #566E94",
"0.	c #B0B6C1",
"a.	c #F6F4F2",
"b.	c #D4D4D4",
"c.	c #B8BAB8",
"d.	c #C6C7C3",
"e.	c #959DAA",
"f.	c #8292AE",
"g.	c #ABBAD3",
"h.	c #A8B8CA",
"i.	c #A5B5CE",
"j.	c #A5B5D0",
"k.	c #A3B3CE",
"l.	c #8A97AB",
"m.	c #656A72",
"n.	c #60646C",
"o.	c #6E7581",
"p.	c #6A7C9B",
"q.	c #B4B9C4",
"r.	c #F6F3F1",
"s.	c #D5D5D5",
"t.	c #B7B8B7",
"u.	c #9299A6",
"v.	c #67758C",
"w.	c #8893A8",
"x.	c #8490A6",
"y.	c #8391A5",
"z.	c #808CA1",
"A.	c #778398",
"B.	c #595F6B",
"C.	c #52555C",
"D.	c #555A61",
"E.	c #646E7F",
"F.	c #51617C",
"G.	c #B1B5BF",
"H.	c #F5F2F0",
"I.	c #9FA19F",
"J.	c #8D96A3",
"K.	c #293C5D",
"L.	c #334768",
"M.	c #314566",
"N.	c #2E4163",
"O.	c #24395C",
"P.	c #1F3356",
"Q.	c #283956",
"R.	c #2A374F",
"S.	c #2A374C",
"T.	c #1E304E",
"U.	c #0F2447",
"V.	c #AAAFBA",
"W.	c #F4F1EF",
"X.	c #A7A8A6",
"Y.	c #B7B8B6",
"Z.	c #C0C1C0",
"`.	c #8B93A1",
" +	c #384C6F",
".+	c #4B5E82",
"++	c #485B7F",
"@+	c #46597D",
"#+	c #46597E",
"$+	c #475A7F",
"%+	c #46597F",
"&+	c #405376",
"*+	c #37496A",
"=+	c #576379",
"-+	c #6A7586",
";+	c #B2B5B9",
">+	c #9C9D9C",
",+	c #F3F0ED",
"'+	c #BBBBB7",
")+	c #A5A7A6",
"!+	c #C1C2BF",
"~+	c #304365",
"{+	c #394C70",
"]+	c #3A4C70",
"^+	c #3A4D71",
"/+	c #374A6F",
"(+	c #2C3F64",
"_+	c #8E96A2",
":+	c #C2C2C2",
"<+	c #A6A8A6",
"[+	c #B3B4B0",
"}+	c #F3EFEC",
"|+	c #D4D2CE",
"1+	c #BBBBB8",
"2+	c #BCBDBB",
"3+	c #DFE0E3",
"4+	c #B9BEC7",
"5+	c #B7BDC6",
"6+	c #B8BDC7",
"7+	c #B9BEC8",
"8+	c #B5B8BA",
"9+	c #A9ABA8",
"0+	c #838784",
"a+	c #D2D0CB",
"b+	c #F2EEEB",
"c+	c #D3D2CC",
"d+	c #A1A3A2",
"e+	c #9D9E9D",
"f+	c #696C6A",
"g+	c #A9A9A5",
"h+	c #DAD8D3",
"i+	c #F0EDE9",
"j+	c #F0ECE8",
"                                                ",
"    . + + + + + + + + + + + + + + + + + + .     ",
"  . + @ @ @ @ @ @ @ @ @ @ @ @ @ @ @ @ @ @ + .   ",
"  + # # # # # # # # # # # # # # # # # # # # +   ",
"  + $ % & * * * * * * = = = = = - ; > , ' $ +   ",
"  + ) & ! ~ { ] ] ] ^ ^ / / / ( _ : < [ , ) +   ",
"  + } | 1 2 3 4 5 5 5 5 6 6 6 6 7 8 9 0 a } +   ",
"  + b | c d e f g h h h i i i i j k l m n b +   ",
"  + o | ^ p q r s t u v w x y z z A B C D o +   ",
"  + E | ( F G H I J K L M N O P Q R S T = E +   ",
"  + U * ( p V W X Y Z `  ...+.@.#.$.%.&.*.U +   ",
"  + =.* -.p ;.>.,.'.).!.~.{.].^./.(._.T = =.+   ",
"  + :.* -.p <.[.}.|.1.2.3.4.5.6.7.8.9.0.= :.+   ",
"  + a.= b.c.d.e.f.g.h.i.j.k.l.m.n.o.p.q.= a.+   ",
"  + r.= s.t.<.u.v.w.x.y.z.A.B.C.D.E.F.G.*.r.+   ",
"  + H.I.b.t.;.J.K.L.M.N.O.P.Q.R.S.T.U.V.| H.+   ",
"  + W.X.Y.Z.G `. +.+++@+#+$+%+&+*+=+-+;+>+W.+   ",
"  + ,+a '+)+!+s ~+{+{+{+{+]+^+/+(+_+:+<+[+,++   ",
"  + }+, |+1+2+3+4+5+5+6+6+7+7+7+7+8+9+0+a+}++   ",
"  + b+' , c+| = d+= = d+d+d+d+d+| e+f+g+h+b++   ",
"  + i+i+i+i+i+i+i+i+i+i+i+i+i+i+i+i+i+i+i+i++   ",
"  . + j+j+j+j+j+j+j+j+j+j+j+j+j+j+j+j+j+j++ .   ",
"    . + + + + + + + + + + + + + + + + + + .     ",
"                                                "};
