/* XPM */
static char * tfwmedia_xpm[] = {
"24 24 314 2",
"  	c None",
". 	c #273390",
"+ 	c #293593",
"@ 	c #283291",
"# 	c #2A3493",
"$ 	c #283390",
"% 	c #263193",
"& 	c #273294",
"* 	c #3844A6",
"= 	c #6E75C6",
"- 	c #9196D9",
"; 	c #B1B5E8",
"> 	c #6F75C7",
", 	c #3943A8",
"' 	c #273395",
") 	c #253197",
"! 	c #3541AA",
"~ 	c #8F94DE",
"{ 	c #DEE0F6",
"] 	c #EDEEFA",
"^ 	c #8F94DF",
"/ 	c #3641AA",
"( 	c #253297",
"_ 	c #26329A",
": 	c #4750C0",
"< 	c #C2C5EE",
"[ 	c #DFE0F6",
"} 	c #4851C1",
"| 	c #26339A",
"1 	c #25329C",
"2 	c #4B53CA",
"3 	c #A9ADE8",
"4 	c #CFD1F2",
"5 	c #222F9D",
"6 	c #4049C0",
"7 	c #6E74D7",
"8 	c #C1C3EE",
"9 	c #BFC2EC",
"0 	c #B4B3D6",
"a 	c #BCBDE3",
"b 	c #C1C4ED",
"c 	c #C2C5EF",
"d 	c #C3C6EF",
"e 	c #C1C4EE",
"f 	c #222E9F",
"g 	c #303BAF",
"h 	c #4C54CE",
"i 	c #858BDE",
"j 	c #B2B5EA",
"k 	c #AEB0E1",
"l 	c #9B96BD",
"m 	c #A19FC6",
"n 	c #B3B6E3",
"o 	c #B7BCEC",
"p 	c #B8BDED",
"q 	c #B7BCED",
"r 	c #B7BBED",
"s 	c #B6BAEC",
"t 	c #B4B8EB",
"u 	c #B3B6EA",
"v 	c #313BB0",
"w 	c #222EA0",
"x 	c #222FA3",
"y 	c #4A52CC",
"z 	c #898FDF",
"A 	c #A5A9E7",
"B 	c #A1A4DD",
"C 	c #8883B1",
"D 	c #8781B0",
"E 	c #8882B0",
"F 	c #9898C6",
"G 	c #ACB1E7",
"H 	c #ADB3EB",
"I 	c #ADB2EB",
"J 	c #ACB1EA",
"K 	c #AAAFE9",
"L 	c #A8ACE8",
"M 	c #4A53CC",
"N 	c #202EA1",
"O 	c #2C39B0",
"P 	c #7077D9",
"Q 	c #9A9FE5",
"R 	c #9598D9",
"S 	c #746EA4",
"T 	c #736CA3",
"U 	c #746DA3",
"V 	c #7771A6",
"W 	c #9295CD",
"X 	c #A2A9E6",
"Y 	c #A2A9E9",
"Z 	c #A0A6E8",
"` 	c #9DA3E7",
" .	c #2A37AE",
"..	c #1E2CA6",
"+.	c #3742BC",
"@.	c #4F57CF",
"#.	c #5E67D5",
"$.	c #8F96E4",
"%.	c #8A8ED5",
"&.	c #625B98",
"*.	c #605896",
"=.	c #615A97",
"-.	c #6B66A2",
";.	c #8D93D4",
">.	c #959DE5",
",.	c #939BE6",
"'.	c #3641BB",
").	c #1D2BA6",
"!.	c #1D2DA9",
"~.	c #404AC5",
"{.	c #535CD2",
"].	c #5A64D6",
"^.	c #707BDE",
"/.	c #7F85D2",
"(.	c #4F478C",
"_.	c #4D4489",
":.	c #4E448A",
"<.	c #4E468B",
"[.	c #6463A6",
"}.	c #858CD9",
"|.	c #707ADB",
"1.	c #414BC5",
"2.	c #1F2DA9",
"3.	c #1B2BA9",
"4.	c #4F58D0",
"5.	c #5760D4",
"6.	c #5E69D8",
"7.	c #6571DC",
"8.	c #686FCB",
"9.	c #3B327E",
"0.	c #3A2F7D",
"a.	c #3A307D",
"b.	c #2A2173",
"c.	c #5056B4",
"d.	c #5D68D5",
"e.	c #4B53CD",
"f.	c #202FAE",
"g.	c #1A29AC",
"h.	c #525BD1",
"i.	c #5963D6",
"j.	c #616CDA",
"k.	c #6975DE",
"l.	c #5F68C9",
"m.	c #1B1069",
"n.	c #1F146B",
"o.	c #24196F",
"p.	c #261A6F",
"q.	c #1A0F67",
"r.	c #1D1469",
"s.	c #41478F",
"t.	c #5D68D1",
"u.	c #5F69D7",
"v.	c #5E66D4",
"w.	c #535BD0",
"x.	c #1A2AAC",
"y.	c #1B2BAF",
"z.	c #404AC6",
"A.	c #545DD2",
"B.	c #5C66D7",
"C.	c #646FDB",
"D.	c #6B78E0",
"E.	c #616BCA",
"F.	c #1A0F69",
"G.	c #160A65",
"H.	c #180D66",
"I.	c #190F66",
"J.	c #343578",
"K.	c #4D5698",
"L.	c #5F6AC5",
"M.	c #727CDC",
"N.	c #757DDD",
"O.	c #737ADA",
"P.	c #535CCC",
"Q.	c #182AB0",
"R.	c #3541C1",
"S.	c #555ED3",
"T.	c #5D67D8",
"U.	c #6D7AE1",
"V.	c #636DCB",
"W.	c #170B66",
"X.	c #302E74",
"Y.	c #505A91",
"Z.	c #6774C1",
"`.	c #727FDA",
" +	c #848FE4",
".+	c #8992E4",
"++	c #8890E2",
"@+	c #888EE0",
"#+	c #444FC6",
"$+	c #2836BC",
"%+	c #5D68D8",
"&+	c #636DCC",
"*+	c #28236F",
"=+	c #50588D",
"-+	c #6E7CBC",
";+	c #7D8CDF",
">+	c #8593E8",
",+	c #9AA5ED",
"'+	c #9CA5EB",
")+	c #9BA3E8",
"!+	c #9BA1E7",
"~+	c #979CE4",
"{+	c #2937BC",
"]+	c #1828B6",
"^+	c #515BD1",
"/+	c #5C67D7",
"(+	c #6470DC",
"_+	c #6C79E0",
":+	c #626DCB",
"<+	c #1E1569",
"[+	c #464D84",
"}+	c #6C7AB2",
"|+	c #8495DE",
"1+	c #90A0EC",
"2+	c #A2AFF2",
"3+	c #ADB7F2",
"4+	c #ACB5F0",
"5+	c #ACB3ED",
"6+	c #ACB2EC",
"7+	c #9096E2",
"8+	c #1628B7",
"9+	c #2C3BC1",
"0+	c #6871D9",
"a+	c #6E78DE",
"b+	c #717DE0",
"c+	c #656ECC",
"d+	c #180C67",
"e+	c #190E66",
"f+	c #38387A",
"g+	c #606BA3",
"h+	c #8996D8",
"i+	c #A1AFEF",
"j+	c #B0BCF6",
"k+	c #BAC4F6",
"l+	c #BAC2F5",
"m+	c #BAC2F3",
"n+	c #BBC2F2",
"o+	c #BCC2F1",
"p+	c #BEC2F0",
"q+	c #BBC0EE",
"r+	c #414EC8",
"s+	c #1527BA",
"t+	c #515CD0",
"u+	c #858EE2",
"v+	c #9098E7",
"w+	c #969FE6",
"x+	c #8082BA",
"y+	c #8A8FB8",
"z+	c #A4ACD9",
"A+	c #B4BDEF",
"B+	c #BCC5F5",
"C+	c #C1CAF7",
"D+	c #C3CCF7",
"E+	c #C5CDF6",
"F+	c #C7CDF6",
"G+	c #C8CEF5",
"H+	c #CACFF4",
"I+	c #CCD0F4",
"J+	c #CED2F3",
"K+	c #7A83DB",
"L+	c #1628BD",
"M+	c #7A82DE",
"N+	c #9EA6E9",
"O+	c #A7AEEC",
"P+	c #ADB5EC",
"Q+	c #B4BBEC",
"R+	c #BCC3F2",
"S+	c #C3CAF5",
"T+	c #C8CFF6",
"U+	c #CCD2F7",
"V+	c #CED4F7",
"W+	c #D1D6F7",
"X+	c #D4D8F7",
"Y+	c #D7DBF7",
"Z+	c #D9DCF7",
"`+	c #DCDFF7",
" @	c #B3B8EC",
".@	c #1629C0",
"+@	c #B3B8EE",
"@@	c #BDC3F1",
"#@	c #C3C9F3",
"$@	c #C9CFF5",
"%@	c #CFD4F6",
"&@	c #D8DCF8",
"*@	c #DBDFF8",
"=@	c #DFE2F9",
"-@	c #E2E5F9",
";@	c #E6E8FA",
">@	c #E7E8F9",
",@	c #9AA1E6",
"'@	c #1A2DC2",
")@	c #1326C2",
"!@	c #3E4DCE",
"~@	c #AFB4EC",
"{@	c #D2D6F5",
"]@	c #DCDFF8",
"^@	c #E1E4F9",
"/@	c #EAECFB",
"(@	c #EEEFFB",
"_@	c #F2F3FC",
":@	c #D1D5F4",
"<@	c #4B59D1",
"[@	c #1124C4",
"}@	c #1327C4",
"|@	c #4A57D3",
"1@	c #7C88E0",
"2@	c #ABB1EB",
"3@	c #D3D7F5",
"4@	c #B3B9ED",
"5@	c #8B95E3",
"6@	c #5866D6",
"7@	c #0F24C5",
"8@	c #1326C7",
"9@	c #0F24C6",
"                  . + @ @ # $                   ",
"            % & * = - ; ; - > , ' %             ",
"          ) ! ~ { ] ] ] ] ] ] { ^ / (           ",
"        _ : < [ [ [ [ [ [ [ [ [ [ < } |         ",
"      1 2 3 4 4 4 4 4 4 4 4 4 4 4 4 3 2 1       ",
"    5 6 7 8 9 0 a b c d d c c e 8 8 8 7 6 5     ",
"  f g h i j k l l m n o p q r s t u j i h v w   ",
"  x y h z A B C D E C F G H I J K L A z h M N   ",
"  O h h P Q R S T T T U V W X Y Z ` Q P h h  .  ",
"..+.h @.#.$.%.&.*.*.*.*.*.=.-.;.>.,.$.#.@.h '.).",
"!.~.h {.].^./.(._._._._._._.:.<.[.}.|.].{.h 1.2.",
"3.y 4.5.6.7.8.9.0.0.0.0.0.0.0.0.a.b.c.d.5.4.e.f.",
"g.y h.i.j.k.l.m.n.o.p.p.p.p.o.n.q.r.s.t.u.v.w.x.",
"y.z.A.B.C.D.E.F.G.G.G.G.G.G.H.I.J.K.L.M.N.O.P.y.",
"Q.R.S.T.7.U.V.F.G.G.G.G.W.H.X.Y.Z.`. +.+++@+#+Q.",
"  $+S.%+7.U.&+F.G.G.G.H.*+=+-+;+>+,+'+)+!+~+{+  ",
"  ]+^+/+(+_+:+F.G.H.<+[+}+|+1+2+3+4+5+6+I 7+]+  ",
"  8+9+0+a+b+c+d+e+f+g+h+i+j+k+l+m+n+o+p+q+r+8+  ",
"    s+t+u+v+w+x+y+z+A+B+C+D+E+F+G+H+I+J+K+s+    ",
"      L+M+N+O+P+Q+R+S+T+U+V+W+X+Y+Z+`+ @L+      ",
"        .@|.+@@@#@$@%@X+&@*@=@-@;@>@,@'@        ",
"          )@!@~@{@Y+]@^@;@/@(@_@:@<@)@          ",
"            [@}@|@1@2@3@{@4@5@6@}@[@            ",
"                  7@8@9@9@8@7@                  "};
