/* XPM */
static char * TCheckVirtualDBTreeEx_xpm[] = {
"24 24 8 1",
" 	c None",
".	c #808080",
"+	c #000000",
"@	c #C0C0C0",
"#	c #FFFFFF",
"$	c #808000",
"%	c #0000FF",
"&	c #800080",
"........++.....         ",
".@.#@@@+@@+++++++++++++ ",
"......+###@@@@@@@@@@..$+",
".@.###+############$...+",
".#.#@+############$....+",
".@.###+++$########+....+",
".#.#@@#@#+++++++++....$ ",
".@.####@#+........###.+ ",
".#.#@@#@#+#+#########@+ ",
".@.####@#+#++++++%%&#.+ ",
".........+#+#####&&&#+  ",
"         +#+#########+  ",
"        +##++++++%%&#+  ",
"       +###+###+#&&&#+  ",
"       +###+###+#####+  ",
"       +###+###++%%&#+  ",
"       +#########&&&#@+ ",
" +++++++..........####+ ",
" +#####+#########.###.+ ",
" +###%#+#+++#+++#.##@+  ",
" +#%%%#+#########.@@@+  ",
" +#%%##+#+++#+++#.+@+   ",
" +#####+#########.++    ",
" +++++++..........      "};
