/* XPM */
static char * tfwcancel_xpm[] = {
"24 24 200 2",
"  	c None",
". 	c #A10002",
"+ 	c #A40100",
"@ 	c #AC0001",
"# 	c #AE0002",
"$ 	c #A50405",
"% 	c #A60600",
"& 	c #A60706",
"* 	c #BB0201",
"= 	c #B10600",
"- 	c #BC0502",
"; 	c #B20900",
"> 	c #B20905",
", 	c #A80C07",
"' 	c #BD0800",
") 	c #AA0E00",
"! 	c #B30C00",
"~ 	c #C80700",
"{ 	c #B50E00",
"] 	c #B50E07",
"^ 	c #C00E00",
"/ 	c #AC130A",
"( 	c #CA0B01",
"_ 	c #C00E05",
": 	c #D50A00",
"< 	c #B71309",
"[ 	c #CB0E02",
"} 	c #C11106",
"| 	c #CC1000",
"1 	c #C21300",
"2 	c #B8150A",
"3 	c #D60E00",
"4 	c #C31508",
"5 	c #CE1300",
"6 	c #D71101",
"7 	c #C51709",
"8 	c #CF1500",
"9 	c #A91E1F",
"0 	c #E31000",
"a 	c #CF1605",
"b 	c #DA1500",
"c 	c #D01800",
"d 	c #DA1603",
"e 	c #D11A00",
"f 	c #E51600",
"g 	c #D31C00",
"h 	c #DD1A00",
"i 	c #E71801",
"j 	c #C91F16",
"k 	c #D51F00",
"l 	c #DE1C06",
"m 	c #CB2017",
"n 	c #F21800",
"o 	c #CC220F",
"p 	c #DF1E07",
"q 	c #CC2218",
"r 	c #EA1C00",
"s 	c #CE2311",
"t 	c #D82302",
"u 	c #AD2C29",
"v 	c #EB1F04",
"w 	c #F51D00",
"x 	c #EC2000",
"y 	c #E32300",
"z 	c #E4250D",
"A 	c #ED2307",
"B 	c #F82102",
"C 	c #A33537",
"D 	c #A43638",
"E 	c #F92300",
"F 	c #F92304",
"G 	c #A53739",
"H 	c #F0260A",
"I 	c #A13938",
"J 	c #A6383A",
"K 	c #CD2F21",
"L 	c #FA2500",
"M 	c #A23A39",
"N 	c #A7393B",
"O 	c #F1280B",
"P 	c #A33B3A",
"Q 	c #A93A3C",
"R 	c #A43D3B",
"S 	c #FD2900",
"T 	c #FD2908",
"U 	c #A53E3C",
"V 	c #A43E41",
"W 	c #A63F3C",
"X 	c #A63F42",
"Y 	c #F72E03",
"Z 	c #A7403D",
"` 	c #A74043",
" .	c #A9413E",
"..	c #A84143",
"+.	c #A94244",
"@.	c #AA4345",
"#.	c #AB4446",
"$.	c #D13C2C",
"%.	c #FC3409",
"&.	c #AB5151",
"*.	c #AE5454",
"=.	c #B05555",
"-.	c #B45959",
";.	c #B05C59",
">.	c #B25E5B",
",.	c #B95D5D",
"'.	c #B45F5C",
").	c #E09288",
"!.	c #FF8B78",
"~.	c #E4978C",
"{.	c #EE9F95",
"].	c #E9A195",
"^.	c #EFA096",
"/.	c #D5A7A4",
"(.	c #E9A39B",
"_.	c #DCA7A7",
":.	c #EAA49C",
"<.	c #EBA59D",
"[.	c #ECA69E",
"}.	c #D9ABA9",
"|.	c #DBAEAB",
"1.	c #E2AEAD",
"2.	c #E1B3B0",
"3.	c #DBB6B7",
"4.	c #DEB7B2",
"5.	c #E4B6B3",
"6.	c #D8BAB9",
"7.	c #E5B7B4",
"8.	c #E7B8B5",
"9.	c #F0B8B2",
"0.	c #DCBEBD",
"a.	c #F2BAB4",
"b.	c #DDC0BE",
"c.	c #F3BBB5",
"d.	c #DFC1BF",
"e.	c #F6BCB0",
"f.	c #E0C2C0",
"g.	c #F8BEB2",
"h.	c #FABFB3",
"i.	c #E3C5C4",
"j.	c #F1C2BF",
"k.	c #E5C7C6",
"l.	c #E0C9C6",
"m.	c #F5C4BB",
"n.	c #E6C8C7",
"o.	c #DFCACD",
"p.	c #F6C5BC",
"q.	c #E8C9C8",
"r.	c #E0CBCE",
"s.	c #E9CAC9",
"t.	c #F8C7BE",
"u.	c #E1CDCF",
"v.	c #EACBCA",
"w.	c #FAC8C0",
"x.	c #EBCDCB",
"y.	c #E3CFD1",
"z.	c #FCCAC2",
"A.	c #ECCECC",
"B.	c #E4D0D2",
"C.	c #EDCFCD",
"D.	c #E0D3D3",
"E.	c #E6D2D4",
"F.	c #E1D4D4",
"G.	c #E8D3D6",
"H.	c #E2D5D5",
"I.	c #E9D4D7",
"J.	c #EAD5D8",
"K.	c #E4D7D8",
"L.	c #EBD6D9",
"M.	c #ECD7DA",
"N.	c #E6D9DA",
"O.	c #EEDADC",
"P.	c #E9DCDC",
"Q.	c #EFDBDD",
"R.	c #EADDDD",
"S.	c #EBDEDE",
"T.	c #ECDFDF",
"U.	c #F4E7E7",
"V.	c #E9EBE8",
"W.	c #EAECE9",
"X.	c #EBEEEA",
"Y.	c #EDEFEB",
"Z.	c #EEF0ED",
"`.	c #FDEDE8",
" +	c #EFF1EE",
".+	c #F0F2EF",
"++	c #F7F1F0",
"@+	c #F1F3F0",
"#+	c #F2F4F1",
"$+	c #F3F5F2",
"%+	c #FAF5F3",
"&+	c #F4F7F3",
"*+	c #F6F8F4",
"=+	c #F7F9F6",
"-+	c #F8FAF7",
";+	c #F9FBF8",
">+	c #FAFCF9",
",+	c #FBFDFA",
"'+	c #FFFCFA",
")+	c #FCFFFB",
"        #.,.C                       *.J         ",
"      @.U.)+Q.W                 J f.*+T.+.      ",
"    #.U.)+`.,+O.Z             J i.*+++$+S...    ",
"  #.U.)+!.T h.>+L.W         J i.*+<.g ~.#+R. .  ",
"Q U.)+!.S S F g.;+J.W     J i.*+<.c c [ ).@+P.` ",
"-.)+'+%.S F n H e.;+G.U J i.*+<.c c 8 ~ K @+@+>.",
"  q.,+z.Y n n x A c.-+E.k.*+:.g c 8 ~ j v.@+y.M ",
"  W v.>+w.O x r f y a.*+*+(.g c 8 ~ j v.@+u.R   ",
"    Q s.;+t.A f f 0 p 9.].g c 8 ~ j v.@+u.R     ",
"      R q.;+p.z 0 h d d g c 8 ~ j v.@+o.R       ",
"        N q.-+m.p h 6 3 c 8 ~ q A.@+l.G         ",
"          R B.=+j.k 3 c c ~ q C.@+o.I           ",
"          U J.*+{.3 c c [ ~ 4 2.@+.++.          ",
"        U I.*+].3 c c [ ~ 1 ^ } 1..+f.U         ",
"      W J.*+^.3 c c [ o 4 ^ ^ - < |. +d.R       ",
"    W L.*+^.3 c c [ o v.8.} - { ; > }.Z.d.M     ",
"  W M.*+^.6 c c 8 o v.@+@+8.2 ! ; # ) _.X.0.I   ",
"W M.*+^.6 3 c 8 o v.@+i.u..+5.] # @ % & /.W.6.  ",
"'.*+%+k 3 c 8 s v.@+d.G R r. +4./ % % . 9 W.V.&.",
"X M.&+<.a 8 s v.@+0.G     R r.Z.3., . $ }.V.D.D ",
"  R N.$+(.$.v.@+0.D         R r.Y.3.u |.V.D.R   ",
"    U K.#+@+@+0.D             R u.W.W.V.F.U     ",
"      U E.@+6.D                 R u.V.H.W       ",
"        J =.                      J ;.V         "};
