/* XPM */
static char * tfwconfig_xpm[] = {
"24 24 136 2",
"  	c None",
". 	c #000000",
"+ 	c #010100",
"@ 	c #040301",
"# 	c #070502",
"$ 	c #080602",
"% 	c #0A0702",
"& 	c #090803",
"* 	c #0C0903",
"= 	c #0E0A04",
"- 	c #0E0B03",
"; 	c #0F0C04",
"> 	c #100C04",
", 	c #100C05",
"' 	c #100D05",
") 	c #120D05",
"! 	c #0E0E0E",
"~ 	c #130F06",
"{ 	c #141006",
"] 	c #151106",
"^ 	c #161106",
"/ 	c #181306",
"( 	c #16140F",
"_ 	c #1A1408",
": 	c #1A1508",
"< 	c #1B1508",
"[ 	c #1B1607",
"} 	c #1A1610",
"| 	c #1E1808",
"1 	c #191919",
"2 	c #201A09",
"3 	c #1B1B1B",
"4 	c #1D1D1D",
"5 	c #251D0A",
"6 	c #1E1E1E",
"7 	c #281F0B",
"8 	c #212121",
"9 	c #222222",
"0 	c #2A220C",
"a 	c #2B220D",
"b 	c #232323",
"c 	c #2C230C",
"d 	c #2E240B",
"e 	c #252525",
"f 	c #2E250D",
"g 	c #262626",
"h 	c #31270E",
"i 	c #33280E",
"j 	c #292929",
"k 	c #352A0F",
"l 	c #372C0F",
"m 	c #2D2D2D",
"n 	c #2F2F2F",
"o 	c #3B2F10",
"p 	c #313131",
"q 	c #3F3212",
"r 	c #333333",
"s 	c #343434",
"t 	c #353535",
"u 	c #433512",
"v 	c #433513",
"w 	c #363636",
"x 	c #443613",
"y 	c #453613",
"z 	c #373737",
"A 	c #453713",
"B 	c #383838",
"C 	c #473814",
"D 	c #393939",
"E 	c #493A14",
"F 	c #4A3A14",
"G 	c #3B3B3B",
"H 	c #4B3B15",
"I 	c #4E3E16",
"J 	c #3F3F3F",
"K 	c #404040",
"L 	c #514016",
"M 	c #414141",
"N 	c #544317",
"O 	c #554318",
"P 	c #444444",
"Q 	c #564418",
"R 	c #474747",
"S 	c #484848",
"T 	c #5B4819",
"U 	c #5B491A",
"V 	c #5C491A",
"W 	c #5E4B1A",
"X 	c #5E4B1B",
"Y 	c #5F4B1A",
"Z 	c #604C1B",
"` 	c #4D4D4D",
" .	c #4E4E4E",
"..	c #634E1C",
"+.	c #634F1C",
"@.	c #505050",
"#.	c #525252",
"$.	c #68531D",
"%.	c #545454",
"&.	c #69541D",
"*.	c #555555",
"=.	c #6B551E",
"-.	c #6D561F",
";.	c #575757",
">.	c #6E571F",
",.	c #595959",
"'.	c #70591F",
").	c #5A5A5A",
"!.	c #715A20",
"~.	c #5B5B5B",
"{.	c #725B20",
"].	c #5C5C5C",
"^.	c #745C21",
"/.	c #5F5F5F",
"(.	c #7A6122",
"_.	c #626262",
":.	c #636363",
"<.	c #656565",
"[.	c #666666",
"}.	c #806624",
"|.	c #826725",
"1.	c #686868",
"2.	c #696969",
"3.	c #6A6A6A",
"4.	c #6F6F6F",
"5.	c #707070",
"6.	c #757575",
"7.	c #767676",
"8.	c #777777",
"9.	c #787878",
"0.	c #808080",
"a.	c #818181",
"b.	c #828282",
"c.	c #838383",
"d.	c #8A8A8A",
"e.	c #909090",
"                    j m p r G                   ",
"                  e z ~.d.s /.@.w g             ",
"                      9 z ).7.b.,.S b           ",
"                        D ).2.8.a.*.P 8         ",
"                        n ` ~.2.8.0.@.K         ",
"                        6 B ` ~.3.9.c.e.,.      ",
"                          ( t  .].1.%.6.j       ",
"                        : 7 } z  .G D <.:._.g   ",
"                      < o i { ! 3   g m M 4.[.J ",
"                    ] v y d           j z ;.5.R ",
"                  ) A H v >           4 z #. .  ",
"                ' x L I [               1 g     ",
"              = q Q O h                         ",
"              k T V F ,                         ",
"            0 W ..U /                           ",
"          | Z $.+.c                             ",
"        ^ X >.=.E                               ",
"      - N !.{.Y ~                               ",
"    # x !.(.&.2                                 ",
"    a $.}.'.l                                   ",
"  ; L |.^.C &                                   ",
"  5 Z -.A %       .                             ",
"  _ u f * + .                                   ",
"  @ $ #                                         "};
