/* XPM */
static char * tfwclose_xpm[] = {
"24 24 129 2",
"  	c None",
". 	c #CFA767",
"+ 	c #CFA664",
"@ 	c #CFA867",
"# 	c #CFA868",
"$ 	c #CEAB71",
"% 	c #CFA765",
"& 	c #CFA869",
"* 	c #CEAB72",
"= 	c #CFA766",
"- 	c #CFA969",
"; 	c #CEAC73",
"> 	c #CB9D52",
", 	c #CC9C4E",
"' 	c #CC9C4F",
") 	c #CC9D52",
"! 	c #CC9F56",
"~ 	c #CC9D53",
"{ 	c #CD9D4F",
"] 	c #CD9D50",
"^ 	c #CC9E53",
"/ 	c #CC9F57",
"( 	c #CC9E54",
"_ 	c #CD9D51",
": 	c #CC9E55",
"< 	c #CCA059",
"[ 	c #C89747",
"} 	c #C99541",
"| 	c #C99542",
"1 	c #C99747",
"2 	c #C9984A",
"3 	c #C99748",
"4 	c #CA9642",
"5 	c #CA9643",
"6 	c #C99848",
"7 	c #C9994A",
"8 	c #CA9644",
"9 	c #C99849",
"0 	c #C9994C",
"a 	c #C59038",
"b 	c #C68E33",
"c 	c #C78E34",
"d 	c #C69039",
"e 	c #C6913C",
"f 	c #C6913A",
"g 	c #C78F35",
"h 	c #C6923D",
"i 	c #C6913B",
"j 	c #C78F36",
"k 	c #C79036",
"l 	c #C6923E",
"m 	c #C3882B",
"n 	c #C48727",
"o 	c #C48625",
"p 	c #C38B2F",
"q 	c #C3892C",
"r 	c #C48828",
"s 	c #C48726",
"t 	c #C3892D",
"u 	c #C48929",
"v 	c #C38A2D",
"w 	c #C38C30",
"x 	c #C0821E",
"y 	c #C1811C",
"z 	c #C18019",
"A 	c #C08424",
"B 	c #C08425",
"C 	c #C0831F",
"D 	c #C1821D",
"E 	c #C1811A",
"F 	c #C08320",
"G 	c #C18526",
"H 	c #C0821D",
"I 	c #C08524",
"J 	c #C08526",
"K 	c #C1811B",
"L 	c #A5A599",
"M 	c #B98227",
"N 	c #C08423",
"O 	c #ADB5B1",
"P 	c #C5B28C",
"Q 	c #C5A162",
"R 	c #8E9491",
"S 	c #AB7C30",
"T 	c #BC801F",
"U 	c #C08422",
"V 	c #C1811D",
"W 	c #979F9B",
"X 	c #B4802C",
"Y 	c #A1834C",
"Z 	c #BE7F1A",
"` 	c #C08321",
" .	c #BC7E1C",
"..	c #BC7D1A",
"+.	c #BC7F1B",
"@.	c #BD7F1C",
"#.	c #BC8222",
"$.	c #BE7E1A",
"%.	c #BE7F1B",
"&.	c #BE801C",
"*.	c #BE8322",
"=.	c #BF801B",
"-.	c #BF7F19",
";.	c #BF801A",
">.	c #C0801B",
",.	c #B37A1E",
"'.	c #B37A1D",
").	c #B37D26",
"!.	c #B47A1D",
"~.	c #B47B1D",
"{.	c #B57B1C",
"].	c #B57B1D",
"^.	c #B57E25",
"/.	c #B67B1D",
"(.	c #B77B1C",
"_.	c #B77C1D",
":.	c #B77F25",
"<.	c #A87621",
"[.	c #AA751F",
"}.	c #AA7621",
"|.	c #AA7927",
"1.	c #AC761F",
"2.	c #AC7721",
"3.	c #AC7A26",
"4.	c #AC7720",
"5.	c #AD771F",
"6.	c #AE771E",
"7.	c #AD7820",
"8.	c #AE7B26",
"                                                ",
"          . + @ # $ # % & & * & = - - ;         ",
"          > , ' ) ! ~ { ] ^ / ( ] _ : <         ",
"          [ } | 1 2 3 4 5 6 7 6 5 8 9 0         ",
"          a b c d e f g g f h i j k i l         ",
"          m n o m p q r s q p t u r v w         ",
"          x y z x A x y z x B C D E F G         ",
"          H D z x I x D z x I x D z x I         ",
"          x H E x J x H E x J x H E x J         ",
"          H K E H A H K E H A H K E H A         ",
"          D L M D N D E E D N D E E D N         ",
"          x O P Q N H E E H N H E E H N         ",
"          x R S T U H z K H U H z K H U         ",
"          V W X y U y z K y U y z K y U         ",
"          K Y Z K ` K z z K ` K z z K `         ",
"          E E z E ` E E z E ` E E z E `         ",
"          E E K E N E E K E N E E K E N         ",
"          E z y E A E z y E A E z y E A         ",
"          E z K E N E z K E N E z K E N         ",
"          E z E E ` E z E E ` E z E E `         ",
"           ...+.@.#.@.$.%.&.*.=.-.;.>.U         ",
"          ,.,.'.'.).!.~.{.].^././.(._.:.        ",
"          <.[.[.}.|.}.1.1.2.3.4.5.6.7.8.        ",
"                                                "};
