/* XPM */
static char * tfwdelete_xpm[] = {
"24 24 157 2",
"  	c None",
". 	c #0D5E02",
"+ 	c #0F6904",
"@ 	c #0F6C03",
"# 	c #0F6D03",
"$ 	c #0F6E03",
"% 	c #0E7003",
"& 	c #0F7202",
"* 	c #0F7203",
"= 	c #107303",
"- 	c #107403",
"; 	c #0F7504",
"> 	c #107603",
", 	c #107604",
"' 	c #107704",
") 	c #117904",
"! 	c #117B04",
"~ 	c #127C04",
"{ 	c #127D04",
"] 	c #127E04",
"^ 	c #128004",
"/ 	c #138005",
"( 	c #118104",
"_ 	c #128304",
": 	c #138403",
"< 	c #138503",
"[ 	c #138604",
"} 	c #138704",
"| 	c #128805",
"1 	c #138A05",
"2 	c #148C05",
"3 	c #138D05",
"4 	c #168D06",
"5 	c #148E05",
"6 	c #148F05",
"7 	c #149005",
"8 	c #149105",
"9 	c #159205",
"0 	c #169204",
"a 	c #169404",
"b 	c #169505",
"c 	c #169706",
"d 	c #179807",
"e 	c #159906",
"f 	c #169B06",
"g 	c #179C05",
"h 	c #189E07",
"i 	c #179F06",
"j 	c #17A007",
"k 	c #19A007",
"l 	c #19A307",
"m 	c #22A112",
"n 	c #19A508",
"o 	c #26A516",
"p 	c #29A919",
"q 	c #2AAC1A",
"r 	c #2CAC1C",
"s 	c #2FAF1E",
"t 	c #2FAF1F",
"u 	c #2FB01F",
"v 	c #32B220",
"w 	c #33B323",
"x 	c #33B423",
"y 	c #34B524",
"z 	c #36B626",
"A 	c #36B726",
"B 	c #37B827",
"C 	c #39B929",
"D 	c #3ABA2A",
"E 	c #3BBA2B",
"F 	c #3CBB2B",
"G 	c #3CBC2C",
"H 	c #3DBC2D",
"I 	c #3EBD2E",
"J 	c #3FBE30",
"K 	c #40BF30",
"L 	c #41BF31",
"M 	c #41C031",
"N 	c #42C031",
"O 	c #44C234",
"P 	c #45C235",
"Q 	c #45C335",
"R 	c #45C336",
"S 	c #46C436",
"T 	c #48C538",
"U 	c #49C53A",
"V 	c #49C63A",
"W 	c #4AC63B",
"X 	c #4AC73B",
"Y 	c #4EC93D",
"Z 	c #4EC93E",
"` 	c #4ECA3F",
" .	c #4FCA3F",
"..	c #52CC43",
"+.	c #52CD42",
"@.	c #53CD43",
"#.	c #53CD44",
"$.	c #54CE44",
"%.	c #57CF48",
"&.	c #57D047",
"*.	c #58D048",
"=.	c #59D149",
"-.	c #59D14A",
";.	c #5CD34C",
">.	c #5CD34D",
",.	c #5ED44F",
"'.	c #5FD450",
").	c #61D751",
"!.	c #61D752",
"~.	c #62D753",
"{.	c #63D754",
"].	c #64D855",
"^.	c #65DA56",
"/.	c #67DA58",
"(.	c #68DA5A",
"_.	c #66DB57",
":.	c #6ADB5B",
"<.	c #6BDD5C",
"[.	c #6DDD5E",
"}.	c #6CDE5D",
"|.	c #6EDE60",
"1.	c #6FDF61",
"2.	c #70E061",
"3.	c #71E162",
"4.	c #73E165",
"5.	c #74E166",
"6.	c #75E267",
"7.	c #75E467",
"8.	c #76E467",
"9.	c #79E46B",
"0.	c #7AE56C",
"a.	c #7BE56D",
"b.	c #77E769",
"c.	c #7AE76C",
"d.	c #7FE771",
"e.	c #80E873",
"f.	c #82E974",
"g.	c #80EB72",
"h.	c #85EB78",
"i.	c #87EB79",
"j.	c #88EC7B",
"k.	c #86EE78",
"l.	c #8CEE7F",
"m.	c #8DEE80",
"n.	c #8CF07E",
"o.	c #8EF082",
"p.	c #92F186",
"q.	c #94F187",
"r.	c #91F384",
"s.	c #95F289",
"t.	c #90F582",
"u.	c #96F489",
"v.	c #9BF58E",
"w.	c #9DF690",
"x.	c #9DF891",
"y.	c #A3F897",
"z.	c #A6FB9B",
"                                                ",
"                                                ",
"                                                ",
"                                                ",
"                                                ",
"                                                ",
"                                                ",
"                                                ",
"4 j i g f e c b a 9 7 5 2 1 | [ < _ ( ^ { ~ ) + ",
"n t.r.n.k.g.c.7.2.<.^.).;.&.+.` V Q L H C z v , ",
"l z.y.w.s.o.j.f.a.6.1.:.].'.-.$. .W R M G C x > ",
"k x.v.q.m.i.e.0.5.|.(.{.,.=.@.Z U P K F B y s = ",
"h u.p.l.h.d.9.4.[./.~.>.%...Y T O J E A w u q * ",
"d b.8.3.}._.!.;.*.#. .X S N I D z w t r p o m # ",
"/ 0 8 6 3 2 1 | } : _ ( ] { ! ) ' ; - & % $ @ . ",
"                                                ",
"                                                ",
"                                                ",
"                                                ",
"                                                ",
"                                                ",
"                                                ",
"                                                ",
"                                                "};
