/* XPM */
static char * tfwdocument_xpm[] = {
"16 16 171 2",
"  	c None",
". 	c #454C74",
"+ 	c #63608C",
"@ 	c #63608E",
"# 	c #646193",
"$ 	c #626298",
"% 	c #64648B",
"& 	c #636399",
"* 	c #68658D",
"= 	c #646599",
"- 	c #686694",
"; 	c #686799",
"> 	c #6C688E",
", 	c #167BD6",
"' 	c #7073A6",
") 	c #368FDD",
"! 	c #8388A7",
"~ 	c #8099C5",
"{ 	c #8C98CF",
"] 	c #8D99CF",
"^ 	c #8E9AD0",
"/ 	c #909BCF",
"( 	c #919BCF",
"_ 	c #919CD0",
": 	c #8F9DD6",
"< 	c #959FD3",
"[ 	c #9DA5BF",
"} 	c #A0A7C1",
"| 	c #A2A8C2",
"1 	c #A5AEC9",
"2 	c #A7B2D3",
"3 	c #ABB5D0",
"4 	c #6AC9FF",
"5 	c #B0BCD7",
"6 	c #B2BDD8",
"7 	c #B5C0DD",
"8 	c #B9C5DE",
"9 	c #C3C4DD",
"0 	c #C6C7DC",
"a 	c #BEC9E6",
"b 	c #ADD0F8",
"c 	c #B0D1F8",
"d 	c #ACD3FC",
"e 	c #B2D2F8",
"f 	c #B3D3F7",
"g 	c #AED5FC",
"h 	c #B4D4F7",
"i 	c #B5D4F7",
"j 	c #B6D5F8",
"k 	c #B2D6FC",
"l 	c #B8D6F8",
"m 	c #B0D8FF",
"n 	c #B4D8FC",
"o 	c #B9D7F8",
"p 	c #B9D7F9",
"q 	c #BBD7F9",
"r 	c #BBD8F9",
"s 	c #BCD8F9",
"t 	c #AEDCFF",
"u 	c #B8DAFC",
"v 	c #BDD9F8",
"w 	c #B4DBFF",
"x 	c #BED9F8",
"y 	c #BED9F9",
"z 	c #C7D8EF",
"A 	c #BFDBF8",
"B 	c #BEDBFB",
"C 	c #CFD8E9",
"D 	c #C0DBF9",
"E 	c #BCDCFD",
"F 	c #C1DBF9",
"G 	c #B9DDFF",
"H 	c #C8DAF3",
"I 	c #C3DCFA",
"J 	c #C4DCF9",
"K 	c #C2DDF9",
"L 	c #C0DEFD",
"M 	c #C5DDF9",
"N 	c #C4DEFA",
"O 	c #C5DEF9",
"P 	c #C5DEFA",
"Q 	c #BEE0FF",
"R 	c #CCDDF5",
"S 	c #C7DEFA",
"T 	c #D3DCEE",
"U 	c #C7DFF9",
"V 	c #C8DFF9",
"W 	c #D9DAFF",
"X 	c #C3E1FD",
"Y 	c #C9E1F9",
"Z 	c #D4DFEF",
"` 	c #CAE1F9",
" .	c #CBE1FA",
"..	c #C3E3FF",
"+.	c #CCE1F9",
"@.	c #CCE2FA",
"#.	c #CEE2FA",
"$.	c #CDE3FA",
"%.	c #CEE3FB",
"&.	c #CFE3FB",
"*.	c #D0E3FB",
"=.	c #CFE4FA",
"-.	c #C8E6FF",
";.	c #D1E4F9",
">.	c #CCE5FF",
",.	c #D1E4FB",
"'.	c #D8E3F3",
").	c #D9E3F4",
"!.	c #DDE1FF",
"~.	c #D2E5FB",
"{.	c #D3E5FB",
"].	c #D3E6FA",
"^.	c #D5E6FB",
"/.	c #CCE9FF",
"(.	c #D5E7FB",
"_.	c #CEE9FF",
":.	c #D7E7FB",
"<.	c #D3E8FF",
"[.	c #D5E8FA",
"}.	c #D6E8FB",
"|.	c #D8E8FA",
"1.	c #D8E8FB",
"2.	c #D6E9FB",
"3.	c #DBE8F9",
"4.	c #D9E9FB",
"5.	c #DBE9FB",
"6.	c #DBEAFB",
"7.	c #DBEAFC",
"8.	c #D8EBFF",
"9.	c #DDEAFC",
"0.	c #D5EDFF",
"a.	c #DEEBFC",
"b.	c #DEEDFC",
"c.	c #DFEDFC",
"d.	c #E1EDFC",
"e.	c #DDEEFF",
"f.	c #DEEEFD",
"g.	c #E2EEFC",
"h.	c #E2EFFC",
"i.	c #E5EFFD",
"j.	c #E4F0FC",
"k.	c #E5F0FC",
"l.	c #E6F0FC",
"m.	c #DCF3FF",
"n.	c #E3F1FF",
"o.	c #E8F2FD",
"p.	c #E9F2FC",
"q.	c #E5F3FF",
"r.	c #E9F3FC",
"s.	c #EBF3FC",
"t.	c #E8F4FE",
"u.	c #EBF4FC",
"v.	c #ECF4FD",
"w.	c #EEF5FD",
"x.	c #EBF6FF",
"y.	c #EFF5FE",
"z.	c #EEF6FF",
"A.	c #F0F6FE",
"B.	c #F1F6FD",
"C.	c #F3F8FD",
"D.	c #F2F9FF",
"E.	c #F3F9FF",
"F.	c #F4F9FE",
"G.	c #F6FBFD",
"H.	c #F6FBFF",
"I.	c #F5FCFF",
"J.	c #F9FCFF",
"K.	c #FBFDFF",
"L.	c #FBFEFF",
"M.	c #FEFEFF",
"N.	c #FFFFFF",
"    B f.3.).'.Z T C 2 5         ",
"    ;.N.M.L.J.H.E.I.0 4 ~       ",
"    R M.G.F.B.w.s.x.9 ) , !     ",
"    H K.C.A.v.p.k.h.q.W !.&     ",
"    z H.y.u.o.j.d.9.1.2.m.$     ",
"    a D.r.l.g.b.6.}.{.=.0.=     ",
"    8 z.i.d.a.4.[.~.#.` _.;     ",
"    7 t.c.7.|.(.*.+.V N -.#     ",
"    6 n.5.:.].%. .S I A ..-     ",
"    3 e.^.,.$.Y M F v q Q @     ",
"    1 8.&.@.U J D s o i G +     ",
"    | <.` O K y r l h e w %     ",
"    } >.P F x p j f c b m *     ",
"    [ /.X L E u n k g d t >     ",
"    ' < _ ( / ^ ^ ] { { : .     ",
"                                "};
