/* XPM */
static char * tfwdate_xpm[] = {
"21 24 256 2",
"  	c None",
". 	c #000100",
"+ 	c #080E11",
"@ 	c #10120F",
"# 	c #161815",
"$ 	c #1B1C1A",
"% 	c #211D1C",
"& 	c #292524",
"* 	c #B90009",
"= 	c #2C2827",
"- 	c #C50007",
"; 	c #2A2C29",
"> 	c #CE0004",
", 	c #BC050B",
"' 	c #C70409",
") 	c #322E2D",
"! 	c #C70512",
"~ 	c #B40D0F",
"{ 	c #C8080A",
"] 	c #C90901",
"^ 	c #323638",
"/ 	c #B71311",
"( 	c #35393B",
"_ 	c #B91713",
": 	c #3D3938",
"< 	c #BB1B1B",
"[ 	c #AD221B",
"} 	c #D01B20",
"| 	c #C0211F",
"1 	c #D52014",
"2 	c #4A4544",
"3 	c #48464A",
"4 	c #D52223",
"5 	c #BE2A1F",
"6 	c #C7281D",
"7 	c #454A4C",
"8 	c #D6242A",
"9 	c #B23027",
"0 	c #D82525",
"a 	c #A63528",
"b 	c #AF362D",
"c 	c #A33A2E",
"d 	c #D22C30",
"e 	c #684D32",
"f 	c #D52E31",
"g 	c #6D4D33",
"h 	c #6A4F33",
"i 	c #6B5034",
"j 	c #565458",
"k 	c #6E5130",
"l 	c #6C5136",
"m 	c #595453",
"n 	c #9E4335",
"o 	c #AB4134",
"p 	c #6E5337",
"q 	c #D33632",
"r 	c #5B5756",
"s 	c #715433",
"t 	c #705438",
"u 	c #9C483C",
"v 	c #805136",
"w 	c #565A5C",
"x 	c #C73C39",
"y 	c #855037",
"z 	c #DD3637",
"A 	c #72563A",
"B 	c #C83E3B",
"C 	c #C24039",
"D 	c #D53A40",
"E 	c #74583C",
"F 	c #C93F3C",
"G 	c #D13D39",
"H 	c #CB4037",
"I 	c #9B4E3E",
"J 	c #D13E3F",
"K 	c #775B3F",
"L 	c #CD423E",
"M 	c #8B563D",
"N 	c #626064",
"O 	c #7A5E41",
"P 	c #C94743",
"Q 	c #CF4546",
"R 	c #7D6144",
"S 	c #D34843",
"T 	c #7F6246",
"U 	c #945E44",
"V 	c #CF4D4E",
"W 	c #C94F4C",
"X 	c #6D6867",
"Y 	c #826548",
"Z 	c #D84C46",
"` 	c #B05846",
" .	c #C75241",
"..	c #706B69",
"+.	c #CE5350",
"@.	c #86694C",
"#.	c #D05552",
"$.	c #886B4E",
"%.	c #D7544E",
"&.	c #9D664C",
"*.	c #C75B56",
"=.	c #8D6E4C",
"-.	c #C65C5C",
";.	c #C35F5C",
">.	c #797473",
",.	c #90714F",
"'.	c #777579",
").	c #A46C52",
"!.	c #CC6060",
"~.	c #E65A57",
"{.	c #937451",
"].	c #987162",
"^.	c #D4605E",
"/.	c #D9635B",
"(.	c #AD7353",
"_.	c #DA6562",
":.	c #D56761",
"<.	c #98796D",
"[.	c #D46867",
"}.	c #837E7D",
"|.	c #7C8183",
"1.	c #EA6563",
"2.	c #868180",
"3.	c #BA7375",
"4.	c #BF7672",
"5.	c #A67E6E",
"6.	c #82878A",
"7.	c #938580",
"8.	c #89878B",
"9.	c #8D8887",
"0.	c #B17F7F",
"a.	c #E67173",
"b.	c #B2835E",
"c.	c #EE706F",
"d.	c #918B8A",
"e.	c #C07F7E",
"f.	c #DE7879",
"g.	c #A18A81",
"h.	c #95908E",
"i.	c #B48886",
"j.	c #9E908B",
"k.	c #AC9065",
"l.	c #CE8480",
"m.	c #AE9166",
"n.	c #969498",
"o.	c #A6918E",
"p.	c #B09367",
"q.	c #B2966A",
"r.	c #959A9C",
"s.	c #BD918F",
"t.	c #E08888",
"u.	c #979C9E",
"v.	c #A5999A",
"w.	c #AA998F",
"x.	c #B6996D",
"y.	c #9E9CA0",
"z.	c #AC9B90",
"A.	c #B89B70",
"B.	c #9A9FA1",
"C.	c #AD9C91",
"D.	c #E58C8C",
"E.	c #B69998",
"F.	c #A89E92",
"G.	c #BB9D6B",
"H.	c #A5A09F",
"I.	c #AAA093",
"J.	c #BD9F6D",
"K.	c #B09F94",
"L.	c #D29693",
"M.	c #BBA092",
"N.	c #C29E9F",
"O.	c #ED9394",
"P.	c #B3A49F",
"Q.	c #ACA6A5",
"R.	c #AEA8A7",
"S.	c #CDA09D",
"T.	c #B9A79D",
"U.	c #ADABAF",
"V.	c #BEA8A5",
"W.	c #AAAFB1",
"X.	c #BDACA1",
"Y.	c #BBAE9C",
"Z.	c #ECA1A1",
"`.	c #BDB09E",
" +	c #D9ABA9",
".+	c #ECA7A5",
"++	c #D2AEAE",
"@+	c #C2B4A2",
"#+	c #CAB6A6",
"$+	c #C5B8A5",
"%+	c #B6BBBE",
"&+	c #C1B9B2",
"*+	c #BFB9B8",
"=+	c #CDB7B3",
"-+	c #D5B7B6",
";+	c #CFBAAA",
">+	c #C9BCAA",
",+	c #F5B0AE",
"'+	c #C4BFBD",
")+	c #D2BDAD",
"!+	c #CDBFAD",
"~+	c #D0C2B0",
"{+	c #C8C3C2",
"]+	c #D1C1BC",
"^+	c #CAC4C3",
"/+	c #C7C5C9",
"(+	c #CBC5C4",
"_+	c #D9C3BF",
":+	c #CFCAC8",
"<+	c #D6CCD3",
"[+	c #D9CCCD",
"}+	c #D3CECC",
"|+	c #D1CED3",
"1+	c #D2CFD4",
"2+	c #D3D0D5",
"3+	c #D4D1D6",
"4+	c #F5C9CC",
"5+	c #D7D2D0",
"6+	c #D0D5D8",
"7+	c #D6D4D8",
"8+	c #D7D5D9",
"9+	c #DAD5D3",
"0+	c #D2D8DA",
"a+	c #D9D7DB",
"b+	c #DCD7D5",
"c+	c #DBD8DC",
"d+	c #D5DADC",
"e+	c #DCD9DE",
"f+	c #E0DBD9",
"g+	c #DEDBE0",
"h+	c #D8DDDF",
"i+	c #D9DEE1",
"j+	c #E9DCDD",
"k+	c #E4DEDD",
"l+	c #DCE1E4",
"m+	c #E3E1E5",
"n+	c #E7E2E0",
"o+	c #E0E5E8",
"p+	c #F8E0DD",
"q+	c #E7E5E9",
"r+	c #F2E4E5",
"s+	c #E5EAED",
"t+	c #EEE8E7",
"u+	c #F5E8E8",
"v+	c #EFEAE8",
"w+	c #EDEBEF",
"x+	c #EBEEEA",
"y+	c #F2ECEB",
"z+	c #FAECED",
"A+	c #F5EFEE",
"B+	c #F0F2EF",
"C+	c #FDF0F0",
"D+	c #F8F3F1",
"E+	c #FFF1F2",
"F+	c #FAF4F3",
"G+	c #FCF6F5",
"      Q.      d.    h.    H.      9.      ",
"      }+j.  &+Q.    5+    }+7.  '+v.      ",
"A.b.(.]+g.).M.P.&.5.5+].U :+<.M T.o.y v s ",
"J.` *._+i.-.S.V.-.e.5+3.;.[+0.;.++E.;.I t ",
"J.b P  +e.W l.N.W !.=+-.W -+4.W L.s.W u s ",
"J.9 ~ P L J J +.J J +.J J #.J L Q +.L n p ",
"J.5 V ^.[.< * ~ / _ < | d f f f f f q c p ",
"J.6 a.4+.+D Z.D.t.L f., * ! } 4 0 0 0 a p ",
"G.1 c.1.E+~.O.,+z p+8 > ] ] { - - - { [ k ",
"G. .%.Z _.S /.%.G :.G H F B B B B B C o h ",
"A.~+F+G+D+B+x+s+o+l+i+d+6+6+6+6+6+6+6+I.h ",
"x.)+C+E+z+u+r+n+j+f+9+5+|+|+|+|+|+|+|+C.g ",
"x.!+F+G+F+A+y+t+q+m+g+c+7+7+7+7+7+7+7+I.h ",
"x.!+y+y+y+}+2.>.Q.c+c+7+/+'.n.2+2+2+2+z.g ",
"x.;+v+v+t+}.m r . h.8+2+j . 3 1+1+1+1+z.e ",
"x.>+w+w+w+q+q+m+@ N c+y.; ( 7 8+8+8+8+F.e ",
"q.#+k+k+k+j+f+..# *+/+% R.: 2 |+|+|+|+z.e ",
"p.$+o+o+o+l+w $ %+d+u.+ ^ + @ 6.0+0+0+F.e ",
"p.@+b+b+b+>.. = : X *+8.8.& ) U.|+|+|+w.e ",
"m.@+h+h+h+W.|.|.|.u.0+0+0+r.B.0+0+0+0+F.e ",
"m.Y.1+1+|+|+|+|+|+|+|+|+|+|+|+|+|+|+<+X.e ",
"m.`.3+3+3+3+3+3+3+3+3+3+3+3+3+3+3+3+g+T.e ",
"k.Y.(+(+(+(+(+(+^+^+^+^+^+^+^+^+^+:+:+K.e ",
"{.,.,.=.=.$.@.@.Y Y T R O K K E A A t p e "};
