/* XPM */
static char * tfwerase_xpm[] = {
"18 18 197 2",
"  	c None",
". 	c #000000",
"+ 	c #000B1B",
"@ 	c #010E29",
"# 	c #00102C",
"$ 	c #101011",
"% 	c #0C1511",
"& 	c #151718",
"* 	c #002021",
"= 	c #002324",
"- 	c #002424",
"; 	c #1D1D1D",
"> 	c #251D20",
", 	c #162522",
"' 	c #1C2527",
") 	c #00303C",
"! 	c #003635",
"~ 	c #2E2E00",
"{ 	c #2E2E02",
"] 	c #322E2D",
"^ 	c #373737",
"/ 	c #2B3D48",
"( 	c #104564",
"_ 	c #284061",
": 	c #0C4B47",
"< 	c #414115",
"[ 	c #3B3E45",
"} 	c #43431D",
"| 	c #414141",
"1 	c #434249",
"2 	c #1D4D7B",
"3 	c #115657",
"4 	c #4B4B21",
"5 	c #145657",
"6 	c #34504C",
"7 	c #464D41",
"8 	c #1A5B5A",
"9 	c #4E4E4E",
"0 	c #505048",
"a 	c #435454",
"b 	c #555555",
"c 	c #2D5E83",
"d 	c #495A59",
"e 	c #146776",
"f 	c #1C676A",
"g 	c #585758",
"h 	c #4E5C59",
"i 	c #5A5A5B",
"j 	c #4A5F5F",
"k 	c #5F5D4C",
"l 	c #496464",
"m 	c #3D678B",
"n 	c #3A698B",
"o 	c #666261",
"p 	c #636363",
"q 	c #316E92",
"r 	c #666463",
"s 	c #656565",
"t 	c #5E6866",
"u 	c #317192",
"v 	c #666666",
"w 	c #187C7D",
"x 	c #676767",
"y 	c #67676E",
"z 	c #426F8F",
"A 	c #686868",
"B 	c #696969",
"C 	c #6A6969",
"D 	c #457291",
"E 	c #6C6C6C",
"F 	c #6D6C6C",
"G 	c #35799A",
"H 	c #676F6E",
"I 	c #487795",
"J 	c #347CA0",
"K 	c #4C7794",
"L 	c #268989",
"M 	c #4D7D99",
"N 	c #507E98",
"O 	c #358B8C",
"P 	c #53819A",
"Q 	c #328F8E",
"R 	c #767D7D",
"S 	c #818140",
"T 	c #4A88A4",
"U 	c #5887A1",
"V 	c #408FAA",
"W 	c #599174",
"X 	c #4E96BC",
"Y 	c #8C8A89",
"Z 	c #4D9AAC",
"` 	c #5398B1",
" .	c #928A8A",
"..	c #918B8B",
"+.	c #549BAF",
"@.	c #5AA0B6",
"#.	c #9A9591",
"$.	c #97979C",
"%.	c #959899",
"&.	c #A09C99",
"*.	c #9D9DA3",
"=.	c #A2A2A2",
"-.	c #A2A2A5",
";.	c #A8A858",
">.	c #6FB3A6",
",.	c #6FB4A3",
"'.	c #A6A4A4",
").	c #A5A5A5",
"!.	c #70B7A0",
"~.	c #71B7A2",
"{.	c #7FB2B2",
"].	c #A8A8AC",
"^.	c #AEA8A8",
"/.	c #73BB9F",
"(.	c #83B7B5",
"_.	c #B3ACAA",
":.	c #84B8BE",
"<.	c #B5B561",
"[.	c #87BCBC",
"}.	c #B1B1B6",
"|.	c #B9B768",
"1.	c #B9B95D",
"2.	c #88C38F",
"3.	c #8BBEC1",
"4.	c #8BBFC3",
"5.	c #90BEC4",
"6.	c #BBBB77",
"7.	c #8DC1C4",
"8.	c #8AC2CA",
"9.	c #B8B8B8",
"0.	c #C0BD7C",
"a.	c #90C4C5",
"b.	c #91C4C6",
"c.	c #87C9C8",
"d.	c #88CACA",
"e.	c #84CDCC",
"f.	c #C0BDBC",
"g.	c #98C9CA",
"h.	c #97CACA",
"i.	c #89CECD",
"j.	c #C6BEBE",
"k.	c #98CBCB",
"l.	c #98CBCC",
"m.	c #99CCCB",
"n.	c #99CCCC",
"o.	c #C6C2C2",
"p.	c #C3C3C3",
"q.	c #C8C3C3",
"r.	c #C5C5C5",
"s.	c #CACA90",
"t.	c #C6C6C6",
"u.	c #9ED1CF",
"v.	c #9FD2D0",
"w.	c #A4D1D1",
"x.	c #A0D3D1",
"y.	c #CFCF74",
"z.	c #A1D4D1",
"A.	c #A1D4D2",
"B.	c #CBC9CE",
"C.	c #A3D6D2",
"D.	c #A7D5D3",
"E.	c #A3D7D3",
"F.	c #A1DCA9",
"G.	c #A1D8D3",
"H.	c #CDCDCD",
"I.	c #ABD7D5",
"J.	c #A5DCDC",
"K.	c #A6DCDA",
"L.	c #A8DEDE",
"M.	c #D9D4D4",
"N.	c #D8D6D6",
"O.	c #D7D7D8",
"P.	c #E0E092",
"Q.	c #E1E190",
"R.	c #CAE899",
"S.	c #E3E38F",
"T.	c #DFDFE6",
"U.	c #E6E690",
"V.	c #E7E785",
"W.	c #E5E0E0",
"X.	c #D4ED99",
"Y.	c #ECE6E6",
"Z.	c #EFEAEA",
"`.	c #E7F699",
" +	c #F5F59D",
".+	c #F4FA96",
"++	c #FFFF97",
"@+	c #FFFF98",
"#+	c #FFFF99",
"$+	c #FFFF9A",
"%+	c #FFFF9C",
"&+	c #FFFF9E",
"*+	c #FFFF9F",
"=+	c #FFFFA0",
"-+	c #FFFFA4",
";+	c #FFFFA6",
">+	c #FFFFB1",
"                Y . ] N.            ",
"              #.# X O 6 M.          ",
"            '.l G.P T f d W.        ",
"          9.j [.K.m.N ` 5 t Y.      ",
"        f.a {.J.h.v.a.K @.3 H Z.    ",
"      j.[ (.L.h.n.k.x.4.z +.8 R     ",
"    B./ _ 8.C.l.k.n.k.A.7.n Z ! ^.  ",
"  T.k W V m :.C.l.k.n.k.E.5.2 =  .  ",
"  0 |.-+/.J D 3.z.k.k.k.I.e.@ , q.  ",
"y S >+++.+!.G I b.u.n.w.i.w % _.    ",
".  +&+#+++`.~.u M g.D.d.L * &.      ",
"; 1.S.%+#+@+X.,.q U c.Q - ..        ",
"O.} ;.U.*+@+++R.>.c e : %.          ",
"  }.4 <.Q.=+++$+F.( + h o.H.r.r.r.t.",
"    ].< y.P.;+@+2.) > r C p p p v 9 ",
"      -.~ V.6.0.7 ' o B p p p x ^ p.",
"        *.{ s.1 & i F s v v A | ).  ",
"          $.. $ g E s s v v b =.    "};
