/* XPM */
static char * tfwexport_xpm[] = {
"24 22 157 2",
"  	c None",
". 	c #0B101B",
"+ 	c #0B111B",
"@ 	c #0D111D",
"# 	c #0C121E",
"$ 	c #0D121E",
"% 	c #0E1421",
"& 	c #101726",
"* 	c #13171F",
"= 	c #10192A",
"- 	c #151A24",
"; 	c #131C30",
"> 	c #131D2F",
", 	c #171D29",
"' 	c #171E2B",
") 	c #161F2F",
"! 	c #171F2F",
"~ 	c #172138",
"{ 	c #162238",
"] 	c #1C222C",
"^ 	c #1D222A",
"/ 	c #18243C",
"( 	c #1F293F",
"_ 	c #262930",
": 	c #222A3B",
"< 	c #222B3D",
"[ 	c #212C40",
"} 	c #1E2D4C",
"| 	c #1F2F4D",
"1 	c #232F46",
"2 	c #222F49",
"3 	c #243047",
"4 	c #243350",
"5 	c #26334F",
"6 	c #223456",
"7 	c #2F333C",
"8 	c #31343B",
"9 	c #293957",
"0 	c #353A45",
"a 	c #2C3C5A",
"b 	c #383B41",
"c 	c #393B40",
"d 	c #2B3E63",
"e 	c #2B406B",
"f 	c #40434A",
"g 	c #31456E",
"h 	c #42454B",
"i 	c #41464E",
"j 	c #464A52",
"k 	c #4A4A4A",
"l 	c #344C7C",
"m 	c #474B52",
"n 	c #4D4D4D",
"o 	c #4E4E4E",
"p 	c #365083",
"q 	c #4F4F4F",
"r 	c #505050",
"s 	c #515151",
"t 	c #3B5385",
"u 	c #3B5488",
"v 	c #3D578A",
"w 	c #3C588E",
"x 	c #565656",
"y 	c #5B5B5B",
"z 	c #415F99",
"A 	c #5E5E5E",
"B 	c #4160A1",
"C 	c #42609F",
"D 	c #5F5F5F",
"E 	c #606060",
"F 	c #626262",
"G 	c #646464",
"H 	c #646465",
"I 	c #656565",
"J 	c #666666",
"K 	c #66686A",
"L 	c #686868",
"M 	c #696969",
"N 	c #6A6A6A",
"O 	c #4D6EAF",
"P 	c #6E6E6E",
"Q 	c #6F6F6F",
"R 	c #707070",
"S 	c #4C73BF",
"T 	c #707173",
"U 	c #4D74C1",
"V 	c #727272",
"W 	c #5275BC",
"X 	c #737373",
"Y 	c #747474",
"Z 	c #5278C3",
"` 	c #5479C1",
" .	c #787878",
"..	c #7A7A7A",
"+.	c #7B7B7B",
"@.	c #7C7C7C",
"#.	c #587FCC",
"$.	c #7C7E82",
"%.	c #808080",
"&.	c #818181",
"*.	c #5A84D8",
"=.	c #5985DF",
"-.	c #838383",
";.	c #5B88E3",
">.	c #868686",
",.	c #628BE0",
"'.	c #898989",
").	c #8A8A8A",
"!.	c #5E8FED",
"~.	c #8F8F8F",
"{.	c #6293F5",
"].	c #6693F0",
"^.	c #6594F1",
"/.	c #929292",
"(.	c #6496FB",
"_.	c #6996F2",
":.	c #6797F8",
"<.	c #6897F7",
"[.	c #6898F7",
"}.	c #6998F8",
"|.	c #959595",
"1.	c #6599FE",
"2.	c #6599FF",
"3.	c #6699FE",
"4.	c #6999F8",
"5.	c #969696",
"6.	c #979797",
"7.	c #6C9CFA",
"8.	c #6D9DFC",
"9.	c #6D9DFD",
"0.	c #6E9DFD",
"a.	c #6E9EFD",
"b.	c #6F9EFE",
"c.	c #9D9D9D",
"d.	c #9E9E9E",
"e.	c #A1A1A1",
"f.	c #AFAFAF",
"g.	c #B5B5B5",
"h.	c #B8B8B8",
"i.	c #C2C2C2",
"j.	c #CBCBCB",
"k.	c #CDCDCD",
"l.	c #D2D2D2",
"m.	c #D3D3D3",
"n.	c #D4D4D4",
"o.	c #D7D7D7",
"p.	c #D9D9D9",
"q.	c #DBDBDB",
"r.	c #DDDDDD",
"s.	c #DFDFDF",
"t.	c #E1E1E1",
"u.	c #E3E3E3",
"v.	c #E4E4E4",
"w.	c #E6E6E6",
"x.	c #E8E8E8",
"y.	c #EBEBEB",
"z.	c #EEEEEE",
"                q y F F F F F F F F n           ",
"                N z.z.z.z.z.z.z.z.z.'.J         ",
"                 .z.z.z.z.z.z.z.z.z.).m.M       ",
"                V z.z.z.z.z.z.z.z.z.).o.x.G     ",
"                _ 7 u.x.x.x.x.x.y.z.6.i.z.w.F   ",
"                c l , X -.-.-.-.g.z.s.@.X X Q k ",
"                x t *.! H ).).).h.z.z.z.z.z.z.E ",
"                P 9 b._.2 $.z.z.z.z.z.z.z.z.z.E ",
". | ~ ; & # $   x < 7.a.8.g j t.t.t.t.t.t.v.z.E ",
"{ 2.1.{.!.;.U B p u ^.[.[.[.z ] %.>.>.>.>.5.z.E ",
"{ 2.2.2.2.2.2.3.:.b.4.}.}.}.}.Z ' ..~.~.~.c.z.E ",
"{ 2.2.2.2.2.2.3.:.b.b.b.b.b.b.b.#.- r.z.z.z.z.E ",
"{ 2.2.2.2.2.2.3.:.b.0.9.9.9.9.` 1 i l.q.q.s.z.E ",
"{ 2.2.2.2.(.=.S C O }.<.<.<.w ( f %.&.&.&.5.z.E ",
"+ e 6 } / > = % ^ ) ^.}.].d : K /././././.e.z.E ",
"  @             L a a.,.5 0 k.z.z.z.z.z.z.z.z.E ",
"                s v W 3 m j.n.n.n.n.n.n.n.r.z.E ",
"                b 4 [ h +.+.+.+.+.+.+.+.+.d.z.E ",
"                8 * T |.|.|.|.|.|.|.|.|.|.f.z.E ",
"                Y p.z.z.z.z.z.z.z.z.z.z.z.z.z.E ",
"                R z.z.z.z.z.z.z.z.z.z.z.z.z.z.A ",
"                r F I I I I I I I I I I I I D o "};
