/* XPM */
static char * tfwfolder_xpm[] = {
"24 19 232 2",
"  	c None",
". 	c #176305",
"+ 	c #266F07",
"@ 	c #1E6806",
"# 	c #1E6802",
"$ 	c #75B719",
"% 	c #BBF625",
"& 	c #B1ED21",
"* 	c #8DCC19",
"= 	c #62A510",
"- 	c #3F860A",
"; 	c #3D8409",
"> 	c #3C8308",
", 	c #3B8208",
"' 	c #3A8207",
") 	c #398006",
"! 	c #3E8407",
"~ 	c #509607",
"{ 	c #63A608",
"] 	c #77B908",
"^ 	c #89C908",
"/ 	c #99D707",
"( 	c #A8E407",
"_ 	c #266F01",
": 	c #1E6707",
"< 	c #A3E022",
"[ 	c #BCF723",
"} 	c #BCF722",
"| 	c #BDF820",
"1 	c #BEF81E",
"2 	c #BEF91C",
"3 	c #BFF91A",
"4 	c #BFFA18",
"5 	c #C0FA17",
"6 	c #C0FB15",
"7 	c #C1FB13",
"8 	c #C1FC11",
"9 	c #C2FC0F",
"0 	c #C3FD0D",
"a 	c #C3FD0B",
"b 	c #C4FE09",
"c 	c #C2FD08",
"d 	c #206A01",
"e 	c #1E6807",
"f 	c #B7F226",
"g 	c #AFEB07",
"h 	c #1F6900",
"i 	c #246E08",
"j 	c #BBF627",
"k 	c #B2ED1E",
"l 	c #8BC716",
"m 	c #82C013",
"n 	c #7DB810",
"o 	c #76B20D",
"p 	c #70AA0B",
"q 	c #69A309",
"r 	c #6BA508",
"s 	c #97D506",
"t 	c #2C750A",
"u 	c #639D0D",
"v 	c #97B401",
"w 	c #B4C800",
"x 	c #BDCE00",
"y 	c #C6D500",
"z 	c #CFDC00",
"A 	c #CEDB00",
"B 	c #498204",
"C 	c #7DBE05",
"D 	c #2E770B",
"E 	c #4D8507",
"F 	c #FFFF00",
"G 	c #83A702",
"H 	c #9BD60F",
"I 	c #5EA104",
"J 	c #30780B",
"K 	c #B5F121",
"L 	c #5B8C04",
"M 	c #EFF300",
"N 	c #558C06",
"O 	c #3F8602",
"P 	c #317A0B",
"Q 	c #76B113",
"R 	c #B4C801",
"S 	c #D0DC00",
"T 	c #518603",
"U 	c #558B04",
"V 	c #548D05",
"W 	c #68A207",
"X 	c #75B007",
"Y 	c #74AF06",
"Z 	c #73AE05",
"` 	c #276901",
" .	c #215B00",
"..	c #225D00",
"+.	c #276100",
"@.	c #316900",
"#.	c #337B0C",
"$.	c #4A8006",
"%.	c #FEFE00",
"&.	c #F9FC00",
"*.	c #F5F901",
"=.	c #F0F701",
"-.	c #EBF401",
";.	c #E3EE01",
">.	c #C4D801",
",.	c #ADC802",
"'.	c #ACC702",
").	c #AAC602",
"!.	c #A7C602",
"~.	c #ABC903",
"{.	c #BED903",
"].	c #C1DD03",
"^.	c #7DA702",
"/.	c #347D0C",
"(.	c #8AC619",
"_.	c #98B502",
":.	c #FCFE00",
"<.	c #F8FB00",
"[.	c #F3F801",
"}.	c #EFF601",
"|.	c #EAF301",
"1.	c #E5F101",
"2.	c #E0EE02",
"3.	c #DCEC02",
"4.	c #D7E902",
"5.	c #D3E602",
"6.	c #CEE402",
"7.	c #C9E103",
"8.	c #C5DF03",
"9.	c #C0DC03",
"0.	c #BBD903",
"a.	c #B5D504",
"b.	c #235F01",
"c.	c #30790B",
"d.	c #477F07",
"e.	c #F4F800",
"f.	c #F6FA00",
"g.	c #F2F801",
"h.	c #EDF501",
"i.	c #E8F201",
"j.	c #E4F001",
"k.	c #DFED02",
"l.	c #DAEB02",
"m.	c #D6E802",
"n.	c #D1E602",
"o.	c #CCE303",
"p.	c #C8E003",
"q.	c #C3DE03",
"r.	c #BFDB03",
"s.	c #BAD903",
"t.	c #B5D604",
"u.	c #B1D304",
"v.	c #659602",
"w.	c #297209",
"x.	c #80BC18",
"y.	c #95B402",
"z.	c #ECF401",
"A.	c #E7F201",
"B.	c #E2EF01",
"C.	c #DEEC02",
"D.	c #D9EA02",
"E.	c #D4E702",
"F.	c #D0E502",
"G.	c #CBE203",
"H.	c #C6E003",
"I.	c #C2DD03",
"J.	c #BDDA03",
"K.	c #B8D803",
"L.	c #B4D504",
"M.	c #AFD304",
"N.	c #AAD004",
"O.	c #9BC504",
"P.	c #1C5B01",
"Q.	c #216A08",
"R.	c #B8F326",
"S.	c #457D06",
"T.	c #E6F101",
"U.	c #E1EE01",
"V.	c #D8E902",
"W.	c #D3E702",
"X.	c #CAE103",
"Y.	c #BCDA03",
"Z.	c #B7D704",
"`.	c #B2D404",
" +	c #AED204",
".+	c #A9CF04",
"++	c #A4CD04",
"@+	c #A0CA05",
"#+	c #2C6901",
"$+	c #1D6706",
"%+	c #6CA814",
"&+	c #A0BE02",
"*+	c #DBEB02",
"=+	c #CDE302",
"-+	c #C8E103",
";+	c #B6D604",
">+	c #B1D404",
",+	c #ACD104",
"'+	c #A8CE04",
")+	c #A3CC05",
"!+	c #9EC905",
"~+	c #9AC705",
"{+	c #538A02",
"]+	c #186306",
"^+	c #417905",
"/+	c #D5E802",
"(+	c #C7E003",
"_+	c #BDDB03",
":+	c #B9D803",
"<+	c #ABD004",
"[+	c #A6CE04",
"}+	c #A1CB05",
"|+	c #9DC905",
"1+	c #629803",
"2+	c #165500",
"3+	c #236001",
"4+	c #2D6801",
"5+	c #2D6802",
"6+	c #2E6901",
"7+	c #2F6A01",
"8+	c #306C01",
"9+	c #316C02",
"0+	c #326E02",
"a+	c #326D02",
"b+	c #316C01",
"c+	c #2F6B01",
"d+	c #2D6B02",
"e+	c #2B6901",
"f+	c #2A6801",
"g+	c #296801",
"h+	c #276501",
"i+	c #145400",
"                                                ",
"    . + @                             #         ",
"    $ % & * = - ; > , ' ) ! ~ { ] ^ / ( _       ",
"  : < % [ } | 1 2 3 4 5 6 7 8 9 0 a b c d       ",
"  e f % [ } | 1 2 3 4 5 6 7 8 9 0 a b g h       ",
"  i j % [ } k l m n o p q r 8 9 0 a b s         ",
"  t j % [ } u v w x y z A B 8 9 0 a b C         ",
"  D j % [ } E F F F F F G H 8 9 0 a b I         ",
"  J j % [ K L F F F F M N 7 8 9 0 a b O         ",
"  P j % [ Q R F F F F S T U V W X Y Z `  ...+.@.",
"  #.j % [ $.%.F F %.&.*.=.-.;.>.,.'.).!.~.{.].^.",
"  /.j % (._.F :.<.[.}.|.1.2.3.4.5.6.7.8.9.0.a.b.",
"  c.j % d.e.f.g.h.i.j.k.l.m.n.o.p.q.r.s.t.u.v.  ",
"  w.j x.y.=.z.A.B.C.D.E.F.G.H.I.J.K.L.M.N.O.P.  ",
"  Q.R.S.i.T.U.3.V.W.6.X.8.9.Y.Z.`. +.+++@+#+    ",
"  $+%+&+k.*+m.n.=+-+q.r.s.;+>+,+'+)+!+~+{+      ",
"  ]+^+D./+F.G.(+I._+:+L.M.<+[+}+|+~+~+1+2+      ",
"    3+4+5+6+7+8+9+0+a+b+c+d+e+f+f+g+h+i+        ",
"                                                "};
