/* XPM */
static char * tfwinsert_xpm[] = {
"24 24 214 2",
"  	c None",
". 	c #0E5F03",
"+ 	c #0E6203",
"@ 	c #0E6403",
"# 	c #0E6503",
"$ 	c #0E6603",
"% 	c #0E6903",
"& 	c #0F6903",
"* 	c #0E6B03",
"= 	c #0E6C03",
"- 	c #0F6D03",
"; 	c #106D04",
"> 	c #0F6F03",
", 	c #0F7103",
"' 	c #107203",
") 	c #107303",
"! 	c #107503",
"~ 	c #107504",
"{ 	c #117604",
"] 	c #117704",
"^ 	c #117904",
"/ 	c #117A04",
"( 	c #117B04",
"_ 	c #127C04",
": 	c #127D04",
"< 	c #127E04",
"[ 	c #128104",
"} 	c #128304",
"| 	c #128404",
"1 	c #138504",
"2 	c #128604",
"3 	c #138604",
"4 	c #138804",
"5 	c #138A05",
"6 	c #138B05",
"7 	c #148C05",
"8 	c #168C04",
"9 	c #148D05",
"0 	c #148E05",
"a 	c #168E08",
"b 	c #148F05",
"c 	c #159006",
"d 	c #149105",
"e 	c #149205",
"f 	c #149305",
"g 	c #159306",
"h 	c #149405",
"i 	c #159406",
"j 	c #179406",
"k 	c #19940B",
"l 	c #159605",
"m 	c #159706",
"n 	c #169806",
"o 	c #179805",
"p 	c #179807",
"q 	c #169906",
"r 	c #169A06",
"s 	c #179A07",
"t 	c #1C980D",
"u 	c #1D980D",
"v 	c #169B06",
"w 	c #169C06",
"x 	c #179D06",
"y 	c #179E06",
"z 	c #1F9B0F",
"A 	c #179F06",
"B 	c #189F06",
"C 	c #1E9D0E",
"D 	c #17A106",
"E 	c #18A106",
"F 	c #17A206",
"G 	c #18A506",
"H 	c #22A212",
"I 	c #18A706",
"J 	c #24A215",
"K 	c #22A313",
"L 	c #26A716",
"M 	c #27A717",
"N 	c #28A718",
"O 	c #27A817",
"P 	c #28A819",
"Q 	c #2AAA1A",
"R 	c #2BAC1B",
"S 	c #2CAC1C",
"T 	c #2CAD1C",
"U 	c #2DAE1D",
"V 	c #30B020",
"W 	c #30B120",
"X 	c #31B121",
"Y 	c #31B221",
"Z 	c #32B322",
"` 	c #33B423",
" .	c #34B524",
"..	c #36B626",
"+.	c #37B727",
"@.	c #38B828",
"#.	c #38B829",
"$.	c #3ABA2A",
"%.	c #3BBB2B",
"&.	c #3CBB2C",
"*.	c #3CBB2D",
"=.	c #3CBC2C",
"-.	c #3CBC2D",
";.	c #3DBC2D",
">.	c #3EBD2E",
",.	c #3EBD2F",
"'.	c #40BE2F",
").	c #41BF31",
"!.	c #41C032",
"~.	c #42C133",
"{.	c #43C132",
"].	c #43C133",
"^.	c #43C233",
"/.	c #44C235",
"(.	c #45C235",
"_.	c #45C335",
":.	c #46C336",
"<.	c #48C538",
"[.	c #49C639",
"}.	c #49C63A",
"|.	c #4AC73B",
"1.	c #4BC83C",
"2.	c #4CC83D",
"3.	c #4DC93E",
"4.	c #4ECA3F",
"5.	c #4FCB40",
"6.	c #50CB40",
"7.	c #50CB41",
"8.	c #52CC42",
"9.	c #52CD42",
"0.	c #53CD44",
"a.	c #55CE46",
"b.	c #57D048",
"c.	c #58D048",
"d.	c #59D149",
"e.	c #5AD14B",
"f.	c #5CD34D",
"g.	c #5CD44D",
"h.	c #5DD44E",
"i.	c #5FD550",
"j.	c #61D752",
"k.	c #61D753",
"l.	c #64D855",
"m.	c #65D956",
"n.	c #65DA57",
"o.	c #67DA59",
"p.	c #67DB57",
"q.	c #6ADC5B",
"r.	c #6BDC5D",
"s.	c #6DDD5F",
"t.	c #67E057",
"u.	c #6CDE5D",
"v.	c #6DDE5E",
"w.	c #70DF62",
"x.	c #71E063",
"y.	c #72E163",
"z.	c #72E164",
"A.	c #74E266",
"B.	c #75E266",
"C.	c #75E267",
"D.	c #76E268",
"E.	c #77E369",
"F.	c #76E469",
"G.	c #77E469",
"H.	c #79E46B",
"I.	c #79E56B",
"J.	c #79E56C",
"K.	c #7BE56D",
"L.	c #76E867",
"M.	c #7DE66F",
"N.	c #7DE86F",
"O.	c #7EE86F",
"P.	c #7EE871",
"Q.	c #7FE871",
"R.	c #80E873",
"S.	c #78EC69",
"T.	c #81E974",
"U.	c #78ED69",
"V.	c #83E976",
"W.	c #7EED6F",
"X.	c #83EB76",
"Y.	c #84EB77",
"Z.	c #79F069",
"`.	c #86EB79",
" +	c #85EC78",
".+	c #86EC79",
"++	c #87EC79",
"@+	c #8AED7D",
"#+	c #83F174",
"$+	c #8BEE7E",
"%+	c #83F274",
"&+	c #8BEF7F",
"*+	c #8DEF7F",
"=+	c #8EEF81",
"-+	c #8FF182",
";+	c #90F184",
">+	c #90F283",
",+	c #92F286",
"'+	c #94F288",
")+	c #95F288",
"!+	c #98F48B",
"~+	c #99F58C",
"{+	c #9BF58F",
"]+	c #99F68D",
"^+	c #9FF792",
"/+	c #A2F895",
"(+	c #A0F994",
"_+	c #A2F997",
":+	c #A1FA95",
"<+	c #A3FA97",
"[+	c #A3FB97",
"}+	c #A8FC9D",
"|+	c #ABFDA0",
"1+	c #B0FFA5",
"                    s s p j                     ",
"                  E Z.%+#+U.o                   ",
"                  I [+1+1+:+x                   ",
"                  G [+1+|+~+r                   ",
"                  F <+}+/+-+n                   ",
"                  y ]+^+!+.+l                   ",
"                  w >+)+=+N.f                   ",
"                  q ++$+Y.C.b                   ",
"                  m P.T.K.v.7                   ",
"  B F A x v q n l D F.H.z.n.l 4 3 1 } [ < _ ~   ",
"i S.(+]+,+&+ +Q.I.B.D.w.q.l.d.0.4.}._.).*.#.Q ; ",
"g W._+{+'+*+`.R.J.A.s.o.k.f.b.8.2.<.^.,.$...N = ",
"c L.!+;+@+V.M.E.x.r.m.i.e.a.5.|.:.!.-.@. .W J % ",
"8 t.X.O.G.y.u.p.j.g.h.c.9.3.(.'.%.+.` V T P z $ ",
"  0 h e b 9 6 5 4 d 7.6.1.{.2 / ^ { ! ) , > &   ",
"                  | [.}./.&.^                   ",
"                  [ ].~.>...]                   ",
"                  : ;.=.@.X !                   ",
"                  ( +...Z S '                   ",
"                  ^ Y W U M >                   ",
"                  { T R O H *                   ",
"                  ) N L K C %                   ",
"                  - u t k a +                   ",
"                    # @ + .                     "};
