/* XPM */
static char * tfwimport_xpm[] = {
"12 24 113 2",
"  	c None",
". 	c #0C0F1B",
"+ 	c #0F1624",
"@ 	c #111728",
"# 	c #12192B",
"$ 	c #131A2D",
"% 	c #111B2A",
"& 	c #151E33",
"* 	c #172138",
"= 	c #1C2230",
"- 	c #17233A",
"; 	c #19243C",
"> 	c #1A2640",
", 	c #1B2843",
"' 	c #1C2A46",
") 	c #1C2B47",
"! 	c #203152",
"~ 	c #213254",
"{ 	c #253249",
"] 	c #293347",
"^ 	c #24365B",
"/ 	c #24375B",
"( 	c #25375C",
"_ 	c #2A3851",
": 	c #273C63",
"< 	c #3A404C",
"[ 	c #384153",
"} 	c #39445A",
"| 	c #304979",
"1 	c #334C80",
"2 	c #474F60",
"3 	c #4B4F57",
"4 	c #37548B",
"5 	c #525252",
"6 	c #4E5460",
"7 	c #3B578F",
"8 	c #3E5B97",
"9 	c #5B5B5B",
"0 	c #3E5E9C",
"a 	c #5D5D5D",
"b 	c #5C5E63",
"c 	c #5D5F64",
"d 	c #616161",
"e 	c #626262",
"f 	c #636363",
"g 	c #646464",
"h 	c #6A6A6A",
"i 	c #4B71BC",
"j 	c #4F72B6",
"k 	c #727272",
"l 	c #5276BC",
"m 	c #7B7B7B",
"n 	c #5A82CF",
"o 	c #5B82D0",
"p 	c #5883DC",
"q 	c #7E8188",
"r 	c #818181",
"s 	c #5885DD",
"t 	c #828282",
"u 	c #5E86D9",
"v 	c #858585",
"w 	c #868686",
"x 	c #618ADD",
"y 	c #888888",
"z 	c #898989",
"A 	c #8B8B8B",
"B 	c #5F8FEE",
"C 	c #8C8C8C",
"D 	c #6290EB",
"E 	c #6191F2",
"F 	c #6795F3",
"G 	c #6796F3",
"H 	c #6498FC",
"I 	c #6598FB",
"J 	c #6598FE",
"K 	c #6998F8",
"L 	c #6599FE",
"M 	c #6599FF",
"N 	c #949697",
"O 	c #969696",
"P 	c #6A9AF9",
"Q 	c #6C9CFC",
"R 	c #6F9EFE",
"S 	c #A2A2A2",
"T 	c #A3A3A3",
"U 	c #A6A6A6",
"V 	c #AAAAAA",
"W 	c #ADADAD",
"X 	c #B3B3B3",
"Y 	c #B6B6B6",
"Z 	c #B7B7B7",
"` 	c #B9B9B9",
" .	c #BCBCBC",
"..	c #BDBDBD",
"+.	c #BEBEBE",
"@.	c #C4C4C4",
"#.	c #C5C5C5",
"$.	c #C6C6C6",
"%.	c #C8C8C8",
"&.	c #C9C9C9",
"*.	c #CBCBCB",
"=.	c #D4D4D4",
"-.	c #D6D6D6",
";.	c #D7D7D7",
">.	c #DADADA",
",.	c #DDDDDD",
"'.	c #DEDEDE",
").	c #DFDFDF",
"!.	c #E5E5E5",
"~.	c #E8E8E8",
"{.	c #E9E9E9",
"].	c #ECECEC",
"^.	c #EEEEEE",
"a t v v v v v m 5       ",
"t ^.^.^.^.^.^.;.O e     ",
"z ^.^.^.^.^.^.;.W #.g   ",
"z ,.........).!.w *.U 9 ",
"z Z k k k k +.^.).` ` h ",
"z ~.'.'.'.'.{.^.^.^.^.r ",
"z >.X X X X X X X X ,.r ",
"z  .t r r r r r r t @.r ",
"z ].~.~.~.~.~.~.~.~.].r ",
"z -.V V V V V V V V >.r ",
"z +.y b 3 3 3 3 c y @.r ",
"z ^.!.{ o o o n } ^.^.r ",
"z &.T _ P P P G [ S '.r ",
"z Y C ] F K K D < A =.r ",
"z ^.^.2 x R R u q ^.^.r ",
"f %.*.6 l Q Q j N *.$.d ",
"      = 8 I I 7         ",
". * / > 0 M M 4 , ^ ~ + ",
"  ; i L M M M L M p &   ",
"    ' s M M M M B -     ",
"      ! E M M H )       ",
"      @ : J M (         ",
"        $ 1 |           ",
"          % #           "};
