/* XPM */
static char * tfwinit_xpm[] = {
"16 16 109 2",
"  	c None",
". 	c #0D0000",
"+ 	c #100000",
"@ 	c #190000",
"# 	c #1B0000",
"$ 	c #1E0103",
"% 	c #230000",
"& 	c #270405",
"* 	c #2B0404",
"= 	c #310807",
"- 	c #300B0D",
"; 	c #340B0A",
"> 	c #320D10",
", 	c #350F10",
"' 	c #380F0D",
") 	c #400D0F",
"! 	c #371011",
"~ 	c #3C1211",
"{ 	c #3F1415",
"] 	c #4C1113",
"^ 	c #4F1D1E",
"/ 	c #681F21",
"( 	c #692022",
"_ 	c #5E2526",
": 	c #662325",
"< 	c #632426",
"[ 	c #602526",
"} 	c #662527",
"| 	c #562D2C",
"1 	c #6F2628",
"2 	c #5E2B2C",
"3 	c #782628",
"4 	c #712D2C",
"5 	c #7E2D2F",
"6 	c #623937",
"7 	c #87302F",
"8 	c #823436",
"9 	c #8C3335",
"0 	c #873634",
"a 	c #853C3C",
"b 	c #8F3A3C",
"c 	c #8F3B3C",
"d 	c #874243",
"e 	c #894243",
"f 	c #7C4747",
"g 	c #924244",
"h 	c #934444",
"i 	c #964A4B",
"j 	c #974B4B",
"k 	c #765553",
"l 	c #9B4E4F",
"m 	c #B04C4A",
"n 	c #985353",
"o 	c #A05252",
"p 	c #9B5454",
"q 	c #8C5955",
"r 	c #A75451",
"s 	c #8E5C5B",
"t 	c #9F5856",
"u 	c #855F60",
"v 	c #A15859",
"w 	c #B25451",
"x 	c #87605D",
"y 	c #9C5B5B",
"z 	c #A65A57",
"A 	c #9E5C5C",
"B 	c #B45754",
"C 	c #8A6360",
"D 	c #A05D5D",
"E 	c #8A6563",
"F 	c #9A6362",
"G 	c #A06262",
"H 	c #B65D59",
"I 	c #A8615D",
"J 	c #A16463",
"K 	c #946867",
"L 	c #A86562",
"M 	c #A76565",
"N 	c #B9615D",
"O 	c #A36763",
"P 	c #A46A6A",
"Q 	c #A66C6C",
"R 	c #BB6763",
"S 	c #BE6B67",
"T 	c #A3736F",
"U 	c #A77271",
"V 	c #AD7373",
"W 	c #C0726E",
"X 	c #C27571",
"Y 	c #A57F7B",
"Z 	c #AE7F7E",
"` 	c #BB7C77",
" .	c #B27F7F",
"..	c #C67F7A",
"+.	c #C67F7B",
"@.	c #AC8884",
"#.	c #CA8983",
"$.	c #CB8984",
"%.	c #CE928D",
"&.	c #CF938D",
"*.	c #DFA8A4",
"=.	c #DDB0AB",
"-.	c #E0B0AB",
";.	c #DDB1AC",
">.	c #E3B5B1",
",.	c #E1B8B4",
"'.	c #E9C3BF",
").	c #F0D1CE",
"!.	c #FBE5E3",
"                                ",
"                                ",
"  k |             *             ",
"% !.O           6 T             ",
"= ).L         x -.q             ",
"; '.I       Y =.%.` E K F t 4   ",
"' >.z     @.;.%.#...W R H w 0   ",
"~ *.r . C ,.&.$.+.X S N B m 7   ",
"!  .e + u Z U P G y n i g c 1   ",
", V a   # s Q J A p j h b 9 /   ",
"> M 8     @ f D p d _ < : ( ]   ",
"- v 5         2 l [             ",
"& o 3           { }             ",
"  ^ )             $             ",
"                                ",
"                                "};
