/* XPM */
static char * tfwload_xpm[] = {
"16 16 175 2",
"  	c None",
". 	c #4474C5",
"+ 	c #487DC3",
"@ 	c #537FCA",
"# 	c #5480CA",
"$ 	c #5681CE",
"% 	c #5383CA",
"& 	c #5284CA",
"* 	c #5583CC",
"= 	c #5585CB",
"- 	c #5585CF",
"; 	c #5686CC",
"> 	c #5787CC",
", 	c #5887CC",
"' 	c #5F96CC",
") 	c #D8862C",
"! 	c #D8872D",
"~ 	c #D8882D",
"{ 	c #6D9ED0",
"] 	c #D98E33",
"^ 	c #6CA0D1",
"/ 	c #DA9435",
"( 	c #DA9A36",
"_ 	c #DAA136",
": 	c #DAA637",
"< 	c #E0A54D",
"[ 	c #DAAA36",
"} 	c #DAAB35",
"| 	c #DAAF35",
"1 	c #E2AA55",
"2 	c #DAB336",
"3 	c #D9B434",
"4 	c #88BBEA",
"5 	c #91BAE4",
"6 	c #91BBE4",
"7 	c #92BBE4",
"8 	c #93BBE4",
"9 	c #96BEE5",
"0 	c #96BFE6",
"a 	c #93C1EC",
"b 	c #9DC3EA",
"c 	c #C6C186",
"d 	c #E9BC64",
"e 	c #E7BC70",
"f 	c #E1C25E",
"g 	c #E2C35F",
"h 	c #E2C360",
"i 	c #CFC88C",
"j 	c #D7CE90",
"k 	c #EBC991",
"l 	c #AFD1F3",
"m 	c #F2D140",
"n 	c #B4D3F5",
"o 	c #DCD293",
"p 	c #F3D44D",
"q 	c #F3D54F",
"r 	c #F2D370",
"s 	c #BBD7F6",
"t 	c #F3D574",
"u 	c #E3D793",
"v 	c #F4D85B",
"w 	c #BCD9F7",
"x 	c #F4D95E",
"y 	c #F3D77A",
"z 	c #D6D8C9",
"A 	c #F5DB67",
"B 	c #F4D980",
"C 	c #C2DCF9",
"D 	c #C2DCFA",
"E 	c #E9DB93",
"F 	c #F4DA85",
"G 	c #F6DC6C",
"H 	c #C4DDF9",
"I 	c #C4DEF9",
"J 	c #C5DEFC",
"K 	c #F6DE71",
"L 	c #F5DC89",
"M 	c #F6DE77",
"N 	c #F4DC93",
"O 	c #C8DFFA",
"P 	c #C7E0FB",
"Q 	c #F7DF7A",
"R 	c #F5DE8E",
"S 	c #CAE0FA",
"T 	c #F5DE91",
"U 	c #C4E2FA",
"V 	c #F5DE94",
"W 	c #F6DF92",
"X 	c #F7E17F",
"Y 	c #F7E182",
"Z 	c #CCE2FB",
"` 	c #CBE2FF",
" .	c #F6E095",
"..	c #CDE2FC",
"+.	c #CBE3FB",
"@.	c #F5E09F",
"#.	c #F7E286",
"$.	c #CDE3FC",
"%.	c #F6E198",
"&.	c #F8E389",
"*.	c #F8E38B",
"=.	c #D0E4FC",
"-.	c #F6E1AC",
";.	c #D1E4FC",
">.	c #F8E48E",
",.	c #F4E49A",
"'.	c #F8E48F",
").	c #D1E5FD",
"!.	c #D2E5FC",
"~.	c #D2E5FF",
"{.	c #F8E590",
"].	c #F8E591",
"^.	c #F8E592",
"/.	c #F8E593",
"(.	c #F4E59F",
"_.	c #F8E594",
":.	c #F5E59D",
"<.	c #F5E59E",
"[.	c #D4E6FD",
"}.	c #F8E694",
"|.	c #F6E69B",
"1.	c #F7E69A",
"2.	c #D5E7FE",
"3.	c #D5E7FF",
"4.	c #D6E7FD",
"5.	c #D7E7FF",
"6.	c #D9E9FF",
"7.	c #DDE9F5",
"8.	c #DBEAFF",
"9.	c #F8EAC2",
"0.	c #E3EFFA",
"a.	c #E4EFFA",
"b.	c #E8F2EF",
"c.	c #E7F2FA",
"d.	c #E7F2FD",
"e.	c #E8F2FC",
"f.	c #FAF0DC",
"g.	c #FBF2CA",
"h.	c #FBF2CC",
"i.	c #E8F3FE",
"j.	c #E9F3FD",
"k.	c #EBF3FA",
"l.	c #EAF3FD",
"m.	c #F8F3DA",
"n.	c #EFF3FA",
"o.	c #EEF4FD",
"p.	c #EDF5FE",
"q.	c #EFF6FB",
"r.	c #F0F6FE",
"s.	c #FBF6E8",
"t.	c #F0F7FF",
"u.	c #F1F7FE",
"v.	c #F1F7FF",
"w.	c #F2F7FF",
"x.	c #F3F8FB",
"y.	c #F3F9FE",
"z.	c #FDFAF1",
"A.	c #FEFAEF",
"B.	c #FDFAF2",
"C.	c #FEFCF3",
"D.	c #FBFCFE",
"E.	c #FEFCF6",
"F.	c #FEFCF7",
"G.	c #FFFCF5",
"H.	c #FCFDFE",
"I.	c #FFFDF6",
"J.	c #FCFDFF",
"K.	c #FFFDF8",
"L.	c #FDFEFD",
"M.	c #FDFEFE",
"N.	c #FEFEFD",
"O.	c #FFFEFD",
"P.	c #FFFEFE",
"Q.	c #FEFFFF",
"R.	c #FFFFFE",
"            b 0 7 7 ^ { '       ",
"            9 Q.j.l.e.0.c.4 -   ",
"            8 p.J P C n y.U a + ",
"            7 r...$.O w 7.k.x.% ",
"            7 u.!.;.Z H s l a., ",
"3 f h h h g 6 w.2.2.).S I w d.> ",
"2 N.R.P.O.R.5 t.3.4.[.=.+.D i.; ",
"| F.>.T @.-.& v.6.8.6.5.~.` v.= ",
"[ z.V N d / / / / / / / / / q.* ",
"} s.e 1 < k n.L.J.J.H.D.M./ b.$ ",
": R.K.I.G.C.,.1.|.:.<.(.m./ o.# ",
"_ E._././.].E u o j i c z / . @ ",
"( B.}.^.{.*.#.X M G x q h./     ",
"/ A./.'.&.Y Q K A v p m g./     ",
"] f.%. .W R L F B y t r 9./     ",
") ~ ! ~ ~ ~ ~ ~ ~ ~ ~ ! ~ )     "};
