/* XPM */
static char * tfwnext_xpm[] = {
"24 24 99 2",
"  	c None",
". 	c #030508",
"+ 	c #04070C",
"@ 	c #05070B",
"# 	c #05070C",
"$ 	c #050A0E",
"% 	c #070A11",
"& 	c #070A12",
"* 	c #070B11",
"= 	c #070B12",
"- 	c #080B12",
"; 	c #080B13",
"> 	c #080B14",
", 	c #070C13",
"' 	c #080C14",
") 	c #080C15",
"! 	c #090C14",
"~ 	c #090C15",
"{ 	c #080D15",
"] 	c #090D15",
"^ 	c #090D16",
"/ 	c #090D17",
"( 	c #090E17",
"_ 	c #0A0E18",
": 	c #0A0F18",
"< 	c #0B101B",
"[ 	c #0B101C",
"} 	c #0B111D",
"| 	c #0C111C",
"1 	c #0C121E",
"2 	c #0E1421",
"3 	c #0E1523",
"4 	c #0F1626",
"5 	c #0F1726",
"6 	c #0F1727",
"7 	c #101727",
"8 	c #0F1827",
"9 	c #101A2A",
"0 	c #121A2B",
"a 	c #121A2C",
"b 	c #111B2C",
"c 	c #131B2E",
"d 	c #121C2E",
"e 	c #131C2E",
"f 	c #131C2F",
"g 	c #131D2F",
"h 	c #141D30",
"i 	c #141E31",
"j 	c #172138",
"k 	c #1B2843",
"l 	c #1D2B47",
"m 	c #1E2C49",
"n 	c #1F2F4E",
"o 	c #213152",
"p 	c #233558",
"q 	c #243558",
"r 	c #25385D",
"s 	c #273960",
"t 	c #293E67",
"u 	c #2A406A",
"v 	c #2B406B",
"w 	c #2B416C",
"x 	c #2C426C",
"y 	c #2D4370",
"z 	c #2F4776",
"A 	c #365087",
"B 	c #37538A",
"C 	c #39568F",
"D 	c #3B5893",
"E 	c #3C5A96",
"F 	c #3F5E9D",
"G 	c #4161A2",
"H 	c #4161A3",
"I 	c #4263A5",
"J 	c #4467AA",
"K 	c #4669AE",
"L 	c #4B70BC",
"M 	c #4C71BD",
"N 	c #4D74C0",
"O 	c #4D74C1",
"P 	c #4E75C4",
"Q 	c #5580D4",
"R 	c #5681D8",
"S 	c #5985DE",
"T 	c #5B8AE7",
"U 	c #5D8BE8",
"V 	c #5F8FEE",
"W 	c #608FF0",
"X 	c #6090F0",
"Y 	c #6192F3",
"Z 	c #6293F5",
"` 	c #6294F7",
" .	c #6294F8",
"..	c #6495F9",
"+.	c #6496FA",
"@.	c #6496FB",
"#.	c #6598FD",
"$.	c #6599FE",
"%.	c #6599FF",
"                                                ",
"                                                ",
"                                                ",
"                      #                         ",
"                      ! f &                     ",
"                      ( P z ,                   ",
"                        C %.N }                 ",
"                        q %.%.X l ;             ",
"& r k a 2 < ^ ( ^       0  .%.%.%.D )           ",
"2 V #.Z V U S O I B y o t V %.%.%.%.Q 4 $       ",
"2 V %.%.%.%.%.%.%.%.%.%.+.%.%.%.%.%.%...s >     ",
"2 V %.%.%.%.%.%.%.%.%.%.%.%.%.%.%.%.%.%.%.K /   ",
"2 V %.%.%.%.%.%.%.%.%.%.%.%.%.%.%.%.%.%.%.E 6 + ",
"2 V %.%.%.%.%.%.%.%.%.%.%.%.%.%.%.%.%.T l d ;   ",
"2 V %.%.%.Y R M G A w n v $.%.%.%.%.J 9 ^       ",
"# m j e 8 7 5 1 ] % * - h V %.%.W p g -         ",
"  { _                   u @.%.L b |             ",
"                      ~ F ` x c =               ",
"                      : H i 3 ,                 ",
"                      . [ =                     ",
"                      @ '                       ",
"                                                ",
"                                                ",
"                                                "};
