/* XPM */
static char * tfwok_xpm[] = {
"24 24 256 2",
"  	c None",
". 	c #246020",
"+ 	c #1B6321",
"@ 	c #256121",
"# 	c #266221",
"$ 	c #256429",
"% 	c #296524",
"& 	c #1A6A20",
"* 	c #176F1D",
"= 	c #22741B",
"- 	c #1B7A20",
"; 	c #3C7136",
"> 	c #17801C",
", 	c #3D7237",
"' 	c #367438",
") 	c #377539",
"! 	c #118619",
"~ 	c #1C8320",
"{ 	c #13871A",
"] 	c #078C14",
"^ 	c #3C7A3D",
"/ 	c #3D7B3E",
"( 	c #198A1D",
"_ 	c #437B45",
": 	c #3F7D40",
"< 	c #18931B",
"[ 	c #4F7F4A",
"} 	c #0D9815",
"| 	c #009E0E",
"1 	c #2C8F2B",
"2 	c #169B19",
"3 	c #548757",
"4 	c #319538",
"5 	c #558858",
"6 	c #12A316",
"7 	c #528A53",
"8 	c #05A90F",
"9 	c #15A418",
"0 	c #2D9A35",
"a 	c #508E50",
"b 	c #588B5B",
"c 	c #558D56",
"d 	c #578F58",
"e 	c #539153",
"f 	c #369E32",
"g 	c #2FA12B",
"h 	c #429A3E",
"i 	c #1BAE02",
"j 	c #07B40E",
"k 	c #1DAF04",
"l 	c #23AB20",
"m 	c #439E48",
"n 	c #13B025",
"o 	c #00BA00",
"p 	c #0CB510",
"q 	c #2BAA33",
"r 	c #569A53",
"s 	c #00BD06",
"t 	c #21B31E",
"u 	c #00BE1C",
"v 	c #53A058",
"w 	c #00BF1D",
"x 	c #25B520",
"y 	c #51A455",
"z 	c #0EC00E",
"A 	c #31B32A",
"B 	c #32B42B",
"C 	c #00C703",
"D 	c #26B92E",
"E 	c #55A859",
"F 	c #65A363",
"G 	c #40B243",
"H 	c #19C315",
"I 	c #30BC28",
"J 	c #0CCA09",
"K 	c #68A666",
"L 	c #58AF51",
"M 	c #42B839",
"N 	c #09CC20",
"O 	c #4CB54E",
"P 	c #5BAF5F",
"Q 	c #34C237",
"R 	c #1BCE14",
"S 	c #2CC632",
"T 	c #42BF4E",
"U 	c #65B269",
"V 	c #5CB65E",
"W 	c #21D018",
"X 	c #2CCC22",
"Y 	c #34CA36",
"Z 	c #3CC73D",
"` 	c #6DB472",
" .	c #70B46C",
"..	c #3DC83E",
"+.	c #6EB573",
"@.	c #65B967",
"#.	c #2FD132",
"$.	c #71B976",
"%.	c #2FD722",
"&.	c #5DC45C",
"*.	c #45CE43",
"=.	c #2CD82F",
"-.	c #4CCC4A",
";.	c #36D537",
">.	c #47D046",
",.	c #38D638",
"'.	c #3ED449",
").	c #53D14F",
"!.	c #80BF7D",
"~.	c #45D743",
"{.	c #4ED64B",
"].	c #37DF37",
"^.	c #48D945",
"/.	c #39E038",
"(.	c #3EDD48",
"_.	c #67CE65",
":.	c #4DD855",
"<.	c #71CB71",
"[.	c #53DA4F",
"}.	c #80C884",
"|.	c #5AD856",
"1.	c #8EC38F",
"2.	c #51DB58",
"3.	c #47E143",
"4.	c #4FDE4A",
"5.	c #4CE053",
"6.	c #46E34D",
"7.	c #5EDB59",
"8.	c #3FE748",
"9.	c #6CD672",
"0.	c #5AE054",
"a.	c #81D084",
"b.	c #54E34F",
"c.	c #58E15D",
"d.	c #5EDF63",
"e.	c #94CA96",
"f.	c #52E457",
"g.	c #59E25E",
"h.	c #4FE74A",
"i.	c #86D280",
"j.	c #4DE953",
"k.	c #6ADF64",
"l.	c #62E266",
"m.	c #60E55A",
"n.	c #57E95C",
"o.	c #51EC56",
"p.	c #7BDC79",
"q.	c #6DE267",
"r.	c #5EE762",
"s.	c #59EA5D",
"t.	c #8AD98C",
"u.	c #8FD792",
"v.	c #67E76A",
"w.	c #6CE570",
"x.	c #5BEC5F",
"y.	c #62EA65",
"z.	c #68E86B",
"A.	c #5DED60",
"B.	c #76E470",
"C.	c #A8D1A5",
"D.	c #70E873",
"E.	c #8ADE8A",
"F.	c #8EDD90",
"G.	c #66ED68",
"H.	c #6FEB68",
"I.	c #6DEC70",
"J.	c #ABD4A8",
"K.	c #78E97C",
"L.	c #62F264",
"M.	c #7BE976",
"N.	c #71EE6A",
"O.	c #74ED78",
"P.	c #93E194",
"Q.	c #6BF26D",
"R.	c #70F073",
"S.	c #94E395",
"T.	c #7CED7F",
"U.	c #91E691",
"V.	c #73F275",
"W.	c #78F07B",
"X.	c #74F376",
"Y.	c #7EEF81",
"Z.	c #9DE498",
"`.	c #7FF082",
" +	c #7BF37E",
".+	c #B4DDB1",
"++	c #7AF671",
"@+	c #78F779",
"#+	c #8AF185",
"$+	c #86F37F",
"%+	c #BADEB9",
"&+	c #88F28C",
"*+	c #7FF781",
"=+	c #8CF487",
"-+	c #9EED9F",
";+	c #B9E3B6",
">+	c #86F789",
",+	c #8BF68F",
"'+	c #82FA84",
")+	c #AAEBA6",
"!+	c #A0EFA1",
"~+	c #8DF790",
"{+	c #92F697",
"]+	c #89FA8C",
"^+	c #C4E3C6",
"/+	c #9AF597",
"(+	c #97F893",
"_+	c #90FA94",
":+	c #9DF89A",
"<+	c #CDE5C9",
"[+	c #C7E7C9",
"}+	c #99FA95",
"|+	c #9BF9A2",
"1+	c #C8E8CA",
"2+	c #9FFA9C",
"3+	c #BDEEC0",
"4+	c #98FD9D",
"5+	c #CAEACC",
"6+	c #A9F8A9",
"7+	c #A5FAA4",
"8+	c #D1E9CC",
"9+	c #CBEBCD",
"0+	c #A2FD9F",
"a+	c #CCECCF",
"b+	c #AEF8B1",
"c+	c #C9EEC8",
"d+	c #D6E9D5",
"e+	c #ABFAAC",
"f+	c #D0EBD5",
"g+	c #A7FDA6",
"h+	c #D5EDD1",
"i+	c #CFEFD1",
"j+	c #D6EED2",
"k+	c #D9EDD8",
"l+	c #AEFEAF",
"m+	c #D4EFD9",
"n+	c #DBEED9",
"o+	c #D5F1DA",
"p+	c #DCEFDA",
"q+	c #DDF0DC",
"r+	c #DEF1DD",
"s+	c #DFF2DE",
"t+	c #E2F1E4",
"u+	c #E3F2E5",
"v+	c #E4F3E6",
"w+	c #E7F5E8",
"x+	c #EDF7F2",
"y+	c #F0F7EC",
"z+	c #F1F8ED",
"A+	c #EDFCEF",
"B+	c #F7F9F6",
"C+	c #F1FBF5",
"D+	c #F9FBF8",
"E+	c #FAFCF9",
"F+	c #FCFFFB",
"G+	c #FEFFFC",
"                  . @ $ $ @ .                   ",
"            # / ` a.P.!+-+F.}.K ) .             ",
"          @ $.b+e+|+{+&+`.M.D.k.9.F @           ",
"        : Z.l+7+:+~+#+K.D.q.l.7.).-.@.)         ",
"      : 6+7+2+(+#+`.W.z.l.7.2.>...Q D O '       ",
"    @ P.0+}+~+$+W.I.v.g.2.{.*.Z I x A 9 y @     ",
"  #  .4+_+>+ +V.H.r.0.[.'.Y u p k u.;+q 2 e .   ",
"  ^ /+]+ +X.H.G.m.5.^.#.H o j i i.9+1+.+f h ,   ",
"  U '+X.V.G.A.f.4.~.X z o j i <.h+5+[+^+P ! c   ",
". <.++Q.A.n.b.(.,.C z o j i &.m+h+8+[+!.! > d . ",
"@ p.L.A.j.b.4.;.C z o j i T p+n+f+8+e.{ > - e @ ",
"$ K.o.h.3.g.A+U.z o j i M o+r+n+d+J.( > - = a $ ",
"$ B.h./.c.A+G+G+E.j i B j+u+q+k+%+1 > - = * 7 $ ",
"@ _.].=.)+G+G+G+G+t.n 9+w+v+q+<+4 > - = * & 5 @ ",
". V %.W N 3+G+G+G+D+s+y+w+u+k+m > - = * & + 3 . ",
"  v R C z u c+G+G+E+C+z+w+t+E > - = * & + @ 3   ",
"  ) S z o j t i+G+E+C+y+w++.> - = * & + @ _ ;   ",
"  # r o j i 8 l m+E+C+x+1.> - = * & + @ % 3 .   ",
"    @ L i 8 6 | g n+B+C.> - = * & + @ @ b @     ",
"      ) G 6 | } < 0 C.~ - = * & + @ @ [ ;       ",
"        ' y 2 < ] ! > - = * & + @ % b ;         ",
"          @ e h ! > - = * & + @ _ 3 @           ",
"            # , c d e a 7 5 3 3 ; .             ",
"                  . @ $ $ @ .                   "};
