/* XPM */
static char * tfwpreview_xpm[] = {
"16 16 155 2",
"  	c None",
". 	c #66657C",
"+ 	c #66687F",
"@ 	c #666981",
"# 	c #696A7D",
"$ 	c #3374BF",
"% 	c #686C83",
"& 	c #696E85",
"* 	c #6A7088",
"= 	c #6B728A",
"- 	c #6C758C",
"; 	c #2E82D0",
"> 	c #6E778E",
", 	c #937479",
"' 	c #727C92",
") 	c #A47C85",
"! 	c #A47D86",
"~ 	c #93897D",
"{ 	c #D78644",
"] 	c #8294C1",
"^ 	c #DD8A3F",
"/ 	c #9094C2",
"( 	c #9594C0",
"_ 	c #9595C2",
": 	c #9198B6",
"< 	c #9697C4",
"[ 	c #E18F45",
"} 	c #9799C7",
"| 	c #979AC8",
"1 	c #979CCA",
"2 	c #979ECC",
"3 	c #989FCE",
"4 	c #95A1CF",
"5 	c #99A1D0",
"6 	c #AFA9AB",
"7 	c #71B7F4",
"8 	c #A4AAF7",
"9 	c #9BB1D6",
"0 	c #9DB1D2",
"a 	c #ADBADB",
"b 	c #A9BBDE",
"c 	c #A7BDD8",
"d 	c #B3BAF1",
"e 	c #A6C1DB",
"f 	c #ADBFE4",
"g 	c #A3C3E8",
"h 	c #EFBE6E",
"i 	c #BCC3DB",
"j 	c #B9C4E3",
"k 	c #C1C6DA",
"l 	c #EAC484",
"m 	c #B2CCE7",
"n 	c #ABCEEC",
"o 	c #FFC669",
"p 	c #B9CFEB",
"q 	c #AAD5FF",
"r 	c #ABD6FF",
"s 	c #C7D2EB",
"t 	c #C5D1FF",
"u 	c #B0D8FF",
"v 	c #BFD5F1",
"w 	c #B1D8FF",
"x 	c #BDD6F4",
"y 	c #AFDBF7",
"z 	c #AADCFF",
"A 	c #BFD6FF",
"B 	c #C4D7EB",
"C 	c #AADDFF",
"D 	c #B6DBFF",
"E 	c #B7DBFE",
"F 	c #B7DBFF",
"G 	c #BED9FF",
"H 	c #CBD7ED",
"I 	c #C2D8FF",
"J 	c #B6DEF6",
"K 	c #C5D9FF",
"L 	c #BADDFF",
"M 	c #BCDDFE",
"N 	c #C7DAFF",
"O 	c #BCDEFF",
"P 	c #B6E1FE",
"Q 	c #CBDBFF",
"R 	c #C1DFFD",
"S 	c #C0E0FF",
"T 	c #CDDDFF",
"U 	c #C2E1FE",
"V 	c #C3E1FF",
"W 	c #B9E6F4",
"X 	c #B3E7FF",
"Y 	c #C6E2FF",
"Z 	c #B4E8FF",
"` 	c #CEE2F8",
" .	c #D0E2F7",
"..	c #C8E4FF",
"+.	c #C5E5FF",
"@.	c #BCE9F8",
"#.	c #B7EAFF",
"$.	c #C8E5FF",
"%.	c #CBE5FF",
"&.	c #ECE1CC",
"*.	c #D8E3F5",
"=.	c #CCE6FF",
"-.	c #CEE6FF",
";.	c #C1EBFF",
">.	c #DAE5F4",
",.	c #D1E7FF",
"'.	c #CFE9F2",
").	c #D0E8FF",
"!.	c #D3E9FF",
"~.	c #E0E7F0",
"{.	c #C7EFF8",
"].	c #D5EBFF",
"^.	c #E3E9F2",
"/.	c #D7EDFF",
"(.	c #CBF3F7",
"_.	c #E4ECFA",
":.	c #E5EDF9",
"<.	c #C6F6FF",
"[.	c #E7EEF6",
"}.	c #C7F7FE",
"|.	c #E9EEF5",
"1.	c #EAEEF6",
"2.	c #EAEFF6",
"3.	c #EBF0F8",
"4.	c #E7F2FD",
"5.	c #F0F1F6",
"6.	c #CDFBFE",
"7.	c #EDF2F9",
"8.	c #F1F3F7",
"9.	c #EFF4FC",
"0.	c #F1F4F8",
"a.	c #D2FDFE",
"b.	c #E6F8FA",
"c.	c #F5F4F9",
"d.	c #F2F5FA",
"e.	c #F2F5FC",
"f.	c #EEF6FF",
"g.	c #D2FFFF",
"h.	c #F1F6FD",
"i.	c #F2F7FC",
"j.	c #F1F8FF",
"k.	c #F7F7FB",
"l.	c #E0FFFF",
"m.	c #F9F8FB",
"n.	c #F4FAFE",
"o.	c #E3FFFF",
"p.	c #E6FFFF",
"q.	c #F4FBFF",
"r.	c #EEFEFE",
"s.	c #FAFDFF",
"t.	c #FDFEFE",
"u.	c #FEFEFE",
"v.	c #FBFFFF",
"w.	c #FFFFFE",
"x.	c #FFFFFF",
"                                ",
"      4.i.d.0.8.5.1.[.0         ",
"      h.x.x.w.x.s.n.j.c 7       ",
"      9.x.u.x.k.e.q.f.] ; $     ",
"      7.x.c.i e n b *.` d 8 '   ",
"      2.m.B t.;.C #.g  .!.t >   ",
"      |.3.{.P X <.}.W v =.Q -   ",
"      ^.:.@.z 6.o.p.(.p $.T =   ",
"      ~._.J Z a.r.v.'.x U Q *   ",
"      >.&.: y g.l.b.a R O N &   ",
"      l ^ 6 j 9 m f +.M D K %   ",
"    o { ! H ].)...V M E w I @   ",
"  h [ ) s ].-...V O F w r A +   ",
"  ~ , k /.,.%.Y S L D u q G .   ",
"      4 5 3 2 1 | } < _ ( / #   ",
"                                "};
