/* XPM */
static char * tfwprintpicture_xpm[] = {
"24 24 242 2",
"  	c None",
". 	c #ECE9D8",
"+ 	c #7B9EAD",
"@ 	c #003873",
"# 	c #FFFFFF",
"$ 	c #FEFEFE",
"% 	c #FDFDFD",
"& 	c #F9F9F9",
"* 	c #F7F7F7",
"= 	c #F9F8F8",
"- 	c #BDBEBD",
"; 	c #ABACAB",
"> 	c #AEAFAD",
", 	c #AEB0AD",
"' 	c #AFB0AD",
") 	c #ABACAA",
"! 	c #BCBEBC",
"~ 	c #F5F4F3",
"{ 	c #AEAFAE",
"] 	c #DDE0E3",
"^ 	c #AAB0BB",
"/ 	c #A5ABB6",
"( 	c #A4AAB6",
"_ 	c #A4ABB6",
": 	c #A4AAB5",
"< 	c #A3A9B4",
"[ 	c #A2A9B4",
"} 	c #A2A8B3",
"| 	c #D5D8DD",
"1 	c #ADAFAD",
"2 	c #F4F3F2",
"3 	c #B2B3B1",
"4 	c #9FA7B3",
"5 	c #486187",
"6 	c #4D6892",
"7 	c #4B668F",
"8 	c #4E698D",
"9 	c #486490",
"0 	c #47638D",
"a 	c #44608B",
"b 	c #405D89",
"c 	c #3D5A87",
"d 	c #395785",
"e 	c #365483",
"f 	c #325281",
"g 	c #2F4C79",
"h 	c #959DAB",
"i 	c #B0B1AF",
"j 	c #F3F2F1",
"k 	c #B3B4B1",
"l 	c #5B769F",
"m 	c #819AB0",
"n 	c #CCD8B4",
"o 	c #CAD7BD",
"p 	c #7A95AB",
"q 	c #6483B0",
"r 	c #6080AD",
"s 	c #5B7CAB",
"t 	c #5777A8",
"u 	c #5274A6",
"v 	c #4D70A3",
"w 	c #496CA1",
"x 	c #3D5D8E",
"y 	c #9199A7",
"z 	c #B1B2AF",
"A 	c #F3F1F0",
"B 	c #979EAC",
"C 	c #667EA6",
"D 	c #BCCBAD",
"E 	c #FFFFFB",
"F 	c #FAFCED",
"G 	c #AFC1B6",
"H 	c #7691B8",
"I 	c #738FB6",
"J 	c #6F8BB5",
"K 	c #6C89B3",
"L 	c #6781A6",
"M 	c #6483AD",
"N 	c #607FAC",
"O 	c #516D99",
"P 	c #929AA8",
"Q 	c #F3F2F0",
"R 	c #F2F1EF",
"S 	c #969EAC",
"T 	c #7589AD",
"U 	c #AEBEB4",
"V 	c #F2F6DB",
"W 	c #EDF1D9",
"X 	c #A9BAB6",
"Y 	c #899EC2",
"Z 	c #889DC0",
"` 	c #849BBF",
" .	c #8097BC",
"..	c #717F95",
"+.	c #60646B",
"@.	c #6E89B3",
"#.	c #5C769E",
"$.	c #939BA8",
"%.	c #F2F1F0",
"&.	c #F1F0EF",
"*.	c #969DAB",
"=.	c #8394B2",
"-.	c #9EB0CD",
";.	c #ACBCBB",
">.	c #B3C2BA",
",.	c #9CAFCC",
"'.	c #9CAECC",
").	c #9AADCA",
"!.	c #9AACCA",
"~.	c #98ABCA",
"{.	c #7C879A",
"].	c #6C7586",
"^.	c #4F4E4E",
"/.	c #6F7D94",
"(.	c #7389AD",
"_.	c #969DAA",
":.	c #F0EFEE",
"<.	c #959DAA",
"[.	c #8B99B0",
"}.	c #AAB7CC",
"|.	c #A8B5CD",
"1.	c #A8B4CC",
"2.	c #A9B6CB",
"3.	c #A5B1C8",
"4.	c #A4B1C7",
"5.	c #95A1B6",
"6.	c #616367",
"7.	c #6E7480",
"8.	c #545454",
"9.	c #838D9E",
"0.	c #8392AC",
"a.	c #969EA9",
"b.	c #EFEEEC",
"c.	c #929AA7",
"d.	c #4A5975",
"e.	c #576781",
"f.	c #586681",
"g.	c #52627C",
"h.	c #455673",
"i.	c #3E506E",
"j.	c #404D62",
"k.	c #3A414D",
"l.	c #444B59",
"m.	c #3D434D",
"n.	c #3D4E6D",
"o.	c #364766",
"p.	c #9198A5",
"q.	c #B1B3B0",
"r.	c #F0EEEC",
"s.	c #EFEDEB",
"t.	c #9199A6",
"u.	c #364968",
"v.	c #3D5071",
"w.	c #3A4D6D",
"x.	c #34486A",
"y.	c #304466",
"z.	c #2E4265",
"A.	c #2D4265",
"B.	c #2F4264",
"C.	c #2B3C5A",
"D.	c #24324A",
"E.	c #283954",
"F.	c #1F2F4B",
"G.	c #26395B",
"H.	c #9198A6",
"I.	c #EFECEA",
"J.	c #8F97A5",
"K.	c #3B4E71",
"L.	c #45587C",
"M.	c #45587D",
"N.	c #435578",
"O.	c #374867",
"P.	c #6E7786",
"Q.	c #747E8E",
"R.	c #A8ACB0",
"S.	c #A9ABA9",
"T.	c #EEEBE9",
"U.	c #B2B3B0",
"V.	c #949BA8",
"W.	c #48597C",
"X.	c #526489",
"Y.	c #53658A",
"Z.	c #47597D",
"`.	c #3F5177",
" +	c #BEC1C2",
".+	c #CBCAC9",
"++	c #C9CBC9",
"@+	c #F2F0EE",
"#+	c #EDEAE7",
"$+	c #AFB0AF",
"%+	c #CDCED4",
"&+	c #838C9B",
"*+	c #7B8696",
"=+	c #7C8696",
"-+	c #7C8796",
";+	c #7D8797",
">+	c #7D8697",
",+	c #7E8798",
"'+	c #7C8597",
")+	c #B7B8B7",
"!+	c #ADAEAD",
"~+	c #BBBCBB",
"{+	c #EEECE9",
"]+	c #F3F0ED",
"^+	c #EFEBE8",
"/+	c #B9BAB9",
"(+	c #BCBDBC",
"_+	c #BEBFBC",
":+	c #C0C0BE",
"<+	c #C0C1BE",
"[+	c #C1C1BE",
"}+	c #C1C2BF",
"|+	c #C2C2BF",
"1+	c #C2C3C0",
"2+	c #C2C3BF",
"3+	c #C2C2C0",
"4+	c #9B9D9B",
"5+	c #A2A4A2",
"6+	c #E1E1E1",
"7+	c #F4F1EF",
"8+	c #F3EFEC",
"9+	c #F1EDEA",
"0+	c #E6E3E1",
"a+	c #DCDBDA",
"b+	c #DADADA",
"c+	c #D1D2D1",
"d+	c #CCCDCC",
"e+	c #C9C9C9",
"f+	c #C6C6C6",
"g+	c #C3C3C3",
"h+	c #BFC0BF",
"i+	c #C2C2C2",
"j+	c #C5C6C5",
"k+	c #D1D1D1",
"l+	c #DCDCDC",
"m+	c #E8E9E8",
"n+	c #F2EEEB",
"o+	c #F1EEEA",
"p+	c #F0EDE9",
"q+	c #EFECE9",
"r+	c #EFECE8",
"s+	c #F0ECE8",
"  . + @ @ @ @ @ @ @ @ @ @ @ @ @ @ @ @ @ @ + .   ",
"  + @ # # # # # # # # # # # # # # # # # # @ +   ",
"  @ $ $ $ $ $ $ $ $ $ $ $ $ $ $ $ $ $ $ $ $ @   ",
"  @ % & * * * * * * * * * * * * * * * * & % @   ",
"  @ = - ; > , , , ' ' , , , , , , , > ) ! = @   ",
"  @ ~ { ] ^ / ( ( _ : < < < < [ } } _ | 1 ~ @   ",
"  @ 2 3 4 5 6 7 8 9 0 a a b c d e f g h i 2 @   ",
"  @ j k h l m n o p q r r s t u v w x y z j @   ",
"  @ A k B C D E F G H I I J K L M N O P i Q @   ",
"  @ R 3 S T U V W X Y Z Z `  ...+.@.#.$.i %.@   ",
"  @ &.3 *.=.-.;.>.,.'.).!.~.{.].^./.(._.i &.@   ",
"  @ :.3 <.[.}.|.1.2.2.3.4.5.6.7.8.9.0.a.i :.@   ",
"  @ b.3 c.d.e.e.f.g.h.i.i.j.k.l.m.n.o.p.q.r.@   ",
"  @ s.3 t.u.v.w.x.y.z.A.A.B.C.D.E.F.G.H.3 s.@   ",
"  @ I.3 J.K.L.L.L.L.L.L.L.L.M.N.O.P.Q.R.S.I.@   ",
"  @ T.U.V.W.X.X.X.X.X.X.X.X.Y.Z.`. +.+{ ++@+@   ",
"  @ #+$+%+&+*+=+=+=+=+-+-+;+>+,+'+)+!+~+{+]+@   ",
"  @ ^+/+(+_+:+<+[+}+|+1+2+3+}+}+|+4+5+6+7+8+@   ",
"  @ 9+0+a+b+c+d+e+f+g+h+i+j+e+d+k+l+m+j n+n+@   ",
"  @ o+o+o+o+p+p+q+r+r+r+r+r+q+p+p+o+o+o+o+o+@   ",
"  @ p+p+p+p+p+p+p+p+p+p+p+p+p+p+p+p+p+p+p+p+@   ",
"  + @ s+s+s+s+s+s+s+s+s+s+s+s+s+s+s+s+s+s+@ +   ",
"  . + @ @ @ @ @ @ @ @ @ @ @ @ @ @ @ @ @ @ + .   ",
"                                                "};
