/* XPM */
static char * tfwquit_xpm[] = {
"16 16 230 2",
"  	c None",
". 	c #980000",
"+ 	c #990000",
"@ 	c #9B0000",
"# 	c #A50500",
"$ 	c #B50800",
"% 	c #B30900",
"& 	c #B20A00",
"* 	c #B30A00",
"= 	c #A70E00",
"- 	c #B30B00",
"; 	c #BA0900",
"> 	c #AF0D00",
", 	c #BA0A00",
"' 	c #AA0F00",
") 	c #AB0F00",
"! 	c #AF0E00",
"~ 	c #AC0F00",
"{ 	c #A91000",
"] 	c #AA1000",
"^ 	c #AA1100",
"/ 	c #AB1100",
"( 	c #C60B00",
"_ 	c #CF1C00",
": 	c #DA2000",
"< 	c #D92400",
"[ 	c #DB2E00",
"} 	c #DB2F00",
"| 	c #DB3101",
"1 	c #DC3508",
"2 	c #DC360A",
"3 	c #BA4900",
"4 	c #DD3D15",
"5 	c #E03F0D",
"6 	c #DE3F14",
"7 	c #E3400A",
"8 	c #DD4116",
"9 	c #E1420C",
"0 	c #E5420C",
"a 	c #E3430B",
"b 	c #E7420B",
"c 	c #DE441C",
"d 	c #E7430D",
"e 	c #E7430E",
"f 	c #DE441F",
"g 	c #DF451A",
"h 	c #DD4620",
"i 	c #E7450E",
"j 	c #E74712",
"k 	c #E74714",
"l 	c #DE4923",
"m 	c #E4481C",
"n 	c #C85309",
"o 	c #E4491B",
"p 	c #E24B24",
"q 	c #E04C24",
"r 	c #E04D28",
"s 	c #E14D26",
"t 	c #E44D22",
"u 	c #E04E2A",
"v 	c #E34F27",
"w 	c #E0502C",
"x 	c #E25028",
"y 	c #DF512D",
"z 	c #E1512E",
"A 	c #E0522A",
"B 	c #E55127",
"C 	c #E1522C",
"D 	c #E3522C",
"E 	c #E15431",
"F 	c #E1552C",
"G 	c #DF5633",
"H 	c #E4552F",
"I 	c #E15632",
"J 	c #E15633",
"K 	c #E35631",
"L 	c #E15734",
"M 	c #E15735",
"N 	c #E6572B",
"O 	c #D35F17",
"P 	c #E25834",
"Q 	c #E05936",
"R 	c #E15936",
"S 	c #E25934",
"T 	c #E15938",
"U 	c #E25A38",
"V 	c #E15B38",
"W 	c #E25B37",
"X 	c #E45B33",
"Y 	c #E25C38",
"Z 	c #E25C3A",
"` 	c #E45E39",
" .	c #E15F3D",
"..	c #E25F3D",
"+.	c #E35F3D",
"@.	c #E4603E",
"#.	c #E4623F",
"$.	c #E5623D",
"%.	c #E46242",
"&.	c #E46444",
"*.	c #E46546",
"=.	c #E56748",
"-.	c #E46848",
";.	c #E86840",
">.	c #E5684A",
",.	c #E56A47",
"'.	c #E66C4F",
").	c #E76D4F",
"!.	c #E56F52",
"~.	c #E66F53",
"{.	c #E67054",
"].	c #E67057",
"^.	c #E77154",
"/.	c #E57253",
"(.	c #E67258",
"_.	c #E67357",
":.	c #E77458",
"<.	c #E7765C",
"[.	c #E8765A",
"}.	c #E7775B",
"|.	c #E7775D",
"1.	c #E8795E",
"2.	c #E87B62",
"3.	c #E87D64",
"4.	c #E97F64",
"5.	c #E88067",
"6.	c #EA8165",
"7.	c #E88368",
"8.	c #E9846B",
"9.	c #EA856C",
"0.	c #EC886D",
"a.	c #E88E76",
"b.	c #EA8F76",
"c.	c #ED8F72",
"d.	c #EC917A",
"e.	c #EC927B",
"f.	c #EC937D",
"g.	c #EC967F",
"h.	c #ED9780",
"i.	c #ED9782",
"j.	c #E8A063",
"k.	c #ED9E8B",
"l.	c #EEA490",
"m.	c #EFA795",
"n.	c #F0A999",
"o.	c #EFAA9A",
"p.	c #F0B2A3",
"q.	c #EBB4A7",
"r.	c #EEB5A7",
"s.	c #F3B7A7",
"t.	c #F2B9A6",
"u.	c #F2BAAB",
"v.	c #F1BCAA",
"w.	c #F2BCAD",
"x.	c #F2BDB0",
"y.	c #F3BDAE",
"z.	c #F3C0AF",
"A.	c #F3C0B3",
"B.	c #F4C0B1",
"C.	c #FEBAEA",
"D.	c #FCBBEC",
"E.	c #F5C3B7",
"F.	c #FFBBEC",
"G.	c #FDBCEC",
"H.	c #FDBCED",
"I.	c #F5C4B8",
"J.	c #FFBCEB",
"K.	c #FFBDEC",
"L.	c #FFBDEE",
"M.	c #F5CCC2",
"N.	c #F5CDC3",
"O.	c #F6CDC2",
"P.	c #F5CDC5",
"Q.	c #F6CEC5",
"R.	c #F6CFC5",
"S.	c #F6D2C8",
"T.	c #F7D5CB",
"U.	c #EAD9D6",
"V.	c #F7D6CE",
"W.	c #ECD9D6",
"X.	c #ECDAD6",
"Y.	c #ECDAD7",
"Z.	c #F6D8D2",
"`.	c #F7D8D0",
" +	c #EBDBD7",
".+	c #F8D8CF",
"++	c #ECDBD6",
"@+	c #ECDBD7",
"#+	c #F7D9D1",
"$+	c #EDDCD6",
"%+	c #EDDCD8",
"&+	c #F7DAD2",
"*+	c #ECDDD8",
"=+	c #EDDDD8",
"-+	c #F8DCD4",
";+	c #F7DDD7",
">+	c #F8DED9",
",+	c #F8DFD6",
"'+	c #F8DFD9",
")+	c #F8E0D9",
"!+	c #F8E0DA",
"~+	c #F9E0D9",
"{+	c #F9E0DA",
"]+	c #F8E1DA",
"^+	c #F8E1DC",
"/+	c #F9E1DA",
"(+	c #F9E1DB",
"_+	c #E9E7D0",
":+	c #E9E7D1",
"<+	c #F8E2DB",
"[+	c #E8E8D0",
"}+	c #F8E2DD",
"|+	c #F9E2DC",
"1+	c #E9E8D1",
"2+	c #FAE3DC",
"3+	c #F9E4DD",
"4+	c #F5EACF",
"5+	c #F4ECD1",
"6+	c #FAE9E4",
"7+	c #F9EAE6",
"8+	c #F8F0D8",
"9+	c #F8F0DA",
"0+	c #FAEEEB",
"a+	c #FBEFEC",
"b+	c #FBF0EE",
"c+	c #FBF1EE",
"d+	c #FBF1F0",
"e+	c #FCF2F1",
"f+	c #FBF3F0",
"g+	c #FCF3F1",
"  G.8+^+|+(+{+|+]+]+~+)+'+5+H.  ",
"D.j.].=.Z E w r l h c 6 1 _ O K.",
"9+<.y.l.e.0.7.5.3.|.(.~.-.` # _+",
"}+).m.d.4.a.q.Q.N.o.}.W R Q / %+",
"|+@.f.6.i.7+0+O.N.a+/+/.q L / %+",
"^+I 9.b.6+S.'.J y  .R.-+$.D ^ %+",
"<+u 2.r.c+^.M u.p.8 Y b+g.s ] %+",
"(+f [.P.`.z &.E.x.A [ .+v.p ' =+",
"!+4 {.M.&+z *.I.A.F } #+t.m ~ *+",
">+2 >.n.f+:.T w.s.g #.d+c.k ! @+",
"'+| %.1.3+V._.S K ,.T.#+N b * X.",
",+< ..+.8.2+e+`.`.g+Z.;.7 0 $ X.",
";+: G V U !.k.B.z.h.X a 9 d ; W.",
"4+( B H P C v x t o j i e 5 + :+",
"L.n @ = ^ / { ) > - & % , . 3 J.",
"  C.[+U. + + +@+X.$+X.++Y.1+F.  "};
