/* XPM */
static char * tfwsearch_xpm[] = {
"18 24 162 2",
"  	c None",
". 	c #C5522B",
"+ 	c #C8552E",
"@ 	c #C95830",
"# 	c #CA5A31",
"$ 	c #C95C33",
"% 	c #CB5E35",
"& 	c #CC6037",
"* 	c #CC633A",
"= 	c #CE6439",
"- 	c #CF663B",
"; 	c #D0693D",
"> 	c #D06A3E",
", 	c #D16C40",
"' 	c #D26F42",
") 	c #D26F43",
"! 	c #D47145",
"~ 	c #D37245",
"{ 	c #D47547",
"] 	c #D57749",
"^ 	c #D67849",
"/ 	c #D77B4B",
"( 	c #D87E4D",
"_ 	c #D87E4E",
": 	c #D98150",
"< 	c #DA8452",
"[ 	c #DC8452",
"} 	c #DB8654",
"| 	c #DC8754",
"1 	c #DD8956",
"2 	c #DE8C58",
"3 	c #DE8D59",
"4 	c #DF8F5B",
"5 	c #E0925D",
"6 	c #E0935E",
"7 	c #E19560",
"8 	c #C4999B",
"9 	c #DE9767",
"0 	c #E39862",
"a 	c #E49B63",
"b 	c #E49C64",
"c 	c #E59E66",
"d 	c #E6A168",
"e 	c #E6A269",
"f 	c #E7A46B",
"g 	c #E8A76D",
"h 	c #E9A86E",
"i 	c #E9A96F",
"j 	c #EAAA6F",
"k 	c #EBAC71",
"l 	c #B1B3E3",
"m 	c #B1B4E4",
"n 	c #AFB5E4",
"o 	c #B0B5E3",
"p 	c #B0B5E4",
"q 	c #ECAF73",
"r 	c #B2B5E4",
"s 	c #B2B5E5",
"t 	c #AFB6E4",
"u 	c #B0B6E4",
"v 	c #B0B6E5",
"w 	c #B6B5DE",
"x 	c #B1B6E4",
"y 	c #ECB074",
"z 	c #B2B6E5",
"A 	c #AFB7E5",
"B 	c #B0B7E5",
"C 	c #B1B7E4",
"D 	c #B1B7E5",
"E 	c #AFB8E5",
"F 	c #ADB9E5",
"G 	c #AEB9E5",
"H 	c #B2B8E4",
"I 	c #EDB376",
"J 	c #B4BAE5",
"K 	c #DDB699",
"L 	c #EEB578",
"M 	c #EFB679",
"N 	c #A9C2E7",
"O 	c #F0B97A",
"P 	c #F1BB7C",
"Q 	c #A7C6E9",
"R 	c #F2BE7E",
"S 	c #F2BF7F",
"T 	c #ADC9EA",
"U 	c #F3C181",
"V 	c #A0D1EC",
"W 	c #BCCAEA",
"X 	c #F3C485",
"Y 	c #F4C483",
"Z 	c #A2D4ED",
"` 	c #9DD6ED",
" .	c #9DD6EE",
"..	c #F5C786",
"+.	c #9DD7EE",
"@.	c #B8D2ED",
"#.	c #F6CA88",
"$.	c #F7CC8A",
"%.	c #98DFF0",
"&.	c #F8CD8A",
"*.	c #B4D8EE",
"=.	c #96E2F1",
"-.	c #95E3F1",
";.	c #96E3F1",
">.	c #9EE1F0",
",.	c #F9D18D",
"'.	c #94E6F2",
").	c #FAD28E",
"!.	c #93E7F2",
"~.	c #C1DAEF",
"{.	c #92E8F3",
"].	c #A8E2F1",
"^.	c #92E9F3",
"/.	c #95E9F3",
"(.	c #FBD590",
"_.	c #95EAF3",
":.	c #96EAF3",
"<.	c #97EAF3",
"[.	c #B8E1F1",
"}.	c #9BEAF4",
"|.	c #FCD893",
"1.	c #9DEBF4",
"2.	c #9FEBF4",
"3.	c #BEE2F2",
"4.	c #A1EBF4",
"5.	c #A2EBF4",
"6.	c #A4ECF4",
"7.	c #A6ECF4",
"8.	c #A7ECF4",
"9.	c #A9EDF4",
"0.	c #B1EBF4",
"a.	c #ACEDF5",
"b.	c #AEEDF5",
"c.	c #AFEEF5",
"d.	c #B0EEF5",
"e.	c #B1EEF5",
"f.	c #CFE7F3",
"g.	c #B7EFF5",
"h.	c #B8EFF5",
"i.	c #CCEAF4",
"j.	c #BBEFF5",
"k.	c #BEF0F6",
"l.	c #BFF0F6",
"m.	c #C1F0F6",
"n.	c #C2F1F6",
"o.	c #C8F1F6",
"p.	c #C9F1F6",
"q.	c #CAF2F6",
"r.	c #CBF2F6",
"s.	c #CCF2F6",
"t.	c #CEF2F7",
"u.	c #D0F3F7",
"v.	c #D4F3F7",
"w.	c #D5F3F7",
"x.	c #D8F4F7",
"y.	c #DBF4F7",
"z.	c #DEF5F7",
"A.	c #DFF5F7",
"B.	c #E2F5F8",
"C.	c #E5F6F8",
"D.	c #E7F6F8",
"E.	c #F0F8F8",
"        u p l v n                   ",
"    o E  .=.^.=.` B p               ",
"  o Q !.^.^.^.^.^.!.N D             ",
"  G !.^.^.^.^./.<.:.'.A             ",
"t +.^.^.^._.2.7.9.8.5.Z t           ",
"u ;.^.^.:.6.c.g.j.h.e.].u           ",
"l {.^.^.4.d.k.o.s.p.l.0.m           ",
"B %.^.<.9.j.r.x.z.x.q.[.C           ",
"x V ^.}.b.m.v.C.E.B.u.@.r           ",
"  p -.1.d.n.w.D.E.B.i.r             ",
"    F >.a.k.t.y.A.f.J               ",
"      o T *.3.~.W w K $.            ",
"          z H s 8 9 i R ).          ",
"                ! } a q Y |.        ",
"                * ] 2 d L #.        ",
"                  ; ( 5 g P ,.      ",
"                  # ' < 0 k U (.    ",
"                    & { 1 c I ..    ",
"                      - / 4 f O &.  ",
"                      @ , : 7 j S   ",
"                        % ~ | b y X ",
"                        . = ^ 3 e M ",
"                          + > _ 6 h ",
"                            $ ) [   "};
