/* XPM */
static char * tfwtrash_xpm[] = {
"24 24 232 2",
"  	c None",
". 	c #1C2B4A",
"+ 	c #2E3234",
"@ 	c #2F3436",
"# 	c #313537",
"$ 	c #3F4345",
"% 	c #474548",
"& 	c #464D54",
"* 	c #2C4E97",
"= 	c #384D7F",
"- 	c #4F5456",
"; 	c #54585B",
"> 	c #515960",
", 	c #375CB3",
"' 	c #585C5E",
") 	c #605D61",
"! 	c #2861DF",
"~ 	c #2A62E0",
"{ 	c #5A6168",
"] 	c #53637F",
"^ 	c #5E666D",
"/ 	c #CD4A41",
"( 	c #3669E1",
"_ 	c #686967",
": 	c #626A71",
"< 	c #656A6C",
"[ 	c #D34E3F",
"} 	c #3A6CDE",
"| 	c #D55040",
"1 	c #D45046",
"2 	c #CE5244",
"3 	c #3D6EE0",
"4 	c #576F8A",
"5 	c #566F96",
"6 	c #D65147",
"7 	c #CA5750",
"8 	c #4273DE",
"9 	c #6C747B",
"0 	c #597993",
"a 	c #4977E4",
"b 	c #4A7ADF",
"c 	c #5F7B9C",
"d 	c #6E7D9B",
"e 	c #6A7EA1",
"f 	c #4F80DF",
"g 	c #6D7DA7",
"h 	c #797E80",
"i 	c #7A7F82",
"j 	c #7E8386",
"k 	c #5687E0",
"l 	c #6687C1",
"m 	c #848683",
"n 	c #5B8EE0",
"o 	c #648CE0",
"p 	c #868E95",
"q 	c #7C8FB3",
"r 	c #6990E4",
"s 	c #5896E6",
"t 	c #6899B2",
"u 	c #7494E3",
"v 	c #909497",
"w 	c #669DE1",
"x 	c #C68B87",
"y 	c #8E99A6",
"z 	c #D38884",
"A 	c #CC8A88",
"B 	c #729EE5",
"C 	c #939BA3",
"D 	c #61A6E2",
"E 	c #D08E8D",
"F 	c #8B9FC3",
"G 	c #98A0A8",
"H 	c #D49190",
"I 	c #8DA1C6",
"J 	c #9CA1A3",
"K 	c #97A2B0",
"L 	c #9EA3A5",
"M 	c #83A6DB",
"N 	c #6FACE3",
"O 	c #9DA5AD",
"P 	c #7AACE6",
"Q 	c #A0A8B0",
"R 	c #D89B98",
"S 	c #A1AAB1",
"T 	c #A5AAAD",
"U 	c #D99D99",
"V 	c #98ABD1",
"W 	c #8CAEE4",
"X 	c #6EB8E7",
"Y 	c #7EB4E6",
"Z 	c #77B6E7",
"` 	c #92AFE0",
" .	c #97AFDA",
"..	c #88B3E8",
"+.	c #D2A5A2",
"@.	c #ABB0B2",
"#.	c #D3A6A3",
"$.	c #E0A39F",
"%.	c #8AB5EA",
"&.	c #DBA6A6",
"*.	c #7ABDE7",
"=.	c #DCA7A7",
"-.	c #95B7ED",
";.	c #A5B5D5",
">.	c #DAACAA",
",.	c #B2B7BA",
"'.	c #B5B7B4",
").	c #ACB8C5",
"!.	c #B1B9C2",
"~.	c #ADB9D3",
"{.	c #89C2EE",
"].	c #9ABFE1",
"^.	c #A4BCE7",
"/.	c #CFB4B8",
"(.	c #B6BBBE",
"_.	c #A2BEE2",
":.	c #AABDD6",
"<.	c #D8B3B4",
"[.	c #AFBED2",
"}.	c #ABBFD8",
"|.	c #DFB3B6",
"1.	c #B2BDD8",
"2.	c #A3C3D3",
"3.	c #BCBEBB",
"4.	c #B6BFC7",
"5.	c #DCB7B8",
"6.	c #AAC2E1",
"7.	c #9CCAEB",
"8.	c #B2C5DE",
"9.	c #B3C6DF",
"0.	c #C0C5C8",
"a.	c #BAC6D3",
"b.	c #C1C6C9",
"c.	c #C2C7CA",
"d.	c #B9C8E9",
"e.	c #BDC9D7",
"f.	c #C5CACD",
"g.	c #E3C5C4",
"h.	c #D6CCD3",
"i.	c #CED0CC",
"j.	c #CFD1CE",
"k.	c #C6D2E0",
"l.	c #C3D3E7",
"m.	c #CDD2D5",
"n.	c #CED3D6",
"o.	c #CCD5DD",
"p.	c #CDD4EA",
"q.	c #EACED2",
"r.	c #CAD6E4",
"s.	c #D4D6D3",
"t.	c #CED7DF",
"u.	c #D1D7D9",
"v.	c #CCD8E6",
"w.	c #CFD8E0",
"x.	c #D2D8DA",
"y.	c #CDD9E7",
"z.	c #D0D9E1",
"A.	c #D4D9DB",
"B.	c #CEDAE8",
"C.	c #D2DAE2",
"D.	c #CBDBEE",
"E.	c #D5DADC",
"F.	c #CFDBEA",
"G.	c #E4D7D8",
"H.	c #D3DBE4",
"I.	c #D6DBDD",
"J.	c #D4DCE5",
"K.	c #DDDADF",
"L.	c #D7DCDF",
"M.	c #D0DDEB",
"N.	c #DADCD9",
"O.	c #D5DDE6",
"P.	c #D8DDE0",
"Q.	c #D2DEEC",
"R.	c #D9DEE1",
"S.	c #C3E4F4",
"T.	c #DADFE2",
"U.	c #D5E1EF",
"V.	c #D8E1E9",
"W.	c #E1DFE3",
"X.	c #D9E2EA",
"Y.	c #DCE2E4",
"Z.	c #E0E1EB",
"`.	c #DAE3EB",
" +	c #E3E1E5",
".+	c #DDE3E5",
"++	c #DBE4EC",
"@+	c #DFE4E6",
"#+	c #E0E5E8",
"$+	c #DEE6EF",
"%+	c #E7E4E9",
"&+	c #E1E6E9",
"*+	c #E4E6E3",
"=+	c #DFE7F0",
"-+	c #E2E7EA",
";+	c #E5E7E4",
">+	c #E3E8EB",
",+	c #E0E9F1",
"'+	c #E4E9EC",
")+	c #E7E9E6",
"!+	c #E1EAF2",
"~+	c #E5EAED",
"{+	c #E2EBF3",
"]+	c #E6ECEE",
"^+	c #EAECE9",
"/+	c #E4EDF5",
"(+	c #E7EDEF",
"_+	c #E5EEF7",
":+	c #EBEEEA",
"<+	c #E9EEF0",
"[+	c #E7EFF8",
"}+	c #EAEFF2",
"|+	c #EBF0F3",
"1+	c #EEEFF9",
"2+	c #E9F1FA",
"3+	c #ECF1F4",
"4+	c #EDF2F5",
"5+	c #EEF3F6",
"6+	c #F2F4F1",
"7+	c #F5F3F7",
"8+	c #EFF5F7",
"9+	c #F6F4F8",
"0+	c #F0F6F8",
"a+	c #F2F7F9",
"b+	c #F3F8FB",
"c+	c #F4F9FC",
"d+	c #F5FAFD",
"e+	c #F8FAF7",
"f+	c #F6FBFE",
"g+	c #FAFCF9",
"h+	c #F7FDFF",
"i+	c #F8FEFF",
"                      m   _                     ",
"            ] 4 d y K i.'.i.F q e 5 =           ",
"        c F :.8.,.(+s.^+6+*+(.U.Q.y.l.l .       ",
"      0 V ;.:.[.b.&+e+:+;+g+-+!.B.y.r.6.*       ",
"      t 7.].1.Q 3.f.T.m.N.P.Y.L.e.^.r 3 ,       ",
"      2.*.X Z Y P ..%.-.W B o b ( ~ ! ! g       ",
"      L S.{.N D w s n k f b 8 3 ( a u d.9       ",
"      h i+i+d+2+D.9._.` M  .~.p.++U.Q.v.:       ",
"      ; f+f+h+h+d+)+Y.I.c.u.I.=+++U.Q.v.{       ",
"        d+d+f+f+f+f+d+>+A.Y.++,+++U.Q.v.>       ",
"        |+c+c+d+7+q.f+d+8+|+<.$+++U.Q.v.&       ",
"        P.a+b+c+g.1 $.a+8+E 2 K.++U.Q.v.$       ",
"        0.8+0+a+b+&.| U R 1 <.,+++U.Q.v.#       ",
"        T 5+8+0+9+0+&.| | >./+,+++U.Q.v.        ",
"        v 3+4+5+4+3+|.| [ +..+V.O.O.F.v.        ",
"        h [+}+[+1+5.1 A x [ #.-+Y.X.C.k.        ",
"        ' {+/+/+ +7 z -+T.H / h.@+I.t.a.        ",
"        % {+!+E.>+G.}+>+~+(+/.#+#+I.w.).        ",
"          {+=+W.%+@+(+(+R.&+Y.T.n.x.C.S         ",
"          `.R.]+~+R.Y..+<+}+>+&+#+n.o.G         ",
"          O C.Y.(+&+@+L.I..+-+'+P.A.Z.^         ",
"            C V.V.L.C.X.`.++X.C.O.4.-           ",
"                + ) j J @.p < +                 ",
"                                                "};
