/* XPM */
static char * tfwzoomout_xpm[] = {
"18 24 167 2",
"  	c None",
". 	c #00005D",
"+ 	c #2E488B",
"@ 	c #33498C",
"# 	c #364A8C",
"$ 	c #394A8C",
"% 	c #3A4A8C",
"& 	c #C5522B",
"* 	c #C8552E",
"= 	c #C95830",
"- 	c #CA5A31",
"; 	c #C95C33",
"> 	c #CB5E35",
", 	c #CC6037",
"' 	c #4D7BAC",
") 	c #CC633A",
"! 	c #CE6439",
"~ 	c #CF663B",
"{ 	c #D0693D",
"] 	c #D06A3E",
"^ 	c #D16C40",
"/ 	c #5F85B2",
"( 	c #D26F42",
"_ 	c #D26F43",
": 	c #D47145",
"< 	c #6986B2",
"[ 	c #D37245",
"} 	c #7187B3",
"| 	c #D47547",
"1 	c #7288B3",
"2 	c #D57749",
"3 	c #D67849",
"4 	c #7989B3",
"5 	c #7C89B3",
"6 	c #D77B4B",
"7 	c #D87E4D",
"8 	c #D87E4E",
"9 	c #D98150",
"0 	c #DA8452",
"a 	c #DC8452",
"b 	c #639EC3",
"c 	c #DB8654",
"d 	c #DC8754",
"e 	c #DD8956",
"f 	c #DE8C58",
"g 	c #DE8D59",
"h 	c #DF8F5B",
"i 	c #E0925D",
"j 	c #E0935E",
"k 	c #80A7C7",
"l 	c #E19560",
"m 	c #C4999B",
"n 	c #DE9767",
"o 	c #E39862",
"p 	c #E49B63",
"q 	c #E49C64",
"r 	c #E59E66",
"s 	c #E6A168",
"t 	c #E6A269",
"u 	c #78BAD4",
"v 	c #E7A46B",
"w 	c #E8A76D",
"x 	c #E9A86E",
"y 	c #E9A96F",
"z 	c #EAAA6F",
"A 	c #EBAC71",
"B 	c #B1B3E3",
"C 	c #B1B4E4",
"D 	c #AFB5E4",
"E 	c #B0B5E3",
"F 	c #B0B5E4",
"G 	c #ECAF73",
"H 	c #B2B5E4",
"I 	c #B2B5E5",
"J 	c #AFB6E4",
"K 	c #B0B6E4",
"L 	c #B0B6E5",
"M 	c #B6B5DE",
"N 	c #B1B6E4",
"O 	c #ECB074",
"P 	c #B2B6E5",
"Q 	c #AFB7E5",
"R 	c #B0B7E5",
"S 	c #B1B7E4",
"T 	c #B1B7E5",
"U 	c #AFB8E5",
"V 	c #ADB9E5",
"W 	c #AEB9E5",
"X 	c #B2B8E4",
"Y 	c #EDB376",
"Z 	c #B4BAE5",
"` 	c #DDB699",
" .	c #EEB578",
"..	c #EFB679",
"+.	c #A9C2E7",
"@.	c #F0B97A",
"#.	c #AEC5D9",
"$.	c #F1BB7C",
"%.	c #A7C6E9",
"&.	c #F2BE7E",
"*.	c #F2BF7F",
"=.	c #ADC9EA",
"-.	c #F3C181",
";.	c #A0D1EC",
">.	c #BCCAEA",
",.	c #F3C485",
"'.	c #F4C483",
").	c #A2D4ED",
"!.	c #9DD6ED",
"~.	c #9DD6EE",
"{.	c #F5C786",
"].	c #9DD7EE",
"^.	c #B8D2ED",
"/.	c #F6CA88",
"(.	c #F7CC8A",
"_.	c #98DFF0",
":.	c #F8CD8A",
"<.	c #B4D8EE",
"[.	c #96E2F1",
"}.	c #95E3F1",
"|.	c #96E3F1",
"1.	c #9EE1F0",
"2.	c #F9D18D",
"3.	c #94E6F2",
"4.	c #FAD28E",
"5.	c #93E7F2",
"6.	c #C1DAEF",
"7.	c #92E8F3",
"8.	c #A8E2F1",
"9.	c #92E9F3",
"0.	c #95E9F3",
"a.	c #FBD590",
"b.	c #95EAF3",
"c.	c #96EAF3",
"d.	c #97EAF3",
"e.	c #B8E1F1",
"f.	c #9BEAF4",
"g.	c #FCD893",
"h.	c #9DEBF4",
"i.	c #9FEBF4",
"j.	c #BEE2F2",
"k.	c #A2EBF4",
"l.	c #A6ECF4",
"m.	c #A7ECF4",
"n.	c #A9EDF4",
"o.	c #B1EBF4",
"p.	c #ACEDF5",
"q.	c #AEEDF5",
"r.	c #B0EEF5",
"s.	c #B1EEF5",
"t.	c #CFE7F3",
"u.	c #CCEAF4",
"v.	c #BEF0F6",
"w.	c #BFF0F6",
"x.	c #C1F0F6",
"y.	c #C2F1F6",
"z.	c #CAF2F6",
"A.	c #CEF2F7",
"B.	c #D0F3F7",
"C.	c #D4F3F7",
"D.	c #D5F3F7",
"E.	c #DBF4F7",
"F.	c #DFF5F7",
"G.	c #E2F5F8",
"H.	c #E5F6F8",
"I.	c #E7F6F8",
"J.	c #F0F8F8",
"        K F B L D                   ",
"    E U ~.[.9.[.!.R F               ",
"  E %.5.9.9.9.9.9.5.+.T             ",
"  W 5.9.9.9.9.0.d.c.3.Q             ",
"J ].9.9.9.b.i.l.n.m.k.).J           ",
"K |.9.b + @ # $ % k s.8.K           ",
"B 7.9.' . . . . . } w.o.C           ",
"R _.9.u / < 1 4 5 #.z.e.S           ",
"N ;.9.f.q.x.C.H.J.G.B.^.H           ",
"  F }.h.r.y.D.I.J.G.u.H             ",
"    V 1.p.v.A.E.F.t.Z               ",
"      E =.<.j.6.>.M ` (.            ",
"          P X I m n y &.4.          ",
"                : c p G '.g.        ",
"                ) 2 f s  ./.        ",
"                  { 7 i w $.2.      ",
"                  - ( 0 o A -.a.    ",
"                    , | e r Y {.    ",
"                      ~ 6 h v @.:.  ",
"                      = ^ 9 l z *.  ",
"                        > [ d q O ,.",
"                        & ! 3 g t ..",
"                          * ] 8 j x ",
"                            ; _ a   "};
