/* XPM */
static char * TSdpoFastForm_xpm[] = {
"23 23 8 1",
" 	c None",
".	c #000080",
"+	c #808080",
"@	c #C0C0C0",
"#	c #000000",
"$	c #FFFFFF",
"%	c #FFFF00",
"&	c #E7E7E7",
"                       ",
"                       ",
" ...    .              ",
" .      .              ",
" ..   ... ...   ..     ",
"   . .  . .  . .  .    ",
"   . .  . .  . .  .    ",
" ..   ... ...   ..     ",
"          .            ",
"++++++++++.+++++++++++ ",
"+@@@@@@@######@@@@@@@+ ",
"+@.....##$%$%#..$#$#@+ ",
"+@....##$%$%#...####@+ ",
"+@@@@@#$%$%####@@@@@@+ ",
"+@&&&&#%$%$%$%#&&&&&@+ ",
"+@&&&&####%$%#&&&&&&@+ ",
"+@&&&&&&#%$%#&&&&&&&@+ ",
"+@&&&&&&#$%####&&&&&@+ ",
"+@&&&&&#$%$%$#&&&&&&@+ ",
"+@&&&&&####$#&&&&&&&@+ ",
"+@&&&&&&&#$#&&&&&&&&@+ ",
"+@@@@@@@@##@@@@@@@@@@+ ",
"+++++++++#++++++++++++ "};
