/* XPM */
static char *DICE4[]={
"64 64 4 1",
". c None",
"# c #000000",
"b c #c0c0c0",
"a c #ffffff",
"................................................................",
".............................######.............................",
"...........................##########...........................",
".........................####aaaaaa####.........................",
".......................####aaaaaaaaaa####.......................",
".....................####aaaaa####aaaaa####.....................",
"...................####aaaaa########aaaaa####...................",
".................####aaaaaa##########aaaaaa####.................",
"...............####aaaaaaaa##########aaaaaaaa####...............",
".............####aaaaaaaaaaa########aaaaaaaaaaa####.............",
"...........####aaaaaaaaaaaaaaa####aaaaaaaaaaaaaaa####...........",
".........####aaaaaaaaaaaaaaaaaaaaaaaaaaaaaaaaaaaaaa####.........",
".......####aaaaaaaaaaaaaaaaaaaaaaaaaaaaaaaaaaaaaaaaaa####.......",
".....####aaaaa####aaaaaaaaaaaaaaaaaaaaaaaaaaaa####aaaaa####.....",
"...####aaaaa########aaaaaaaaaaaaaaaaaaaaaaaa########aaaaa####...",
".####aaaaaa##########aaaaaaaaaaaaaaaaaaaaaa##########aaaaaa####.",
"#####aaaaaa##########aaaaaaaaaaaaaaaaaaaaaa##########aaaaaa#####",
"##b####aaaaa########aaaaaaaaaaaaaaaaaaaaaaaa########aaaaa####a##",
"##bbb####aaaaa####aaaaaaaaaaaaaaaaaaaaaaaaaaaa####aaaaa####aaa##",
"##bbbbb####aaaaaaaaaaaaaaaaaaaaaaaaaaaaaaaaaaaaaaaaaa####aaaaa##",
"##bbbbbbb####aaaaaaaaaaaaaaaaaaaaaaaaaaaaaaaaaaaaaa####aaaaaaa##",
"##bbbbbbbbb####aaaaaaaaaaaaaaa####aaaaaaaaaaaaaaa####aaaaaaaaa##",
"##bbbb###bbbb####aaaaaaaaaaa########aaaaaaaaaaa####aaaa###aaaa##",
"##bbb######bbbb####aaaaaaaa##########aaaaaaaa####aaaa######aaa##",
"##bbb######bbbbbb####aaaaaa##########aaaaaa####aaaaaa######aaa##",
"##bbb#######bbbbbbb####aaaaa########aaaaa####aaaaaaa#######aaa##",
"##bbb#######bbbbbbbbb####aaaaa####aaaaa####aaaaaaaaa#######aaa##",
"##bbb#######bbbbbbbbbbb####aaaaaaaaaa####aaaaaaaaaaa#######aaa##",
"##bbbb######bbbbbbbbbbbbb####aaaaaa####aaaaaaaaaaaaa######aaaa##",
"##bbbbb####bbbbbbbbbbbbbbbb####aa####aaaaaaaaaaaaaaaa####aaaaa##",
"##bbbbbbbbbbbbbbbbbbbb###bbbb######aaaaaaaaaaaaaaaaaaaaaaaaaaa##",
"##bbbb###bbbbbbbbbbbb######bbbb##aaaaaaaaaaaaaaaaaaaaaaaaaaaaa##",
"##bbb######bbbbbbbbbb######bbbb##aaaaaaaaaaaaaaaaaaaaaaaaaaaaa##",
"##bbb######bbbbbbbbbb#######bbb##aaaaaaaaaaaaaaaaaaaaaaaaaaaaa##",
"##bbb#######bbbbbbbbb#######bbb##aaaaaaaaaaaaaaaaaaaaaaaaaaaaa##",
"##bbb#######bbbbbbbbb#######bbb##aaaaaaaaaaaaaaaaaaaaaaaaaaaaa##",
"##bbb#######bbbbbbbbbb######bbb##aaaaaaaaaaaaaaaaaaaaaaaaaaaaa##",
"##bbbb######bbbbbbbbbbb####bbbb##aaaaaaaaaaaaaaaaaaaaaaaaaaaaa##",
"##bbbbb####bbbbbbbbbbbbbbbbbbbb##aaaaaaaaaaaaaaaaaaaaaaaaaaaaa##",
"##bbbbbbbbbbbbbbbbbbbb###bbbbbb##aaaaaaaaaaaaaaaaaaaaaaaaaaaaa##",
"##bbbb###bbbbbbbbbbbb######bbbb##aaaaaaaaaaaaaaaaaaaaaaaaaaaaa##",
"##bbb######bbbbbbbbbb######bbbb##aaaaaaaaaaaaaaaaaaaaaaaaaaaaa##",
"##bbb######bbbbbbbbbb#######bbb##aaaaaaaaaaaaaaaaaaaaaaaaaaaaa##",
"##bbb#######bbbbbbbbb#######bbb##aaaaaaaaaaaaaaaaaaaaaaaaaaaaa##",
"##bbb#######bbbbbbbbb#######bbb##aaaaaaaaaaaaaaaaaaaaaaaaaaaaa##",
"##bbb#######bbbbbbbbbb######bbb##aaaaaaaaaaaaaaaaaaaaaaaaaaaaa##",
"##bbbb######bbbbbbbbbbb####bbbb##aaaaaaaaaaaaaaaaaaaaaaaaaaaaa##",
"###bbbb####bbbbbbbbbbbbbbbbbbbb##aaaaaaaaaaaaaaaaaaaaaaaaaaaa###",
".####bbbbbbbbbbbbbbbbb###bbbbbb##aaaaaa###aaaaaaaaaaaaaaaaa####.",
"...####bbbbbbbbbbbbbb######bbbb##aaaa######aaaaaaaaaaaaaa####...",
".....####bbbbbbbbbbbb######bbbb##aaaa######aaaaaaaaaaaa####.....",
".......####bbbbbbbbbb#######bbb##aaa#######aaaaaaaaaa####.......",
".........####bbbbbbbb#######bbb##aaa#######aaaaaaaa####.........",
"...........####bbbbbb#######bbb##aaa#######aaaaaa####...........",
".............####bbbbb######bbb##aaa######aaaaa####.............",
"...............####bbbb####bbbb##aaaa####aaaa####...............",
".................####bbbbbbbbbb##aaaaaaaaaa####.................",
"...................####bbbbbbbb##aaaaaaaa####...................",
".....................####bbbbbb##aaaaaa####.....................",
".......................####bbbb##aaaa####.......................",
".........................####bb##aa####.........................",
"...........................##########...........................",
"..............................####..............................",
"................................................................"};
