/* XPM */
static char *DICE5[]={
"64 64 4 1",
". c None",
"# c #000000",
"b c #c0c0c0",
"a c #ffffff",
"................................................................",
".............................######.............................",
"...........................##########...........................",
".........................####aaaaaa####.........................",
".......................####aaaaaaaaaa####.......................",
".....................####aaaaa####aaaaa####.....................",
"...................####aaaaa########aaaaa####...................",
".................####aaaaaa##########aaaaaa####.................",
"...............####aaaaaaaa##########aaaaaaaa####...............",
".............####aaaaaaaaaaa########aaaaaaaaaaa####.............",
"...........####aaaaaaaaaaaaaaa####aaaaaaaaaaaaaaa####...........",
".........####aaaaaaaaaaaaaaaaaaaaaaaaaaaaaaaaaaaaaa####.........",
".......####aaaaaaaaaaaaaaaaaaaaaaaaaaaaaaaaaaaaaaaaaa####.......",
".....####aaaaa####aaaaaaaaaaaa####aaaaaaaaaaaa####aaaaa####.....",
"...####aaaaa########aaaaaaaa########aaaaaaaa########aaaaa####...",
".####aaaaaa##########aaaaaa##########aaaaaa##########aaaaaa####.",
"#####aaaaaa##########aaaaaa##########aaaaaa##########aaaaaa#####",
"##b####aaaaa########aaaaaaaa########aaaaaaaa########aaaaa####a##",
"##bbb####aaaaa####aaaaaaaaaaaa####aaaaaaaaaaaa####aaaaa####aaa##",
"##bbbbb####aaaaaaaaaaaaaaaaaaaaaaaaaaaaaaaaaaaaaaaaaa####aaaaa##",
"##bbbbbbb####aaaaaaaaaaaaaaaaaaaaaaaaaaaaaaaaaaaaaa####aaaaaaa##",
"##bbbbbbbbb####aaaaaaaaaaaaaaa####aaaaaaaaaaaaaaa####aaaaaaaaa##",
"##bbbb###bbbb####aaaaaaaaaaa########aaaaaaaaaaa####aaaaaaaaaaa##",
"##bbb######bbbb####aaaaaaaa##########aaaaaaaa####aaaaaaaaaaaaa##",
"##bbb######bbbbbb####aaaaaa##########aaaaaa####aaaaaaaaaaaaaaa##",
"##bbb#######bbbbbbb####aaaaa########aaaaa####aaaaaaaaaaaaaaaaa##",
"##bbb#######bbbbbbbbb####aaaaa####aaaaa####aaaaaaaaaaaaaaaaaaa##",
"##bbb#######bbbbbbbbbbb####aaaaaaaaaa####aaaaaaaaaaaaaaaaaaaaa##",
"##bbbb######bbbbbbbbbbbbb####aaaaaa####aaaaaaaaaaaaaaaaaaaaaaa##",
"##bbbbb####bbbbbbbbbbbbbbbb####aa####aaaaaaaaaaaaaaaaaaaaaaaaa##",
"##bbbbbbbbbbbbbbbbbbbb###bbbb######aaaaaaaaaaaaaaaaaaaaaaaaaaa##",
"##bbbbbbbbbbbbbbbbbbb######bbbb##aaaaaaaaaaaaaaaaaaaaaaaaaaaaa##",
"##bbbbbbbbbbbbbbbbbbb######bbbb##aaaaaaaaaaaaaaaaaaaaaaaaaaaaa##",
"##bbbbbbbbbbbbbbbbbbb#######bbb##aaaaaaaaaaaaaaaaaaaaaaaaaaaaa##",
"##bbbbbbbbbbbbbbbbbbb#######bbb##aaaaaaaaaaaaaaaaaaaaaaaaaaaaa##",
"##bbbbbbbbbbbbbbbbbbb#######bbb##aaaaaaaaaaaaaa###aaaaaaaaaaaa##",
"##bbbbbbbbbbbbbbbbbbbb######bbb##aaaaaaaaaaaa######aaaaaaaaaaa##",
"##bbbbbbbbbbbbbbbbbbbbb####bbbb##aaaaaaaaaaaa######aaaaaaaaaaa##",
"##bbbbbbbbbbbbbbbbbbbbbbbbbbbbb##aaaaaaaaaaa#######aaaaaaaaaaa##",
"##bbbbbbbbbbbbbbbbbbbbbbbbbbbbb##aaaaaaaaaaa#######aaaaaaaaaaa##",
"##bbbb###bbbbbbbbbbbbbbbbbbbbbb##aaaaaaaaaaa#######aaaaaaaaaaa##",
"##bbb######bbbbbbbbbbbbbbbbbbbb##aaaaaaaaaaa######aaaaaaaaaaaa##",
"##bbb######bbbbbbbbbbbbbbbbbbbb##aaaaaaaaaaaa####aaaaaaaaaaaaa##",
"##bbb#######bbbbbbbbbbbbbbbbbbb##aaaaaaaaaaaaaaaaaaaaaaaaaaaaa##",
"##bbb#######bbbbbbbbbbbbbbbbbbb##aaaaaaaaaaaaaaaaaaaaaaaaaaaaa##",
"##bbb#######bbbbbbbbbbbbbbbbbbb##aaaaaaaaaaaaaaaaaaaaaaaaaaaaa##",
"##bbbb######bbbbbbbbbbbbbbbbbbb##aaaaaaaaaaaaaaaaaaaaaaaaaaaaa##",
"###bbbb####bbbbbbbbbbbbbbbbbbbb##aaaaaaaaaaaaaaaaaaaaaaaaaaaa###",
".####bbbbbbbbbbbbbbbbb###bbbbbb##aaaaaaaaaaaaaaaaaaaaaaaaaa####.",
"...####bbbbbbbbbbbbbb######bbbb##aaaaaaaaaaaaaaaaaaaaaaaa####...",
".....####bbbbbbbbbbbb######bbbb##aaaaaaaaaaaaaaaaaaaaaa####.....",
".......####bbbbbbbbbb#######bbb##aaaaaaaaaaaaaaaaaaaa####.......",
".........####bbbbbbbb#######bbb##aaaaaaaaaaaaaaaaaa####.........",
"...........####bbbbbb#######bbb##aaaaaaaaaaaaaaaa####...........",
".............####bbbbb######bbb##aaaaaaaaaaaaaa####.............",
"...............####bbbb####bbbb##aaaaaaaaaaaa####...............",
".................####bbbbbbbbbb##aaaaaaaaaa####.................",
"...................####bbbbbbbb##aaaaaaaa####...................",
".....................####bbbbbb##aaaaaa####.....................",
".......................####bbbb##aaaa####.......................",
".........................####bb##aa####.........................",
"...........................##########...........................",
"..............................####..............................",
"................................................................"};
