/* XPM */
static char *DICE3[]={
"64 64 4 1",
". c None",
"# c #000000",
"b c #c0c0c0",
"a c #ffffff",
"................................................................",
".............................######.............................",
"...........................##########...........................",
".........................####aaaaaa####.........................",
".......................####aaaaaaaaaa####.......................",
".....................####aaaaa####aaaaa####.....................",
"...................####aaaaa########aaaaa####...................",
".................####aaaaaa##########aaaaaa####.................",
"...............####aaaaaaaa##########aaaaaaaa####...............",
".............####aaaaaaaaaaa########aaaaaaaaaaa####.............",
"...........####aaaaaaaaaaaaaaa####aaaaaaaaaaaaaaa####...........",
".........####aaaaaaaaaaaaaaaaaaaaaaaaaaaaaaaaaaaaaa####.........",
".......####aaaaaaaaaaaaaaaaaaaaaaaaaaaaaaaaaaaaaaaaaa####.......",
".....####aaaaaaaaaaaaaaaaaaaaa####aaaaaaaaaaaaaaaaaaaaa####.....",
"...####aaaaaaaaaaaaaaaaaaaaa########aaaaaaaaaaaaaaaaaaaaa####...",
".####aaaaaaaaaaaaaaaaaaaaaa##########aaaaaaaaaaaaaaaaaaaaaa####.",
"#####aaaaaaaaaaaaaaaaaaaaaa##########aaaaaaaaaaaaaaaaaaaaaa#####",
"##b####aaaaaaaaaaaaaaaaaaaaa########aaaaaaaaaaaaaaaaaaaaa####a##",
"##bbb####aaaaaaaaaaaaaaaaaaaaa####aaaaaaaaaaaaaaaaaaaaa####aaa##",
"##bbbbb####aaaaaaaaaaaaaaaaaaaaaaaaaaaaaaaaaaaaaaaaaa####aaaaa##",
"##bbbbbbb####aaaaaaaaaaaaaaaaaaaaaaaaaaaaaaaaaaaaaa####aaaaaaa##",
"##bbbbbbbbb####aaaaaaaaaaaaaaa####aaaaaaaaaaaaaaa####aaaaaaaaa##",
"##bbbbbbbbbbb####aaaaaaaaaaa########aaaaaaaaaaa####aaaa###aaaa##",
"##bbbbbbbbbbbbb####aaaaaaaa##########aaaaaaaa####aaaa######aaa##",
"##bbbbbbbbbbbbbbb####aaaaaa##########aaaaaa####aaaaaa######aaa##",
"##bbbbbbbbbbbbbbbbb####aaaaa########aaaaa####aaaaaaa#######aaa##",
"##bbbbbbbbbbbbbbbbbbb####aaaaa####aaaaa####aaaaaaaaa#######aaa##",
"##bbbbbbbbbbbbbbbbbbbbb####aaaaaaaaaa####aaaaaaaaaaa#######aaa##",
"##bbbbbbbbbbbbbbbbbbbbbbb####aaaaaa####aaaaaaaaaaaaa######aaaa##",
"##bbbbbbbbbbbbbbbbbbbbbbbbb####aa####aaaaaaaaaaaaaaaa####aaaaa##",
"##bbbbbbbbbbbbbbbbbbbb###bbbb######aaaa###aaaaaaaaaaaaaaaaaaaa##",
"##bbbbbbbbbbbbbbbbbbb######bbbb##aaaa######aaaaaaaaaaaa###aaaa##",
"##bbbbbbbbbbbbbbbbbbb######bbbb##aaaa######aaaaaaaaaa######aaa##",
"##bbbbbbbbbbbbbbbbbbb#######bbb##aaa#######aaaaaaaaaa######aaa##",
"##bbbbbbbbbbbbbbbbbbb#######bbb##aaa#######aaaaaaaaa#######aaa##",
"##bbbbbbbbbbbbbbbbbbb#######bbb##aaa#######aaaaaaaaa#######aaa##",
"##bbbbbbbbbbbbbbbbbbbb######bbb##aaa######aaaaaaaaaa#######aaa##",
"##bbbbbbbbbbbbbbbbbbbbb####bbbb##aaaa####aaaaaaaaaaa######aaaa##",
"##bbbbbbbbbbbbbbbbbbbbbbbbbbbbb##aaaaaaaaaaaaaaaaaaaa####aaaaa##",
"##bbbbbbbbbbbbbbbbbbbbbbbbbbbbb##aaaaaa###aaaaaaaaaaaaaaaaaaaa##",
"##bbbb###bbbbbbbbbbbbbbbbbbbbbb##aaaa######aaaaaaaaaaaa###aaaa##",
"##bbb######bbbbbbbbbbbbbbbbbbbb##aaaa######aaaaaaaaaa######aaa##",
"##bbb######bbbbbbbbbbbbbbbbbbbb##aaa#######aaaaaaaaaa######aaa##",
"##bbb#######bbbbbbbbbbbbbbbbbbb##aaa#######aaaaaaaaa#######aaa##",
"##bbb#######bbbbbbbbbbbbbbbbbbb##aaa#######aaaaaaaaa#######aaa##",
"##bbb#######bbbbbbbbbbbbbbbbbbb##aaa######aaaaaaaaaa#######aaa##",
"##bbbb######bbbbbbbbbbbbbbbbbbb##aaaa####aaaaaaaaaaa######aaaa##",
"###bbbb####bbbbbbbbbbbbbbbbbbbb##aaaaaaaaaaaaaaaaaaaa####aaaa###",
".####bbbbbbbbbbbbbbbbbbbbbbbbbb##aaaaaa###aaaaaaaaaaaaaaaaa####.",
"...####bbbbbbbbbbbbbbbbbbbbbbbb##aaaa######aaaaaaaaaaaaaa####...",
".....####bbbbbbbbbbbbbbbbbbbbbb##aaaa######aaaaaaaaaaaa####.....",
".......####bbbbbbbbbbbbbbbbbbbb##aaa#######aaaaaaaaaa####.......",
".........####bbbbbbbbbbbbbbbbbb##aaa#######aaaaaaaa####.........",
"...........####bbbbbbbbbbbbbbbb##aaa#######aaaaaa####...........",
".............####bbbbbbbbbbbbbb##aaa######aaaaa####.............",
"...............####bbbbbbbbbbbb##aaaa####aaaa####...............",
".................####bbbbbbbbbb##aaaaaaaaaa####.................",
"...................####bbbbbbbb##aaaaaaaa####...................",
".....................####bbbbbb##aaaaaa####.....................",
".......................####bbbb##aaaa####.......................",
".........................####bb##aa####.........................",
"...........................##########...........................",
"..............................####..............................",
"................................................................"};
