/* XPM */
static char *RXSWITCH_ON[]={
"32 48 5 1",
". c None",
"# c #000000",
"b c #808080",
"c c #ff0000",
"a c #ffffff",
"................................",
"................................",
"................................",
"................................",
"....########################....",
"....#aaaaaaaaaaaaaaaaaaaaaa#....",
"....#a####################a#....",
"....#a####################a#....",
"....#a##aaaaaaaaaaaaaaa#b#a#....",
"....#a#aaaaaaaaaaaaaaa#bb#a#....",
"....##aaaaaaaaaaaaaaa#bbb#a#....",
"....#aaaaaaaaaaaaaaa#bbbb#a#....",
"...#aaaaaaaaaaaaaaa#bbbbb#a#....",
"..#aaaaaaaaaaaaaaa#bbbbbb#a#....",
"..#################bbbbbb#a#....",
"..#aaaaaaaaaaaaaaa#bbbbbb#a#....",
"...#aaaaaaaaaaaaaaa#bbbbb#a#....",
"...#aaaaaaaaaaaaaaa#bbbbb#a#....",
"....#aaaaaaaaaaaaaaa#bbbb#a#....",
"....#aaaaaaaaaaaaaaa#bbbb#a#....",
"....##aaaaaaaaaaaaaaa#bbb#a#....",
"....##aaaaaaaaaaaaaaa#bbb#a#....",
"....#a#aaaaaaaaaaaaaaa#bb#a#....",
"....#a#aaaaaaaaaaaaaaa#bb#a#....",
"....#a#################bb#a#....",
"....#a#aaaaaaaaaaaaaaa#bb#a#....",
"....#a#aaaaaaaaaaaaaaa#bb#a#....",
"....#a#aaaaaaaaaaaaaaa#bb#a#....",
"....#a#aaa#########aaa#bb#a#....",
"....#a#aaa#ccccccc#aaa#bb#a#....",
"....#a#aaa#ccccccc#aaa#bb#a#....",
"....#a#aaa#ccccccc#aaa#bb#a#....",
"....#a#aaa#ccccccc#aaa#bb#a#....",
"....#a#aaa#########aaa#bb#a#....",
"....#a#aaaaaaaaaaaaaaa#bb#a#....",
"....#a#aaaaaaaaaaaaaaa#bb#a#....",
"....#a#aaaaaaaaaaaaaaa#bb#a#....",
"....#a#################bb#a#....",
"....#a#bbbbbbbbbbbbbbbb#b#a#....",
"....#a##bbbbbbbbbbbbbbbb##a#....",
"....#a####################a#....",
"....#aaaaaaaaaaaaaaaaaaaaaa#....",
"....########################....",
"................................",
"................................",
"................................",
"................................",
"................................"};
