/* XPM */
static char *RXSWITCH_OFF[]={
"32 48 4 1",
". c None",
"# c #000000",
"b c #808080",
"a c #ffffff",
"................................",
"................................",
"................................",
"................................",
"....########################....",
"....#aaaaaaaaaaaaaaaaaaaaaa#....",
"....#a####################a#....",
"....#a####################a#....",
"....#a##aaaaaaaaaaaaaaa#b#a#....",
"....#a#################bb#a#....",
"....#a#aaaaaaaaaaaaaaa#bb#a#....",
"....#a#aaaaaaaaaaaaaaa#bb#a#....",
"....#a#aaaaaaaaaaaaaaa#bb#a#....",
"....#a#aaaaaaaaaaaaaaa#bb#a#....",
"....#a#aaaaaaaaaaaaaaa#bb#a#....",
"....#a#aaaaaaaaaaaaaaa#bb#a#....",
"....#a#aaaaaaaaaaaaaaa#bb#a#....",
"....#a#aaaaaaaaaaaaaaa#bb#a#....",
"....#a#aaaaaaaaaaaaaaa#bb#a#....",
"....#a#aaaaaaaaaaaaaaa#bb#a#....",
"....#a#aaaaaaaaaaaaaaa#bb#a#....",
"....#a#aaaaaaaaaaaaaaa#bb#a#....",
"....#a#################bb#a#....",
"....#a#aaaaaaaaaaaaaaa#bb#a#....",
"....#a#aaaaaaaaaaaaaaa#bb#a#....",
"....##aaa#########aaa#bbb#a#....",
"....##aa#aaaaaaaa#aaa#bbb#a#....",
"....#aaa#aaaaaaa#aaa#bbbb#a#....",
"....#aa#aaaaaaaa#aaa#bbbb#a#....",
"...#aaa#########aaa#bbbbb#a#....",
"...#aaaaaaaaaaaaaaa#bbbbb#a#....",
"..#aaaaaaaaaaaaaaa#bbbbbb#a#....",
"..#################bbbbbb#a#....",
"..#aaaaaaaaaaaaaaa#bbbbbb#a#....",
"...#aaaaaaaaaaaaaaa#bbbbb#a#....",
"....#aaaaaaaaaaaaaaa#bbbb#a#....",
"....##aaaaaaaaaaaaaaa#bbb#a#....",
"....#a#aaaaaaaaaaaaaaa#bb#a#....",
"....#a##aaaaaaaaaaaaaaa#b#a#....",
"....#a####################a#....",
"....#a####################a#....",
"....#aaaaaaaaaaaaaaaaaaaaaa#....",
"....########################....",
"................................",
"................................",
"................................",
"................................",
"................................"};
