/* XPM */
static char * gimp_temp_1045013_xpm[] = {
"23 23 4 1",
" 	c None",
".	c #000080",
"+	c #000000",
"@	c #FFFFFF",
"                       ",
"                       ",
" ...    .              ",
" .      .              ",
" ..   ... ...   ..     ",
"   . .  . .  . .  .    ",
"   . .  . .  . .  .    ",
" ..   ... ...+  ..     ",
"          .  +         ",
"          . +++        ",
"             +         ",
"   ++++++++++++++++++++",
"   +@@@@@@@@@@@@@@@@@@+",
"   +@@+@+++@+@+++@++@@+",
"   +@+@@@+@+@+@+@+@@@@+",
"   +@@+@@+@+++@+@++@@@+",
"   +@@@+@+@+@+@+@+@@@@+",
"   +@++@@+@+@+@+@@++@@+",
"   +@@@@@@@@@@@@@@@@@@+",
"   ++++++++++++++++++++",
"             +         ",
"             +         ",
"             +         "};
