/* XPM */
static char * gimp_temp_1045015_xpm[] = {
"23 23 5 1",
" 	c None",
".	c #000080",
"+	c #000000",
"@	c #909090",
"#	c #C0C0C0",
"                       ",
"                       ",
" ...    .              ",
" .      .              ",
" ..   ... ...   ..     ",
"   .+.  . .  . .  .    ",
"   . .  . .  . .  .    ",
" .. + ... ...   ..     ",
"          .++++++++    ",
"    +     .+      +    ",
"   +++     +      +    ",
"    +      +     +++   ",
" @@@@@@@   +      +    ",
" @#####@   +   @@@@@@@ ",
" @#####@   +   @@@@@@@ ",
" @#####@   +      +    ",
" @@@@@@@   +      +    ",
"    +      +      +    ",
"    +      +      +    ",
"    +      +           ",
"    ++++++++      +    ",
"                       ",
"                  +    "};
