/* XPM */
static char * gimp_temp_1045011_xpm[] = {
"23 23 4 1",
" 	c None",
".	c #000080",
"+	c #000000",
"@	c #FFFFFF",
"                       ",
"                       ",
" ...    .              ",
" .      .              ",
" ..   ... ...   ..     ",
"   . .  . .  . .  .    ",
"   . .  . .  . .  .    ",
" ..+  ... ...+++..     ",
"   +      .      +     ",
"  +++     .     +++    ",
"   +      +      +     ",
"+++++++   +   +++++++  ",
"+@@@@@+   +   +@@@@@+  ",
"+@@@@@+ +++++ +@@@@@+  ",
"+@@@@@+ +++++ +@@@@@+  ",
"+++++++   +   +++++++  ",
"   +     +++     +     ",
"   +      +      +     ",
"   +      +     +++    ",
"   +      +      +     ",
"   ++++++++    +++++   ",
"               +++++   ",
"                 +     "};
