/* XPM */
static char * gimp_temp_1045014_xpm[] = {
"23 23 3 1",
" 	c None",
".	c #000080",
"+	c #000000",
"                       ",
"                       ",
" ...    .              ",
" .      .              ",
" ..   ... ...   ..     ",
"   . .  . .  . .  .    ",
"   . .  . .  . .  .    ",
" ..   ... ...   ..     ",
"          .            ",
"   +++++++.+           ",
"           +           ",
"           +           ",
"           +           ",
"          +++          ",
"           +           ",
"      +++++++++++      ",
"      +++++++++++      ",
"      +++++++++++      ",
"           +           ",
"           +           ",
"           +           ",
"           +           ",
"   +++++++++           "};
