/* XPM */
static char * tmplayercontrol_xpm[] = {
"25 24 185 2",
"  	c None",
". 	c #1D153E",
"+ 	c #251B4F",
"@ 	c #2D2161",
"# 	c #362773",
"$ 	c #3A2A7D",
"% 	c #3A2A7C",
"& 	c #23194C",
"* 	c #342670",
"= 	c #39297B",
"- 	c #787682",
"; 	c #817C94",
"> 	c #8982A6",
", 	c #9087B5",
"' 	c #9188B6",
") 	c #857BAF",
"! 	c #493B87",
"~ 	c #29AEDE",
"{ 	c #E3F6FC",
"] 	c #FFFFFF",
"^ 	c #F1F0F6",
"/ 	c #4A4561",
"( 	c #0BAEE7",
"_ 	c #AAE3F7",
": 	c #D1D1D1",
"< 	c #077399",
"[ 	c #0BAEE8",
"} 	c #D9F2FB",
"| 	c #FEFEFE",
"1 	c #087DA7",
"2 	c #E0F5FC",
"3 	c #F5F4F8",
"4 	c #D2CEE1",
"5 	c #E2E0EC",
"6 	c #E4E2ED",
"7 	c #F0EFF5",
"8 	c #CDC9DE",
"9 	c #D1CEE1",
"0 	c #FBFBFC",
"a 	c #DFDFDF",
"b 	c #CBCBCB",
"c 	c #086B8E",
"d 	c #07678A",
"e 	c #E1F5FC",
"f 	c #C2BDD7",
"g 	c #3B2B7D",
"h 	c #E1DFEB",
"i 	c #5C4E93",
"j 	c #8177AC",
"k 	c #C5C0D9",
"l 	c #4E408A",
"m 	c #655899",
"n 	c #8980B1",
"o 	c #C1C1C1",
"p 	c #535353",
"q 	c #0A87B4",
"r 	c #E7F7FD",
"s 	c #A199C1",
"t 	c #6D619E",
"u 	c #4A3B87",
"v 	c #645799",
"w 	c #55478F",
"x 	c #756AA4",
"y 	c #7F74AA",
"z 	c #929292",
"A 	c #8D8D8D",
"B 	c #3E3E3E",
"C 	c #DEDEDE",
"D 	c #5D5D5D",
"E 	c #CFCFCF",
"F 	c #878787",
"G 	c #494949",
"H 	c #4D4D4D",
"I 	c #3B3B3B",
"J 	c #FDFEFF",
"K 	c #0BA3D9",
"L 	c #E8F8FD",
"M 	c #8075AB",
"N 	c #A59DC3",
"O 	c #3F2F80",
"P 	c #A9A2C6",
"Q 	c #463785",
"R 	c #574A90",
"S 	c #B5AFCE",
"T 	c #575757",
"U 	c #C8C8C8",
"V 	c #2A2A2A",
"W 	c #A9A9A9",
"X 	c #767676",
"Y 	c #5C5C5C",
"Z 	c #848484",
"` 	c #ADADAD",
" .	c #5F5F5F",
"..	c #DDDDDD",
"+.	c #FAFDFF",
"@.	c #0BAAE3",
"#.	c #EDF9FD",
"$.	c #9087B6",
"%.	c #DCD9E8",
"&.	c #A098C0",
"*.	c #FAF9FC",
"=.	c #776CA5",
"-.	c #CCC8DE",
";.	c #968DBA",
">.	c #BBBBBB",
",.	c #565656",
"'.	c #B4B4B4",
").	c #B2B2B2",
"!.	c #757575",
"~.	c #B5B5B5",
"{.	c #B0B0B0",
"].	c #0993C4",
"^.	c #7F7F7F",
"/.	c #FDFDFD",
"(.	c #0879A1",
"_.	c #F3FBFE",
":.	c #066587",
"<.	c #065F7E",
"[.	c #F4FBFE",
"}.	c #E1DEEB",
"|.	c #FCFBFD",
"1.	c #087FA9",
"2.	c #FAFDFE",
"3.	c #BCB6D3",
"4.	c #665A9A",
"5.	c #6A5E9D",
"6.	c #51438C",
"7.	c #A8A1C6",
"8.	c #FFFEFF",
"9.	c #F1F1F1",
"0.	c #B6B0CF",
"a.	c #625597",
"b.	c #BFBDC8",
"c.	c #EDEDED",
"d.	c #EFEEF5",
"e.	c #7368A3",
"f.	c #9B93BD",
"g.	c #EEF9FD",
"h.	c #9998A1",
"i.	c #F8F8FB",
"j.	c #EBEAF2",
"k.	c #9B9B9B",
"l.	c #111111",
"m.	c #8A8A8A",
"n.	c #F7F7F7",
"o.	c #F8F7FA",
"p.	c #84C2E3",
"q.	c #065A77",
"r.	c #221A42",
"s.	c #A19AC1",
"t.	c #EBE9F2",
"u.	c #CECADF",
"v.	c #7A6FA7",
"w.	c #000000",
"x.	c #1E1E1E",
"y.	c #A1A1A1",
"z.	c #958DB9",
"A.	c #201746",
"B.	c #221949",
"C.	c #867CAF",
"D.	c #2F2F2F",
"E.	c #BFBFBF",
"F.	c #A099C1",
"G.	c #2C205E",
"H.	c #56498F",
"I.	c #FDFDFE",
"J.	c #151515",
"K.	c #979797",
"L.	c #FCFCFC",
"M.	c #7065A1",
"N.	c #1E1641",
"O.	c #1D153F",
"P.	c #251B51",
"Q.	c #9C94BE",
"R.	c #D8D8D8",
"S.	c #EFEFEF",
"T.	c #B8B2D0",
"U.	c #2E2162",
"V.	c #2A1F5B",
"W.	c #7165A1",
"X.	c #B3ADCD",
"Y.	c #B7B1D0",
"Z.	c #302366",
"`.	c #1F1642",
" +	c #201744",
"                                      .           ",
"                          + @ # $ $ $ $ $ %       ",
"                  & * $ $ $ $ $ $ $ $ $ $ $ =     ",
"          - ; > , ' ' ' ' ' ' ' ' ' ' ' ' ) !     ",
"    ~ { ] ] ] ] ] ] ] ] ] ] ] ] ] ] ] ] ] ] ^ /   ",
"  ( _ ] ] ] ] ] ] ] ] ] ] ] ] ] ] ] ] ] ] ] ] :   ",
"< [ } ] ] ] ] ] ] ] ] ] ] ] ] ] ] ] ] ] ] ] ] |   ",
"1 [ 2 ] 3 4 ] 5 6 7 8 9 0 a b ] ] ] ] ] ] ] ] ] c ",
"d [ e ] f g h i j k l m n o p ] ] ] ] ] ] ] ] ] q ",
"  [ r ] s ! t u v k w x y z A B C D E F G H I J K ",
"  [ L ] M N O P Q k R S 7 T U V W X Y Z `  ...+.[ ",
"  @.#.] $.%.&.*.=.-.;.] ] X >.,.G '.).!.~.{.] +.[ ",
"  ].#.] ] ] ] ] ] ] ] ] ] ] ] X ^./.] ] ] ] ] +.[ ",
"  (._.] ] ] ] ] ] ] ] ] ] ] ] ] ] ] ] ] ] ] +.[ :.",
"  <.[.] ] ] ] ] ] ] ] ] ] ] ] ] | 6 }.|.] ] +.[ 1.",
"    2.] ] ] ] ] ] ] ] ] ] ] ] 3.w 4.5.6.7.8.+.[ (.",
"    9.] ] ] ] ] ] ] ] ] ] ] 0.a.b.c.] d.e.f.g.[   ",
"    h.] ] ] ] ] ] ] ] ] ] i.6.j.k.l.m.n.o.w p.q.  ",
"    r.s.t.*.*.*.] ] ] ] ] u.v.] k.w.w.x.y.z.      ",
"      $ $ $ $ $ $ $ $ $ A.B.C.] k.w.w.D.E.F.      ",
"      A.$ $ $ $ G.&         H.I.k.J.K.L.] M.      ",
"          N.O.              P.Q.R.S.] ] T.U.      ",
"                              V.W.X.Y.y Z.        ",
"                                  `. +            "};
