/* XPM */
static char * TFileCopy_xpm[] = {
"23 23 4 1",
" 	c None",
".	c #000000",
"+	c #FFFFFF",
"@	c #000080",
"                       ",
" ++++++++              ",
" ++++@@@+.             ",
" ++++++++.             ",
" +@@@@@@+. @@@@@@      ",
" ++++++++.      @@     ",
" +@@@@@@+.       @     ",
" ++++++++.     @@@@@   ",
" +@@@@@@+.      @@@    ",
" ++++++++.       @     ",
" ++++++++.             ",
"  ........   ++++++++  ",
"             ++++@@@+. ",
"             ++++++++. ",
"             +@@@@@@+. ",
"             ++++++++. ",
"             +@@@@@@+. ",
"             ++++++++. ",
"             +@@@@@@+. ",
"             ++++++++. ",
"             ++++++++. ",
"              ........ ",
"                       "};
