/* XPM */
static char * TExtractFile_xpm[] = {
"23 23 6 1",
" 	c None",
".	c #FFFFFF",
"+	c #000080",
"@	c #000000",
"#	c #808080",
"$	c #C0C0C0",
"                       ",
" ........              ",
" ....+++.@             ",
" ........@             ",
" .++++++.@ ++++++      ",
" ........@      ++     ",
" .++++++.@       +     ",
" ........@     +++++   ",
" .++++++.@      +++    ",
" ........@       +     ",
" ........@             ",
"  @@@@@@@@             ",
"        ###############",
"        #$$$$$.$$$$.#$#",
"        ###############",
"        #......$....#$#",
"        #.$$$$.$.$$.#.#",
"        #......$....#$#",
"        #..$$$.$.$$.#.#",
"        #......$....#$#",
"        #.$$$$.$.$$.#.#",
"        #......$....#$#",
"        ###############"};
