/* XPM */
static char * TTraduceFile_xpm[] = {
"23 23 5 1",
" 	c None",
".	c #FFFFFF",
"+	c #000080",
"@	c #000000",
"#	c #5CEF29",
"                       ",
" ........              ",
" ....+++.@             ",
" ........@             ",
" .++++++.@ ++++++      ",
" ........@      ++     ",
" .++++++.@       +     ",
" ........@     +++++   ",
" .++++++.@      +++    ",
" ........@       +     ",
" ........@             ",
"  @@@@@@@@   ########  ",
"             ####+++#@ ",
"             ########@ ",
"             #++++++#@ ",
"             ########@ ",
"             #++++++#@ ",
"             ########@ ",
"             #++++++#@ ",
"             ########@ ",
"             ########@ ",
"              @@@@@@@@ ",
"                       "};
