/* XPM */ 
static const unsigned char * thistoryfiles_xpm[] = {
"23 23 87 1",
" 	c None",
"!	c #8D8D8D",
"#	c black",
"$	c #9D9DA1",
"%	c #828283",
"&	c #C6C6C7",
"'	c #A0A0A3",
"(	c #808081",
")	c #C8C8C9",
"*	c #9F9FA3",
"+	c #818181",
",	c #90908F",
"-	c #C9C9C9",
".	c #919191",
"0	c #7E7E7F",
"1	c #929291",
"2	c #C9C9CA",
"3	c #A0A0A4",
"4	c #939393",
"5	c #CACACA",
"6	c #959594",
"7	c #CBCBCB",
"8	c #7D7D7E",
"9	c #959595",
":	c #969696",
";	c #A1A1A4",
"<	c #979797",
"=	c #CCCCCC",
">	c #A1A1A5",
"?	c #7C7C7D",
"@	c #979796",
"A	c #DBDBAE",
"B	c #B6B66A",
"C	c #CBCBCD",
"D	c #A2A2A4",
"E	c #7D7D7F",
"F	c #98988C",
"G	c #E4E4B4",
"H	c #9B9B00",
"I	c #B2B251",
"J	c #A4A49B",
"K	c #6C6D88",
"L	c #BAB986",
"M	c #EDEB04",
"N	c #DADA66",
"O	c #C6C6E4",
"P	c #BCBB7C",
"Q	c #F6FB00",
"R	c #6E755E",
"S	c #EBEAB1",
"T	c #EAEF01",
"U	c #A1804D",
"V	c #2400B5",
"W	c #2A2988",
"X	c #F0F0B6",
"Y	c #B2B207",
"Z	c #EEF06A",
"[	c #897CEA",
"]	c #2F23F0",
"^	c #0001C2",
"_	c #2C2EDE",
"`	c #D7D7A0",
"a	c #858500",
"b	c #C0C065",
"c	c #5B3ADA",
"d	c #1F00A9",
"e	c #00009B",
"f	c #28277F",
"g	c #7D74E7",
"h	c #282AEF",
"i	c #0000CE",
"j	c #2223E0",
"k	c #562AD3",
"l	c #2400A1",
"m	c #000098",
"n	c #1B1B7B",
"o	c #7D77F2",
"p	c #2526F5",
"q	c #0000D1",
"r	c #1313DE",
"s	c #511EC8",
"t	c #29009C",
"u	c #000096",
"v	c #0D0D78",
"w	c #7C7AFC",
"x	c #2424FC",
"y	c #0000D4",
"!!                     ",
"$%!                    ",
"&'(!                   ",
" )*+,                  ",
"  -'+.                 ",
"   )*01                ",
"    2304               ",
"     5306              ",
"      7389             ",
"       738:            ",
"        7;8<           ",
"         =>?@   AB     ",
"          CDEF GHI     ",
"           =JKLMN      ",
"            OPQR       ",
"            STUVW      ",
"           XYZ[]^_     ",
"          `ab  cdef    ",
"          BI    ghij   ",
"                 klmn  ",
"                  opqr ",
"                   stuv",
"                    wxy"};