/* XPM */
static char * TDBGroupView_xpm[] = {
"24 24 14 1",
" 	c None",
".	c #FFFFFF",
"+	c #FFFF00",
"@	c #FF00FF",
"#	c #FF0000",
"$	c #00FFFF",
"%	c #00FF00",
"&	c #0000FF",
"*	c #000000",
"=	c #A0A0A4",
"-	c #008080",
";	c #ECE9D8",
">	c #ACA899",
",	c #FFFBF0",
">>>>>>>>>>>>>>>         ",
">,=.,,,,.,,,,,>         ",
">>>>>>>>>>>>>>>         ",
">>>>>>>>>>>>>>>>>>>>>>>>",
">**>*******************.",
">*.>*......>.....>....>.",
">*.>*.;;;;;>.;;;;>.;;;>.",
">*>>*>>>>>>>>>>>>>>>>>>.",
">*.>*.................;.",
">*.>*.-.>>>..>>>>..>>.;.",
">*.>*.................;.",
">*.>*.-.>>...>>....>>>;.",
">*.>*.................;.",
">*.>*.-.>>>..>>>...>>.;.",
">*.>*.................;.",
">*.>*.-.>>...>.....>>.;.",
">*.>*.................;.",
">*.>*.-.>>>..>>....>>>;.",
">*.>*.................;.",
">*.>*.-.>>...>>>>..>>.;.",
">*.>*.................;.",
">*.>*.-.>>>..>>>...>>.;.",
">*;>*;;;;;;;;;;;;;;;;;;.",
">..>...................."};
