/* XPM */
static char * TExtMapImages_xpm[] = {
"24 24 188 2",
"  	c None",
". 	c #385E96",
"+ 	c #6E7886",
"@ 	c #9C9E9C",
"# 	c #EAEAEA",
"$ 	c #E6E6E6",
"% 	c #E5E5E5",
"& 	c #E4E4E4",
"* 	c #E9E9E9",
"= 	c #E7E7E7",
"- 	c #E8E8E8",
"; 	c #7A8698",
"> 	c #465773",
", 	c #475773",
"' 	c #455673",
") 	c #455672",
"! 	c #445471",
"~ 	c #435370",
"{ 	c #42526F",
"] 	c #40526E",
"^ 	c #40516E",
"/ 	c #3F506D",
"( 	c #3E506C",
"_ 	c #3D4F6C",
": 	c #667389",
"< 	c #DFDFDF",
"[ 	c #3F516F",
"} 	c #617FAB",
"| 	c #6381AD",
"1 	c #6884AA",
"2 	c #718DA7",
"3 	c #5F7EAA",
"4 	c #5B7BA8",
"5 	c #5778A6",
"6 	c #5072A3",
"7 	c #4C6FA0",
"8 	c #486B9E",
"9 	c #44689C",
"0 	c #40659A",
"a 	c #3C6298",
"b 	c #394D6C",
"c 	c #E0E0E0",
"d 	c #435470",
"e 	c #738EB6",
"f 	c #8FA6AF",
"g 	c #DCE5B9",
"h 	c #EEF3CB",
"i 	c #A4B8A9",
"j 	c #6D89B3",
"k 	c #6986B1",
"l 	c #6180AD",
"m 	c #5E7DAB",
"n 	c #5A7AA9",
"o 	c #5677A7",
"p 	c #5274A5",
"q 	c #4F71A3",
"r 	c #4B6EA1",
"s 	c #3E516F",
"t 	c #8099BD",
"u 	c #C4D1AF",
"v 	c #FEFEF9",
"w 	c #FFFFFE",
"x 	c #E2EBBE",
"y 	c #819AB8",
"z 	c #7892B9",
"A 	c #728DB6",
"B 	c #6F8BB4",
"C 	c #6C88B2",
"D 	c #6880A3",
"E 	c #6583AE",
"F 	c #6280AD",
"G 	c #5F7EAC",
"H 	c #435472",
"I 	c #8EA3C4",
"J 	c #B6C5B2",
"K 	c #F7FADF",
"L 	c #FCFDEE",
"M 	c #D1DCB1",
"N 	c #8CA1C1",
"O 	c #889EC1",
"P 	c #839ABE",
"Q 	c #8098BD",
"R 	c #7D94B8",
"S 	c #6E798A",
"T 	c #636A74",
"U 	c #6E89B3",
"V 	c #6A86B1",
"W 	c #485773",
"X 	c #9AACCA",
"Y 	c #9DAFC7",
"Z 	c #B3C2B7",
"` 	c #C5D1B1",
" .	c #A1B3C3",
"..	c #98ABC9",
"+.	c #96A9C8",
"@.	c #93A6C6",
"#.	c #91A4C5",
"$.	c #747D8B",
"%.	c #6B7586",
"&.	c #515151",
"*.	c #6E7D95",
"=.	c #7F96BC",
"-.	c #4A5A75",
";.	c #495973",
">.	c #A8B7D1",
",.	c #A8B8D2",
"'.	c #A7B7D1",
").	c #A6B6D1",
"!.	c #A5B5D0",
"~.	c #A2B3CE",
"{.	c #8C99AF",
"].	c #525353",
"^.	c #757F91",
"/.	c #707988",
"(.	c #94A7C7",
"_.	c #4F5E77",
":.	c #45546E",
"<.	c #9FA9BB",
"[.	c #9EA9BA",
"}.	c #9EA8BA",
"|.	c #9CA7B9",
"1.	c #8D99AD",
"2.	c #5F6166",
"3.	c #57585A",
"4.	c #707681",
"5.	c #555657",
"6.	c #848FA1",
"7.	c #8E9AAF",
"8.	c #4B5970",
"9.	c #E2E2E2",
"0.	c #374762",
"a.	c #3D4E6D",
"b.	c #3D4F6D",
"c.	c #3B4C6B",
"d.	c #2F4262",
"e.	c #233659",
"f.	c #273854",
"g.	c #313C4F",
"h.	c #313B4E",
"i.	c #363F4E",
"j.	c #333D4D",
"k.	c #223456",
"l.	c #203457",
"m.	c #33425D",
"n.	c #E3E3E3",
"o.	c #415474",
"p.	c #405374",
"q.	c #3D5071",
"r.	c #384C6E",
"s.	c #34486A",
"t.	c #33476A",
"u.	c #324567",
"v.	c #2A3A57",
"w.	c #25344D",
"x.	c #2A3B58",
"y.	c #25344E",
"z.	c #304364",
"A.	c #384762",
"B.	c #364662",
"C.	c #46597D",
"D.	c #425476",
"E.	c #3A4A68",
"F.	c #6B7483",
"G.	c #727C8D",
"H.	c #7F8690",
"I.	c #CBCCCA",
"J.	c #EDEDED",
"K.	c #394965",
"L.	c #596B90",
"M.	c #485A7F",
"N.	c #B3B7BB",
"O.	c #C4C4C4",
"P.	c #C9C9C9",
"Q.	c #9D9F9C",
"R.	c #9A9C9A",
"S.	c #707889",
"T.	c #40506A",
"U.	c #41506B",
"V.	c #B8BABA",
"W.	c #C2C2C2",
"X.	c #9C9E9B",
"Y.	c #E7E8E7",
"Z.	c #E8E9E8",
"`.	c #AEAFAD",
" +	c #8C8E8C",
".+	c #8D8F8C",
"++	c #777977",
"@+	c #5F605F",
"        .         . .         . .           .   ",
"      . .       .     .     .     .       . .   ",
"    .   .             .           .     .   .   ",
"        .           .         . .       . . .   ",
"        .         .               .         .   ",
"    + @ @ @ @ @ @ @ @ @ @ @ @ @ @ @ @ @ @ @     ",
"    @ # $ $ $ $ $ $ $ $ % % % % % % & & * @     ",
"    @ = + @ @ @ @ @ @ @ @ @ @ @ @ @ @ @ @ @ @ @ ",
"    @ - @ # $ $ $ $ $ $ $ $ % % % % % % & & * @ ",
"    @ - @ = ; > , , > ' ) ! ~ { ] ^ / ( _ : < @ ",
"    @ - @ - [ } | 1 2 3 4 5 6 7 8 9 0 a . b c @ ",
"    @ = @ - d e f g h i j k l m n o p q r s c @ ",
"    @ = @ - ) t u v w x y z A B C D E F G H < @ ",
"    @ = @ = , I J K L M N O P Q R S T U V ) < @ ",
"    @ $ @ = W X Y Z `  ...+.@.#.$.%.&.*.=.-.c @ ",
"    @ $ @ = ;.>.,.,.>.'.).!.~.{.].^.&./.(._.c @ ",
"    @ % @ $ :.<.<.<.<.[.}.|.1.2.3.4.5.6.7.8.9.@ ",
"    @ & @ $ 0.a.b.b.a.c.d.e.f.g.h.i.j.k.l.m.n.@ ",
"    @ & @ % 0.o.p.q.r.s.t.t.t.u.v.w.x.y.z.A.& @ ",
"    @ & @ & B.C.C.C.C.C.C.C.C.C.C.D.E.F.G.H.I.@ ",
"    @ J.@ & K.L.L.L.L.L.L.L.L.L.L.M.M.N.O.P.@ Q.",
"    R.@ @ & S.T.T.T.T.T.T.T.U.U.U.U.U.V.W.@ X.  ",
"        @ J.= = = Y.Y.- - Z.* * * * - `.@  +.+  ",
"        R.@ @ @ @ @ @ @ @ @ @ @ @ @ @ @ ++@+    "};
