/* XPM */
static char * TExtMenuCustomize_xpm[] = {
"24 24 6 1",
" 	c None",
".	c #777792",
"+	c #E0E2EB",
"@	c #313133",
"#	c #D8D0D2",
"$	c #B9B9BB",
"                        ",
"  ..................... ",
" .+++++++++++++++++++++.",
" .+@@@@@@++@@@@@@++@@@. ",
" .+++++++++++++++++++.  ",
" .##################.   ",
"  ..................    ",
"  .##+++++++.           ",
"  .#@@@@++++.$          ",
"  .##+++++++.$          ",
"  .#@@@...........      ",
"  .##++.##+++++++.      ",
"  .#@@@.#@@@@++++.$     ",
"  .##++.##+++++++.$     ",
"  .#@@@.#@@@@@+++.$     ",
"  .##++.##+++++++.$     ",
"  ......#@@@+++++.$     ",
"  .##++.##+++++++.$     ",
"  .#@@@.#@@@@@+++.$     ",
"  .##++.##+++++++.$     ",
"   ...............$     ",
"    $$$$$$$$$$$$$$$     ",
"                        ",
"                        "};
