/* XPM */
static char * TExtOperateForm_xpm[] = {
"24 24 193 2",
"  	c None",
". 	c #000000",
"+ 	c #9DBADF",
"@ 	c #92B3DD",
"# 	c #89B0DD",
"$ 	c #7AA7DC",
"% 	c #7AA6DC",
"& 	c #7AA3D9",
"* 	c #79A2D8",
"= 	c #79A1D8",
"- 	c #78A1D7",
"; 	c #76A0D5",
"> 	c #759ED4",
", 	c #749ED3",
"' 	c #739CD1",
") 	c #729ACF",
"! 	c #7098CD",
"~ 	c #6E95CA",
"{ 	c #6C94C9",
"] 	c #789AC6",
"^ 	c #809DC5",
"/ 	c #8DA7CB",
"( 	c #8EB1DE",
"_ 	c #9CBAE2",
": 	c #A0BFE4",
"< 	c #87B0E1",
"[ 	c #83ADE0",
"} 	c #83ABDE",
"| 	c #82AADE",
"1 	c #81AADD",
"2 	c #80A9DC",
"3 	c #7EA7DC",
"4 	c #8BACD4",
"5 	c #8CAAD2",
"6 	c #7EA5D8",
"7 	c #83AAD6",
"8 	c #829AC8",
"9 	c #A0839B",
"0 	c #969FBF",
"a 	c #7EA5D1",
"b 	c #7B99C5",
"c 	c #85ACDD",
"d 	c #B5CBEA",
"e 	c #92B9E8",
"f 	c #91B9E8",
"g 	c #8EB8EA",
"h 	c #CCA7B2",
"i 	c #86B9EA",
"j 	c #6F90C1",
"k 	c #7DA8DC",
"l 	c #83ABE0",
"m 	c #82AAE1",
"n 	c #78A5DE",
"o 	c #76A2DC",
"p 	c #75A1DB",
"q 	c #73A0D9",
"r 	c #729FD9",
"s 	c #709ED7",
"t 	c #709DD6",
"u 	c #6E9BD5",
"v 	c #779CCF",
"w 	c #769ACD",
"x 	c #6C97D1",
"y 	c #6F99CE",
"z 	c #6E8DC4",
"A 	c #817EA5",
"B 	c #738CBD",
"C 	c #6792CA",
"D 	c #688CC0",
"E 	c #7AA5DC",
"F 	c #8EADD6",
"G 	c #A2B5D1",
"H 	c #9FB5D1",
"I 	c #A0B5D0",
"J 	c #A0B4D0",
"K 	c #9EB3CF",
"L 	c #9EB2CE",
"M 	c #9DB2CD",
"N 	c #9DB1CC",
"O 	c #9CB0CB",
"P 	c #98AECC",
"Q 	c #97ADCB",
"R 	c #9AADC9",
"S 	c #97AAC7",
"T 	c #95ACC8",
"U 	c #8CB1D3",
"V 	c #97AFCA",
"W 	c #819AC0",
"X 	c #6489BF",
"Y 	c #7AA4DB",
"Z 	c #BBC9DC",
"` 	c #B3BED0",
" .	c #6286BC",
"..	c #79A3D9",
"+.	c #C9DAEF",
"@.	c #FEFEFD",
"#.	c #FEFEFE",
"$.	c #BFCEE3",
"%.	c #6085BA",
"&.	c #79A2D9",
"*.	c #CBDCF1",
"=.	c #FFFFFF",
"-.	c #7AA5DB",
";.	c #C1D0E5",
">.	c #5F82B8",
",.	c #CADAF0",
"'.	c #B3B0AB",
").	c #FDFDFD",
"!.	c #FBFBFB",
"~.	c #FAFAFA",
"{.	c #C0CDE4",
"].	c #5D80B6",
"^.	c #FCFCFC",
"/.	c #F9F9F9",
"(.	c #C0CDE3",
"_.	c #5C7EB5",
":.	c #C9D9EE",
"<.	c #F8F8F8",
"[.	c #BFCDE2",
"}.	c #5A7CB2",
"|.	c #749DD2",
"1.	c #C8D8ED",
"2.	c #BECDE1",
"3.	c #597BB1",
"4.	c #739BD0",
"5.	c #BECCE1",
"6.	c #5779AF",
"7.	c #BECBE0",
"8.	c #5678AD",
"9.	c #C7D7EC",
"0.	c #BDCAE0",
"a.	c #5476AC",
"b.	c #6E95CB",
"c.	c #C1CEE3",
"d.	c #5474AB",
"e.	c #6D93CA",
"f.	c #C1CFE4",
"g.	c #FBF9F6",
"h.	c #FBFAF8",
"i.	c #FAF9F7",
"j.	c #F9F8F7",
"k.	c #F9F8F6",
"l.	c #F8F7F6",
"m.	c #F8F7F5",
"n.	c #B2BFD3",
"o.	c #5273AA",
"p.	c #6C92C8",
"q.	c #A9B7CC",
"r.	c #D1D0CF",
"s.	c #D0CFCE",
"t.	c #D0CECD",
"u.	c #C5C0B8",
"v.	c #8C98AD",
"w.	c #5172A9",
"x.	c #86A3CB",
"y.	c #7A99C4",
"z.	c #88A1C4",
"A.	c #869FC4",
"B.	c #849EC3",
"C.	c #8099BF",
"D.	c #7F98BD",
"E.	c #7D96BB",
"F.	c #7C93B9",
"G.	c #7B92B8",
"H.	c #7991B6",
"I.	c #7890B6",
"J.	c #768EB4",
"K.	c #758DB2",
"L.	c #738AB0",
"M.	c #7289AE",
"N.	c #7288AE",
"O.	c #6F84A9",
"P.	c #5F78A6",
"Q.	c #7089B3",
"R.	c #9CB2D0",
"S.	c #7799C6",
"T.	c #678DC2",
"U.	c #668BC0",
"V.	c #6589BF",
"W.	c #6084BA",
"X.	c #5F83B9",
"Y.	c #5E81B7",
"Z.	c #5D7FB5",
"`.	c #5C7EB4",
" +	c #597BB2",
".+	c #587AB0",
"++	c #5779AE",
"@+	c #5575AC",
"#+	c #5475AA",
"$+	c #5373A9",
"%+	c #5272AA",
"&+	c #617DAE",
"*+	c #8B9EBD",
"                                                ",
"            .                   .               ",
"  + @ # $ % . & * = - ; > , ' ) . ! ~ { ] ^ /   ",
"  ( _ : < [ . } | | 1 2 3 4 5 6 . 7 8 9 0 a b   ",
"  c d . . . . . . . e f g . . . . . . . h i j   ",
"  k l m n o . p q r s t u v w x . y z A B C D   ",
"  E F G H I . J K L M N O P Q R . S T U V W X   ",
"  Y Z       .                   .         `  .  ",
"  ..+.@.@.@.@.@.@.@.@.@.#.#.#.#.#.#.#.#.@.$.%.  ",
"  &.*.=.-.-.-.-.-.-.-.-.-.-.-.-.-.-.-.-.=.;.>.  ",
"  - ,.=.-.'.).'.).'.).'.!.'.~.'.  '.  -.=.{.].  ",
"  ; +.=.-.).'.).'.^.'.!.'./.'.  '.  '.-.=.(._.  ",
"  > :.=.-.'.).'.!.'.~.'.<.'.  '.  '.  -.=.[.}.  ",
"  |.1.=.-.^.'.!.'.<.'.  '.  '.  '.  '.-.=.2.3.  ",
"  4.1.=.-.'.~.'.  '.  '.  '.  '.  '.  -.=.5.6.  ",
"  ) 1.=.-.<.'.  '.  '.  '.  '.  '.  '.-.=.7.8.  ",
"  ! 9.=.-.'.. '.  '.  '.  '.  '.. '.  -.=.0.a.  ",
"  b.:.=.-.-.. -.-.-.-.-.-.-.-.-.. -.-.-.=.c.d.  ",
"  e.f.g.h.h.. i.i.i.j.k.k.k.l.m.. m.      n.o.  ",
"  p.q.. . . . . . . r.s.t.. . . . . . . u.v.w.  ",
"  x.y.z.A.B.. C.D.E.F.G.H.I.J.K.. L.M.N.O.P.Q.  ",
"  R.S.T.U.V.. W.X.Y.Z.`.}. +.+++. @+#+$+%+&+*+  ",
"            .                   .               ",
"                                                "};
