/* XPM */
static char * TExtImages_xpm[] = {
"24 24 107 2",
"  	c None",
". 	c #000000",
"+ 	c #627694",
"@ 	c #536B92",
"# 	c #556D94",
"$ 	c #556D91",
"% 	c #536B90",
"& 	c #50698E",
"* 	c #4D658C",
"= 	c #49628A",
"- 	c #456088",
"; 	c #4E6588",
"> 	c #AEB1B4",
", 	c #1C1C1C",
"' 	c #6079A0",
") 	c #91A7B2",
"! 	c #DBE5BE",
"~ 	c #89A1AE",
"{ 	c #6383B1",
"] 	c #6181AE",
"^ 	c #5D7EAC",
"/ 	c #5878A9",
"( 	c #5173A5",
"_ 	c #4B6FA3",
": 	c #476490",
"< 	c #A6A9AC",
"[ 	c #1D1D1C",
"} 	c #6B80A8",
"| 	c #C9D5B7",
"1 	c #FFFFF8",
"2 	c #BDCBBB",
"3 	c #7993BB",
"4 	c #7B94B9",
"5 	c #7791B8",
"6 	c #738EB5",
"7 	c #687C98",
"8 	c #6784AE",
"9 	c #5B749B",
"0 	c #A5A8AC",
"a 	c #7F90AF",
"b 	c #A6B7C7",
"c 	c #C4D0C0",
"d 	c #A3B5C5",
"e 	c #95A9C9",
"f 	c #95A8C7",
"g 	c #94A9CA",
"h 	c #7C8AA2",
"i 	c #5D6068",
"j 	c #6A7991",
"k 	c #7086A9",
"l 	c #8A97AD",
"m 	c #ABB8CD",
"n 	c #A7B4CC",
"o 	c #A8B5CB",
"p 	c #A8B5CA",
"q 	c #A5B1C8",
"r 	c #99A6BC",
"s 	c #5F6165",
"t 	c #5E6166",
"u 	c #7D8593",
"v 	c #8493AC",
"w 	c #A4A8AC",
"x 	c #485773",
"y 	c #4A5B77",
"z 	c #485975",
"A 	c #435470",
"B 	c #354767",
"C 	c #304464",
"D 	c #34435D",
"E 	c #323C4D",
"F 	c #373F4E",
"G 	c #2E3E5C",
"H 	c #354564",
"I 	c #A7ABAF",
"J 	c #1D1D1D",
"K 	c #415372",
"L 	c #405376",
"M 	c #3D5174",
"N 	c #3B4E72",
"O 	c #3A4E72",
"P 	c #394C6E",
"Q 	c #314261",
"R 	c #465368",
"S 	c #5A677E",
"T 	c #A9ACAE",
"U 	c #1C1D1C",
"V 	c #4D5D7E",
"W 	c #506388",
"X 	c #506288",
"Y 	c #4F6287",
"Z 	c #384B73",
"` 	c #AAAFB6",
" .	c #C5C4C4",
"..	c #B8B9B8",
"+.	c #202120",
"@.	c #999FA8",
"#.	c #89929D",
"$.	c #8B929D",
"%.	c #8B939E",
"&.	c #8B949E",
"*.	c #8C949F",
"=.	c #8C939F",
"-.	c #8B929F",
";.	c #ACAEAE",
">.	c #AAABAA",
",.	c #CCCDCC",
"'.	c #010101",
"                                                ",
"                                                ",
"                                                ",
"                                                ",
"                                                ",
"                                                ",
"                                                ",
". . . . . . . . . . . . . . . . . . . . . . . . ",
". + @ @ # $ % & * = - ; > , . + @ @ # $ % & * = ",
". ' ) ! ~ { ] ^ / ( _ : < [ . ' ) ! ~ { ] ^ / ( ",
". } | 1 2 3 4 5 6 7 8 9 0 [ . } | 1 2 3 4 5 6 7 ",
". a b c d e f g h i j k 0 [ . a b c d e f g h i ",
". l m n o p q r s t u v w [ . l m n o p q r s t ",
". x y z A B C D E F G H I J . x y z A B C D E F ",
". K L M N O O N P Q R S T U . K L M N O O N P Q ",
". V W X X X X Y Y Z `  ...+.. V W X X X X Y Y Z ",
". @.#.$.%.%.&.*.=.-.;.>.,.'.. @.#.$.%.%.&.*.=.-.",
". . . . . . . . . . . . . . . . . . . . . . . . ",
"                                                ",
"                                                ",
"                                                ",
"                                                ",
"                                                ",
"                                                "};
