/* XPM */
static char * TExtDBPictCombo_xpm[] = {
"24 24 120 2",
"  	c None",
". 	c #A7C2E6",
"+ 	c #4276C4",
"@ 	c #D3E1F3",
"# 	c #BDD1EC",
"$ 	c #91B2DF",
"% 	c #709BD6",
"& 	c #7BA3D9",
"* 	c #6493D2",
"= 	c #4578C5",
"- 	c #000000",
"; 	c #627694",
"> 	c #536B92",
", 	c #556D94",
"' 	c #556D91",
") 	c #536B90",
"! 	c #50698E",
"~ 	c #4D658C",
"{ 	c #49628A",
"] 	c #456088",
"^ 	c #4E6588",
"/ 	c #AEB1B4",
"( 	c #1C1C1C",
"_ 	c #FFFFFF",
": 	c #C0C0C0",
"< 	c #6079A0",
"[ 	c #91A7B2",
"} 	c #DBE5BE",
"| 	c #89A1AE",
"1 	c #6383B1",
"2 	c #6181AE",
"3 	c #5D7EAC",
"4 	c #5878A9",
"5 	c #5173A5",
"6 	c #4B6FA3",
"7 	c #476490",
"8 	c #A6A9AC",
"9 	c #1D1D1C",
"0 	c #808080",
"a 	c #6B80A8",
"b 	c #C9D5B7",
"c 	c #FFFFF8",
"d 	c #BDCBBB",
"e 	c #7993BB",
"f 	c #7B94B9",
"g 	c #7791B8",
"h 	c #738EB5",
"i 	c #687C98",
"j 	c #6784AE",
"k 	c #5B749B",
"l 	c #A5A8AC",
"m 	c #0000FF",
"n 	c #7F90AF",
"o 	c #A6B7C7",
"p 	c #C4D0C0",
"q 	c #A3B5C5",
"r 	c #95A9C9",
"s 	c #95A8C7",
"t 	c #94A9CA",
"u 	c #7C8AA2",
"v 	c #5D6068",
"w 	c #6A7991",
"x 	c #7086A9",
"y 	c #8A97AD",
"z 	c #ABB8CD",
"A 	c #A7B4CC",
"B 	c #A8B5CB",
"C 	c #A8B5CA",
"D 	c #A5B1C8",
"E 	c #99A6BC",
"F 	c #5F6165",
"G 	c #5E6166",
"H 	c #7D8593",
"I 	c #8493AC",
"J 	c #A4A8AC",
"K 	c #485773",
"L 	c #4A5B77",
"M 	c #485975",
"N 	c #435470",
"O 	c #354767",
"P 	c #304464",
"Q 	c #34435D",
"R 	c #323C4D",
"S 	c #373F4E",
"T 	c #2E3E5C",
"U 	c #354564",
"V 	c #A7ABAF",
"W 	c #1D1D1D",
"X 	c #415372",
"Y 	c #405376",
"Z 	c #3D5174",
"` 	c #3B4E72",
" .	c #3A4E72",
"..	c #394C6E",
"+.	c #314261",
"@.	c #465368",
"#.	c #5A677E",
"$.	c #A9ACAE",
"%.	c #1C1D1C",
"&.	c #4D5D7E",
"*.	c #506388",
"=.	c #506288",
"-.	c #4F6287",
";.	c #384B73",
">.	c #AAAFB6",
",.	c #C5C4C4",
"'.	c #B8B9B8",
").	c #202120",
"!.	c #999FA8",
"~.	c #89929D",
"{.	c #8B929D",
"].	c #8B939E",
"^.	c #8B949E",
"/.	c #8C949F",
"(.	c #8C939F",
"_.	c #8B929F",
":.	c #ACAEAE",
"<.	c #AAABAA",
"[.	c #CCCDCC",
"}.	c #010101",
"                                                ",
"      . + + + + + + .                           ",
"  . + + @   @ # . $ + + .                       ",
"  + % $ # @ # . $ & % * +                       ",
"  * + + . # . $ & % + + *                       ",
"  * & $ + + + + + + & % *                       ",
"  = & $ #   @ # . $ & % +                       ",
"- - - - - - - - - - - - - - - - - - - - - - - - ",
"- ; > > , ' ) ! ~ { ] ^ / ( _ _ _ _ _ _ _ _ : - ",
"- < [ } | 1 2 3 4 5 6 7 8 9 _ : : : : : : : 0 - ",
"- a b c d e f g h i j k l 9 _ : m m m m m : 0 - ",
"- n o p q r s t u v w x l 9 _ : 0 m m m 0 : 0 - ",
"- y z A B C D E F G H I J 9 _ : : m m m : : 0 - ",
"- K L M N O P Q R S T U V W _ : : 0 m 0 : : 0 - ",
"- X Y Z `  . .` ..+.@.#.$.%._ : : : m : : : 0 - ",
"- &.*.=.=.=.=.-.-.;.>.,.'.)._ : : : : : : : 0 - ",
"- !.~.{.].].^./.(._.:.<.[.}.: 0 0 0 0 0 0 0 0 - ",
"- - - - - - - - - - - - - - - - - - - - - - - - ",
"                                                ",
"                                                ",
"                                                ",
"                                                ",
"                                                ",
"                                                "};
