/* XPM */
static char * TExtMOperation_xpm[] = {
"24 24 9 1",
" 	c None",
".	c #A0A0A4",
"+	c #000000",
"@	c #FFFFFF",
"#	c #FFFBF0",
"$	c #A6CAF0",
"%	c #80A0C0",
"&	c #4080C0",
"*	c #60A0C0",
"....................... ",
".+++++++++++++++++++++@ ",
".+@@#$@@@@@#$@@@@@@@@#@ ",
".+@%&&&$@@*&&&$++@++@#@ ",
".+#&$@**@$&$@**@@+@@@#@ ",
".+$&@@$&#%&@@$&#@+@@@#@ ",
".+%&@@$&$$&@@$&$@+@++#@ ",
".+%&@@$&$@&*%&&$@+@++#@ ",
".+%&@@$&$@@%%$&$@+@++#@ ",
".+$&#@$&@#%#@$&@++++++++",
".+@**%&$@@**%&$@++++++++",
".+@@$%$@@@@%%$@@@+@++#@ ",
".+@@@@@@@@@@@@@++@+++#@ ",
".+@@@@@@@@@@@@@@@@@++#@ ",
"........................",
"++++++++++++@+++++++++++",
"@#$@@@@@@@@+@@@#$@@@@@@@",
"*&&&$++@++@+@@*&&&$++@++",
"&$@**@@+@@@+@$&$@**@@+@@",
"&@@$&#@++++++++@@$&#@+@@",
"&@@$&$@+@@@+@$&@@$&$@+@@",
"&*%&&$@+@@@+@@&*%&&$@+@@",
"@%%$&$@+@@@+@@@%%$&$@+@@",
"%#@$&@@+@@@#@#%#@$&@@+@@"};
