/* XPM */
static char * TExtDBDirectoryEdit_xpm[] = {
"24 24 56 1",
" 	c None",
".	c #777792",
"+	c #003C74",
"@	c #C0C1C3",
"#	c #FDFDFD",
"$	c #174E80",
"%	c #FFFFFF",
"&	c #FCFCFA",
"*	c #F6F7FD",
"=	c #164D80",
"-	c #E6E8F2",
";	c #154C7F",
">	c #D9DAE7",
",	c #144A7E",
"'	c #CEDDF4",
")	c #FFA4A4",
"!	c #6A96DD",
"~	c #B30059",
"{	c #A7C2E6",
"]	c #4276C4",
"^	c #D3E1F3",
"/	c #BDD1EC",
"(	c #91B2DF",
"_	c #DFDFDB",
":	c #709BD6",
"<	c #7BA3D9",
"[	c #6493D2",
"}	c #DB903B",
"|	c #FBF7EA",
"1	c #F5EBCA",
"2	c #FEFBEF",
"3	c #FEFDF4",
"4	c #FEFCF3",
"5	c #FEFBEE",
"6	c #4578C5",
"7	c #E9C173",
"8	c #F8E694",
"9	c #F7E385",
"0	c #F5DB68",
"a	c #F4D85C",
"b	c #F7E38B",
"c	c #F6E07C",
"d	c #F6DC6C",
"e	c #F4D64F",
"f	c #F3D344",
"g	c #F6DE76",
"h	c #F5DB65",
"i	c #F4D757",
"j	c #F2D13B",
"k	c #F1CE30",
"l	c #F3D786",
"m	c #F2D47F",
"n	c #F2D379",
"o	c #F1D06C",
"p	c #F1CF69",
"q	c #EFCBA3",
"                        ",
" ............... +++++  ",
" .@@@@@@@@@@@@@@+#####$ ",
" .@%%%%%%%%%%%&@+*****= ",
" .@%%%%%%%%%%%&@+-----; ",
" .@%%%%%%%%%%%&@+>>>>>, ",
" .@%%%@..............@, ",
" .@@@@.'''''''')')')'.  ",
" ......!!!!!!!)~)~)~).@ ",
"   {]]]]]]{...........@ ",
" {]]^%^/{(]]{________.@ ",
" ]:(/^/{(<:[]}_______.@ ",
" []]{/{(<:]][|}}}}1__.@ ",
" [<(]]]]]]<:[23425}__.@ ",
" ]<(/%^/{(<:]}}}}}}__.@ ",
" [6]/%^/{(]][7890a}__.@ ",
" [<(]]]]]]<:[bcdef}__.@ ",
" ]<(/%^/{(<:]ghijk}__.@ ",
" [6]/%^/{(]][lmnop}__.@ ",
" [<(]]]]]]<:[}}}}}q__.@ ",
" 6<(/%^/{(<:]________.@ ",
" {6]/%^/{(]]{.........@ ",
"   {]]]]]]{@@@@@@@@@@@@ ",
"                        "};
