/* XPM */
static char * TExtCOperation_xpm[] = {
"24 24 22 1",
" 	c None",
".	c #A0A0A4",
"+	c #000000",
"@	c #FFFFFF",
"#	c #FFFBF0",
"$	c #A6CAF0",
"%	c #80A0C0",
"&	c #4080C0",
"*	c #60A0C0",
"=	c #FAFAFA",
"-	c #070707",
";	c #7B7B7B",
">	c #848484",
",	c #F3F3F3",
"'	c #010101",
")	c #C6C6C6",
"!	c #1C1B1A",
"~	c #F1EDE2",
"{	c #4C4A47",
"]	c #111111",
"^	c #F1F1F1",
"/	c #1D1D1D",
"....................... ",
".+++++++++++++++++++++@ ",
".+@@#$@@@@@#$@@@@@@@@#@ ",
".+@%&&&$@@*&&&$++@++@#@ ",
".+#&$@**@$&$@**@@+@@@#@ ",
".+$&@@$&#%&@@$&#@+@@@#@ ",
".+%&@@$&$$&@@$&$@+@@@#@ ",
".+%&@@$&$@&*%&&$@+@@@#@ ",
".+%&@@$&$@@%%$&$@+@@@#@ ",
".+$&#@$&@#%#@$&@@+@@@#@ ",
".+@**%&$@@**%&$@@+@@@#@ ",
".+@@$%$@@@@%%$@@@+@@@#@ ",
".+@@@@@@@@@@@@=++-++@#@ ",
".+@@@@@++@@@@@;+>,>')#@ ",
".+#####++#####!+~#~+{#@ ",
".@@@@@@++@@@@@]+^@^+/@@ ",
"    ++++++++  ++   ++   ",
"    ++++++++   ++++++   ",
"       ++          ++   ",
"       ++      +  ++    ",
"       ++       +++     ",
"                        ",
"                        ",
"                        "};
