/* XPM */
static char * textsearchdbedit_xpm[] = {
"24 24 9 1",
" 	c None",
".	c #808080",
"+	c #C0C0C0",
"@	c #FFFFFF",
"#	c #9D9DA1",
"$	c #716F64",
"%	c #F1EFE2",
"&	c #89ADE8",
"*	c #386CBE",
"                        ",
"        ............... ",
"        .+++++@++++@.+. ",
"        ............... ",
"        .@@@@@@+@@@@.+. ",
" ###################### ",
" #$$$$$$$$$$$$$$$$$$$$% ",
" #$@@@@@@@@@@@@@@@@@@@% ",
" #$@@@@@@@@&&&&&&&&&&&% ",
" #$@@@@@@@@**&&&&&&&&&% ",
" #$@@@@@@@@**&&&&&&&&&% ",
" #$@@@***@@****&&&***&% ",
" #$@@@@@**@**&**&**&&&% ",
" #$@@@****@**&**&**&&&% ",
" #$@@**@**@**&**&**&&&% ",
" #$@@**@**@**&**&**&&&% ",
" #$@@@****@****&&&***&% ",
" #$@@@@@@@@&&&&&&&&&&&% ",
" #$@@@@@@@@@@@@@@@@@@@% ",
" #%%%%%%%%%%%%%%%%%%%%% ",
"                        ",
"                        ",
"                        ",
"                        "};
