/* XPM */
static char * TExtDBImage_xpm[] = {
"24 20 226 2",
"  	c None",
". 	c #A7C2E6",
"+ 	c #4175C4",
"@ 	c #D3E1F3",
"# 	c #FFFFFF",
"$ 	c #BDD1EC",
"% 	c #91B2DF",
"& 	c #6F9BD6",
"* 	c #D2DFF0",
"= 	c #BACDE7",
"- 	c #A6BFE1",
"; 	c #91B0DB",
"> 	c #7BA2D5",
", 	c #719AD2",
"' 	c #6593CE",
") 	c #4576C1",
"! 	c #6393D2",
"~ 	c #A8C2E3",
"{ 	c #BDBEBD",
"] 	c #ABACAB",
"^ 	c #AEAFAD",
"/ 	c #AEB0AD",
"( 	c #AFB0AD",
"_ 	c #ABACAA",
": 	c #BCBEBC",
"< 	c #7AA3D9",
"[ 	c #4676C0",
"} 	c #AEAFAE",
"| 	c #DDE0E3",
"1 	c #AAB0BB",
"2 	c #A5ABB6",
"3 	c #A4AAB6",
"4 	c #A4ABB6",
"5 	c #A4AAB5",
"6 	c #A3A9B4",
"7 	c #A2A9B4",
"8 	c #A2A8B3",
"9 	c #D5D8DD",
"0 	c #ADAFAD",
"a 	c #BACDE6",
"b 	c #B2B3B1",
"c 	c #9FA7B3",
"d 	c #486187",
"e 	c #4D6892",
"f 	c #4B668F",
"g 	c #4E698D",
"h 	c #486490",
"i 	c #47638D",
"j 	c #44608B",
"k 	c #405D89",
"l 	c #3D5A87",
"m 	c #395785",
"n 	c #365483",
"o 	c #325281",
"p 	c #2F4C79",
"q 	c #959DAB",
"r 	c #B0B1AF",
"s 	c #4477C5",
"t 	c #B3B4B1",
"u 	c #5B769F",
"v 	c #819AB0",
"w 	c #CCD8B4",
"x 	c #CAD7BD",
"y 	c #7A95AB",
"z 	c #6483B0",
"A 	c #6080AD",
"B 	c #5B7CAB",
"C 	c #5777A8",
"D 	c #5274A6",
"E 	c #4D70A3",
"F 	c #496CA1",
"G 	c #3D5D8E",
"H 	c #9199A7",
"I 	c #B1B2AF",
"J 	c #4677C1",
"K 	c #979EAC",
"L 	c #667EA6",
"M 	c #BCCBAD",
"N 	c #FFFFFB",
"O 	c #FAFCED",
"P 	c #AFC1B6",
"Q 	c #7691B8",
"R 	c #738FB6",
"S 	c #6F8BB5",
"T 	c #6C89B3",
"U 	c #6781A6",
"V 	c #6483AD",
"W 	c #607FAC",
"X 	c #516D99",
"Y 	c #929AA8",
"Z 	c #969EAC",
"` 	c #7589AD",
" .	c #AEBEB4",
"..	c #F2F6DB",
"+.	c #EDF1D9",
"@.	c #A9BAB6",
"#.	c #899EC2",
"$.	c #889DC0",
"%.	c #849BBF",
"&.	c #8097BC",
"*.	c #717F95",
"=.	c #60646B",
"-.	c #6E89B3",
";.	c #5C769E",
">.	c #939BA8",
",.	c #969DAB",
"'.	c #8394B2",
").	c #9EB0CD",
"!.	c #ACBCBB",
"~.	c #B3C2BA",
"{.	c #9CAFCC",
"].	c #9CAECC",
"^.	c #9AADCA",
"/.	c #9AACCA",
"(.	c #98ABCA",
"_.	c #7C879A",
":.	c #6C7586",
"<.	c #4F4E4E",
"[.	c #6F7D94",
"}.	c #7389AD",
"|.	c #969DAA",
"1.	c #959DAA",
"2.	c #8B99B0",
"3.	c #AAB7CC",
"4.	c #A8B5CD",
"5.	c #A8B4CC",
"6.	c #A9B6CB",
"7.	c #A5B1C8",
"8.	c #A4B1C7",
"9.	c #95A1B6",
"0.	c #616367",
"a.	c #6E7480",
"b.	c #545454",
"c.	c #838D9E",
"d.	c #8392AC",
"e.	c #969EA9",
"f.	c #929AA7",
"g.	c #4A5975",
"h.	c #576781",
"i.	c #586681",
"j.	c #52627C",
"k.	c #455673",
"l.	c #3E506E",
"m.	c #404D62",
"n.	c #3A414D",
"o.	c #444B59",
"p.	c #3D434D",
"q.	c #3D4E6D",
"r.	c #364766",
"s.	c #9198A5",
"t.	c #B1B3B0",
"u.	c #9199A6",
"v.	c #364968",
"w.	c #3D5071",
"x.	c #3A4D6D",
"y.	c #34486A",
"z.	c #304466",
"A.	c #2E4265",
"B.	c #2D4265",
"C.	c #2F4264",
"D.	c #2B3C5A",
"E.	c #24324A",
"F.	c #283954",
"G.	c #1F2F4B",
"H.	c #26395B",
"I.	c #9198A6",
"J.	c #8F97A5",
"K.	c #3B4E71",
"L.	c #45587C",
"M.	c #45587D",
"N.	c #435578",
"O.	c #374867",
"P.	c #6E7786",
"Q.	c #747E8E",
"R.	c #A8ACB0",
"S.	c #A9ABA9",
"T.	c #B2B3B0",
"U.	c #949BA8",
"V.	c #48597C",
"W.	c #526489",
"X.	c #53658A",
"Y.	c #47597D",
"Z.	c #3F5177",
"`.	c #BEC1C2",
" +	c #CBCAC9",
".+	c #C7C9C7",
"++	c #AFB0AF",
"@+	c #CDCED4",
"#+	c #838C9B",
"$+	c #7B8696",
"%+	c #7C8696",
"&+	c #7C8796",
"*+	c #7D8797",
"=+	c #7D8697",
"-+	c #7E8798",
";+	c #7C8597",
">+	c #B7B8B7",
",+	c #ADAEAD",
"'+	c #BBBCBB",
")+	c #B9BAB9",
"!+	c #BCBDBC",
"~+	c #BDBEBB",
"{+	c #C0C0BE",
"]+	c #C0C1BE",
"^+	c #C1C1BE",
"/+	c #C1C2BF",
"(+	c #C2C2BF",
"_+	c #C2C3C0",
":+	c #C2C3BF",
"<+	c #C2C2C0",
"[+	c #9B9D9B",
"}+	c #A2A4A2",
"|+	c #E1E1E1",
"1+	c #D1D1D1",
"2+	c #DADADA",
"3+	c #D1D2D1",
"4+	c #CCCDCC",
"5+	c #C9C9C9",
"6+	c #C6C6C6",
"7+	c #C3C3C3",
"8+	c #BFC0BF",
"9+	c #C2C2C2",
"0+	c #C5C6C5",
"a+	c #DCDCDC",
"b+	c #E8E9E8",
"c+	c #F5F5F5",
"                                                ",
"      . + + + + + + .                           ",
"  . + + @ # @ $ . % + + .                       ",
"  + & % $ * = - ; > , ' )                       ",
"  ! + + ~ { ] ^ / / / ( ( / / / / / / / ^ _ :   ",
"  ! < % [ } | 1 2 3 3 4 5 6 6 6 6 7 8 8 4 9 0   ",
"  + < % a b c d e f g h i j j k l m n o p q r   ",
"  ! s + a t q u v w x y z A A B C D E F G H I   ",
"  ! < % J t K L M N O P Q R R S T U V W X Y r   ",
"  + < % a b Z `  ...+.@.#.$.$.%.&.*.=.-.;.>.r   ",
"  ! s + a b ,.'.).!.~.{.].^./.(._.:.<.[.}.|.r   ",
"  ! < % J b 1.2.3.4.5.6.6.7.8.9.0.a.b.c.d.e.r   ",
"  s < % a b f.g.h.h.i.j.k.l.l.m.n.o.p.q.r.s.t.  ",
"  . s + a b u.v.w.x.y.z.A.B.B.C.D.E.F.G.H.I.b   ",
"      . J b J.K.L.L.L.L.L.L.L.L.M.N.O.P.Q.R.S.  ",
"          T.U.V.W.W.W.W.W.W.W.W.X.Y.Z.`. +} .+  ",
"          ++@+#+$+%+%+%+%+&+&+*+=+-+;+>+,+'+    ",
"          )+!+~+{+]+^+/+(+_+:+<+/+/+(+[+}+|+    ",
"            1+2+3+4+5+6+7+8+9+0+5+4+1+a+b+c+    ",
"                                                "};
