/* XPM */
static char * TExtImage_xpm[] = {
"24 20 195 2",
"  	c None",
". 	c #BDBEBD",
"+ 	c #ABACAB",
"@ 	c #AEAFAD",
"# 	c #F20000",
"$ 	c #AEB0AD",
"% 	c #AFB0AD",
"& 	c #ABACAA",
"* 	c #BCBEBC",
"= 	c #AEAFAE",
"- 	c #DDE0E3",
"; 	c #AAB0BB",
"> 	c #A4AAB6",
", 	c #A4ABB6",
"' 	c #A4AAB5",
") 	c #A3A9B4",
"! 	c #A2A9B4",
"~ 	c #A2A8B3",
"{ 	c #D5D8DD",
"] 	c #ADAFAD",
"^ 	c #B2B3B1",
"/ 	c #9FA7B3",
"( 	c #486187",
"_ 	c #4B668F",
": 	c #4E698D",
"< 	c #486490",
"[ 	c #47638D",
"} 	c #44608B",
"| 	c #405D89",
"1 	c #3D5A87",
"2 	c #395785",
"3 	c #365483",
"4 	c #325281",
"5 	c #2F4C79",
"6 	c #959DAB",
"7 	c #B0B1AF",
"8 	c #6483B0",
"9 	c #6080AD",
"0 	c #5B7CAB",
"a 	c #5777A8",
"b 	c #5274A6",
"c 	c #4D70A3",
"d 	c #496CA1",
"e 	c #3D5D8E",
"f 	c #9199A7",
"g 	c #B1B2AF",
"h 	c #B3B4B1",
"i 	c #979EAC",
"j 	c #667EA6",
"k 	c #FFFFFB",
"l 	c #FAFCED",
"m 	c #AFC1B6",
"n 	c #7691B8",
"o 	c #738FB6",
"p 	c #6F8BB5",
"q 	c #6C89B3",
"r 	c #6781A6",
"s 	c #6483AD",
"t 	c #607FAC",
"u 	c #516D99",
"v 	c #929AA8",
"w 	c #969EAC",
"x 	c #7589AD",
"y 	c #F2F6DB",
"z 	c #EDF1D9",
"A 	c #A9BAB6",
"B 	c #899EC2",
"C 	c #889DC0",
"D 	c #849BBF",
"E 	c #8097BC",
"F 	c #717F95",
"G 	c #60646B",
"H 	c #6E89B3",
"I 	c #5C769E",
"J 	c #939BA8",
"K 	c #969DAB",
"L 	c #8394B2",
"M 	c #ACBCBB",
"N 	c #B3C2BA",
"O 	c #9CAFCC",
"P 	c #9CAECC",
"Q 	c #9AADCA",
"R 	c #9AACCA",
"S 	c #98ABCA",
"T 	c #7C879A",
"U 	c #6C7586",
"V 	c #4F4E4E",
"W 	c #6F7D94",
"X 	c #7389AD",
"Y 	c #969DAA",
"Z 	c #959DAA",
"` 	c #8B99B0",
" .	c #AAB7CC",
"..	c #A8B5CD",
"+.	c #A8B4CC",
"@.	c #A9B6CB",
"#.	c #A5B1C8",
"$.	c #A4B1C7",
"%.	c #95A1B6",
"&.	c #616367",
"*.	c #6E7480",
"=.	c #545454",
"-.	c #838D9E",
";.	c #8392AC",
">.	c #969EA9",
",.	c #929AA7",
"'.	c #4A5975",
").	c #576781",
"!.	c #586681",
"~.	c #52627C",
"{.	c #455673",
"].	c #3E506E",
"^.	c #404D62",
"/.	c #3A414D",
"(.	c #444B59",
"_.	c #3D434D",
":.	c #3D4E6D",
"<.	c #364766",
"[.	c #9198A5",
"}.	c #B1B3B0",
"|.	c #9199A6",
"1.	c #364968",
"2.	c #3D5071",
"3.	c #3A4D6D",
"4.	c #34486A",
"5.	c #304466",
"6.	c #2E4265",
"7.	c #2D4265",
"8.	c #2F4264",
"9.	c #2B3C5A",
"0.	c #24324A",
"a.	c #283954",
"b.	c #1F2F4B",
"c.	c #26395B",
"d.	c #9198A6",
"e.	c #8F97A5",
"f.	c #3B4E71",
"g.	c #45587C",
"h.	c #45587D",
"i.	c #435578",
"j.	c #374867",
"k.	c #6E7786",
"l.	c #747E8E",
"m.	c #A8ACB0",
"n.	c #A9ABA9",
"o.	c #B2B3B0",
"p.	c #949BA8",
"q.	c #48597C",
"r.	c #526489",
"s.	c #53658A",
"t.	c #47597D",
"u.	c #3F5177",
"v.	c #BEC1C2",
"w.	c #CBCAC9",
"x.	c #C7C9C7",
"y.	c #AFB0AF",
"z.	c #CDCED4",
"A.	c #838C9B",
"B.	c #7B8696",
"C.	c #7C8696",
"D.	c #7C8796",
"E.	c #7D8797",
"F.	c #7D8697",
"G.	c #7E8798",
"H.	c #7C8597",
"I.	c #B7B8B7",
"J.	c #ADAEAD",
"K.	c #BBBCBB",
"L.	c #B9BAB9",
"M.	c #BCBDBC",
"N.	c #BEBFBC",
"O.	c #C0C0BE",
"P.	c #C0C1BE",
"Q.	c #C1C1BE",
"R.	c #C1C2BF",
"S.	c #C2C2BF",
"T.	c #C2C3C0",
"U.	c #C2C3BF",
"V.	c #C2C2C0",
"W.	c #9B9D9B",
"X.	c #A2A4A2",
"Y.	c #E1E1E1",
"Z.	c #D1D1D1",
"`.	c #DADADA",
" +	c #D1D2D1",
".+	c #CCCDCC",
"++	c #C9C9C9",
"@+	c #C6C6C6",
"#+	c #C3C3C3",
"$+	c #BFC0BF",
"%+	c #C2C2C2",
"&+	c #C5C6C5",
"*+	c #DCDCDC",
"=+	c #E8E9E8",
"-+	c #F5F5F5",
"                                                ",
"                                                ",
"                                                ",
"      . + @ # $ $ % % $ $ $ $ $ $ $ @ & *       ",
"      = - ; # > > , ' ) ) ) ) ! ~ ~ , { ]       ",
"      ^ / ( # _ : < [ } } | 1 2 3 4 5 6 7       ",
"      # # # # # # # 8 9 9 0 a b c d e f g       ",
"      h i j # k l m n o o p q r s t u v 7       ",
"      ^ w x # y z A B C C D E F G H I J 7       ",
"      ^ K L # M N O P Q R S T U V W X Y 7       ",
"      ^ Z `  ...+.@.@.#.$.%.&.*.=.-.;.>.7       ",
"      ^ ,.'.).).!.~.{.].].^./.(._.:.<.[.}.      ",
"      ^ |.1.2.3.4.5.6.7.7.8.9.0.a.b.c.d.^       ",
"      ^ e.f.g.g.g.g.g.g.g.g.h.i.j.k.l.m.n.      ",
"      o.p.q.r.r.r.r.r.r.r.r.s.t.u.v.w.= x.      ",
"      y.z.A.B.C.C.C.C.D.D.E.F.G.H.I.J.K.        ",
"      L.M.N.O.P.Q.R.S.T.U.V.R.R.S.W.X.Y.        ",
"        Z.`. +.+++@+#+$+%+&+++.+Z.*+=+-+        ",
"                                                ",
"                                                "};
