/* XPM */
static char * TExtDBImages_xpm[] = {
"24 24 94 2",
"  	c None",
". 	c #000000",
"+ 	c #627694",
"@ 	c #536B92",
"# 	c #556D94",
"$ 	c #556D91",
"% 	c #536B90",
"& 	c #50698E",
"* 	c #4D658C",
"= 	c #49628A",
"- 	c #456088",
"; 	c #4E6588",
"> 	c #AEB1B4",
", 	c #1C1C1C",
"' 	c #6079A0",
") 	c #91A7B2",
"! 	c #DBE5BE",
"~ 	c #89A1AE",
"{ 	c #6383B1",
"] 	c #6181AE",
"^ 	c #5D7EAC",
"/ 	c #5878A9",
"( 	c #5173A5",
"_ 	c #4B6FA3",
": 	c #476490",
"< 	c #A6A9AC",
"[ 	c #1D1D1C",
"} 	c #6B80A8",
"| 	c #C9D5B7",
"1 	c #FFFFF8",
"2 	c #BDCBBB",
"3 	c #7993BB",
"4 	c #7B94B9",
"5 	c #7791B8",
"6 	c #738EB5",
"7 	c #687C98",
"8 	c #6784AE",
"9 	c #A7C2E6",
"0 	c #4276C4",
"a 	c #7F90AF",
"b 	c #A6B7C7",
"c 	c #C4D0C0",
"d 	c #A3B5C5",
"e 	c #95A9C9",
"f 	c #95A8C7",
"g 	c #94A9CA",
"h 	c #7C8AA2",
"i 	c #D3E1F3",
"j 	c #FFFFFF",
"k 	c #BDD1EC",
"l 	c #91B2DF",
"m 	c #5D6068",
"n 	c #8A97AD",
"o 	c #ABB8CD",
"p 	c #A7B4CC",
"q 	c #A8B5CB",
"r 	c #A8B5CA",
"s 	c #A5B1C8",
"t 	c #99A6BC",
"u 	c #5F6165",
"v 	c #709BD6",
"w 	c #7BA3D9",
"x 	c #6493D2",
"y 	c #5E6166",
"z 	c #485773",
"A 	c #4A5B77",
"B 	c #485975",
"C 	c #435470",
"D 	c #354767",
"E 	c #304464",
"F 	c #34435D",
"G 	c #323C4D",
"H 	c #373F4E",
"I 	c #415372",
"J 	c #405376",
"K 	c #3D5174",
"L 	c #3B4E72",
"M 	c #3A4E72",
"N 	c #394C6E",
"O 	c #314261",
"P 	c #4D5D7E",
"Q 	c #506388",
"R 	c #506288",
"S 	c #4F6287",
"T 	c #384B73",
"U 	c #999FA8",
"V 	c #89929D",
"W 	c #8B929D",
"X 	c #8B939E",
"Y 	c #8B949E",
"Z 	c #8C949F",
"` 	c #8C939F",
" .	c #4578C5",
"..	c #8B929F",
"                                                ",
"                                                ",
"                                                ",
"                                                ",
"                                                ",
"                                                ",
"                                                ",
". . . . . . . . . . . . . . . . . . . . . . . . ",
". + @ @ # $ % & * = - ; > , . + @ @ # $ % & * = ",
". ' ) ! ~ { ] ^ / ( _ : < [ . ' ) ! ~ { ] ^ / ( ",
". } | 1 2 3 4 5 6 7 8 9 0 0 0 0 0 0 9 3 4 5 6 7 ",
". a b c d e f g h 9 0 0 i j i k 9 l 0 0 9 g h m ",
". n o p q r s t u 0 v l k i k 9 l w v x 0 t u y ",
". z A B C D E F G x 0 0 9 k 9 l w v 0 0 x F G H ",
". I J K L M M L N x w l 0 0 0 0 0 0 w v x L N O ",
". P Q R R R R S S 0 w l k j i k 9 l w v 0 S S T ",
". U V W X X Y Z ` x  .0 k j i k 9 l 0 0 x Z ` ..",
". . . . . . . . . x w l 0 0 0 0 0 0 w v x . . . ",
"                  0 w l k j i k 9 l w v 0       ",
"                  x  .0 k j i k 9 l 0 0 x       ",
"                  x w l 0 0 0 0 0 0 w v x       ",
"                   .w l k j i k 9 l w v 0       ",
"                  9  .0 k j i k 9 l 0 0 9       ",
"                      9 0 0 0 0 0 0 9           "};
