/* XPM */
static char * TExtPictCombo_xpm[] = {
"24 24 111 2",
"  	c None",
". 	c #000000",
"+ 	c #627694",
"@ 	c #536B92",
"# 	c #556D94",
"$ 	c #556D91",
"% 	c #536B90",
"& 	c #50698E",
"* 	c #4D658C",
"= 	c #49628A",
"- 	c #456088",
"; 	c #4E6588",
"> 	c #AEB1B4",
", 	c #1C1C1C",
"' 	c #FFFFFF",
") 	c #C0C0C0",
"! 	c #6079A0",
"~ 	c #91A7B2",
"{ 	c #DBE5BE",
"] 	c #89A1AE",
"^ 	c #6383B1",
"/ 	c #6181AE",
"( 	c #5D7EAC",
"_ 	c #5878A9",
": 	c #5173A5",
"< 	c #4B6FA3",
"[ 	c #476490",
"} 	c #A6A9AC",
"| 	c #1D1D1C",
"1 	c #808080",
"2 	c #6B80A8",
"3 	c #C9D5B7",
"4 	c #FFFFF8",
"5 	c #BDCBBB",
"6 	c #7993BB",
"7 	c #7B94B9",
"8 	c #7791B8",
"9 	c #738EB5",
"0 	c #687C98",
"a 	c #6784AE",
"b 	c #5B749B",
"c 	c #A5A8AC",
"d 	c #0000FF",
"e 	c #7F90AF",
"f 	c #A6B7C7",
"g 	c #C4D0C0",
"h 	c #A3B5C5",
"i 	c #95A9C9",
"j 	c #95A8C7",
"k 	c #94A9CA",
"l 	c #7C8AA2",
"m 	c #5D6068",
"n 	c #6A7991",
"o 	c #7086A9",
"p 	c #8A97AD",
"q 	c #ABB8CD",
"r 	c #A7B4CC",
"s 	c #A8B5CB",
"t 	c #A8B5CA",
"u 	c #A5B1C8",
"v 	c #99A6BC",
"w 	c #5F6165",
"x 	c #5E6166",
"y 	c #7D8593",
"z 	c #8493AC",
"A 	c #A4A8AC",
"B 	c #485773",
"C 	c #4A5B77",
"D 	c #485975",
"E 	c #435470",
"F 	c #354767",
"G 	c #304464",
"H 	c #34435D",
"I 	c #323C4D",
"J 	c #373F4E",
"K 	c #2E3E5C",
"L 	c #354564",
"M 	c #A7ABAF",
"N 	c #1D1D1D",
"O 	c #415372",
"P 	c #405376",
"Q 	c #3D5174",
"R 	c #3B4E72",
"S 	c #3A4E72",
"T 	c #394C6E",
"U 	c #314261",
"V 	c #465368",
"W 	c #5A677E",
"X 	c #A9ACAE",
"Y 	c #1C1D1C",
"Z 	c #4D5D7E",
"` 	c #506388",
" .	c #506288",
"..	c #4F6287",
"+.	c #384B73",
"@.	c #AAAFB6",
"#.	c #C5C4C4",
"$.	c #B8B9B8",
"%.	c #202120",
"&.	c #999FA8",
"*.	c #89929D",
"=.	c #8B929D",
"-.	c #8B939E",
";.	c #8B949E",
">.	c #8C949F",
",.	c #8C939F",
"'.	c #8B929F",
").	c #ACAEAE",
"!.	c #AAABAA",
"~.	c #CCCDCC",
"{.	c #010101",
"                                                ",
"                                                ",
"                                                ",
"                                                ",
"                                                ",
"                                                ",
"                                                ",
". . . . . . . . . . . . . . . . . . . . . . . . ",
". + @ @ # $ % & * = - ; > , ' ' ' ' ' ' ' ' ) . ",
". ! ~ { ] ^ / ( _ : < [ } | ' ) ) ) ) ) ) ) 1 . ",
". 2 3 4 5 6 7 8 9 0 a b c | ' ) d d d d d ) 1 . ",
". e f g h i j k l m n o c | ' ) 1 d d d 1 ) 1 . ",
". p q r s t u v w x y z A | ' ) ) d d d ) ) 1 . ",
". B C D E F G H I J K L M N ' ) ) 1 d 1 ) ) 1 . ",
". O P Q R S S R T U V W X Y ' ) ) ) d ) ) ) 1 . ",
". Z `  . . . .....+.@.#.$.%.' ) ) ) ) ) ) ) 1 . ",
". &.*.=.-.-.;.>.,.'.).!.~.{.) 1 1 1 1 1 1 1 1 . ",
". . . . . . . . . . . . . . . . . . . . . . . . ",
"                                                ",
"                                                ",
"                                                ",
"                                                ",
"                                                ",
"                                                "};
