/* XPM */
static char * textsearchdbedit_xpm[] = {
"24 24 18 1",
" 	c None",
".	c #A7C2E6",
"+	c #4175C4",
"@	c #D3E1F3",
"#	c #FFFFFF",
"$	c #BDD1EC",
"%	c #808080",
"&	c #6F9BD6",
"*	c #91B2DF",
"=	c #C0C0C0",
"-	c #6393D2",
";	c #7AA3D9",
">	c #9D9DA1",
",	c #716F64",
"'	c #F1EFE2",
")	c #89ADE8",
"!	c #386CBE",
"~	c #4477C5",
"  .++++++.              ",
".++@#@$.%%%%%%%%%%%%%%% ",
"+&*$@$.*%=====#====#%=% ",
"-++.$.*;%%%%%%%%%%%%%%% ",
"-;*+++++%######=####%=% ",
"+>>>>>>>>>>>>>>>>>>>>>> ",
"->,,,,,,,,,,,,,,,,,,,,' ",
"->,###################' ",
"+>,########)))))))))))' ",
"->,########!!)))))))))' ",
"->,########!!)))))))))' ",
"~>,###!!!##!!!!)))!!!)' ",
".>,#####!!#!!)!!)!!)))' ",
" >,###!!!!#!!)!!)!!)))' ",
" >,##!!#!!#!!)!!)!!)))' ",
" >,##!!#!!#!!)!!)!!)))' ",
" >,###!!!!#!!!!)))!!!)' ",
" >,########)))))))))))' ",
" >,###################' ",
" >''''''''''''''''''''' ",
"                        ",
"                        ",
"                        ",
"                        "};
