/* XPM */
static char * textclonedpanel_xpm[] = {
"24 24 33 1",
" 	c None",
".	c #ABABBB",
"+	c #CBCBCF",
"@	c #CCCCD0",
"#	c #C9C9CD",
"$	c #7F7F94",
"%	c #BCBCCA",
"&	c #DDDDD8",
"*	c #DFDFDB",
"=	c #D5D4D1",
"-	c #9796A6",
";	c #BDBDCA",
">	c #D5D4D0",
",	c #DDDDD9",
"'	c #9392A7",
")	c #B4B3B8",
"!	c #B5B4BA",
"~	c #A3A2AD",
"{	c #000033",
"]	c #777792",
"^	c #C2C0C1",
"/	c #EFEFED",
"(	c #FFFFFF",
"_	c #B7B8BD",
":	c #080806",
"<	c #FCFFFF",
"[	c #FEFFFF",
"}	c #F4F4FE",
"|	c #FDFEFF",
"1	c #FFFFF8",
"2	c #070604",
"3	c #FFFEFF",
"4	c #FFFFFB",
"                        ",
"                        ",
"                        ",
"                        ",
"                        ",
"                        ",
"                        ",
"                        ",
"   .+@@@@@@#.+@@@@@@#$  ",
"   %&******=%&******=-  ",
"   ;&******>;&******>-  ",
"   %,******=%,******=-  ",
"   ')!!!!!!)')!!!!!!)~  ",
"  {]]]]]]]]]]]]]]]]]]{  ",
"  ]^///](_(_(_(_]^///]  ",
"  ]^^:^]_(_<_<_[]^:^/]  ",
"  ]^:^/](_(_}_[_]^^:^]  ",
"  ]^^:^]_(_(_|_1]^2^/]  ",
"  ]^^^^](_(_3_4_]^^^^]  ",
"  {]]]]]]]]]]]]]]]]]]{  ",
"                        ",
"                        ",
"                        ",
"                        "};
