/* XPM */
static char * C:\Matthieu\Programmation\Lazarus_Delphi\Extended\ressources\composants\textformatedit_xpm[] = {
"24 24 32 1",
" 	c None",
".	c #9D9DA1",
"+	c #716F64",
"@	c #F1EFE2",
"#	c #FFFFFF",
"$	c #628BCB",
"%	c #386CBE",
"&	c #89ADE8",
"*	c #DEE6F4",
"=	c #DFE7F4",
"-	c #92AEDB",
";	c #6C92CE",
">	c #93AFDB",
",	c #FCFCFD",
"'	c #4A79C3",
")	c #4374C1",
"!	c #EAEFF7",
"~	c #3B6EBE",
"{	c #4B79C3",
"]	c #C3D2EB",
"^	c #86A5D7",
"/	c #7599D1",
"(	c #C3D3EB",
"_	c #779AD2",
":	c #CEDAEE",
"<	c #BDCEE9",
"[	c #789BD2",
"}	c #3C6EBF",
"|	c #99B3DD",
"1	c #89A8D8",
"2	c #E0E8F4",
"3	c #D1DDEF",
"                        ",
"                        ",
"                        ",
"                        ",
"                        ",
" ...................... ",
" .++++++++++++++++++++@ ",
" .+###################@ ",
" .+##$%$##&&&&&&&&&&&&@ ",
" .+#*%%%=#&%%&&&&&&&&&@ ",
" .+#-%;%>#&%%&&&&&&&&&@ ",
" .+,')!~{,&%%%%&&&%%%&@ ",
" .+]%^#/%(&%%&%%&%%&&&@ ",
" .+_%:#<%[&%%&%%&%%&&&@ ",
" .+~%%%%%}&%%&%%&%%&&&@ ",
" .+%|###1%&%%&%%&%%&&&@ ",
" .+%2###3%&%%%%&&&%%%&@ ",
" .+#######&&&&&&&&&&&&@ ",
" .+###################@ ",
" .@@@@@@@@@@@@@@@@@@@@@ ",
"                        ",
"                        ",
"                        ",
"                        "};
