/* XPM */
static char * TExtDBImageList_xpm[] = {
"24 24 197 2",
"  	c None",
". 	c #A7C2E6",
"+ 	c #4276C4",
"@ 	c #D3E1F3",
"# 	c #BDD1EC",
"$ 	c #91B2DF",
"% 	c #709BD6",
"& 	c #7BA3D9",
"* 	c #6493D2",
"= 	c #6E7886",
"- 	c #9C9E9C",
"; 	c #4578C5",
"> 	c #EAEAEA",
", 	c #E6E6E6",
"' 	c #E5E5E5",
") 	c #E4E4E4",
"! 	c #E9E9E9",
"~ 	c #E7E7E7",
"{ 	c #E8E8E8",
"] 	c #7A8698",
"^ 	c #465773",
"/ 	c #475773",
"( 	c #455673",
"_ 	c #455672",
": 	c #445471",
"< 	c #435370",
"[ 	c #42526F",
"} 	c #40526E",
"| 	c #40516E",
"1 	c #3F506D",
"2 	c #3E506C",
"3 	c #3D4F6C",
"4 	c #667389",
"5 	c #DFDFDF",
"6 	c #3F516F",
"7 	c #617FAB",
"8 	c #6381AD",
"9 	c #6884AA",
"0 	c #718DA7",
"a 	c #5F7EAA",
"b 	c #5B7BA8",
"c 	c #5778A6",
"d 	c #5072A3",
"e 	c #4C6FA0",
"f 	c #486B9E",
"g 	c #44689C",
"h 	c #40659A",
"i 	c #3C6298",
"j 	c #385E96",
"k 	c #394D6C",
"l 	c #E0E0E0",
"m 	c #435470",
"n 	c #738EB6",
"o 	c #8FA6AF",
"p 	c #DCE5B9",
"q 	c #EEF3CB",
"r 	c #A4B8A9",
"s 	c #6D89B3",
"t 	c #6986B1",
"u 	c #6180AD",
"v 	c #5E7DAB",
"w 	c #5A7AA9",
"x 	c #5677A7",
"y 	c #5274A5",
"z 	c #4F71A3",
"A 	c #4B6EA1",
"B 	c #3E516F",
"C 	c #8099BD",
"D 	c #C4D1AF",
"E 	c #FEFEF9",
"F 	c #FFFFFE",
"G 	c #E2EBBE",
"H 	c #819AB8",
"I 	c #7892B9",
"J 	c #728DB6",
"K 	c #6F8BB4",
"L 	c #6C88B2",
"M 	c #6880A3",
"N 	c #6583AE",
"O 	c #6280AD",
"P 	c #5F7EAC",
"Q 	c #435472",
"R 	c #8EA3C4",
"S 	c #B6C5B2",
"T 	c #F7FADF",
"U 	c #FCFDEE",
"V 	c #D1DCB1",
"W 	c #8CA1C1",
"X 	c #889EC1",
"Y 	c #839ABE",
"Z 	c #8098BD",
"` 	c #7D94B8",
" .	c #6E798A",
"..	c #636A74",
"+.	c #6E89B3",
"@.	c #6A86B1",
"#.	c #485773",
"$.	c #9AACCA",
"%.	c #9DAFC7",
"&.	c #B3C2B7",
"*.	c #C5D1B1",
"=.	c #A1B3C3",
"-.	c #98ABC9",
";.	c #96A9C8",
">.	c #93A6C6",
",.	c #91A4C5",
"'.	c #747D8B",
").	c #6B7586",
"!.	c #515151",
"~.	c #6E7D95",
"{.	c #7F96BC",
"].	c #4A5A75",
"^.	c #495973",
"/.	c #A8B7D1",
"(.	c #A8B8D2",
"_.	c #A7B7D1",
":.	c #A6B6D1",
"<.	c #A5B5D0",
"[.	c #A2B3CE",
"}.	c #8C99AF",
"|.	c #525353",
"1.	c #757F91",
"2.	c #707988",
"3.	c #94A7C7",
"4.	c #4F5E77",
"5.	c #45546E",
"6.	c #9FA9BB",
"7.	c #9EA9BA",
"8.	c #9EA8BA",
"9.	c #9CA7B9",
"0.	c #8D99AD",
"a.	c #5F6166",
"b.	c #57585A",
"c.	c #707681",
"d.	c #555657",
"e.	c #848FA1",
"f.	c #8E9AAF",
"g.	c #4B5970",
"h.	c #E2E2E2",
"i.	c #374762",
"j.	c #3D4E6D",
"k.	c #3D4F6D",
"l.	c #3B4C6B",
"m.	c #2F4262",
"n.	c #233659",
"o.	c #273854",
"p.	c #313C4F",
"q.	c #313B4E",
"r.	c #363F4E",
"s.	c #333D4D",
"t.	c #223456",
"u.	c #203457",
"v.	c #33425D",
"w.	c #E3E3E3",
"x.	c #415474",
"y.	c #405374",
"z.	c #3D5071",
"A.	c #384C6E",
"B.	c #34486A",
"C.	c #33476A",
"D.	c #324567",
"E.	c #2A3A57",
"F.	c #25344D",
"G.	c #2A3B58",
"H.	c #25344E",
"I.	c #304364",
"J.	c #384762",
"K.	c #364662",
"L.	c #46597D",
"M.	c #425476",
"N.	c #3A4A68",
"O.	c #6B7483",
"P.	c #727C8D",
"Q.	c #7F8690",
"R.	c #CBCCCA",
"S.	c #EDEDED",
"T.	c #394965",
"U.	c #596B90",
"V.	c #485A7F",
"W.	c #B3B7BB",
"X.	c #C4C4C4",
"Y.	c #C9C9C9",
"Z.	c #9D9F9C",
"`.	c #9A9C9A",
" +	c #707889",
".+	c #40506A",
"++	c #41506B",
"@+	c #B8BABA",
"#+	c #C2C2C2",
"$+	c #9C9E9B",
"%+	c #E7E8E7",
"&+	c #E8E9E8",
"*+	c #AEAFAD",
"=+	c #8C8E8C",
"-+	c #8D8F8C",
";+	c #777977",
">+	c #5F605F",
"                                                ",
"      . + + + + + + .                           ",
"  . + + @   @ # . $ + + .                       ",
"  + % $ # @ # . $ & % * +                       ",
"  * + + . # . $ & % + + *                       ",
"  * = - - - - - - - - - - - - - - - - - - -     ",
"  ; - > , , , , , , , , ' ' ' ' ' ' ) ) ! -     ",
"  * - ~ = - - - - - - - - - - - - - - - - - - - ",
"  * - { - > , , , , , , , , ' ' ' ' ' ' ) ) ! - ",
"  ; - { - ~ ] ^ / / ^ ( _ : < [ } | 1 2 3 4 5 - ",
"  * - { - { 6 7 8 9 0 a b c d e f g h i j k l - ",
"  * - ~ - { m n o p q r s t u v w x y z A B l - ",
"  ; - ~ - { _ C D E F G H I J K L M N O P Q 5 - ",
"  . - ~ - ~ / R S T U V W X Y Z `  ...+.@._ 5 - ",
"    - , - ~ #.$.%.&.*.=.-.;.>.,.'.).!.~.{.].l - ",
"    - , - ~ ^./.(.(./._.:.<.[.}.|.1.!.2.3.4.l - ",
"    - ' - , 5.6.6.6.6.7.8.9.0.a.b.c.d.e.f.g.h.- ",
"    - ) - , i.j.k.k.j.l.m.n.o.p.q.r.s.t.u.v.w.- ",
"    - ) - ' i.x.y.z.A.B.C.C.C.D.E.F.G.H.I.J.) - ",
"    - ) - ) K.L.L.L.L.L.L.L.L.L.L.M.N.O.P.Q.R.- ",
"    - S.- ) T.U.U.U.U.U.U.U.U.U.U.V.V.W.X.Y.- Z.",
"    `.- - )  +.+.+.+.+.+.+.+++++++++++@+#+- $+  ",
"        - S.~ ~ ~ %+%+{ { &+! ! ! ! { *+- =+-+  ",
"        `.- - - - - - - - - - - - - - - ;+>+    "};
