/* XPM */
static char * TExtImageList_xpm[] = {
"24 24 189 2",
"  	c None",
". 	c #425CE0",
"+ 	c #6E7886",
"@ 	c #9C9E9C",
"# 	c #EAEAEA",
"$ 	c #E6E6E6",
"% 	c #E5E5E5",
"& 	c #E4E4E4",
"* 	c #E9E9E9",
"= 	c #E7E7E7",
"- 	c #E8E8E8",
"; 	c #7A8698",
"> 	c #465773",
", 	c #475773",
"' 	c #455673",
") 	c #455672",
"! 	c #445471",
"~ 	c #435370",
"{ 	c #42526F",
"] 	c #40526E",
"^ 	c #40516E",
"/ 	c #3F506D",
"( 	c #3E506C",
"_ 	c #3D4F6C",
": 	c #667389",
"< 	c #DFDFDF",
"[ 	c #3F516F",
"} 	c #617FAB",
"| 	c #6381AD",
"1 	c #6884AA",
"2 	c #718DA7",
"3 	c #5F7EAA",
"4 	c #5B7BA8",
"5 	c #5778A6",
"6 	c #5072A3",
"7 	c #4C6FA0",
"8 	c #486B9E",
"9 	c #44689C",
"0 	c #40659A",
"a 	c #3C6298",
"b 	c #385E96",
"c 	c #394D6C",
"d 	c #E0E0E0",
"e 	c #435470",
"f 	c #738EB6",
"g 	c #8FA6AF",
"h 	c #DCE5B9",
"i 	c #EEF3CB",
"j 	c #A4B8A9",
"k 	c #6D89B3",
"l 	c #6986B1",
"m 	c #6180AD",
"n 	c #5E7DAB",
"o 	c #5A7AA9",
"p 	c #5677A7",
"q 	c #5274A5",
"r 	c #4F71A3",
"s 	c #4B6EA1",
"t 	c #3E516F",
"u 	c #8099BD",
"v 	c #C4D1AF",
"w 	c #FEFEF9",
"x 	c #FFFFFE",
"y 	c #E2EBBE",
"z 	c #819AB8",
"A 	c #7892B9",
"B 	c #728DB6",
"C 	c #6F8BB4",
"D 	c #6C88B2",
"E 	c #6880A3",
"F 	c #6583AE",
"G 	c #6280AD",
"H 	c #5F7EAC",
"I 	c #435472",
"J 	c #8EA3C4",
"K 	c #B6C5B2",
"L 	c #F7FADF",
"M 	c #FCFDEE",
"N 	c #D1DCB1",
"O 	c #8CA1C1",
"P 	c #889EC1",
"Q 	c #839ABE",
"R 	c #8098BD",
"S 	c #7D94B8",
"T 	c #6E798A",
"U 	c #636A74",
"V 	c #6E89B3",
"W 	c #6A86B1",
"X 	c #485773",
"Y 	c #9AACCA",
"Z 	c #9DAFC7",
"` 	c #B3C2B7",
" .	c #C5D1B1",
"..	c #A1B3C3",
"+.	c #98ABC9",
"@.	c #96A9C8",
"#.	c #93A6C6",
"$.	c #91A4C5",
"%.	c #747D8B",
"&.	c #6B7586",
"*.	c #515151",
"=.	c #6E7D95",
"-.	c #7F96BC",
";.	c #4A5A75",
">.	c #495973",
",.	c #A8B7D1",
"'.	c #A8B8D2",
").	c #A7B7D1",
"!.	c #A6B6D1",
"~.	c #A5B5D0",
"{.	c #A2B3CE",
"].	c #8C99AF",
"^.	c #525353",
"/.	c #757F91",
"(.	c #707988",
"_.	c #94A7C7",
":.	c #4F5E77",
"<.	c #45546E",
"[.	c #9FA9BB",
"}.	c #9EA9BA",
"|.	c #9EA8BA",
"1.	c #9CA7B9",
"2.	c #8D99AD",
"3.	c #5F6166",
"4.	c #57585A",
"5.	c #707681",
"6.	c #555657",
"7.	c #848FA1",
"8.	c #8E9AAF",
"9.	c #4B5970",
"0.	c #E2E2E2",
"a.	c #374762",
"b.	c #3D4E6D",
"c.	c #3D4F6D",
"d.	c #3B4C6B",
"e.	c #2F4262",
"f.	c #233659",
"g.	c #273854",
"h.	c #313C4F",
"i.	c #313B4E",
"j.	c #363F4E",
"k.	c #333D4D",
"l.	c #223456",
"m.	c #203457",
"n.	c #33425D",
"o.	c #E3E3E3",
"p.	c #415474",
"q.	c #405374",
"r.	c #3D5071",
"s.	c #384C6E",
"t.	c #34486A",
"u.	c #33476A",
"v.	c #324567",
"w.	c #2A3A57",
"x.	c #25344D",
"y.	c #2A3B58",
"z.	c #25344E",
"A.	c #304364",
"B.	c #384762",
"C.	c #364662",
"D.	c #46597D",
"E.	c #425476",
"F.	c #3A4A68",
"G.	c #6B7483",
"H.	c #727C8D",
"I.	c #7F8690",
"J.	c #CBCCCA",
"K.	c #EDEDED",
"L.	c #394965",
"M.	c #596B90",
"N.	c #485A7F",
"O.	c #B3B7BB",
"P.	c #C4C4C4",
"Q.	c #C9C9C9",
"R.	c #9D9F9C",
"S.	c #9A9C9A",
"T.	c #707889",
"U.	c #40506A",
"V.	c #41506B",
"W.	c #B8BABA",
"X.	c #C2C2C2",
"Y.	c #9C9E9B",
"Z.	c #E7E8E7",
"`.	c #E8E9E8",
" +	c #AEAFAD",
".+	c #8C8E8C",
"++	c #8D8F8C",
"@+	c #777977",
"#+	c #5F605F",
"                                                ",
". . . .         . . . .                         ",
"    . .             . .                         ",
"    . .             . .                         ",
"    . .             . .                         ",
"    + @ @ @ @ @ @ @ @ @ @ @ @ @ @ @ @ @ @ @     ",
"    @ # $ $ $ $ $ $ $ $ % % % % % % & & * @     ",
"    @ = + @ @ @ @ @ @ @ @ @ @ @ @ @ @ @ @ @ @ @ ",
"    @ - @ # $ $ $ $ $ $ $ $ % % % % % % & & * @ ",
". . @ - @ = ; > , , > ' ) ! ~ { ] ^ / ( _ : < @ ",
"    @ - @ - [ } | 1 2 3 4 5 6 7 8 9 0 a b c d @ ",
"    @ = @ - e f g h i j k l m n o p q r s t d @ ",
"    @ = @ - ) u v w x y z A B C D E F G H I < @ ",
"    @ = @ = , J K L M N O P Q R S T U V W ) < @ ",
"    @ $ @ = X Y Z `  ...+.@.#.$.%.&.*.=.-.;.d @ ",
"    @ $ @ = >.,.'.'.,.).!.~.{.].^./.*.(._.:.d @ ",
"    @ % @ $ <.[.[.[.[.}.|.1.2.3.4.5.6.7.8.9.0.@ ",
"    @ & @ $ a.b.c.c.b.d.e.f.g.h.i.j.k.l.m.n.o.@ ",
"    @ & @ % a.p.q.r.s.t.u.u.u.v.w.x.y.z.A.B.& @ ",
"    @ & @ & C.D.D.D.D.D.D.D.D.D.D.E.F.G.H.I.J.@ ",
"    @ K.@ & L.M.M.M.M.M.M.M.M.M.M.N.N.O.P.Q.@ R.",
"    S.@ @ & T.U.U.U.U.U.U.U.V.V.V.V.V.W.X.@ Y.  ",
"        @ K.= = = Z.Z.- - `.* * * * -  +@ .+++  ",
"        S.@ @ @ @ @ @ @ @ @ @ @ @ @ @ @ @+#+    "};
