/* XPM */
static char * tfwprintdata_xpm[] = {
"24 24 14 1",
" 	c None",
".	c #FFFFFF",
"+	c #C0C0C0",
"@	c #A7C2E6",
"#	c #4276C4",
"$	c #000000",
"%	c #D3E1F3",
"&	c #BDD1EC",
"*	c #91B2DF",
"=	c #709BD6",
"-	c #7BA3D9",
";	c #6493D2",
">	c #4578C5",
",	c #EEEEEE",
"                        ",
" .....................+ ",
" .......@######@......$ ",
" ......##%.%&@*##@....$ ",
" ......=*&%&@*-=;#....$ ",
" ......##@&@*-=##;....$ ",
" ......-*######-=;....$ ",
" ......-*&.%&@*-=#....$ ",
" ......>#&.%&@*##;....$ ",
" ......-*######-=;....$ ",
" ......-*&.%&@*-=#....$ ",
" ......>#&.%&@*##;....$ ",
" ......-*######-=;....$ ",
" ......-*&.%&@*-=#....$ ",
" ......>#&.%&@*##@....$ ",
" .......@######@......$ ",
" ...$$$..$$$..$$$$$,..$ ",
" ...$..$.$..$...$.....$ ",
" ...$$$..$$$....$.....$ ",
" ...$.$..$......$.....$ ",
" ...$..$.$......$.....$ ",
" .....................$ ",
" +$$$$$$$$$$$$$$$$$$$$$ ",
"                        "};
