/* XPM */
static char * tfwprintvtree_xpm[] = {
"24 24 10 1",
" 	c None",
".	c #FFFFFF",
"+	c #C0C0C0",
"@	c #777792",
"#	c #000000",
"$	c #EFEFED",
"%	c #C2C0C1",
"&	c #C0A000",
"*	c #2D2D2D",
"=	c #20A080",
"                        ",
" .....................+ ",
" .@@@@@@@@@@@@@@@@@@..# ",
" .@+@$+++++$+++++++@%.# ",
" .@@@@@@@@@@@@@@@@@@%.# ",
" .@.#..######......@%.# ",
" .@.####&&&&#.****.@%.# ",
" .@.#..######......@%.# ",
" .@.#..............@%.# ",
" .@.#..######......@%.# ",
" .@.####====#.***..@%.# ",
" .@....######......@%.# ",
" .@@@@@@@@@@@@@@@@@@%.# ",
" ..%%%%%%%%%%%%%%%%%%.# ",
" .....................# ",
" .....................# ",
" ...###..###..#####...# ",
" ...#..#.#..#...#.....# ",
" ...###..###....#.....# ",
" ...#.#..#......#.....# ",
" ...#..#.#......#.....# ",
" .....................# ",
" +##################### ",
"                        "};
