/* XPM */
static char * C:\Matthieu\Programmation\Lazarus_Delphi\Extended\ressources\composants\tnetupdate_xpm[] = {
"24 24 381 2",
"  	c None",
". 	c #73869A",
"+ 	c #778DA2",
"@ 	c #6A85A0",
"# 	c #6A88A7",
"$ 	c #89A2BA",
"% 	c #8098B0",
"& 	c #68819A",
"* 	c #365472",
"= 	c #2E4861",
"- 	c #425C77",
"; 	c #6A86A2",
"> 	c #95ADC6",
", 	c #98B6D3",
"' 	c #87ACD2",
") 	c #91B5D7",
"! 	c #93B5D8",
"~ 	c #90B2D4",
"{ 	c #89AACA",
"] 	c #7D9BB7",
"^ 	c #587897",
"/ 	c #274767",
"( 	c #3A4D61",
"_ 	c #3C5D7D",
": 	c #255687",
"< 	c #5080B1",
"[ 	c #7DA6CF",
"} 	c #D8E4F2",
"| 	c #DFE9F4",
"1 	c #E9F1F8",
"2 	c #DFEAF4",
"3 	c #D2E2F0",
"4 	c #A6C3E0",
"5 	c #6996C4",
"6 	c #628CB5",
"7 	c #1D5083",
"8 	c #3D5F81",
"9 	c #556678",
"0 	c #325273",
"a 	c #1D5184",
"b 	c #4679AC",
"c 	c #5E91C4",
"d 	c #88AFD7",
"e 	c #BCD1E8",
"f 	c #DDE9F4",
"g 	c #F5F8FC",
"h 	c #EBF1F8",
"i 	c #BDD3E9",
"j 	c #93B7DB",
"k 	c #7BA7D2",
"l 	c #6E9AC5",
"m 	c #4C7CAC",
"n 	c #4D769F",
"o 	c #7D93AA",
"p 	c #485B6E",
"q 	c #00244A",
"r 	c #39638E",
"s 	c #3C70A3",
"t 	c #5487BB",
"u 	c #71A0CF",
"v 	c #A0C0DF",
"w 	c #BED4E9",
"x 	c #D9E6F3",
"y 	c #E2ECF5",
"z 	c #C9DBEC",
"A 	c #A8C5E2",
"B 	c #7FAAD4",
"C 	c #6697C8",
"D 	c #83A6CA",
"E 	c #94B1CD",
"F 	c #8BA4BD",
"G 	c #6B8197",
"H 	c #0A223B",
"I 	c #163655",
"J 	c #023263",
"K 	c #527CA8",
"L 	c #5685B4",
"M 	c #6897C6",
"N 	c #82ABD5",
"O 	c #AAC6E2",
"P 	c #C4D8EB",
"Q 	c #D3E2F0",
"R 	c #D9E5F2",
"S 	c #CFDFF0",
"T 	c #DAE7F3",
"U 	c #DBE7F3",
"V 	c #B0CBE5",
"W 	c #8DB3D8",
"X 	c #ACC5DE",
"Y 	c #A4BCD6",
"Z 	c #94AEC8",
"` 	c #859DB5",
" .	c #62768A",
"..	c #11375E",
"+.	c #325E89",
"@.	c #688FB7",
"#.	c #5B8AB9",
"$.	c #6998C8",
"%.	c #90B4DA",
"&.	c #B3CCE6",
"*.	c #C4D8EC",
"=.	c #D4E2F1",
"-.	c #CDDDEE",
";.	c #C5D9EC",
">.	c #CBDDEE",
",.	c #CCDDEE",
"'.	c #B8CDE3",
").	c #ABC2DA",
"!.	c #A2BAD1",
"~.	c #8CA5BD",
"{.	c #7A8FA5",
"].	c #44586C",
"^.	c #3A5C7F",
"/.	c #2F5F8E",
"(.	c #507EAD",
"_.	c #5183B5",
":.	c #588CC1",
"<.	c #8BB1D8",
"[.	c #BBD2E8",
"}.	c #C6D9EC",
"|.	c #D2E1F0",
"1.	c #CFDFEF",
"2.	c #C8DAEC",
"3.	c #C3D7EB",
"4.	c #BED3E9",
"5.	c #B6CCE2",
"6.	c #AAC2DA",
"7.	c #9FB8D0",
"8.	c #94ACC5",
"9.	c #889EB3",
"0.	c #5F7386",
"a.	c #5E748C",
"b.	c #224C75",
"c.	c #24578A",
"d.	c #3E71A4",
"e.	c #5F8DBA",
"f.	c #82A8CF",
"g.	c #AFC9E3",
"h.	c #B2CCE5",
"i.	c #9DBDDE",
"j.	c #96B8DB",
"k.	c #B9D0E8",
"l.	c #C5D8EB",
"m.	c #BDD3E8",
"n.	c #B5CEE6",
"o.	c #B3CCE4",
"p.	c #C9D9EA",
"q.	c #B2C7DC",
"r.	c #9DB7D0",
"s.	c #91AAC4",
"t.	c #839BB3",
"u.	c #6D8094",
"v.	c #59728B",
"w.	c #123F6D",
"x.	c #24588B",
"y.	c #3F71A3",
"z.	c #9CB7D3",
"A.	c #C3D5E7",
"B.	c #B4CCE3",
"C.	c #BCD2E8",
"D.	c #9FBEDF",
"E.	c #9ABCDD",
"F.	c #B6CEE6",
"G.	c #A2C1E0",
"H.	c #A7C4E1",
"I.	c #B1CAE4",
"J.	c #ABC5DF",
"K.	c #C3D4E6",
"L.	c #B8CCDF",
"M.	c #9DB6CF",
"N.	c #829AB3",
"O.	c #687E92",
"P.	c #5F7890",
"Q.	c #0E3C6A",
"R.	c #205387",
"S.	c #5A85AF",
"T.	c #D3DFEC",
"U.	c #C1D3E5",
"V.	c #AEC7DF",
"W.	c #B0C9E2",
"X.	c #B2CCE4",
"Y.	c #9ABBDD",
"Z.	c #75A4D1",
"`.	c #8CB3D9",
" +	c #9FBFDE",
".+	c #90B4D8",
"++	c #ADC6E0",
"@+	c #8CAFD1",
"#+	c #B0C6DD",
"$+	c #B7CADE",
"%+	c #A0B9D1",
"&+	c #8FA9C2",
"*+	c #819AB2",
"=+	c #70859A",
"-+	c #425E7A",
";+	c #0A3865",
">+	c #174B7E",
",+	c #5F87B0",
"'+	c #B6CADE",
")+	c #A3BED7",
"!+	c #AEC5DD",
"~+	c #ADC7E0",
"{+	c #AEC8E2",
"]+	c #9BBBDC",
"^+	c #81AAD3",
"/+	c #8CB1D5",
"(+	c #A9C3DC",
"_+	c #94B3D2",
":+	c #BDD0E2",
"<+	c #B7CADC",
"[+	c #A8BED4",
"}+	c #8BA5BF",
"|+	c #8099B1",
"1+	c #6D8196",
"2+	c #21405F",
"3+	c #1D446D",
"4+	c #0B3F73",
"5+	c #6389AE",
"6+	c #94AFCB",
"7+	c #A6BED6",
"8+	c #C7D7E6",
"9+	c #B5CBE0",
"0+	c #AAC3DD",
"a+	c #ABC4DE",
"b+	c #ADC6DF",
"c+	c #A5C0DC",
"d+	c #A2BEDA",
"e+	c #A9C2DC",
"f+	c #A2BDD8",
"g+	c #A7BFD7",
"h+	c #B2C7DB",
"i+	c #AAC0D5",
"j+	c #9DB4CC",
"k+	c #90A7BF",
"l+	c #839AB0",
"m+	c #5F758A",
"n+	c #13395F",
"o+	c #355E86",
"p+	c #4E779E",
"q+	c #3A6B9C",
"r+	c #799CBF",
"s+	c #B3C8DD",
"t+	c #ABC3DA",
"u+	c #A5BFD8",
"v+	c #A7C0DA",
"w+	c #A8C1DB",
"x+	c #97B4D3",
"y+	c #A4BED7",
"z+	c #95B2D0",
"A+	c #85A6C7",
"B+	c #A9BFD6",
"C+	c #A3BAD1",
"D+	c #8EA7C1",
"E+	c #9DB1C4",
"F+	c #8096AB",
"G+	c #566C83",
"H+	c #002249",
"I+	c #365B7F",
"J+	c #325D89",
"K+	c #46729D",
"L+	c #507DA8",
"M+	c #91AECA",
"N+	c #A5BDD5",
"O+	c #A3BCD5",
"P+	c #A3BCD6",
"Q+	c #A3BDD6",
"R+	c #84A6C8",
"S+	c #9FB9D3",
"T+	c #A3BBD4",
"U+	c #8BA9C7",
"V+	c #5982AC",
"W+	c #85A1BE",
"X+	c #8EA6BE",
"Y+	c #6885A1",
"Z+	c #26486A",
"`+	c #465D73",
" @	c #001F42",
".@	c #38597A",
"+@	c #003264",
"@@	c #104477",
"#@	c #426D9A",
"$@	c #9DB5CE",
"%@	c #A9BFD5",
"&@	c #A7BED6",
"*@	c #AAC0D7",
"=@	c #92AFCC",
"-@	c #9FB7D0",
";@	c #82A2C2",
">@	c #5780AA",
",@	c #426F9B",
"'@	c #3C6790",
")@	c #6382A1",
"!@	c #133C64",
"~@	c #2B4966",
"{@	c #001533",
"]@	c #385572",
"^@	c #002B59",
"/@	c #033567",
"(@	c #1F507F",
"_@	c #7E9CB9",
":@	c #9BB3CB",
"<@	c #97B1CB",
"[@	c #9AB3CD",
"}@	c #A7BDD3",
"|@	c #A7BDD4",
"1@	c #9BB4CD",
"2@	c #688DB2",
"3@	c #24598D",
"4@	c #295A8B",
"5@	c #36628D",
"6@	c #154473",
"7@	c #2B5076",
"8@	c #0E3257",
"9@	c #3E566E",
"0@	c #546A80",
"a@	c #092D52",
"b@	c #002957",
"c@	c #2D567F",
"d@	c #809BB5",
"e@	c #96ACC3",
"f@	c #8CA6C0",
"g@	c #9BB2C9",
"h@	c #AEC1D4",
"i@	c #93ACC6",
"j@	c #5B80A6",
"k@	c #305E8D",
"l@	c #15487B",
"m@	c #174878",
"n@	c #305880",
"o@	c #022A50",
"p@	c #163453",
"q@	c #486078",
"r@	c #1F4062",
"s@	c #3B5C7D",
"t@	c #8CA2B7",
"u@	c #C0CCD9",
"v@	c #ABBDCE",
"w@	c #87A0B9",
"x@	c #7593AF",
"y@	c #21507F",
"z@	c #0D4073",
"A@	c #073A6E",
"B@	c #043667",
"C@	c #2C537B",
"D@	c #0A345E",
"E@	c #00254D",
"F@	c #092949",
"G@	c #102E4D",
"H@	c #36526E",
"I@	c #7D92A6",
"J@	c #859AAE",
"K@	c #97AABD",
"L@	c #718BA6",
"M@	c #42668A",
"N@	c #0A3967",
"O@	c #073564",
"P@	c #002E5C",
"Q@	c #0D3761",
"R@	c #ADBAC6",
"S@	c #0D3053",
"T@	c #062646",
"U@	c #1D3955",
"V@	c #425C76",
"W@	c #435F7A",
"X@	c #1F4266",
"Y@	c #294B6D",
"Z@	c #43607E",
"`@	c #082F56",
" #	c #072C53",
".#	c #48627B",
"+#	c #00193C",
"@#	c #001C38",
"##	c #000A1E",
"$#	c #00132F",
"%#	c #1D3650",
"&#	c #2C455E",
"*#	c #16334F",
"=#	c #243E57",
"-#	c #435669",
";#	c #021930",
">#	c #000C18",
"                                                ",
"                . + @ # $ % & * =               ",
"            - ; > , ' ) ! ~ { ] ^ / (           ",
"          _ : < [ } | 1 2 3 4 5 6 7 8 9         ",
"        0 a b c d e f g h i j k l m n o p       ",
"      q r s t u v w x y f z A B C D E F G H     ",
"    I J K L M N O P Q R S T U V W X Y Z `  .    ",
"    ..+.@.#.$.%.P &.*.=.-.;.>.,.i '.).!.~.{.].  ",
"    ^./.(._.:.<.[.}.,.|.1.2.3.i 4.5.6.7.8.9.0.  ",
"  a.b.c.d.e.f.g.h.i.j.k.*.l.m.n.o.p.q.r.s.t.u.  ",
"  v.w.x.y.z.A.B.n.C.D.E.F.G.H.I.J.K.L.M.s.N.O.  ",
"  P.Q.R.S.T.U.V.W.X.Y.Z.`. +.+++@+#+$+%+&+*+=+  ",
"  -+;+>+,+'+)+!+X ~+{+]+^+/+++(+_+:+<+[+}+|+1+  ",
"  2+3+4+5+6+7+8+9+0+a+b+c+d+e+f+g+h+i+j+k+l+m+  ",
"    n+o+p+q+r+s+t+u+v+w+f+x+y+z+A+B+C+D+E+F+G+  ",
"    H+I+J+K+L+M+N+O+P+Q+Q+R+S+T+U+V+W+X+Y+Z+`+  ",
"     @.@+@@@#@$@%@B+B+&@*@=@-@;@>@,@'@)@!@~@{@  ",
"      ]@^@/@(@_@:@<@[@}@|@1@2@3@4@5@6@7@8@9@    ",
"      0@a@b@c@d@e@f@g@h@i@j@k@l@m@n@^@o@p@      ",
"        q@r@s@t@u@v@w@x@y@z@A@B@C@D@E@F@        ",
"          G@H@I@J@K@L@M@N@O@P@Q@R@S@T@          ",
"              U@V@W@X@Y@Z@`@ #.#+#@#            ",
"                ##$#%#&#*#=#-#;#>#              ",
"                                                "};
