/* XPM */
static char * TRLDBExtImageList_xpm[] = {
"24 24 9 1",
" 	c None",
".	c #C0C0C0",
"+	c #808080",
"@	c #FFFFFF",
"#	c #00FFFF",
"$	c #FFFF00",
"%	c #008000",
"&	c #0000FF",
"*	c #000000",
"........................",
".+++++++++++++++@@@@@@@.",
".+.+@....@.....+@@@@@@@.",
".++++++++++++++++++++++.",
".+.+#@#@#@#@#@#@#@#+@#+.",
".+@+@#@..#@#@#@#@#@+#@+.",
".+.+#@.$@.#@#@#@#@#+@#+.",
".+@+@#.@$.@#@#@#@#@+#@+.",
".+.+#@#..@#@#@#@#@%+@%+.",
".+@+@#@#@#@#@#@#%%%+%%+.",
".+.+#@#@#@#@#@%%%%%+%%+.",
".+++&&&&&&&&&&&&%%%+%%+.",
".@@+&&&&&&&&&&&&%%%+%%+.",
".@@+&&&&&&&&&&&&&&%+&%+.",
".@@+&&&&&&&&&&&&&&&+&&+.",
".@@++++++++++++++++++++.",
".@@@@@@@@@@@@@@@@@@@@@@.",
"........................",
"...***..***...***...*...",
"...*....*..*..*..*..*...",
"...***..***...*..*..*...",
"...*....*.*...*..*..*...",
"...***..*..*..***...*...",
"........................"};
