/* XPM */
static char * TRLExtImageList_xpm[] = {
"24 24 9 1",
" 	c None",
".	c #C0C0C0",
"+	c #FFFFFF",
"@	c #808080",
"#	c #00FFFF",
"$	c #FFFF00",
"%	c #008000",
"&	c #0000FF",
"*	c #000000",
"........................",
".++++++++++++++++++++++.",
".+@@@@@@@@@@@@@@@@@@@@+.",
".+@#+#+#+#+#+#+#+#@+#@+.",
".+@+#+..#+#+#+#+#+@#+@+.",
".+@#+.$+.#+#+#+#+#@+#@+.",
".+@+#.+$.+#+#+#+#+@#+@+.",
".+@#+#..+#+#+#+#+%@+%@+.",
".+@+#+#+#+#+#+#%%%@%%@+.",
".+@#+#+#+#+#+%%%%%@%%@+.",
".+@&&&&&&&&&&&&%%%@%%@+.",
".+@&&&&&&&&&&&&%%%@%%@+.",
".+@&&&&&&&&&&&&&&%@&%@+.",
".+@&&&&&&&&&&&&&&&@&&@+.",
".+@@@@@@@@@@@@@@@@@@@@+.",
".++++++++++++++++++++++.",
".++++++++++++++++++++++.",
"........................",
"...***..***...***...*...",
"...*....*..*..*..*..*...",
"...***..***...*..*..*...",
"...*....*.*...*..*..*...",
"...***..*..*..***...*...",
"........................"};
