/* XPM */
static char * TSdpoJoystick_xpm[] = {
"23 23 7 1",
" 	c None",
".	c #000080",
"+	c #787878",
"@	c #F8F8F8",
"#	c #B8B8B8",
"$	c #000000",
"%	c #780000",
"                       ",
"                       ",
" ...    .              ",
" .      .              ",
" ..   ... ...   ..     ",
"   . .  . .  . .  .    ",
"   . .  .+++ . .  .    ",
" ..   ..+@@@.   ..     ",
"        +#++           ",
"        +#++           ",
"        +#++           ",
"        +#++           ",
"        +#+++          ",
"      +##@+$##++       ",
"    +###+@+$#####+     ",
"   +####@@+$$#%##+     ",
"  +@####+@#+#+%#++     ",
"  +#@@@#######++++     ",
"  +####@@@##++++++     ",
"  ++######@++++++$     ",
"    $++###+++++$       ",
"       $+++++$         ",
"          $$           "};
