/* XPM */
static char * TSdpoSerial_xpm[] = {
"23 23 5 1",
" 	c None",
".	c #000080",
"+	c #000000",
"@	c #FFFFFF",
"#	c #C0C0C0",
"                       ",
"                       ",
" ...    .              ",
" .      .              ",
" ..   ... ...   ..     ",
"   . .  . .  . .  .    ",
"   . .  . .  . .  .    ",
" ..   ... ...   ..     ",
"          .            ",
"          .            ",
"                       ",
" ++++++++++++++++++++@ ",
"+@@@@@@@@@@@@@@@@@@@@+@",
"+@++@#++@#++@#++@#++@+@",
"+@++@#++@#++@#++@#++@+@",
"+@@@##@@##@@##@@##@@#+@",
"+@###################+@",
" +@#++@#++@#++@#++@#+@ ",
" +@#++@#++@#++@#++@#+@ ",
"  +@@@##@@##@@##@@#+@  ",
"   ++++++++++++++++@   ",
"   @@@@@@@@@@@@@@@@    ",
"                       "};
