/* XPM */
static char * tfwcombobox_xpm[] = {
"24 24 10 1",
" 	c None",
".	c #777792",
"+	c #EFEFED",
"@	c #C0C1C3",
"#	c #313133",
"$	c #030301",
"%	c #000100",
"&	c #7A7A7A",
"*	c #898989",
"=	c #BDBBBC",
"                        ",
"                        ",
"                        ",
"  ...................   ",
"  .+++++++++++++.+++@.  ",
"  .+###########+.+$%@.@ ",
"  .+++++++++++++.+&*@.@ ",
"  .+++++++++++++.@@@@.@ ",
"  ....&&&&&&&&&&......@ ",
"     .@@@@@@@@@@@@@@@.@ ",
"     .+++++++++++++++.@ ",
"     .++###########++.@ ",
"     .+++++++++++++++.@ ",
"     .+++++++++++++++.@ ",
"     .===============.@ ",
"     .==###########==.@ ",
"     .===============.@ ",
"     .+++++++++++++++.@ ",
"     .+++++++++++++++.@ ",
"     .++###########++.@ ",
"     .+++++++++++++++.@ ",
"     .................@ ",
"      @@@@@@@@@@@@@@@@@ ",
"                        "};
