/* XPM */
static char * tfwdbspinedit_xpm[] = {
"24 24 42 1",
" 	c None",
".	c #A7C2E6",
"+	c #4276C4",
"@	c #D3E1F3",
"#	c #BDD1EC",
"$	c #91B2DF",
"%	c #709BD6",
"&	c #7BA3D9",
"*	c #6493D2",
"=	c #9D9DA1",
"-	c #716F64",
";	c #F1EFE2",
">	c #FFFFFF",
",	c #F9F9F9",
"'	c #FCFCFC",
")	c #003C74",
"!	c #FEFEFF",
"~	c #FDFDFD",
"{	c #FFFAFF",
"]	c #386CBE",
"^	c #FCFDFF",
"/	c #E6E8F2",
"(	c #5B5C5F",
"_	c #FFFDFF",
":	c #FFFBFF",
"<	c #D9DAE7",
"[	c #FFFEFF",
"}	c #CAC8DB",
"|	c #FCFFFF",
"1	c #FBFFFF",
"2	c #FBFEFF",
"3	c #F9FEFF",
"4	c #FEFFFB",
"5	c #F9FBFF",
"6	c #FBFCFF",
"7	c #FDFEF9",
"8	c #FCFEF9",
"9	c #FDFDFB",
"0	c #FCFEFB",
"a	c #FCFFF2",
"b	c #FCFFF6",
"c	c #F8F8F8",
"                        ",
"   .++++++.             ",
" .++@ @#.$++.           ",
" +%$#@#.$&%*+           ",
" *++.#.$&%++*           ",
" ====================== ",
" =--------------------; ",
" =->>>>>>>>>,>>')))))>; ",
" =->>>>>>>>>>!>)~~~~~); ",
" =-{>>]]]]]>>^>)//(//); ",
" =-_:_>>>]]>>>>)<(((<); ",
" =-[>>>>]]>>>>>)}}}}}); ",
" =->>>>>]]>>>>>>)))))>; ",
" =-|>>>]]>>>>>>>)))))>; ",
" =-1>>>]]>>>>>>)~~~~~); ",
" =-23>>]]>>>>>>)/(((/); ",
" =-|>>>]]>>>>>>)<<(<<); ",
" =-4||^>>1156>>)}}}}}); ",
" =-789>^0a>>>>>b)))))c; ",
" =;;;;;;;;;;;;;;;;;;;;; ",
"                        ",
"                        ",
"                        ",
"                        "};
