/* XPM */
static char * tfwdblookupcombo_xpm[] = {
"24 24 34 1",
" 	c None",
".	c #A7C2E6",
"+	c #4276C4",
"@	c #776666",
"#	c #000000",
"$	c #D3E1F3",
"%	c #FFFFFF",
"&	c #BDD1EC",
"*	c #91B2DF",
"=	c #709BD6",
"-	c #7BA3D9",
";	c #6493D2",
">	c #4578C5",
",	c #777792",
"'	c #EBF0F8",
")	c #A4A3A4",
"!	c #DEDEDA",
"~	c #779AD2",
"{	c #AFC3E4",
"]	c #7B9DD3",
"^	c #71757A",
"/	c #FFFFFC",
"(	c #3F3F3E",
"_	c #AFB0B7",
":	c #ADC2E4",
"<	c #C7D5EC",
"[	c #A8BFE2",
"}	c #A1A3A3",
"|	c #797981",
"1	c #7A7A7A",
"2	c #787888",
"3	c #313133",
"4	c #BDBBBC",
"5	c #AEAEB7",
"                        ",
"   .++++++.    @#  #@   ",
" .++$%$&.*++.  @#  #@   ",
" +=*&$&.*-=;+    ##     ",
" ;++.&.*-=++;  ##  ##   ",
" ;-*++++++-=;  ##  ##   ",
" >-*&%$&.*-=+           ",
" ;>+&%,,,,,,,,,,,,,,,   ",
" ;-*++,%%'%)!%%%%,   ,  ",
" >-*&%,%~{]^/%%%%, ( ,_ ",
" ;>+&%,%:<[}!%%%%,   ,_ ",
" ;-*++,,,|11111112,,,,_ ",
" >-*&%$&.,%%%%%%%%%%%,_ ",
" .>+&%$&.,%333333333%,_ ",
"   .+++++,%%%%%%%%%%%,_ ",
"         ,44444444444,_ ",
"         ,43333333334,_ ",
"         ,44444444444,_ ",
"         ,%%%%%%%%%%%,_ ",
"         ,%333333333%,_ ",
"         ,%%%%%%%%%%%,_ ",
"         ,,,,,,,,,,,,,_ ",
"           555_________ ",
"                        "};
