/* XPM */
static char * TFWSpinEdit_xpm[] = {
"24 24 34 1",
" 	c None",
".	c #9D9DA1",
"+	c #716F64",
"@	c #F1EFE2",
"#	c #FFFFFF",
"$	c #F9F9F9",
"%	c #FCFCFC",
"&	c #003C74",
"*	c #FEFEFF",
"=	c #FDFDFD",
"-	c #FFFAFF",
";	c #386CBE",
">	c #FCFDFF",
",	c #E6E8F2",
"'	c #5B5C5F",
")	c #FFFDFF",
"!	c #FFFBFF",
"~	c #D9DAE7",
"{	c #FFFEFF",
"]	c #CAC8DB",
"^	c #FCFFFF",
"/	c #FBFFFF",
"(	c #FBFEFF",
"_	c #F9FEFF",
":	c #FEFFFB",
"<	c #F9FBFF",
"[	c #FBFCFF",
"}	c #FDFEF9",
"|	c #FCFEF9",
"1	c #FDFDFB",
"2	c #FCFEFB",
"3	c #FCFFF2",
"4	c #FCFFF6",
"5	c #F8F8F8",
"                        ",
"                        ",
"                        ",
"                        ",
"                        ",
" ...................... ",
" .++++++++++++++++++++@ ",
" .+#########$##%&&&&&#@ ",
" .+##########*#&=====&@ ",
" .+-##;;;;;##>#&,,',,&@ ",
" .+)!)###;;####&~'''~&@ ",
" .+{####;;#####&]]]]]&@ ",
" .+#####;;######&&&&&#@ ",
" .+^###;;#######&&&&&#@ ",
" .+/###;;######&=====&@ ",
" .+(_##;;######&,''',&@ ",
" .+^###;;######&~~'~~&@ ",
" .+:^^>##//<[##&]]]]]&@ ",
" .+}|1#>23#####4&&&&&5@ ",
" .@@@@@@@@@@@@@@@@@@@@@ ",
"                        ",
"                        ",
"                        ",
"                        "};
