/* XPM */
static char * customize_xpm[] = {
"24 24 167 2",
"  	c None",
". 	c #979793",
"+ 	c #BFC0BF",
"@ 	c #E1E1E0",
"# 	c #D1D2D1",
"$ 	c #A2A39F",
"% 	c #98A2AF",
"& 	c #949EAA",
"* 	c #C6C7C5",
"= 	c #E0E0E0",
"- 	c #E1E2E1",
"; 	c #9EA09B",
"> 	c #A5ADBB",
", 	c #C4D0DC",
"' 	c #BBC9D6",
") 	c #969EAC",
"! 	c #969894",
"~ 	c #DDDDDD",
"{ 	c #DEDEDE",
"] 	c #B9BAB8",
"^ 	c #B1BBC7",
"/ 	c #C5D1DE",
"( 	c #C3D0DD",
"_ 	c #C0CDDA",
": 	c #969FAC",
"< 	c #A0A19E",
"[ 	c #A1A39F",
"} 	c #E0E0DF",
"| 	c #E7E7E7",
"1 	c #C6C6C4",
"2 	c #99A1AE",
"3 	c #BFCAD4",
"4 	c #B7C3CF",
"5 	c #B8C3CF",
"6 	c #9DA6B2",
"7 	c #BEBEBB",
"8 	c #DBDCDB",
"9 	c #9F9F9D",
"0 	c #BBBDBA",
"a 	c #EEEEEE",
"b 	c #EDEDED",
"c 	c #C2C4C1",
"d 	c #9EA5B1",
"e 	c #B9C1CA",
"f 	c #B1BAC4",
"g 	c #A8B0BA",
"h 	c #ACADAA",
"i 	c #E6E6E6",
"j 	c #CCCDCB",
"k 	c #CDCECC",
"l 	c #E4E4E4",
"m 	c #DFDFDF",
"n 	c #D4D5D4",
"o 	c #9BA2AD",
"p 	c #BBC1C7",
"q 	c #A6ADB7",
"r 	c #9299A6",
"s 	c #D3D4D3",
"t 	c #EFEFEF",
"u 	c #D8D8D8",
"v 	c #D6D6D6",
"w 	c #99A0AA",
"x 	c #C0C5CB",
"y 	c #AAB0B9",
"z 	c #C8C9C8",
"A 	c #E7E7E6",
"B 	c #E0E1DF",
"C 	c #C7C8C6",
"D 	c #EBEBEB",
"E 	c #EAEAEA",
"F 	c #A7ADB5",
"G 	c #C2C7CD",
"H 	c #AFB5BD",
"I 	c #A0A29E",
"J 	c #E5E6E5",
"K 	c #ADB3BC",
"L 	c #C3C8CD",
"M 	c #B3B8C0",
"N 	c #5E7798",
"O 	c #A1AAB5",
"P 	c #B7BCC3",
"Q 	c #D8D9DD",
"R 	c #CBCBC9",
"S 	c #365E98",
"T 	c #7C9DC6",
"U 	c #7B9CC7",
"V 	c #5274A3",
"W 	c #AAB2BE",
"X 	c #CED0D3",
"Y 	c #C4C5C3",
"Z 	c #6D93C4",
"` 	c #5B86BD",
" .	c #517DB5",
"..	c #5980B4",
"+.	c #496893",
"@.	c #E2E2E2",
"#.	c #E5E5E5",
"$.	c #E9E9E9",
"%.	c #BDBEBC",
"&.	c #345D96",
"*.	c #6C93C3",
"=.	c #5A85BC",
"-.	c #6083AF",
";.	c #3E6599",
">.	c #4F77AC",
",.	c #27528F",
"'.	c #A3A4A0",
").	c #DDDEDD",
"!.	c #E1E1E1",
"~.	c #B7B8B4",
"{.	c #39609A",
"].	c #80A1CC",
"^.	c #6F8EB5",
"/.	c #3B6090",
"(.	c #4D76AD",
"_.	c #345D99",
":.	c #D9DAD9",
"<.	c #DBDBDB",
"[.	c #B1B2AF",
"}.	c #4B72A8",
"|.	c #7B9FCD",
"1.	c #A7BEDB",
"2.	c #7795BD",
"3.	c #395D8D",
"4.	c #4B75AC",
"5.	c #37619B",
"6.	c #A2A4A0",
"7.	c #D5D5D5",
"8.	c #D7D7D7",
"9.	c #AAACA9",
"0.	c #597FB5",
"a.	c #9EB9DA",
"b.	c #B7C9E2",
"c.	c #6288BA",
"d.	c #3A639E",
"e.	c #A1A3A1",
"f.	c #D0D0D0",
"g.	c #C9C9C9",
"h.	c #B8B8B8",
"i.	c #C7C7C7",
"j.	c #2A5390",
"k.	c #82A2CC",
"l.	c #A1BAD9",
"m.	c #3C6193",
"n.	c #436FA9",
"o.	c #416AA2",
"p.	c #A0A29F",
"q.	c #C8C8C8",
"r.	c #B5B5B5",
"s.	c #C6C6C5",
"t.	c #979995",
"u.	c #4D73A6",
"v.	c #5580B6",
"w.	c #40699E",
"x.	c #3D69A5",
"y.	c #4C77B0",
"z.	c #214377",
"A.	c #959693",
"B.	c #AFB0AF",
"C.	c #9DA09C",
"D.	c #244577",
"E.	c #4A6FA4",
"F.	c #4E77AD",
"G.	c #4D7BB5",
"H.	c #2D558D",
"I.	c #295189",
"J.	c #274E87",
"                                                ",
"                                                ",
"                .                               ",
"              + @ # $                 % &       ",
"                * = - ;             > , ' )     ",
"                ! ~ { ]           ^ / ( _ :     ",
"      < [         } | 1         2 3 4 5 6       ",
"      7 8 9     0 a b c         d e f g         ",
"      h i ~ j k l = m n       o p q r           ",
"        s t a a a a u m v   w x y               ",
"          z A B C A l D E F G H                 ",
"                  I J l K L M                   ",
"                    N O L P Q R                 ",
"                S T U V W X E a Y               ",
"              S Z `  ...+.- @.#.$.%.            ",
"            &.*.=.-.;.>.,.'.).m !.l ~.          ",
"          {.*.].^./.(._.    '.:.<.~ { [.        ",
"        }.|.1.2.3.4.5.        6.7.8.u 8.9.      ",
"      0.a.b.c.3.4.d.            e.f.g.h.i.      ",
"    j.k.l. .m.n.o.                p.q.r.s.t.    ",
"      u.v.w.x.y.z.                  A.B.C.      ",
"      D.E.F.G.H.                                ",
"          I.J.                                  ",
"                                                "};
