/* XPM */
static char * group_plus_xpm[] = {
"16 16 8 1",
" 	c None",
".	c #000000",
"+	c #FFFFFF",
"@	c #848484",
"#	c #0000FF",
"$	c #BDFF00",
"%	c #FFFF00",
"&	c #008484",
"                ",
" ....... .......",
" .+++++. .+++++.",
" .+@@@+. .+@@@+.",
" .+++++. .+++++.",
" .+@@@+.######+.",
" .+++++.#$+%+#+.",
"######+.######+.",
"#%+%+#.. .+++++.",
"######   ..#....",
"   &       &&   ",
"           &&   ",
"   & & & &&&&&& ",
"         &&&&&& ",
"           &&   ",
"           &&   "};
