/* XPM */
static char * group_minus_xpm[] = {
"16 16 7 1",
" 	c None",
".	c #000000",
"+	c #FFFFFF",
"@	c #848484",
"#	c #0000FF",
"$	c #FFFF00",
"%	c #FF0000",
"                ",
"                ",
"....... ....... ",
".+++++. .+++++. ",
".+@@@+. .+@@@+. ",
".+++++. .+++++. ",
".+######.+@@@+. ",
".+#+$+$#.+++++. ",
".+######.+######",
".+++++. ..#+$+$#",
"....#..   ######",
"            %   ",
"                ",
" %%%%%% % % %   ",
" %%%%%%         ",
"                "};
