/* XPM */
static char * TAnalogWatch_xpm[] = {
"20 11 6 1",
" 	c None",
".	c #808080",
"+	c #E9EA95",
"@	c #000000",
"#	c #FF0000",
"$	c #008000",
"     ..........     ",
"  ...+++++@++++...  ",
" .+++++++++++++#++. ",
".+++++$$+++++##++++.",
".+++++++$$+##++++++.",
".@++++++++@+++++++@.",
".++++++++@+++++++++.",
"..+++++++@++++++++..",
" ..+++++@++++++++.. ",
"  ....+@++@+++....  ",
"     ..........     "};
