/* XPM */
static char * TRingChart_xpm[] = {
"21 21 8 1",
" 	c None",
".	c #040404",
"+	c #0404FA",
"@	c #04FA04",
"#	c #04FAFA",
"$	c #FA0404",
"%	c #FA04FA",
"&	c #FAFA04",
"       .......       ",
"     ..$$$$$$$..     ",
"    .$$$$$$$$$$$.    ",
"   .$$$$$$$$$$$$..   ",
"  .%.$$$$$$$$$$.++.  ",
" .%%%.$$$$$$$$.++++. ",
" .%%%%.$$$$$$.+++++. ",
".%%%%%%.$...$.+++..#.",
".%%%%%%%.   .+...###.",
".%%%%%%.     .######.",
"........     .######.",
".@@@@@@.     .######.",
".@@@@@@@.   .#######.",
".@@@@@@@@...&.######.",
" .@@@@@@@.&&&&.####. ",
" .@@@@@@@.&&&&&.###. ",
"  .@@@@@@.&&&&&&.#.  ",
"   .@@@@.&&&&&&&&.   ",
"    .@@@.&&&&&&&.    ",
"     ..@.&&&&&..     ",
"       .......       "};
