/* XPM */
static char *DBCalcEdit[]={
"24 24 8 1",
"e c #000000",
"f c #000080",
"c c #008080",
"d c #00ffff",
". c #808000",
"# c #808080",
"a c #c0c0c0",
"b c #ffffff",
"........................",
".###############........",
".#a#baaaabaaaaa#........",
".###############........",
".#a#bbbbabbbbbb#........",
".#b#baababaaaab#........",
".#a#bbbbabbbbbb#........",
".#b#baababaaabb#........",
".#a#bbbbabbbbbb#........",
".#b#baababaaaab#........",
".#a#bbbcccccccccccccc...",
".#####cbdbdbdbdbdbdbce..",
"......cdeeeeeeeeccccfe..",
"......cbebbbbbbaccccfe..",
"......cdeaaaaaaaccccfe..",
"......cbccccccccccccfe..",
"......cdcebebebebebefe..",
"......cbccccccccccccfe..",
"......cdcebebebebbaefe..",
"......cbccccccccccccfe..",
"......ccfffffffffffffe..",
".......eeeeeeeeeeeeee...",
"........................",
"........................"};
