/* XPM */ 
static const unsigned char * tautopanel_xpm[] = {
"24 24 5 1",
" 	c None",
"!	c black",
"#	c #808080",
"$	c white",
"%	c #FF0000",
"                        ",
"                        ",
"  ###################   ",
"  #$$$$$$$$$$$$$$$$$ $  ",
"  #$                #$  ",
"  #$                #$  ",
"  #$                #$  ",
"  #$%%              #$  ",
"  #%  %       %     #$  ",
"  #%  %       %     #$  ",
"  #%  % %  % %%%   %%$  ",
"  #%%%% %  %  %   % #%  ",
"  #%  % %  %  %   % #%  ",
"  #%  % %  %  %   % #%  ",
"  #%  % %  %  %   % #%  ",
"  #%  %  %%%  %%   %%$  ",
"  #$                #$  ",
"  #$                #$  ",
"  #$                #$  ",
"  #$                #$  ",
"  # #################$  ",
"   $$$$$$$$$$$$$$$$$$$  ",
"                        ",
"                        "};