/* XPM */
static char *TCURRENCYEDIT[]={
"24 24 6 1",
". c None",
"a c #000000",
"d c #0000ff",
"# c #808080",
"c c #c0c0c0",
"b c #ffffff",
"........................",
"........................",
"........................",
"........................",
"#######################.",
"#aaaaaaaaaaaaaaaaaaaaab.",
"#abbbbbbbbbbbbbbbbbbbcb.",
"#abbbbbbbbbbbbbaabaabcb.",
"#abbbbbbbbbbbbbbbabbbcb.",
"#abbbbdbbbbbdbbbbabbbcb.",
"#abbbddddbbddbbbbabbbcb.",
"#abbdbdbbbbbdbbbbabbbcb.",
"#abbbdddbbbbdbbbbabbbcb.",
"#abbbbdbdbbbdbbbbabbbcb.",
"#abbddddbbbbdbbbbabbbcb.",
"#abbbbdbbbbdddbbbabbbcb.",
"#abbbbbbbbbbbbbaabaabcb.",
"#abbbbbbbbbbbbbbbbbbbcb.",
"#accccccccccccccccccccb.",
"#bbbbbbbbbbbbbbbbbbbbbb.",
"........................",
"........................",
"........................",
"........................"};
