/* XPM */
static char *TDualListDialog[]={
"24 24 7 1",
". c None",
"b c #000000",
"e c #000080",
"c c #0000ff",
"# c #808080",
"d c #c0c0c0",
"a c #ffffff",
"........................",
"........................",
".######################.",
".#abccccccccccccccbabab.",
".#bbbbbbbbbbbbbbbbbbbbb.",
".#dadadadadadadadadadab.",
".#adadadadadadadadadadb.",
".#dbbbbadad#dadbbbbadab.",
".#abaabbadab#dabaabbadb.",
".#dbaabdbadbb#dbaabdbab.",
".#abaabbbdabbdabaabbbdb.",
".#dbaaaabadbdadbaaaabab.",
".#abaeeabdadadabaeeabdb.",
".#dbaaaabadabadbaaaabab.",
".#abaeeabdabbdabaeeabdb.",
".#dbaaaaba#bbadbaaaabab.",
".#abaaaabda#bdabaaaabdb.",
".#dbbbbbbada#adbbbbbbab.",
".#adadadadadadadadadadb.",
".#dadadadadadadadadadab.",
".#adadadadadadadadadadb.",
".#bbbbbbbbbbbbbbbbbbbbb.",
"........................",
"........................"};
