/* XPM */
static char *TFolderLister[]={
"24 24 8 1",
". c None",
"a c #000000",
"c c #808080",
"# c #848484",
"f c #c0c0c0",
"e c #c6c6c6",
"b c #ffff00",
"d c #ffffff",
"....#a#.................",
".#a#aba#a#..............",
".ab#aba#ba...ccc........",
".##bbbbb##..cdddcc......",
"#aab#a#baa#cddddddcc....",
"abbbadabbbaddddddddda...",
"#aab#a#baa#dddddddda....",
"a##bbbbb##addddddda.....",
"eab#aba#baeddddddadcc...",
".#a#aba#a#dddddddaddda..",
"....#a#dddddddddaddda...",
"....cdfbaaddddddadda....",
"....cdbfbfaadddadda.....",
"....cdfbfcddaadadda.....",
"...cccccccccccccdaa.....",
"...cddddddddddcadaa.....",
"...cdfbfbfbfbfbacca.....",
"....cdfbfbfbfbfcaca.....",
"....cdbfbfbfbfbfaca.....",
".....cdbfbfbfbfbcaa.....",
".....ccccccccccccaa.....",
"......aaaaaaaaaaaaa.....",
"........................",
"........................"};
