/* XPM */
static char *TLoginDialog[]={
"24 24 6 1",
". c None",
"b c #000000",
"c c #0000ff",
"# c #808080",
"d c #c0c0c0",
"a c #ffffff",
"........................",
"........................",
".######################.",
".#abccccccccccccccbabab.",
".#bbbbbbbbbbbbbbbbbbbbb.",
".#adadadadadadadadadadb.",
".#dadadadadadadadadadab.",
".#adadadadadadadadadadb.",
".#dadadadadadadadadadab.",
".#adadadadadadadadadadb.",
".#dada#bbadadadadadadab.",
".#ada#b#bbadadadadadadb.",
".#dadbbdabbbbbbbbbbadab.",
".#adabbadbbbbbbbbbbdadb.",
".#dad#b#bbdadbbabbdadab.",
".#adad#bbdadabbdbbadadb.",
".#dadadddadadbbabbdadab.",
".#adadadadadadadadadadb.",
".#dadadadadadadadadadab.",
".#adadadadadadadadadadb.",
".#dadadadadadadadadadab.",
".#bbbbbbbbbbbbbbbbbbbbb.",
"........................",
"........................"};
