/* XPM */
static char *TPAGEMANAGER[]={
"24 24 8 1",
". c None",
"b c #000000",
"c c #000080",
"f c #00ffff",
"d c #800000",
"# c #808080",
"e c #ffff00",
"a c #ffffff",
"........................",
"........................",
".........##############.",
".........#aaaaaaaaaaaab.",
".......##############ab.",
".......#aaaaaaaaaaaabab.",
".....##############abab.",
".....#aaaaaaaaaaaababab.",
".....#acccccaddddababab.",
".....#aaaaaaadaadababab.",
".....#accccaadaadababab.",
".....#aaaaaaadaadababab.",
".....#abbbaaaddddababab.",
".bbbbbbeaebaaaaaaababbb.",
".bbbfbeabbbbbbbbaabab...",
".bbbfbaeaeaeaeaebabbb...",
".bbbfbeaeabbbbbbaab.....",
".bbbfbaeaeaeab###bb.....",
".bbbfbeaeabbb...........",
".bbbfbbeaeaeb...........",
".bebbb.bbbbb............",
".bbb....................",
"........................",
"........................"};
