/* XPM */
static char *TReportManager[]={
"24 24 9 1",
". c None",
"# c #000000",
"c c #0000ff",
"g c #808000",
"f c #808080",
"b c #c0c0c0",
"d c #ff00ff",
"e c #ffff00",
"a c #ffffff",
"........................",
"........................",
"......#########.........",
".....#aaaaaaaa#.........",
".....#a#####a#..........",
"....#aaaaaaaa#..........",
"....#a#####a####........",
"...#aaaaaaaa#b#b#.......",
"..##########b#b##.......",
".#bbbbbbbbbb#b#b#.......",
".#############bb#.......",
".#bccbbbbbbbb#b#d###....",
".#beebb###bbb#b##...#.#.",
".######eae######.....##.",
"..#bbf#aeaeaeae#....###.",
"...####eaeaeaeae###.....",
"......#aeae###########..",
"......#eae#ggggggggg#...",
"......#ae#ggggggggg#....",
"......#e#ggggggggg#.....",
"......##ggggggggg#......",
"......###########.......",
"........................",
"........................"};
