/* XPM */
static char *TRXAPPICON[]={
"24 24 9 1",
". c None",
"a c #000000",
"f c #800000",
"c c #808000",
"e c #808080",
"g c #c0c0c0",
"# c #ff0000",
"d c #ffff00",
"b c #ffffff",
"...........###..##...##.",
"............#..#..#.#..#",
"........a...#..#....#..#",
"......aabaa.#..#....#..#",
"....aabbcdda#..#..#.#..#",
"..aabbccccc###..##...##.",
".abbddddddddddda........",
".aaaaaaaaaaaaaaa..##b...",
".abddeebddeebdda...##b..",
"..cceeecceeeccc....###b.",
"..cbebbcbebbcbc.####d#..",
"..cdebbcdebbcee##d##d#b.",
"..cbebbcbebbcebfd#dd#b..",
"..cdebbcdebbcebbfbb##...",
".adddaadddaadebgbf###b..",
".aaaaaaaaaaaebbgegf#....",
".adbdbdbdbdebebegeea....",
".aaaaaaaaaebebeeaaaa....",
".........ebebeea........",
"........ebgbeea.........",
"........agbeea..........",
"........aeeaa...........",
".........aa.............",
"........................"};
