/* XPM */
static char *TRxCalendarGrid[]={
"24 24 5 1",
". c None",
"# c #000000",
"a c #00ffff",
"c c #800000",
"b c #ffffff",
"........................",
"........................",
"......###.....###.......",
".....#...#...#...#......",
"....##############......",
"....#a#aaaaaaaa#a##.....",
"....#aaaaaaaaaaaa##.....",
"....###############.....",
"....#bbbbbbbbbbbb##.....",
"....#bbbbbbbbbbbb##.....",
"....#bbbccbbbcbbb##.....",
"....#bbcbbcbccbbb##.....",
"....#bbbbcbbbcbbb##.....",
"....#bbbcbbbbcbbb##.....",
"....#bbcbbbbbcbbb##.....",
"....#bbccccbbcbbb##.....",
"....#bbbbbbbbbbbb##.....",
"....#bbbbbbbbbbbb##.....",
"....#bbbbbbbbbbbb##.....",
"....###############.....",
"......#############.....",
"........................",
"........................",
"........................"};
