/* XPM */
static char *TRXCLOCK[]={
"24 24 4 1",
". c None",
"# c #000000",
"b c #c0c0c0",
"a c #ff0000",
"........................",
"........................",
"........................",
"....##...........##.....",
"...#aa#..#####..#aa#....",
"..#aaa###bbbbb###aaa#...",
"..#aaa#bbbb#bbbb#aaa#...",
"...###bbbbb#bbbbb###....",
"....#bbb#bbbbb#bbb#.....",
"....#bbbbbb#bbbbbb#.....",
"...#bb#bbbb#bbbb#bb#....",
"...#bbbbbbb#bbbbbbb#....",
"...#b##bbbb#bbbb##b#....",
"...#bbbbbbbb#bbbbbb#....",
"...#bb#bbbbbb#bb#bb#....",
"....#bbbbbbbbbbbbb#.....",
"....#bbb#bbbbb#bbb#.....",
".....#bbbbb#bbbbb#......",
"......#bbbb#bbbb#.......",
".....####bbbbb####......",
"....###..#####..###.....",
"....##...........##.....",
"........................",
"........................"};
