/* XPM */
static char *TRXDICE[]={
"24 24 4 1",
". c None",
"# c #000000",
"b c #c0c0c0",
"a c #ffffff",
"........................",
"........................",
"........................",
"...........##...........",
".........##aa##.........",
".......##aa##aa##.......",
".....##aaaa##aaaa##.....",
"...##aaaaaaaaaaaaaa##...",
"...#b##aaaa##aaaa##a#...",
"...#bbb##aa##aa##aaa#...",
"...#bbbbb##aa##aa##a#...",
"...#bbbbbbb##aaaa##a#...",
"...#bbbbbbb#a##aaaaa#...",
"...#bbb##bb#a##aaaaa#...",
"...#bbb##bb#aaaaaaaa#...",
"...#bbbbbbb#aaaaa##a#...",
"...#bbbbbbb#aaaaa##a#...",
"...##bbbbbb#a##aaaa##...",
".....##bbbb#a##aa##.....",
".......##bb#aaa##.......",
".........###a##.........",
"...........##...........",
"........................",
"........................"};
