/* XPM */
static char *TRxDBGrid[]={
"24 24 10 1",
". c None",
"c c #000000",
"f c #008000",
"e c #00ffff",
"g c #800080",
"# c #808080",
"a c #c0c0c0",
"d c #ff0000",
"h c #ff00ff",
"b c #ffffff",
"........................",
".###############........",
".#a#baaaabaaaaa#........",
".###############........",
".#a#bbbbabbbbbb#........",
".#b#baababaaaab#........",
".#a#bbbbabbbbbb#........",
".#b#baababaaabb#........",
".#a#bbbbabbbbbb#........",
".#b#baababaaaab#........",
".#a#bcccccccccccccccccc.",
".####cacbaaaaabaaaaaaac.",
".....cccccccccccccccccc.",
".....cacbbbbbabbbbbbbbc.",
".....cbcaaaaaaaaaaaaaac.",
".....cacbbbbbabbbbbbbbc.",
".....ccccdddddddddddddc.",
".....cbebcbbbabbbbbbbbc.",
".cccccebecddddddddddddc.",
".cfffcbebccbbabbbbbbbbc.",
".cfffcccccgcaaaaaaaaaac.",
".cfffcbcbchgcabbbbbbbbc.",
".cccccccccghgcccccccccc.",
".........cccccc........."};
