/* XPM */
static char *TRxDBLookupCombo[]={
"24 24 8 1",
". c None",
"# c #000000",
"c c #000080",
"e c #800000",
"f c #808080",
"d c #c0c0c0",
"b c #ff0000",
"a c #ffffff",
"..##....................",
".#aa#b.........c........",
"#daaa#b.......cc........",
"#ddaaa#......cccccccc...",
".#ddaaa##.....cc.....c..",
"..#ddaaaa###...c.....c..",
"...#ddaabbbb#........c..",
"....#ddebbb#.........c..",
"..c.#feeeb#d###########.",
"..c..#eef#daaaaaaa#aad#.",
"..c..#ef#dccccccca#a#d#.",
"..c..#e#daaaaaaaaa#ddd#.",
"..c...#.###############.",
"..c.....#aaaaaaaaaaaaa#.",
"..c.....#acccccccccaaa#.",
"..c.c...#ccccccccccccc#.",
"..c.cc..#caaaaaaaaaacc#.",
"...cccc.#ccccccccccccc#.",
"....cc..#acccccccccaaa#.",
"....c...#aaaaaaaaaaaaa#.",
"........#accccccccccaa#.",
"........#aaaaaaaaaaaaa#.",
"........###############.",
"........................"};
