/* XPM */
static char *TRxDbLookupList[]={
"24 24 8 1",
". c None",
"# c #000000",
"c c #000080",
"e c #800000",
"f c #808080",
"d c #c0c0c0",
"b c #ff0000",
"a c #ffffff",
"..##....................",
".#aa#b.........c........",
"#daaa#b.......cc........",
"#ddaaa#......ccccccc....",
".#ddaaa##.....cc....c...",
"..#ddaaaa###...c....c...",
"...#ddaabbbb#.......c...",
"....#ddebbb#........c...",
"..c.#feeeb#d###########.",
"..c..#eef#aaaaaaaa#aad#.",
"..c..#ef#dcccccaaa#a#d#.",
"..c..#e#aaaaaaaaaa#ddd#.",
"..c...#daaccccccaa#####.",
"..c....#aaaaaaaaaa#ddd#.",
"..c....#accccccaaa#ddd#.",
"..c.c..#cccccccccc#ddd#.",
"..c.cc.#caaaaaaacc#ddd#.",
"...cccc#cccccccccc#ddd#.",
"....cc.#accccccaaa#####.",
"....c..#aaaaaaaaaa#add#.",
".......#acccccccaa#a#d#.",
".......#aaaaaaaaaa#ddd#.",
".......################.",
"........................"};
