/* XPM */
static char *TRxDBComboEdit[]={
"24 24 5 1",
". c None",
"c c #000000",
"# c #808080",
"a c #c0c0c0",
"b c #ffffff",
"........................",
".###############........",
".#a#baaaabaaaaa#........",
".###############........",
".#a#bbbbabbbbbb#........",
".#b#baababaaaab#........",
".#a#bbbbabbbbbb#........",
".#b#baababaaabb#........",
".#a#bbbbabbbbbb#........",
".#b#baababaaaab#........",
".#a#bbbbabbbbbb#........",
".######################.",
"..#cccccccccccccccccccb.",
"..#cbbbbbbbbbabbbbbbbab.",
"..#cbbbbbbbbbabaaaaa#ab.",
"..#cbbbbbbbbbabaaaaa#ab.",
"..#cbbbbbbbbbabac#ca#ab.",
"..#cbbbbbbbbbabaaaaa#ab.",
"..#cbbbbbbbbbabaaaaa#ab.",
"..#cbbbbbbbbbab######ab.",
"..#caaaaaaaaaaaaaaaaaab.",
"..#bbbbbbbbbbbbbbbbbbbb.",
"........................",
"........................"};
