/* XPM */
static char *TRxDBCalcEdit_xpm[]={
"18 18 8 1",
"# c None",
"e c #000000",
"f c #000080",
"c c #008080",
"d c #00ffff",
". c #808080",
"a c #c0c0c0",
"b c #ffffff",
"...............###",
".a.baaaabaaaaa.###",
"...............###",
".a.bbbbabbbbbb.###",
".b.baababaaaab.###",
".a.bbbbabbbbbb.###",
".bbcccccccccccccc#",
".acbdbdbdbdbdbdbce",
".bcdeeeeeeeeccccfe",
".acbebbbbbbaccccfe",
"..cdeaaaaaaaccccfe",
"##cbccccccccccccfe",
"##cdcebebebebebefe",
"##cbccccccccccccfe",
"##cdcebebebebbaefe",
"##cbccccccccccccfe",
"##ccfffffffffffffe",
"###eeeeeeeeeeeeee#"};
