/* XPM */
static char *TRXDBCOMBOBOX[]={
"24 24 6 1",
". c None",
"c c #000000",
"d c #000080",
"# c #808080",
"a c #c0c0c0",
"b c #ffffff",
"........................",
".###############........",
".#a#baaaabaaaaa#........",
".###############........",
".#a#bbbbabbbbbb#........",
".#b#baababaaaab#........",
".#a#bbbbabbbbbb#........",
".#b#baababaaabb#........",
".#a#bbccccccccccccccccc.",
".#b#bacbbbbbbbbbbbcbbac.",
".#a#bbcbdddddddddbcbcac.",
".#####cbbbbbbbbbbbcaaac.",
"......ccccccccccccccccc.",
"...d....cbbbbbbbbbbbbbc.",
"..ddd...cbbddddddddbbbc.",
".ddddd..cdddddddddddddc.",
"...d....cddbbbbbbbbbddc.",
"...d....cdddddddddddddc.",
"...d....cbbddddddddbbbc.",
"...d....cbbbbbbbbbbbbbc.",
"...dddd.cbbdddddddddbbc.",
"........cbbbbbbbbbbbbbc.",
"........ccccccccccccccc.",
"........................"};
