/* XPM */
static char *TRxFolderMonitor[]={
"24 24 6 1",
". c None",
"b c #000000",
"# c #808080",
"c c #c0c0c0",
"d c #ffff00",
"a c #ffffff",
"........................",
"........................",
".............###........",
"............#aaa##......",
"...........#aaaaaa##....",
"..........#aaaaaaaaab...",
"..........#aaaaaaaab....",
".........#aaaaaaaab.....",
".........#aaaaaaaba##...",
"......###aaaaaaaabaaab..",
".....#aa#aaaaaaabaaab...",
"....#acdbbaaaaaabaab....",
"....#adcdcbbaaabaab.....",
"....#acdc#aabbabaab.....",
"...#############abb.....",
"...#aaaaaaaaaa#babb.....",
"...#acdcdcdcdcdb##b.....",
"....#acdcdcdcdc#b#b.....",
"....#adcdcdcdcdcb#b.....",
".....#adcdcdcdcd#bb.....",
".....############bb.....",
"......bbbbbbbbbbbbb.....",
"........................",
"........................"};
