/* XPM */
static char *TRXLookUpEdit[]={
"24 24 7 1",
". c None",
"# c #000000",
"e c #800000",
"c c #808080",
"d c #c0c0c0",
"b c #ff0000",
"a c #ffffff",
"..##....................",
".#aa#b..ccccccccccccccc.",
"#daaa#b.cdcaddddadddddc.",
"#ddaaa#.ccccccccccccccc.",
".#ddaaa##dcaaaadaaaaaac.",
"..#ddaaaa###ddadaddddac.",
"...#ddaabbbb#aadaaaaaac.",
"....#ddebbb#ddadadddaac.",
"....#ceeeb#aaaadaaaaaac.",
".....#eec#caddadaddddac.",
".....#ec#dcaaaadaaaaaac.",
".....#e#ccccccccccccccc.",
"......#.................",
"..ccccccccccccccccccccc.",
"..c###################a.",
"..c#aaaaaaaaaadaaaaaada.",
"..c#aaaaaaaaaadaddddcda.",
"..c#aaaaaaaaaadad##dcda.",
"..c#aaaaaaaaaadaddddcda.",
"..c#aaaaaaaaaadacccccda.",
"..c#dddddddddddddddddda.",
"..caaaaaaaaaaaaaaaaaaaa.",
"........................",
"........................"};
