/* XPM */
static char *TRXLABEL[]={
"24 24 3 1",
". c None",
"# c #000000",
"a c #ffffff",
"........................",
"........................",
"........................",
"........................",
"........................",
"........................",
".........####aa.........",
"..........####aa........",
".........#####aa........",
".........##a###aa.......",
"........##aa.##aa.......",
"........##aa.###aa......",
".......##aa...##aa......",
".......##########aa.....",
"......##aaaaaaa##aa.....",
"......##aa.....###aa....",
".....##aa.......##aa....",
"....####aa.....####aa...",
".....aaaaa......aaaaa...",
"........................",
"........................",
"........................",
"........................",
"........................"};
