/* XPM */
static char *TRxMemoryData[]={
"24 24 6 1",
". c None",
"# c #000000",
"c c #000080",
"d c #808080",
"a c #c0c0c0",
"b c #ffffff",
"........................",
"####################....",
"#a#baaaaaabaaaaaaaa#....",
"####################....",
"#a#bbbbbbabbbbbbbbb#....",
"#b#bccccbabcccccccb#....",
"#a#bbbbbbabbbbbbbbb#....",
"#b#bccccbabccccccbb#....",
"#a#bbbbbbabbbbbbbbb#....",
"#b#bccccbabccccccbb#....",
"#a#bbbbbbabbbbbbb###....",
"#b#bccccbabcbbb#daa#....",
"#a#bbbbbbabbb#daaaaa#...",
"#b#bccccbab#daaaaaaaa#..",
"#a#bbbbbb#daaaaaaaaaad#.",
"#b#bcccbdaaaaaaaaaaddd#.",
"#a#bbbbdbaaaaaaaaddd#a#.",
"########abaaaaaddd#ad#..",
"........#dbaaddd#ad#.#..",
".........#dbdd#ad#.#....",
"..........#a#ad#.#......",
"...........#d#.#........",
".............#..........",
"........................"};
