/* XPM */
static char *TRXSWITCH[]={
"24 24 5 1",
". c None",
"# c #000000",
"b c #808080",
"c c #ff0000",
"a c #ffffff",
"........................",
"........................",
".....##############.....",
".....##############.....",
".....###aaaaaaa#b##.....",
".....##aaaaaaa#bb##.....",
".....#aaaaaaa#bbb##.....",
".....#########bbb##.....",
".....#aaaaaaa#bbb##.....",
".....#aaaaaaaa#bb##.....",
".....##aaaaaaa#bb##.....",
".....##aaaaaaaa#b##.....",
".....###########b##.....",
".....##aaaaaaaa#b##.....",
".....##a######a#b##.....",
".....##a#cccc#a#b##.....",
".....##a######a#b##.....",
".....##aaaaaaaa#b##.....",
".....###########b##.....",
".....###bbbbbbbb###.....",
".....##############.....",
".....##############.....",
"........................",
"........................"};
