/* XPM */
static char *TSECRETPANEL[]={
"24 24 11 1",
". c None",
"# c #000000",
"d c #000080",
"i c #0000ff",
"e c #008000",
"g c #800000",
"a c #808080",
"b c #c0c0c0",
"h c #ff0000",
"f c #ffff00",
"c c #ffffff",
"........................",
"........................",
".######################.",
".#aaaaaaaaaaaaaaaaaaab#.",
".#aaaaaaaaaaaaaaaaaacc#.",
".#aabbbbbbbbbbbbbbbbcc#.",
".#aabbbbbd#dbbbbbbbbcc#.",
".#aabbbbdefedbbbbbbbcc#.",
".#aabbbb#fff#aabbbbbcc#.",
".#aabbbbdefedbb##bbbcc#.",
".#aabbbbbd#dbbbggbbbcc#.",
".#aabbbbabbbbb#hh#bbcc#.",
".#aabbbbabbbbb#hh#bbcc#.",
".#aabb#####bb#hhhh#bcc#.",
".#aabb#iii#bb######bcc#.",
".#aabb#iii#aabbbbbbbcc#.",
".#aabb#iii#bbbbbbbbbcc#.",
".#aabb#####bbbbbbbbbcc#.",
".#aabbbbbbbbbbbbbbbbcc#.",
".#accccccccccccccccccc#.",
".#bccccccccccccccccccc#.",
".######################.",
"........................",
"........................"};
