/* XPM */
static char *TToolPanel[]={
"24 24 10 1",
". c None",
"# c #000000",
"h c #000080",
"d c #0000ff",
"f c #008000",
"b c #808080",
"c c #c0c0c0",
"e c #ff0000",
"g c #ff00ff",
"a c #ffffff",
"........................",
"########################",
"aaaaab#aaaaab#aaaaab#ccc",
"accccb#accccb#accccb#ccc",
"adeecb#afffcb#a#eecb#ccc",
"adddcb#afggcb#ahhhcb#ccc",
"accccb#accccb#accccb#ccc",
"bbbbbb#bbbbbb#bbbbbb#ccc",
"########################",
"....................dd..",
".#################.dddd.",
".#a#ddddddddd#a#a#dddddd",
".#################..dd..",
".#ccccccccccccccc#..dd..",
".#c####c#######cc#..dd..",
".#c#aa#c#aaaaa#cc#..dd..",
".#c#aa#c#aaaaa#cc#..dd..",
".#c#aa#c#aaaaa#ddddddd..",
".#c#aa#c#aaaaa#ddddddd..",
".#c#aa#c#aaaaa#cc#......",
".#c####c#######cc#......",
".#ccccccccccccccc#......",
".#################......",
"........................"};
